<svg width="18" height="18" viewBox="0 0 18 18" fill="none" xmlns="http://www.w3.org/2000/svg">
<g id="verified-check-svgrepo-com 1">
<path id="Vector" fill-rule="evenodd" clip-rule="evenodd" d="M7.1943 2.4002C7.01166 2.55585 6.92033 2.63369 6.8228 2.69906C6.59922 2.84891 6.34813 2.95291 6.08408 3.00504C5.96888 3.02779 5.84927 3.03733 5.61006 3.05642C5.00903 3.10439 4.7085 3.12836 4.45778 3.21692C3.87788 3.42175 3.42175 3.87788 3.21692 4.45778C3.12836 4.7085 3.10439 5.00903 3.05642 5.61006C3.03733 5.84927 3.02779 5.96888 3.00504 6.08408C2.95291 6.34813 2.84891 6.59922 2.69906 6.8228C2.63369 6.92033 2.55586 7.01165 2.4002 7.1943C2.00912 7.65323 1.81358 7.88265 1.69892 8.12258C1.43369 8.6775 1.43369 9.3225 1.69892 9.87743C1.81358 10.1174 2.00912 10.3468 2.4002 10.8057C2.55584 10.9883 2.63369 11.0797 2.69906 11.1772C2.84891 11.4008 2.95291 11.6519 3.00504 11.9159C3.02779 12.0311 3.03733 12.1508 3.05642 12.3899C3.10439 12.991 3.12836 13.2915 3.21692 13.5422C3.42175 14.1221 3.87788 14.5783 4.45778 14.7831C4.7085 14.8716 5.00903 14.8956 5.61006 14.9436C5.84927 14.9627 5.96888 14.9722 6.08408 14.995C6.34813 15.0471 6.59922 15.1511 6.8228 15.301C6.92033 15.3663 7.01165 15.4441 7.1943 15.5998C7.65323 15.9909 7.88265 16.1864 8.12258 16.3011C8.6775 16.5663 9.3225 16.5663 9.87743 16.3011C10.1174 16.1864 10.3468 15.9909 10.8057 15.5998C10.9883 15.4441 11.0797 15.3663 11.1772 15.301C11.4008 15.1511 11.6519 15.0471 11.9159 14.995C12.0311 14.9722 12.1508 14.9627 12.3899 14.9436C12.991 14.8956 13.2915 14.8716 13.5422 14.7831C14.1221 14.5783 14.5783 14.1221 14.7831 13.5422C14.8716 13.2915 14.8956 12.991 14.9436 12.3899C14.9627 12.1508 14.9722 12.0311 14.995 11.9159C15.0471 11.6519 15.1511 11.4008 15.301 11.1772C15.3663 11.0797 15.4441 10.9883 15.5998 10.8057C15.9909 10.3468 16.1864 10.1174 16.3011 9.87743C16.5663 9.3225 16.5663 8.6775 16.3011 8.12258C16.1864 7.88265 15.9909 7.65323 15.5998 7.1943C15.4441 7.01165 15.3663 6.92033 15.301 6.8228C15.1511 6.59922 15.0471 6.34813 14.995 6.08408C14.9722 5.96888 14.9627 5.84927 14.9436 5.61006C14.8956 5.00903 14.8716 4.7085 14.7831 4.45778C14.5783 3.87788 14.1221 3.42175 13.5422 3.21692C13.2915 3.12836 12.991 3.10439 12.3899 3.05642C12.1508 3.03733 12.0311 3.02779 11.9159 3.00504C11.6519 2.95291 11.4008 2.84891 11.1772 2.69906C11.0797 2.63369 10.9883 2.55586 10.8057 2.4002C10.3468 2.00912 10.1174 1.81358 9.87743 1.69892C9.3225 1.43369 8.6775 1.43369 8.12258 1.69892C7.88265 1.81358 7.65323 2.00912 7.1943 2.4002ZM12.2801 7.39736C12.5185 7.15898 12.5185 6.7725 12.2801 6.53412C12.0418 6.29575 11.6552 6.29575 11.4169 6.53412L7.77923 10.1718L6.5831 8.9757C6.34472 8.73735 5.95824 8.73735 5.71987 8.9757C5.4815 9.21405 5.4815 9.60053 5.71987 9.83895L7.34759 11.4667C7.58595 11.705 7.97243 11.705 8.21085 11.4667L12.2801 7.39736Z" fill="#00962A"/>
</g>
</svg>
