<svg width="25" height="24" viewBox="0 0 25 24" fill="none" xmlns="http://www.w3.org/2000/svg">
<g id="add-circle-svgrepo-com 2">
<path id="Subtract" fill-rule="evenodd" clip-rule="evenodd" d="M12.5 1.25C6.56294 1.25 1.75 6.06294 1.75 12C1.75 17.9371 6.56294 22.75 12.5 22.75C18.4371 22.75 23.25 17.9371 23.25 12C23.25 6.06294 18.4371 1.25 12.5 1.25ZM13.2501 9C13.2501 8.58579 12.9143 8.25 12.5001 8.25C12.0858 8.25 11.7501 8.58579 11.7501 9V11.25H9.50006C9.08585 11.25 8.75006 11.5858 8.75006 12C8.75006 12.4142 9.08585 12.75 9.50006 12.75H11.7501V15C11.7501 15.4142 12.0858 15.75 12.5001 15.75C12.9143 15.75 13.2501 15.4142 13.2501 15V12.75H15.5001C15.9143 12.75 16.2501 12.4142 16.2501 12C16.2501 11.5858 15.9143 11.25 15.5001 11.25H13.2501V9Z" fill="white"/>
</g>
</svg>
