<svg width="35" height="24" viewBox="0 0 35 24" fill="none" xmlns="http://www.w3.org/2000/svg">
<g id="add-circle-svgrepo-com 2">
<path id="Subtract" fill-rule="evenodd" clip-rule="evenodd" d="M17.7499 1.25C11.8129 1.25 6.99994 6.06294 6.99994 12C6.99994 17.9371 11.8129 22.75 17.7499 22.75C23.687 22.75 28.4999 17.9371 28.4999 12C28.4999 6.06294 23.687 1.25 17.7499 1.25ZM18.5 9C18.5 8.58579 18.1642 8.25 17.75 8.25C17.3358 8.25 17 8.58579 17 9V11.25H14.75C14.3358 11.25 14 11.5858 14 12C14 12.4142 14.3358 12.75 14.75 12.75H17V15C17 15.4142 17.3358 15.75 17.75 15.75C18.1642 15.75 18.5 15.4142 18.5 15V12.75H20.75C21.1642 12.75 21.5 12.4142 21.5 12C21.5 11.5858 21.1642 11.25 20.75 11.25H18.5V9Z" fill="#0277FA"/>
</g>
</svg>
