<svg width="24" height="24" viewBox="0 0 24 24" fill="none" xmlns="http://www.w3.org/2000/svg">
<g id="location">
<path id="Vector (Stroke)" fill-rule="evenodd" clip-rule="evenodd" d="M8.88558 3.36261C11.8283 0.545796 16.5864 0.545795 19.5291 3.36261C22.4903 6.19714 22.4903 10.807 19.5291 13.6415L11.581 21.2495C9.49098 23.2502 6.11531 23.2502 4.02525 21.2495C1.91667 19.2312 1.91669 15.9446 4.02526 13.9263L11.859 6.42772L12.3776 6.96951L11.859 6.42771C13.0964 5.24325 15.0896 5.24325 16.327 6.42771C17.5829 7.62988 17.5829 9.59315 16.327 10.7953C16.327 10.7953 16.327 10.7953 16.327 10.7953L8.43611 18.3486C8.13689 18.635 7.66213 18.6246 7.37571 18.3254C7.08928 18.0262 7.09966 17.5514 7.39889 17.265L15.2898 9.71171L15.2898 9.71169C15.9287 9.1002 15.9287 8.12285 15.2898 7.5113C14.6324 6.88205 13.5536 6.88205 12.8962 7.5113L5.06248 15.0099L5.06248 15.0099C3.57095 16.4376 3.57095 18.7382 5.06248 20.1659L5.0625 20.1659C6.57252 21.6114 9.03377 21.6114 10.5438 20.1659L10.5438 20.1659L18.4919 12.5579C20.8361 10.314 20.8361 6.6901 18.4919 4.4462C16.1292 2.1846 12.2855 2.1846 9.9228 4.4462L3.51861 10.5764C3.21939 10.8628 2.74463 10.8524 2.45821 10.5532C2.17179 10.254 2.18216 9.77923 2.48139 9.49281L8.88558 3.36261Z" fill="#0079FF"/>
</g>
</svg>
