<svg xmlns="http://www.w3.org/2000/svg" width="15" height="15" viewBox="0 0 15 15">
    <path data-name="Rectangle 1048" style="fill:none" d="M0 0h15v15H0z"/>
    <path data-name="Path 12305" d="M7.5 3.75a2.5 2.5 0 1 0 2.5 2.5 2.5 2.5 0 0 0-2.5-2.5zm0 3.75a1.25 1.25 0 1 1 1.25-1.25A1.25 1.25 0 0 1 7.5 7.5z" transform="translate(.001 .001)" style="fill:#343f53"/>
    <path data-name="Path 12306" d="M7.5 15a3.294 3.294 0 0 1-2.694-1.375c-2.382-3.285-3.59-5.755-3.59-7.341a6.284 6.284 0 0 1 12.568 0c0 1.586-1.208 4.056-3.59 7.341A3.294 3.294 0 0 1 7.5 15zm0-13.636a4.926 4.926 0 0 0-4.921 4.92c0 1.256 1.183 3.579 3.33 6.541a1.965 1.965 0 0 0 3.181 0c2.147-2.962 3.33-5.285 3.33-6.541A4.926 4.926 0 0 0 7.5 1.363z" transform="translate(.001 .001)" style="fill:#343f53"/>
</svg>
