<svg data-name="america flag" xmlns="http://www.w3.org/2000/svg" width="31" height="22" viewBox="0 0 31 22">
    <path data-name="Rectangle 1230" style="fill:none" d="M0 0h31v22H0z"/>
    <g data-name="Group 2176">
        <g data-name="Group 2175">
            <path data-name="Rectangle 1231" transform="translate(0 19.748)" style="fill:#d62234" d="M0 0h31v1.591H0z"/>
            <path data-name="Rectangle 1232" transform="translate(0 18.157)" style="fill:#fff" d="M0 0h31v1.591H0z"/>
            <path data-name="Rectangle 1233" transform="translate(0 16.571)" style="fill:#d62234" d="M0 0h31v1.591H0z"/>
            <path data-name="Rectangle 1234" transform="translate(0 14.98)" style="fill:#fff" d="M0 0h31v1.591H0z"/>
            <path data-name="Rectangle 1235" transform="translate(0 13.389)" style="fill:#d62234" d="M0 0h31v1.591H0z"/>
            <path data-name="Rectangle 1236" transform="translate(0 11.798)" style="fill:#fff" d="M0 0h31v1.591H0z"/>
            <path data-name="Rectangle 1237" transform="translate(0 10.208)" style="fill:#d62234" d="M0 0h31v1.591H0z"/>
            <path data-name="Rectangle 1238" transform="translate(0 8.617)" style="fill:#fff" d="M0 0h31v1.591H0z"/>
            <path data-name="Rectangle 1239" transform="translate(0 7.026)" style="fill:#d62234" d="M0 0h31v1.591H0z"/>
            <path data-name="Rectangle 1240" transform="translate(0 5.435)" style="fill:#fff" d="M0 0h31v1.591H0z"/>
            <path data-name="Rectangle 1241" transform="translate(0 3.844)" style="fill:#d62234" d="M0 0h31v1.591H0z"/>
            <path data-name="Rectangle 1242" transform="translate(0 2.253)" style="fill:#fff" d="M0 0h31v1.591H0z"/>
            <path data-name="Rectangle 1243" transform="translate(0 .662)" style="fill:#d62234" d="M0 0h31v1.591H0z"/>
        </g>
        <path data-name="Rectangle 1244" transform="translate(0 .662)" style="fill:#002b82" d="M0 0h15.904v11.137H0z"/>
        <path data-name="Path 12680" d="M8.826 4.762h.541l-.441.32.168.515-.441-.32-.441.32.168-.515-.441-.32h.541l.168-.515zm3.891-1.171-.168-.515-.168.515h-.541l.441.32-.168.515.441-.32.441.32-.168-.515.441-.32zm-1.4.656-.168.515h-.541l.441.32-.168.515.441-.32.441.32-.168-.515.441-.32h-.541zM6 4.248l-.168.515h-.539l.441.32-.168.517.441-.32.441.32-.168-.517.441-.32H6.18zm3.892-1.171-.168.515h-.541l.441.32-.168.515.441-.32.441.32-.168-.515.441-.32h-.541zm-2.652 0-.168.515h-.54l.441.32-.173.514.441-.32.441.32-.168-.515.441-.32h-.536zm2.82 2.767-.168-.515-.168.515h-.541l.441.32-.168.515.441-.32.441.32-.168-.515.441-.32zM4.584 3.077l-.168.515h-.541l.441.32-.168.515.441-.32.441.32-.168-.515.441-.32h-.551zm2.825 2.767-.168-.515-.168.515h-.541l.441.32-.173.515.441-.32.441.32-.168-.515.441-.32zm5.308 0-.168-.515-.168.515h-.541l.441.32-.168.515.441-.32.441.32-.168-.515.441-.32zM3.35 4.248l-.168.515h-.546l.441.32-.168.517.441-.32.441.32-.168-.515.441-.32h-.546zm1.4 1.6-.168-.515-.168.515h-.539l.441.32-.168.515.441-.32.441.32-.168-.515.441-.32zM7.409 8.1l-.168-.515-.168.515h-.541l.441.32-.173.511.441-.32.441.32-.168-.515.446-.316zm6.726-3.334-.168-.515-.168.515h-.541l.441.32-.168.515.441-.32.441.32-.168-.515.441-.32zm0 2.316-.168-.515-.168.515h-.541l.441.32-.168.515.441-.32.441.32-.168-.517.441-.32zm.63-4.9.441-.32.441.32-.168-.515.441-.32h-.541L15.211.83l-.168.515H14.5l.441.32zm-1.065.585-.168.515.441-.32.441.32-.168-.515.441-.32h-.541l-.168-.515-.168.515h-.541zM12.717 8.1l-.168-.515-.168.515h-.541l.441.32-.168.515.441-.32.441.32-.168-.515.441-.32zm-2.657 0-.168-.515-.168.515h-.541l.441.32-.168.515.441-.32.441.32-.168-.515.441-.32zm-5.308 0-.168-.515-.168.515h-.541l.441.32-.168.515.441-.32.441.32-.168-.515.438-.32zM6.17 7.078 6 6.563l-.168.515h-.539l.441.32-.168.515.441-.32.441.32L6.28 7.4l.441-.32zm5.314 0-.168-.515-.168.515h-.541l.441.32-.168.515.441-.32.441.32-.169-.513.441-.32zm-7.965 0-.169-.515-.168.515h-.546l.441.32-.168.515.441-.32.441.32-.168-.513.441-.32zm5.308 0-.168-.515-.168.515H7.95l.441.32-.168.515.441-.32.441.32-.168-.513.441-.32zm3.287-4.9.441-.32.441.32-.168-.515.441-.32h-.541L12.56.83l-.168.515h-.541l.441.32zm.6 8.17-.168-.515-.168.515h-.538l.441.32-.168.515.441-.32.441.32-.168-.515.441-.32zm-3.35-.956h-.538l-.168-.515-.168.515h-.54l.441.32-.168.515.441-.32.441.32-.168-.515zm2.657 0h-.541l-.168-.515-.168.515h-.541l.441.32-.168.515.441-.32.441.32-.168-.515zm-1.964.956-.168-.515-.168.515h-.538l.441.32-.168.515.441-.32.441.32-.168-.515.441-.32zM6.71 9.393h-.54L6 8.879l-.168.515h-.539l.441.32-.168.515.441-.32.441.32-.168-.515zm4.332-6.626-.168.515.441-.32.441.32-.168-.515.441-.32h-.541l-.168-.515-.168.515h-.546zm3.633 6.626h-.541l-.168-.515-.168.515h-.541l.441.32-.168.515.441-.32.441.32-.168-.515zm.53-6.317-.168.515H14.5l.441.32-.168.515.441-.32.441.32-.168-.515.441-.32h-.541zm0 2.253-.168.515H14.5l.441.32-.168.515.441-.32.441.32-.168-.515.441-.32h-.541zm-10.453 5.02-.168-.515-.168.515h-.541l.441.32-.168.515.441-.32.441.32-.168-.515.441-.32zm10.622 0-.168-.515-.168.515H14.5l.441.32-.168.515.441-.32.441.32-.168-.515.441-.32zm-.168-2.767-.168.515H14.5l.441.32-.168.515.441-.32.441.32-.168-.515.441-.32h-.541zm-7.8 2.767-.168-.515-.168.515h-.538l.441.32-.168.515.441-.32.441.32-.168-.515.441-.32zM3.077 2.767l-.168.515.441-.32.441.32-.168-.515.441-.32h-.546l-.168-.515-.168.515h-.546zm1.071-.588.441-.32.441.32-.168-.515.441-.32h-.551L4.584.83l-.168.515h-.541l.441.32zm2.652 0 .441-.32.441.32-.168-.515.441-.32h-.541L7.246.83l-.168.515h-.541l.441.32zm-1.066.588-.168.515.441-.32.441.32-.168-.515.441-.32H6.18l-.168-.515-.168.515H5.3zm3.723-.588.441-.32.441.32-.168-.515.441-.32h-.541L9.9.83l-.168.515h-.538l.441.32zm-1.071.588-.168.515.441-.32.441.32-.168-.515.441-.32h-.541l-.168-.515-.164.515h-.545zM4.059 9.393h-.541l-.168-.514-.168.515h-.546l.441.32-.168.515.441-.32.441.32-.168-.515zm-2.568-.462.441-.32.441.32-.168-.515.441-.32H2.1l-.168-.515-.173.519h-.541l.441.32zm.6 1.418-.168-.515-.168.515h-.537l.441.32-.168.515.441-.32.441.32-.168-.515.441-.32zm-.6-3.67.441-.32.441.32-.168-.515.441-.32H2.1l-.168-.515-.168.515h-.546l.441.32zm0-2.253.441-.32.441.32-.168-.515.441-.32H2.1l-.168-.515-.168.515h-.546l.441.32zm0-2.247.441-.32.441.32-.168-.515.441-.32H2.1L1.927.83l-.168.515h-.541l.441.32z" style="fill:#fff" transform="translate(-.614 .226)"/>
    </g>
</svg>
