<svg xmlns="http://www.w3.org/2000/svg" width="31" height="22" viewBox="0 0 31 22">
    <path data-name="Rectangle 243" style="fill:none" d="M0 0h31v22H0z"/>
    <path data-name="Path 353" d="M3.747 22.585v-2.168q1.708-1.483 3.416-2.971 1.258-1.095 2.526-2.189c.114.005.223.01.336.01h24.7v7.318z" transform="translate(-3.747 -.719)" style="fill:#2c2d2f"/>
    <path data-name="Path 354" d="M3.747 2.815V.854h31v7.064H10c-.119 0-.243.005-.362.005Q7.253 5.835 4.865 3.757c-.365-.321-.745-.631-1.118-.942z" transform="translate(-3.747 -.719)" style="fill:#c12f2f"/>
    <path data-name="Path 355" d="M9.631 7.923c.321.29.637.585.963.875.352.311.709.611 1.066.916.5.43.994.859 1.485 1.289.223.2.44.4.678.611-.476.409-.942.807-1.408 1.216-.336.29-.662.59-1 .88-.5.435-1 .864-1.506 1.3a2.48 2.48 0 0 0-.223.243c-.844.73-1.682 1.459-2.526 2.189q-1.708 1.483-3.416 2.971V2.81c.373.316.75.621 1.118.942l4.769 4.171z" transform="translate(-3.747 -.719)" style="fill:#558d3f"/>
</svg>
