<svg width="24" height="24" viewBox="0 0 24 24" fill="none" xmlns="http://www.w3.org/2000/svg">
    <path fill-rule="evenodd" clip-rule="evenodd" d="M22 12C22 17.5228 17.5228 22 12 22C6.47715 22 2 17.5228 2 12C2 6.47715 6.47715 2 12 2C17.5228 2 22 6.47715 22 12ZM12.5 8.75C12.5 8.33579 12.1642 8 11.75 8C11.3358 8 11 8.33579 11 8.75V12.75C11 12.9489 11.079 13.1397 11.2197 13.2803L13.7197 15.7803C14.0126 16.0732 14.4874 16.0732 14.7803 15.7803C15.0732 15.4874 15.0732 15.0126 14.7803 14.7197L12.5 12.4393V8.75Z" fill="#0079FF"/>
</svg>
