<svg xmlns="http://www.w3.org/2000/svg" width="12" height="13" viewBox="0 0 12 13">
    <path data-name="Rectangle 1028" style="fill:none" d="M0 0h12v13H0z"/>
    <path data-name="Path 12277" d="M10.272 1.756a5.94 5.94 0 0 0-8.433 0 6.034 6.034 0 0 0-1.3 6.536l.2.428s0 .007.007.012A5.953 5.953 0 0 0 2.1 10.488l.035.031.016.014a6.538 6.538 0 0 0 .592.456l.042.028c.031.019.061.04.089.059a5.607 5.607 0 0 0 3.1.924h.045a6.6 6.6 0 0 0 1.216-.125 5.9 5.9 0 0 0 1.1-.327 6.019 6.019 0 0 0 1.94-9.792zm-.694.691a5.006 5.006 0 0 1-3.527 8.542h-.006a5.006 5.006 0 0 1-3.522-8.542A4.947 4.947 0 0 1 6.05.976V.818v.158a4.964 4.964 0 0 1 3.529 1.471z" transform="translate(-.057 .424)" style="fill:#707070"/>
    <path data-name="Path 12278" d="M5.658 7.915c-.033.353-.148.5-.369.491s-.315-.153-.336-.482c-.106-.042-.219-.078-.324-.132a1.315 1.315 0 0 1-.764-1.121.345.345 0 1 1 .684-.047.69.69 0 0 0 .623.628.775.775 0 0 0 .849-.437.644.644 0 0 0-.534-.837c-.174-.033-.353-.031-.527-.068A1.363 1.363 0 0 1 3.864 4.7a1.339 1.339 0 0 1 .957-1.352c.1-.035.143-.075.141-.188a.345.345 0 0 1 .338-.38.351.351 0 0 1 .346.388.156.156 0 0 0 .132.176 1.34 1.34 0 0 1 .955 1.089.724.724 0 0 1 .012.188.336.336 0 0 1-.332.327.316.316 0 0 1-.346-.308.753.753 0 0 0-.995-.656.67.67 0 0 0-.522.677.709.709 0 0 0 .642.595 3.385 3.385 0 0 1 .557.08 1.313 1.313 0 0 1 .043 2.534z" transform="translate(.697 .98)" style="fill:#707070"/>
    <path data-name="Path 12279" d="M9.288 5.713a4.644 4.644 0 0 1-.513 2.2.34.34 0 0 1-.4.2.33.33 0 0 1-.256-.324.75.75 0 0 1 .08-.259 3.72 3.72 0 0 0 .085-3.176 3.672 3.672 0 0 0-1.7-1.86l-.106-.056a.344.344 0 0 1-.178-.482.331.331 0 0 1 .484-.136 6.441 6.441 0 0 1 .912.6 4.358 4.358 0 0 1 1.592 3.293z" transform="translate(1.177 .777)" style="fill:#707070"/>
    <path data-name="Path 12280" d="M2.176 3.258a.344.344 0 0 1 .294.508 7.287 7.287 0 0 0-.346.966 3.782 3.782 0 0 0 1.858 4.117c.054.031.111.059.167.089a.347.347 0 1 1-.315.614 4.371 4.371 0 0 1-1.216-.884 4.48 4.48 0 0 1-.792-5.154.37.37 0 0 1 .35-.256z" transform="translate(.193 1.076)" style="fill:#707070"/>
    <path data-name="Path 12281" d="M5.565 1.426a.343.343 0 1 1-.357.339.349.349 0 0 1 .357-.339z" transform="translate(.966 .709)" style="fill:#707070"/>
    <path data-name="Path 12282" d="M4.687 8.313a.343.343 0 1 1-.355.341.347.347 0 0 1 .355-.341z" transform="translate(.791 2.087)" style="fill:#707070"/>
</svg>
