<svg width="25" height="24" viewBox="0 0 25 24" fill="none" xmlns="http://www.w3.org/2000/svg">
<path fill-rule="evenodd" clip-rule="evenodd" d="M9.25 2.0127V22H15.5C18.3284 22 19.7426 22 20.6213 21.1213C21.5 20.2426 21.5 18.8284 21.5 16V8C21.5 5.17157 21.5 3.75736 20.6213 2.87868C19.7426 2 18.3284 2 15.5 2H9.5L9.25 2.0127ZM11.25 6.5C11.25 6.08579 11.5858 5.75 12 5.75H17C17.4142 5.75 17.75 6.08579 17.75 6.5C17.75 6.91421 17.4142 7.25 17 7.25H12C11.5858 7.25 11.25 6.91421 11.25 6.5ZM11.25 10C11.25 9.58579 11.5858 9.25 12 9.25H17C17.4142 9.25 17.75 9.58579 17.75 10C17.75 10.4142 17.4142 10.75 17 10.75H12C11.5858 10.75 11.25 10.4142 11.25 10ZM3.5007 7.25C3.50753 4.91427 3.58136 3.676 4.37868 2.87868C5.05366 2.2037 6.04467 2.04722 7.75 2.01095V21.9891C6.04467 21.9528 5.05366 21.7963 4.37868 21.1213C3.58136 20.324 3.50753 19.0857 3.5007 16.75H4.5C4.91421 16.75 5.25 16.4142 5.25 16C5.25 15.5858 4.91421 15.25 4.5 15.25H3.5V12.75H4.5C4.91421 12.75 5.25 12.4142 5.25 12C5.25 11.5858 4.91421 11.25 4.5 11.25H3.5V8.75H4.5C4.91421 8.75 5.25 8.41421 5.25 8C5.25 7.58579 4.91421 7.25 4.5 7.25H3.5007ZM3.5007 7.25H2.5C2.08579 7.25 1.75 7.58579 1.75 8C1.75 8.41421 2.08579 8.75 2.5 8.75H3.5V8C3.5 7.73811 3.5 7.48834 3.5007 7.25ZM3.5 12.75H2.5C2.08579 12.75 1.75 12.4142 1.75 12C1.75 11.5858 2.08579 11.25 2.5 11.25H3.5V12.75ZM3.5 15.25H2.5C2.08579 15.25 1.75 15.5858 1.75 16C1.75 16.4142 2.08579 16.75 2.5 16.75H3.5007C3.5 16.5117 3.5 16.2619 3.5 16V15.25Z" fill="#212121"/>
</svg>
