<svg width="25" height="24" viewBox="0 0 25 24" fill="none" xmlns="http://www.w3.org/2000/svg">
<g id="chat">
<path id="Exclude" fill-rule="evenodd" clip-rule="evenodd" d="M14.1288 20.4718L13.5867 21.3877C13.1035 22.204 11.8965 22.204 11.4133 21.3877L10.8712 20.4718C10.4507 19.7614 10.2405 19.4063 9.90279 19.2098C9.56509 19.0134 9.13992 19.0061 8.28958 18.9915C7.03422 18.9698 6.24689 18.8929 5.58658 18.6194C4.36144 18.1119 3.38807 17.1386 2.8806 15.9134C2.5 14.9946 2.5 13.8297 2.5 11.5V10.5C2.5 7.22657 2.5 5.58985 3.2368 4.38751C3.64908 3.71473 4.21473 3.14908 4.88751 2.7368C6.08985 2 7.72657 2 11 2H14C17.2734 2 18.9101 2 20.1125 2.7368C20.7853 3.14908 21.3509 3.71473 21.7632 4.38751C22.5 5.58985 22.5 7.22657 22.5 10.5V11.5C22.5 13.8297 22.5 14.9946 22.1194 15.9134C21.6119 17.1386 20.6386 18.1119 19.4134 18.6194C18.7531 18.8929 17.9658 18.9698 16.7104 18.9915C15.86 19.0061 15.4349 19.0134 15.0972 19.2098C14.7595 19.4062 14.5492 19.7614 14.1288 20.4718ZM7.75 9C7.75 8.58579 8.08579 8.25 8.5 8.25H16.5C16.9142 8.25 17.25 8.58579 17.25 9C17.25 9.41421 16.9142 9.75 16.5 9.75H8.5C8.08579 9.75 7.75 9.41421 7.75 9ZM8.5 11.75C8.08579 11.75 7.75 12.0858 7.75 12.5C7.75 12.9142 8.08579 13.25 8.5 13.25H14C14.4142 13.25 14.75 12.9142 14.75 12.5C14.75 12.0858 14.4142 11.75 14 11.75H8.5Z" fill="#212121"/>
</g>
</svg>
