<svg width="25" height="24" viewBox="0 0 25 24" fill="none" xmlns="http://www.w3.org/2000/svg">
<g id="state=1">
<path id="primary (Stroke)" fill-rule="evenodd" clip-rule="evenodd" d="M4.79633 4.46967C5.08922 4.17678 5.5641 4.17678 5.85699 4.46967L12.3267 10.9393L18.7963 4.46967C19.0892 4.17678 19.5641 4.17678 19.857 4.46967C20.1499 4.76256 20.1499 5.23744 19.857 5.53033L13.3873 12L19.857 18.4697C20.1499 18.7626 20.1499 19.2374 19.857 19.5303C19.5641 19.8232 19.0892 19.8232 18.7963 19.5303L12.3267 13.0607L5.85699 19.5303C5.5641 19.8232 5.08922 19.8232 4.79633 19.5303C4.50344 19.2374 4.50344 18.7626 4.79633 18.4697L11.266 12L4.79633 5.53033C4.50344 5.23744 4.50344 4.76256 4.79633 4.46967Z" fill="#0C0C0C"/>
</g>
</svg>
