<svg width="24" height="24" viewBox="0 0 24 24" fill="none" xmlns="http://www.w3.org/2000/svg">
<g id="transfer-vertical-svgrepo-com">
<path id="Vector" d="M4.00003 13.75C3.69074 13.75 3.41317 13.9399 3.30105 14.2281C3.18892 14.5164 3.26524 14.8439 3.49324 15.0529L9.49324 20.5529C9.71249 20.7539 10.0298 20.8063 10.302 20.6865C10.5743 20.5668 10.75 20.2974 10.75 20V4C10.75 3.58578 10.4142 3.25 10 3.25C9.58582 3.25 9.25003 3.58578 9.25003 4V13.75H4.00003Z" fill="#0079FF"/>
<path id="Vector_2" d="M20 10.25H14.75V20C14.75 20.4142 14.4142 20.75 14 20.75C13.5858 20.75 13.25 20.4142 13.25 20V4.00002C13.25 3.70259 13.4258 3.43327 13.698 3.3135C13.9703 3.19374 14.2876 3.24617 14.5068 3.44715L20.5068 8.94715C20.7348 9.15614 20.8111 9.48366 20.699 9.77191C20.5869 10.0602 20.3093 10.25 20 10.25Z" fill="#0277FA" fill-opacity="0.42"/>
</g>
</svg>
