<svg width="200" height="200" viewBox="0 0 200 200" fill="none" xmlns="http://www.w3.org/2000/svg">
<g clip-path="url(#clip0_259_1271)">
<path d="M82.3679 10.5C120.406 10.5 151.29 41.3834 151.29 79.4219V167.627C151.29 168.665 150.446 169.509 149.408 169.509H15.3361C14.2978 169.509 13.4541 168.665 13.4541 167.627V79.4219C13.45 41.3834 44.3335 10.5 82.3679 10.5Z" fill="#CCE6F1"/>
<path d="M82.3681 152.44C126.024 152.44 161.41 160.845 161.41 171.212C161.41 181.58 126.02 189.98 82.3681 189.98C38.716 189.98 3.32617 181.576 3.32617 171.208C3.32617 160.841 38.716 152.44 82.3681 152.44Z" fill="#F9F5E8"/>
<path d="M51.5699 116.897L28.1538 105.929L28.3201 168.19L51.7524 179.199L51.5699 116.897Z" fill="#F49D4A"/>
<path d="M51.582 116.901L134.104 116.698L134.254 179L51.7362 179.203L51.582 116.901Z" fill="#F8BE59"/>
<path d="M110.66 105.681L28.1538 105.929L51.5699 116.897L134.092 116.694L110.66 105.681Z" fill="#F49D4A"/>
<path d="M55.6787 166.515H56.713L56.7374 175.049L55.699 175.053L55.6787 166.515Z" fill="#F49D4A"/>
<path d="M58.5059 166.507H59.5402L59.5605 175.041L58.5261 175.045L58.5059 166.507Z" fill="#F49D4A"/>
<path d="M61.207 166.503L62.2413 166.499L62.2657 175.037H61.2314L61.207 166.503Z" fill="#F49D4A"/>
<path d="M57.0942 166.511H57.6094L57.6337 175.045L57.1145 175.049L57.0942 166.511Z" fill="#F49D4A"/>
<path d="M57.8931 166.507H58.4122L58.4325 175.045H57.9133L57.8931 166.507Z" fill="#F49D4A"/>
<path d="M60.4324 166.503H60.9516L60.9718 175.037H60.4527L60.4324 166.503Z" fill="#F49D4A"/>
<path d="M59.8687 166.507L60.1039 166.503L60.1242 175.041H59.8889L59.8687 166.507Z" fill="#F49D4A"/>
<path d="M62.4565 166.499H63.2191L63.2394 175.033L62.4768 175.037L62.4565 166.499Z" fill="#F49D4A"/>
<path d="M64.5371 166.495L65.3037 166.491L65.324 175.029H64.5574L64.5371 166.495Z" fill="#F49D4A"/>
<path d="M66.5288 166.491H67.2954L67.3157 175.025L66.5491 175.029L66.5288 166.491Z" fill="#F49D4A"/>
<path d="M63.4988 166.495H63.8801L63.9003 175.033H63.5191L63.4988 166.495Z" fill="#F49D4A"/>
<path d="M64.0869 166.495H64.4682L64.4885 175.029L64.1072 175.033L64.0869 166.495Z" fill="#F49D4A"/>
<path d="M65.9609 166.491L66.3422 166.487L66.3625 175.025H65.9812L65.9609 166.491Z" fill="#F49D4A"/>
<path d="M65.5471 166.491H65.7215L65.7418 175.029H65.5674L65.5471 166.491Z" fill="#F49D4A"/>
<path d="M38.29 167.988L30.125 164.134L30.1291 165.408L38.29 169.176V167.988Z" fill="#E77424"/>
<path d="M31.0861 163.883L32.6923 164.662L32.6842 159.729L33.8483 160.342L31.9663 156.249L30.1045 158.371L31.0739 158.886L31.0861 163.883Z" fill="#E77424"/>
<path d="M35.5237 166.016L37.13 166.779L37.1178 162.041L38.2819 162.638L36.4039 158.683L34.5381 160.703L35.5116 161.21L35.5237 166.016Z" fill="#E77424"/>
<path d="M44.7635 161.599L44.7595 160.399L43.9848 160.107L43.9888 161.311C41.9121 160.78 40.2937 162.309 40.3018 164.897C40.3018 164.536 40.6709 164.37 41.1252 164.532C41.5389 164.678 41.8796 165.035 41.9445 165.367C42.0054 165.075 42.3461 164.958 42.7598 165.104C43.1735 165.25 43.5143 165.607 43.5791 165.935C43.6197 165.745 43.782 165.631 44.0091 165.615L44.0213 169.886C44.0213 170.146 43.8469 170.296 43.6319 170.223C43.4169 170.154 43.2425 169.886 43.2425 169.626V169.164L42.4678 168.904V169.371C42.4718 170.141 42.9951 170.941 43.6359 171.151C44.2646 171.354 44.7757 170.924 44.796 170.19C44.796 170.182 44.796 170.174 44.796 170.162L44.7838 165.883C45.011 166.057 45.1732 166.284 45.2138 166.503C45.2746 166.219 45.6153 166.102 46.0291 166.244C46.4428 166.39 46.7835 166.742 46.8443 167.067C46.9052 166.783 47.2459 166.669 47.6596 166.815C48.1139 166.978 48.4871 167.387 48.4871 167.736C48.4709 165.246 46.8443 162.597 44.7635 161.599Z" fill="#E77424"/>
<path d="M134.092 116.694L51.5737 116.892L73.7283 146.944H156.555L134.092 116.694Z" fill="#FCE496"/>
<path d="M109.986 116.649C111.491 99.37 101.63 78.1483 85.706 75.2279C68.7108 72.1087 50.7746 90.9251 47.5135 108.695C47.0186 111.38 46.8685 114.297 47.0105 116.901L109.986 116.649Z" fill="#7D8CC6"/>
<path d="M106.141 116.84C103.314 110.662 98.8521 104.489 87.8478 104.489C76.8395 104.489 66.2651 112.151 66.2651 116.84H106.141Z" fill="#C0CFE7"/>
<path d="M110.136 110.48C110.031 109.328 109.929 108.269 109.735 107.158L101.359 107.864C99.562 108.03 98.2235 109.644 98.3857 111.453C98.5479 113.258 100.15 114.601 101.951 114.434L110.173 113.668C110.157 112.617 110.234 111.542 110.136 110.48ZM103.983 106.152L109.495 105.539C109.232 103.69 108.786 101.191 107.987 99.155L103.391 99.5849C101.594 99.7512 100.256 101.366 100.418 103.175C100.58 104.98 102.182 106.322 103.983 106.152ZM53.7439 106.501L48.694 104.026C47.9314 106.2 47.4731 108.314 47.2175 110.65L50.8559 112.435C52.4743 113.23 54.4537 112.544 55.2446 110.914C56.0396 109.279 55.3623 107.292 53.7439 106.501ZM62.4037 96.1981C63.1987 94.5675 62.5213 92.584 60.8989 91.789L56.3763 89.692C54.9039 91.3104 53.6141 93.448 52.7826 94.9812L58.015 97.7191C59.6334 98.5141 61.6087 97.8327 62.4037 96.1981ZM61.3653 104.659C60.5703 106.29 58.595 106.975 56.9766 106.18L49.2902 102.307C49.6755 101.333 49.9595 100.494 50.4016 99.52C50.8762 98.4736 51.444 97.3135 52.0159 96.34L59.8646 100.25C61.483 101.041 62.1603 103.025 61.3653 104.659Z" fill="#5560AB"/>
<path d="M60.2051 85.3236C60.2051 85.3236 65.3118 105.815 89.8311 102.509C112.87 99.4024 104.754 88.4103 104.754 88.4103L60.4241 85.3074L60.2051 85.3236Z" fill="#5560AB"/>
<path d="M97.2986 57.7459C97.8462 56.2573 99.3429 54.1684 101.188 52.2174C104.226 49.0049 108.206 46.1656 110.445 47.0053C113.844 48.2789 114.772 58.0136 113.645 62.4064C113.58 62.6619 113.507 62.9053 113.426 63.1203C111.982 67.0588 107.2 69.0463 102.746 67.5658C98.2964 66.0813 95.8587 61.6844 97.2986 57.7459Z" fill="#7D8CC6"/>
<path d="M97.2986 57.7458C97.8462 56.2572 99.3429 54.1683 101.188 52.2173C106.291 54.0669 110.854 57.9851 113.645 62.4022C113.58 62.6578 113.507 62.9011 113.426 63.1161C111.982 67.0546 107.2 69.0421 102.746 67.5617C98.2964 66.0812 95.8587 61.6843 97.2986 57.7458Z" fill="#5560AB"/>
<path d="M72.909 59.8875C72.0978 58.5246 70.2401 56.748 68.0701 55.1702C64.4926 52.5702 60.0551 50.5138 58.0108 51.7509C54.9038 53.6289 55.7881 63.3677 57.7026 67.4765C57.8162 67.7158 57.9297 67.943 58.0474 68.1377C60.1931 71.7436 65.2592 72.8144 69.364 70.5348C73.4688 68.2594 75.0547 63.4893 72.909 59.8875Z" fill="#7D8CC6"/>
<path d="M72.9089 59.8875C72.0977 58.5246 70.24 56.748 68.07 55.1702C63.3932 57.9283 59.6332 62.6172 57.7065 67.4765C57.8201 67.7158 57.9337 67.9389 58.0513 68.1376C60.197 71.7435 65.2631 72.8144 69.3679 70.5348C73.4687 68.2593 75.0546 63.4893 72.9089 59.8875Z" fill="#5560AB"/>
<path d="M101.468 57.5269C101.845 56.5007 103.046 54.9553 104.413 53.6939C105.922 52.2986 107.638 51.2521 108.672 51.6415C110.205 52.2134 110.818 55.9247 110.647 58.5612C110.599 59.3197 110.485 59.989 110.307 60.4717C109.516 62.6295 106.895 63.7206 104.454 62.9054C102.012 62.0941 100.677 59.6848 101.468 57.5269Z" fill="#F6A7BC"/>
<path d="M104.413 53.6938C106.721 54.9756 108.846 56.6548 110.647 58.5612C110.599 59.3197 110.485 59.989 110.307 60.4717C109.516 62.6295 106.895 63.7206 104.454 62.9053C102.012 62.0901 100.677 59.6807 101.468 57.5269C101.845 56.5007 103.042 54.9553 104.413 53.6938Z" fill="#EC92A9"/>
<path d="M68.7717 60.4392C68.212 59.5022 66.7477 58.2002 65.1739 57.2145C63.4338 56.1234 61.5558 55.4096 60.6067 55.9815C59.2073 56.8292 59.2844 60.5852 59.9415 63.1487C60.1281 63.8869 60.3674 64.5237 60.631 64.9618C61.8073 66.9371 64.5858 67.5252 66.8329 66.276C69.08 65.0267 69.948 62.4145 68.7717 60.4392Z" fill="#F6A7BC"/>
<path d="M65.1699 57.2146C63.1337 58.902 61.3571 60.9422 59.9375 63.1487C60.1241 63.8869 60.3634 64.5238 60.627 64.9618C61.8033 66.9372 64.5818 67.5253 66.8289 66.276C69.08 65.0267 69.948 62.4146 68.7718 60.4392C68.2161 59.5023 66.7478 58.2043 65.1699 57.2146Z" fill="#EC92A9"/>
<path d="M84.676 53.4748C100.142 52.0551 113.649 61.4775 114.842 74.5221C116.038 87.5625 104.47 99.2848 89.0039 100.704C73.5379 102.124 60.0309 92.7017 58.8384 79.6571C57.6459 66.6126 69.214 54.8944 84.676 53.4748Z" fill="#E4EBF7"/>
<path d="M114.744 73.6297C114.724 73.4837 114.703 73.3336 114.679 73.1876C114.667 73.1064 114.651 73.0213 114.638 72.9401C114.614 72.8063 114.59 72.6684 114.565 72.5345C114.549 72.4493 114.533 72.3642 114.517 72.283C114.492 72.1532 114.46 72.0194 114.432 71.8855C114.411 71.8044 114.395 71.7192 114.375 71.6381C114.342 71.5002 114.306 71.3663 114.269 71.2284C114.249 71.1554 114.233 71.0784 114.213 71.0054C114.168 70.8431 114.119 70.6849 114.071 70.5267C114.054 70.4781 114.042 70.4334 114.03 70.3848C113.965 70.1779 113.9 69.971 113.827 69.7682C113.811 69.7236 113.795 69.679 113.779 69.6303C113.722 69.4721 113.665 69.3139 113.608 69.1598C113.58 69.0909 113.551 69.0219 113.527 68.9529C113.474 68.8232 113.426 68.6893 113.369 68.5595C113.336 68.4824 113.308 68.4094 113.272 68.3364C113.219 68.2107 113.162 68.0849 113.105 67.9632C113.073 67.8902 113.036 67.8132 113.004 67.7402C112.943 67.6144 112.886 67.4887 112.821 67.3629C112.785 67.294 112.752 67.225 112.72 67.1561C112.651 67.0182 112.578 66.8803 112.505 66.7464C112.477 66.6937 112.448 66.6409 112.42 66.5842C112.213 66.2029 111.994 65.8297 111.763 65.4606C111.73 65.4119 111.698 65.3633 111.665 65.3105C111.58 65.1767 111.495 65.0469 111.406 64.913C111.365 64.8522 111.325 64.7914 111.284 64.7305C111.203 64.6129 111.118 64.4912 111.033 64.3736C110.988 64.3087 110.943 64.2478 110.899 64.187C110.813 64.0694 110.724 63.9517 110.639 63.8382C110.594 63.7773 110.55 63.7205 110.505 63.6637C110.412 63.5421 110.315 63.4204 110.217 63.2987C110.177 63.25 110.14 63.2013 110.1 63.1527C109.974 63.0026 109.848 62.8525 109.722 62.7024C109.71 62.6862 109.694 62.67 109.682 62.6538C109.536 62.4834 109.382 62.3131 109.232 62.1508C109.215 62.1305 109.195 62.1102 109.175 62.094C109.041 61.9521 108.911 61.8101 108.773 61.6722C108.733 61.6276 108.688 61.587 108.648 61.5424C108.639 61.5343 108.631 61.5262 108.619 61.514C108.607 61.5018 108.599 61.4937 108.591 61.4856C108.493 61.3883 108.4 61.295 108.303 61.2017C108.254 61.153 108.201 61.1043 108.149 61.0556C108.035 60.9502 107.926 60.8407 107.808 60.7352C107.755 60.6865 107.706 60.6379 107.65 60.5932C107.532 60.4878 107.41 60.3783 107.289 60.2728C107.24 60.2282 107.191 60.1876 107.143 60.1471C107.058 60.0741 106.972 60.0011 106.887 59.9321C106.879 59.924 106.867 59.9159 106.859 59.9078C106.814 59.8713 106.77 59.8307 106.721 59.7942C106.688 59.7699 106.66 59.7415 106.628 59.7171C106.514 59.6238 106.4 59.5346 106.283 59.4454C106.271 59.4372 106.263 59.4291 106.25 59.421C106.015 59.2385 105.776 59.056 105.532 58.8775C105.496 58.8532 105.463 58.8288 105.427 58.8045C105.277 58.695 105.127 58.5895 104.973 58.4841C104.92 58.4476 104.867 58.4151 104.819 58.3786C104.681 58.2853 104.539 58.192 104.401 58.0987C104.344 58.0622 104.287 58.0257 104.226 57.9852C104.088 57.8959 103.946 57.8067 103.804 57.7215C103.752 57.6891 103.699 57.6566 103.646 57.6242C103.642 57.6201 103.638 57.616 103.634 57.616C103.484 57.5268 103.33 57.4335 103.176 57.3443C103.131 57.3159 103.087 57.2916 103.042 57.2672C102.843 57.1536 102.64 57.0401 102.438 56.9306C102.438 56.9306 102.438 56.9306 102.434 56.9306C102.377 56.8981 102.316 56.8697 102.259 56.8373C102.231 56.821 102.202 56.8089 102.174 56.7927C101.987 56.6872 101.797 56.598 101.606 56.5006C101.557 56.4763 101.513 56.4519 101.464 56.4317C101.241 56.3221 101.018 56.2167 100.795 56.1153C100.787 56.1112 100.775 56.1072 100.766 56.099C100.288 55.88 99.8011 55.6732 99.3062 55.4785C99.2697 55.4663 99.2292 55.4501 99.1927 55.4338C98.9817 55.3527 98.7708 55.2757 98.5599 55.1986C98.5112 55.1824 98.4666 55.1621 98.4179 55.1459C97.919 54.9674 97.4161 54.8011 96.905 54.647C96.8685 54.6348 96.832 54.6267 96.7955 54.6145C96.5805 54.5537 96.3655 54.4888 96.1506 54.432C96.0775 54.4117 96.0045 54.3914 95.9315 54.3752C95.7247 54.3184 95.5178 54.2697 95.3109 54.217C95.2704 54.2048 95.2258 54.1967 95.1811 54.1846C94.7958 54.0953 94.4105 54.0101 94.017 53.9331H94.013C93.8791 53.9087 93.7493 53.8803 93.6155 53.856C93.5506 53.8438 93.4857 53.8317 93.4208 53.8236C93.3843 53.8154 93.3518 53.8114 93.3153 53.8033C93.3072 53.8033 93.3031 53.8033 93.2991 53.7992C93.1409 53.7749 92.9827 53.7465 92.8245 53.7222C92.7475 53.71 92.6744 53.6978 92.5974 53.6897C92.5812 53.6856 92.5649 53.6856 92.5528 53.6816C92.4351 53.6532 92.3175 53.6289 92.1958 53.6248C92.0579 53.6167 91.9281 53.5964 91.7943 53.5802C91.5834 53.5518 91.3765 53.5315 91.1615 53.5072C91.1493 53.5072 91.1372 53.5031 91.1209 53.5031C91.0763 53.4991 91.0317 53.495 90.983 53.491C90.9384 53.4869 90.8979 53.4828 90.8573 53.4788C90.6302 53.4585 90.4071 53.4382 90.1759 53.422C90.0907 53.4179 90.0096 53.4098 89.9244 53.4058C89.7297 53.3936 89.5391 53.3814 89.3444 53.3733C89.2592 53.3693 89.174 53.3652 89.0848 53.3612C88.8617 53.353 88.6345 53.3449 88.4074 53.3409C88.3587 53.3409 88.31 53.3368 88.2614 53.3368C88.0464 53.3328 87.8314 53.3328 87.6164 53.3328C87.5556 53.3328 87.4988 53.3328 87.438 53.3328C87.365 53.3328 87.292 53.3368 87.2189 53.3368C87.0161 53.3409 86.8093 53.3449 86.6065 53.349C86.5132 53.353 86.4199 53.3571 86.3266 53.3612C86.2739 53.3612 86.2171 53.3652 86.1643 53.3693C86.1562 53.3693 86.1441 53.3693 86.136 53.3693C86.0021 53.3733 85.8723 53.3855 85.7385 53.3936C85.6533 53.3977 85.5681 53.4017 85.4789 53.4098C85.4748 53.4098 85.4708 53.4098 85.4667 53.4098C85.4424 53.4098 85.4099 53.4139 85.3856 53.4139C85.1381 53.4301 84.8907 53.4504 84.6433 53.4747C84.408 53.495 84.1768 53.5193 83.9456 53.5477C83.7428 53.5721 83.54 53.5964 83.3372 53.6248C83.3129 53.6289 83.2885 53.6329 83.2642 53.6329C83.248 53.637 83.248 53.637 83.2642 53.6329C81.5485 53.8641 79.8814 54.2211 78.2833 54.6916C78.2711 54.6956 78.2589 54.6956 78.2468 54.7037C78.0237 54.7686 77.8006 54.8376 77.5816 54.9106C77.5694 54.9147 77.5532 54.9187 77.541 54.9228C77.322 54.9917 77.1029 55.0688 76.8839 55.1418C76.8758 55.1459 76.8636 55.1499 76.8555 55.154C76.6324 55.231 76.4134 55.3081 76.1944 55.3892C76.1862 55.3892 76.1822 55.3933 76.1781 55.3973C75.955 55.4825 75.732 55.5636 75.5129 55.6529C75.5129 55.6529 75.5089 55.6529 75.5048 55.6569C75.2817 55.7462 75.0627 55.8354 74.8437 55.9287C72.341 56.9914 70.0453 58.3543 68.0253 59.9483C67.8955 60.0538 67.7657 60.1552 67.6359 60.2606C67.2587 60.573 66.8896 60.8893 66.5286 61.2138C66.4353 61.299 66.3461 61.3801 66.2528 61.4653C65.3766 62.2847 64.5654 63.1527 63.8272 64.0612C63.6974 64.2194 63.5717 64.3817 63.4459 64.5399C60.0753 68.9002 58.3109 74.1651 58.8219 79.6693C58.8422 79.9005 58.8706 80.1276 58.899 80.3588C58.9071 80.4278 58.9193 80.4927 58.9274 80.5616C58.9477 80.7239 58.972 80.8902 59.0004 81.0484C59.0126 81.1214 59.0247 81.1944 59.0369 81.2674C59.0653 81.4337 59.0977 81.5959 59.1302 81.7622C59.1424 81.8231 59.1545 81.8839 59.1667 81.9448C59.2113 82.1597 59.2559 82.3706 59.3087 82.5816C59.3087 82.5897 59.3127 82.5978 59.3168 82.6059C59.4303 83.0683 59.5601 83.5266 59.7021 83.9769C59.7102 84.0012 59.7183 84.0256 59.7264 84.0458C59.7873 84.2284 59.8887 84.5285 59.9536 84.711C59.9576 84.7192 59.9617 84.7273 59.9617 84.7394C60.0388 84.9544 60.1199 85.1694 60.2051 85.3803C60.2903 85.5953 60.3835 85.8062 60.4768 86.0171C62.2088 86.3862 70.6861 87.5057 74.6246 83.2995C78.5631 79.0933 86.7606 77.2153 86.7606 77.2153C86.7606 77.2153 93.3032 78.0427 99.1967 81.7541C100.925 82.8412 102.863 83.4699 104.843 83.6281C112.525 84.2405 112.801 81.5594 114.367 81.0443C114.866 78.9351 115.032 76.7407 114.825 74.5099C114.805 74.2868 114.78 74.0677 114.752 73.8487C114.744 73.7798 114.732 73.7067 114.724 73.6378L114.744 73.6297Z" fill="#7D8CC6"/>
<path d="M87.1055 81.0767C86.9108 81.093 84.9111 84.0093 84.757 83.9566C84.7286 84.1188 84.7205 84.3054 84.7408 84.5285C84.8787 86.1672 86.1685 87.3962 87.6247 87.2745C89.0808 87.1528 90.1516 85.7291 90.0137 84.0904C89.9935 83.8552 89.9488 83.6646 89.8921 83.5023C89.7298 83.5997 87.2799 81.0605 87.1055 81.0767Z" fill="#F6A7BC"/>
<path d="M85.5683 84.4637C84.7449 84.9991 83.7025 85.3195 82.4451 85.425C79.4111 85.6765 76.734 83.4132 76.4866 80.3792C76.442 79.8559 76.8354 79.3935 77.3587 79.3489C77.8819 79.3043 78.3443 79.6977 78.3889 80.221C78.5552 82.2085 80.3075 83.689 82.2909 83.5267C84.6678 83.328 85.3412 82.245 85.6373 81.4459C86.0753 80.2697 85.9496 78.7811 85.8522 77.5845C85.8076 77.0612 86.2011 76.5988 86.7243 76.5542C87.2475 76.5096 87.7099 76.9031 87.7546 77.4263C87.8641 78.7405 88.0141 80.5333 87.426 82.1111C87.0447 83.1252 86.4241 83.9121 85.5683 84.4637Z" fill="#5560AB"/>
<path d="M95.1529 83.7133C94.3984 84.2041 93.5264 84.5043 92.6056 84.5813C90.0421 84.7963 88.2088 83.9689 87.1501 82.1314C86.3105 80.6712 86.1645 78.8784 86.055 77.5642C86.0103 77.041 86.4038 76.5786 86.927 76.534C87.4503 76.4894 87.9127 76.8828 87.9573 77.406C88.0546 78.6026 88.1804 80.0912 88.805 81.1782C89.2309 81.9165 90.0705 82.8737 92.4474 82.679C93.4087 82.5979 94.2849 82.1477 94.9055 81.4135C95.5301 80.6753 95.8303 79.7383 95.7491 78.777C95.7045 78.2538 96.098 77.7914 96.6212 77.7468C97.1444 77.7021 97.6068 78.0956 97.6515 78.6188C97.7731 80.0871 97.3148 81.519 96.3616 82.6425C96.0087 83.0643 95.599 83.4253 95.1529 83.7133Z" fill="#5560AB"/>
<path d="M87.8438 76.1162L86.1078 76.2622C85.3696 76.3231 84.7449 76.8179 84.5178 77.5196C84.2866 78.2213 84.4975 78.9879 85.0532 79.4747L85.9942 80.3021C86.3715 80.6347 86.8541 80.7929 87.3571 80.7524C87.6654 80.728 87.9533 80.6266 88.2048 80.4644C88.363 80.363 88.505 80.2332 88.6267 80.0831L89.4176 79.1137C89.8841 78.5418 89.9652 77.7508 89.6204 77.0978C89.2756 76.4366 88.578 76.0554 87.8438 76.1162Z" fill="#5560AB"/>
<path d="M91.5388 91.3469C90.614 91.9472 89.4175 92.3326 88.1357 92.438C86.7607 92.5516 85.4303 92.3326 84.3838 91.8215C83.1953 91.2374 82.4612 90.3045 82.376 89.2499C82.3314 88.7266 82.7248 88.2642 83.2481 88.2196C83.7713 88.175 84.2337 88.5685 84.2783 89.0917C84.3067 89.4568 84.6556 89.8259 85.2275 90.1057C85.9576 90.4627 86.9635 90.6209 87.9856 90.5357C89.0078 90.4505 89.9732 90.1301 90.6343 89.6555C91.1535 89.2864 91.4334 88.8605 91.4009 88.4995C91.3563 87.9763 91.7497 87.5139 92.273 87.4733C92.7962 87.4287 93.2586 87.8221 93.3032 88.3454C93.3925 89.3959 92.8246 90.4424 91.7457 91.2131C91.6727 91.2577 91.6037 91.3023 91.5388 91.3469Z" fill="#C0CFE7"/>
<path d="M106.019 71.9464C105.646 71.0621 104.616 70.6484 103.736 71.0216L100.353 72.4574C99.4686 72.8306 99.0549 73.8609 99.428 74.741C99.8012 75.6253 100.831 76.039 101.712 75.6658L105.094 74.23C105.979 73.8568 106.396 72.8306 106.019 71.9464Z" fill="#F6A7BC"/>
<path d="M72.4955 74.7289L68.9058 73.938C67.9689 73.7311 67.036 74.3274 66.8291 75.2643C66.6222 76.2013 67.2185 77.1342 68.1555 77.3411L71.7451 78.132C72.6821 78.3389 73.615 77.7426 73.8219 76.8057C74.0287 75.8687 73.4325 74.9358 72.4955 74.7289Z" fill="#F6A7BC"/>
<path d="M59.4874 80.7523C59.4874 80.7523 57.5445 63.3312 74.9007 57.1821C74.8966 57.1821 62.7363 63.9072 59.4874 80.7523Z" fill="#98A4D3"/>
<path d="M89.0322 53.3531L89.4662 58.2772C89.6163 59.9159 90.971 61.1409 92.4718 61.003C93.9726 60.8651 95.0799 59.413 94.9258 57.7743L94.581 54.0508C92.849 53.6492 90.9467 53.418 89.0322 53.3531ZM78.9243 62.2523C80.4251 62.1144 81.5324 60.6623 81.3783 59.0236L80.8104 54.0508C78.9405 54.4685 77.1437 54.9553 75.4563 55.6732L75.9187 59.5265C76.0688 61.1612 77.4235 62.3902 78.9243 62.2523ZM86.0347 64.1262C84.5339 64.2641 83.1792 63.0392 83.0291 61.4005L82.3233 53.7668C83.1792 53.6167 84.1324 53.5194 85.0166 53.4383C85.9739 53.349 86.7729 53.3288 87.7139 53.3247L88.4927 60.8935C88.6428 62.5321 87.5395 63.9842 86.0347 64.1262Z" fill="#5560AB"/>
<path d="M46.3171 97.0053C45.9155 98.8265 45.1935 100.664 44.1552 102.505C44.1552 102.505 44.1511 102.513 44.1471 102.513C43.8185 103.114 43.4454 103.706 43.0438 104.306C41.6931 106.314 40.6547 108.695 40.0625 110.67C39.9368 111.084 39.8273 111.478 39.7421 111.843C39.3689 111.66 38.9998 111.425 38.6185 111.259C37.6126 110.812 36.3714 110.569 35.4101 110.021C34.5016 109.506 33.5605 109.271 32.6885 108.707L32.6844 108.703L32.656 108.683C32.3153 108.46 31.8529 108.095 31.5081 107.888C31.8813 106.785 32.4167 105.503 33.0576 104.201C33.8607 102.554 34.8179 100.859 35.7874 99.4146C35.8969 99.2524 36.0023 99.0901 36.0997 98.9319C37.4788 96.7578 38.002 94.965 37.9493 93.3547C37.9128 92.1217 37.5396 90.99 36.9555 89.8746C36.2863 88.6009 35.3412 87.3395 34.3069 85.9523C34.1365 85.7251 33.9662 85.4939 33.7917 85.2627C32.076 82.9507 30.4576 80.5252 30.4333 77.548C30.413 75.1305 32.3559 73.1552 34.7733 73.139C37.1705 73.1187 39.1337 75.0372 39.1824 77.4303C39.3121 78.0509 40.5087 79.6491 41.3078 80.7118C41.5592 81.0484 41.8188 81.3932 42.0865 81.7542C43.1452 83.1982 44.2687 84.8409 45.1408 86.7392C45.6113 87.7492 46.0048 88.8362 46.2806 90.0003C46.3455 90.2802 46.4063 90.556 46.455 90.8399C46.8241 92.868 46.7754 94.9285 46.313 97.0053H46.3171Z" fill="#7D8CC6"/>
<path d="M30.5428 76.4771C30.2183 78.7202 31.7758 80.801 34.0229 81.1255C36.266 81.45 38.3468 79.8924 38.6713 77.6453C38.9957 75.4023 37.4382 73.3215 35.1911 72.997C32.944 72.6765 30.8632 74.2341 30.5428 76.4771Z" fill="#E4EBF7"/>
<path d="M74.9816 62.9703C72.4749 63.5625 70.8606 65.6311 70.7308 68.1378C70.6983 68.6448 70.4022 69.0058 69.9844 68.9328C69.5666 68.8638 69.1732 68.2757 69.2178 67.6429C69.4003 64.6333 71.3108 62.1915 74.2555 61.4654C74.868 61.3113 75.5413 61.6155 75.6833 62.0414C75.8253 62.4673 75.4846 62.8445 74.9816 62.9703Z" fill="#5560AB"/>
<path d="M96.025 61.0679C98.4506 61.0638 100.276 62.6741 100.795 65.0429C100.905 65.5215 101.237 65.7973 101.614 65.6351C101.992 65.4728 102.263 64.8198 102.125 64.2276C101.481 61.3883 99.3186 59.49 96.4671 59.4657C95.8709 59.4576 95.2949 59.8997 95.23 60.3418C95.157 60.7758 95.5342 61.0638 96.025 61.0679Z" fill="#5560AB"/>
<path d="M81.7229 68.9449C81.9906 71.2731 80.3195 73.3782 77.9913 73.6419C75.6631 73.9096 73.5579 72.2384 73.2943 69.9102C73.0266 67.582 74.6977 65.4769 77.0259 65.2132C79.3541 64.9455 81.4593 66.6166 81.7229 68.9449Z" fill="white"/>
<path d="M99.0752 67.1602C99.3429 69.4884 97.6718 71.5936 95.3436 71.8572C93.0154 72.1249 90.9102 70.4538 90.6466 68.1256C90.3789 65.7973 92.05 63.6922 94.3782 63.4286C96.7064 63.1608 98.8116 64.832 99.0752 67.1602Z" fill="white"/>
<path d="M92.9949 67.2899C93.1856 65.7242 94.6093 64.6129 96.1749 64.8035C97.7406 64.9941 98.852 66.4178 98.6613 67.9835C98.4707 69.5492 97.047 70.6606 95.4813 70.4699C93.9157 70.2752 92.8043 68.8515 92.9949 67.2899Z" fill="#5560AB"/>
<path d="M78.4051 66.5801C79.9829 66.5801 81.2606 67.8578 81.2606 69.4356C81.2606 71.0134 79.9829 72.2911 78.4051 72.2911C76.8272 72.2911 75.5496 71.0134 75.5496 69.4356C75.5496 67.8578 76.8272 66.5801 78.4051 66.5801Z" fill="#5560AB"/>
<path d="M46.3169 97.0053C43.583 99.6296 37.9977 99.1794 36.1035 98.932C37.4826 96.7579 38.0058 94.9651 37.9531 93.3548C39.8757 93.4684 44.808 93.4846 46.4548 90.8359C46.8239 92.864 46.7752 94.9245 46.3169 97.0053Z" fill="#5560AB"/>
<path d="M44.151 102.509C43.8224 103.11 43.4493 103.702 43.0477 104.302C41.697 106.31 40.6586 108.691 40.0664 110.666C38.9551 110.423 35.7183 109.673 32.6964 108.703L32.6924 108.699L32.664 108.679C32.3233 108.456 31.8609 108.091 31.5161 107.884C31.8893 106.781 32.4247 105.499 33.0656 104.197C34.7772 104.842 40.0299 106.351 44.151 102.509Z" fill="#5560AB"/>
<path d="M42.0863 81.7501C40.0501 85.8103 35.6208 85.5629 33.7915 85.2587C33.9619 85.4899 34.1322 85.7211 34.3066 85.9482C35.3409 87.3354 36.286 88.5928 36.9553 89.8705C38.6954 90.1139 43.4654 90.414 45.1406 86.7311C45.1406 86.7311 44.7431 85.6359 43.9724 84.3501C43.2261 83.1008 42.0863 81.7501 42.0863 81.7501Z" fill="#5560AB"/>
<mask id="mask0_259_1271" style="mask-type:luminance" maskUnits="userSpaceOnUse" x="0" y="10" width="200" height="180">
<path d="M200 10.5H0.00390625V189.98H200V10.5Z" fill="white"/>
</mask>
<g mask="url(#mask0_259_1271)">
<path d="M51.5698 116.897C51.5698 116.897 55.8612 109.668 65.0727 109.668C73.0998 109.668 76.945 113.197 79.0461 116.897H51.5698Z" fill="#5560AB"/>
</g>
<mask id="mask1_259_1271" style="mask-type:luminance" maskUnits="userSpaceOnUse" x="0" y="10" width="200" height="180">
<path d="M200 10.5H0.00390625V189.98H200V10.5Z" fill="white"/>
</mask>
<g mask="url(#mask1_259_1271)">
<path d="M28.1536 105.929L0 134.808L21.7977 147.354L51.5738 116.892L28.1536 105.929Z" fill="#FCE496"/>
</g>
<path d="M63.7828 116.897C63.7828 116.897 63.2596 121.865 65.312 124.181C65.9082 124.855 66.7884 125.52 68.4109 125.508C69.3113 125.5 70.4065 124.49 71.526 124.396C72.4589 124.319 73.7406 124.826 74.9007 124.449C76.4015 123.958 76.6205 122.96 77.8414 122.478C78.9447 122.044 80.4616 122.879 81.573 122.263C84.6314 120.575 84.2785 117.651 83.7106 116.832C83.0941 115.943 66.1597 114.787 63.7828 116.897Z" fill="#E6C76B"/>
<path d="M73.1849 110.322C78.7215 109.908 82.9885 112.601 83.7349 116.994C84.0959 119.099 82.9074 121.2 81.2038 121.537C79.9911 121.776 78.7702 121.155 77.963 120.04C77.6791 120.097 77.387 120.15 77.0909 120.198C76.7745 121.549 75.8822 122.595 74.6653 122.839C73.2295 123.123 71.7814 122.202 71.0229 120.673C70.9053 120.673 70.7877 120.673 70.6701 120.669C70.5727 122.405 69.579 123.845 68.1228 124.137C66.3178 124.494 64.4885 122.944 64.0383 120.677C64.0383 120.677 63.7665 119.213 63.6976 118.32C63.4055 114.317 67.6523 110.739 73.1849 110.322Z" fill="white"/>
<path d="M95.7452 116.84C95.7452 116.84 95.1855 119.087 97.0148 121.123C98.2032 122.445 99.4444 121.427 101.075 121.825C102.397 122.149 102.839 123.459 103.748 123.699C105.679 124.214 106.275 123.463 107.581 123.577C109.285 123.727 110.708 124.676 111.548 124.453C114.46 123.682 117.502 119.845 115.312 116.734C113.122 113.623 96.0373 116.763 96.0373 116.763L95.7452 116.84Z" fill="#E6C76B"/>
<path d="M108.636 110.078C113.803 112.106 116.48 116.381 115.251 120.665C114.663 122.717 112.68 124.096 111 123.662C109.804 123.354 108.976 122.263 108.729 120.908C108.445 120.835 108.161 120.754 107.873 120.673C107.001 121.752 105.744 122.307 104.543 121.999C103.127 121.634 102.223 120.174 102.199 118.47C102.093 118.418 101.988 118.369 101.882 118.316C101.043 119.837 99.5215 120.705 98.0857 120.336C96.301 119.878 95.3275 117.687 95.9035 115.444C95.9035 115.444 96.2929 114.005 96.6173 113.173C98.0897 109.433 103.468 108.05 108.636 110.078Z" fill="white"/>
<path d="M134.4 80.655C133.897 80.655 133.398 80.5779 132.908 80.4279C130.563 79.7018 129.172 77.4466 129.805 75.3982C130.291 73.8285 131.861 72.7739 133.715 72.7739C134.218 72.7739 134.717 72.851 135.207 73.0011C136.319 73.3458 137.256 74.0435 137.848 74.9683C138.46 75.9296 138.627 77.0207 138.31 78.0347C137.824 79.6004 136.254 80.655 134.4 80.655Z" fill="#F9F5E8"/>
<path d="M145.429 73.9339C144.841 73.9339 144.24 73.8771 143.652 73.7716C139.373 72.9888 136.4 69.5817 137.024 66.1745C137.17 65.3754 137.507 64.621 138.014 63.9558C132.692 59.49 129.776 53.8398 129.776 47.9665C129.776 41.282 133.463 35.0193 140.16 30.3304C146.775 25.6983 155.557 23.1429 164.89 23.1429C174.219 23.1429 183.005 25.6943 189.62 30.3304C196.317 35.0234 200.004 41.286 200.004 47.9665C200.004 54.647 196.313 60.9137 189.62 65.6026C183.005 70.2347 174.223 72.7901 164.89 72.7901C160.335 72.7901 155.91 72.1857 151.728 70.9891C150.487 72.8185 148.138 73.9339 145.429 73.9339Z" fill="#F9F5E8"/>
<path d="M126.113 83.5673C125.594 83.5673 125.071 83.4294 124.604 83.1738C123.205 82.4032 122.625 80.7604 123.311 79.503C123.749 78.704 124.6 78.2253 125.59 78.2253C126.109 78.2253 126.632 78.3633 127.099 78.6188C128.498 79.3854 129.078 81.0322 128.389 82.2896C127.955 83.0887 127.103 83.5673 126.113 83.5673Z" fill="#F9F5E8"/>
<path d="M177.797 47.8205C177.602 47.8205 177.411 47.7475 177.261 47.5974L171.599 41.935C169.741 40.0814 169.741 37.0596 171.599 35.2059C172.499 34.3055 173.692 33.8106 174.965 33.8106C176.004 33.8106 176.989 34.1392 177.809 34.7516C178.612 34.1797 179.569 33.8674 180.571 33.8674C181.845 33.8674 183.037 34.3622 183.938 35.2627C185.767 37.092 185.791 40.0814 183.994 41.935C183.986 41.9432 183.978 41.9553 183.966 41.9634L178.332 47.5974C178.186 47.7475 177.991 47.8205 177.797 47.8205Z" fill="#EF4F88"/>
<path d="M159.232 35.64C159.049 35.64 158.879 35.6886 158.721 35.7819C158.486 35.9198 158.323 36.1348 158.254 36.4025C158.185 36.6702 158.226 36.9339 158.364 37.1691C158.546 37.4774 158.875 37.664 159.24 37.664C159.423 37.664 159.593 37.6153 159.751 37.522C160.234 37.2138 160.38 36.5972 160.104 36.1348C159.921 35.8266 159.593 35.64 159.232 35.64ZM150.118 50.3637C149.44 50.3637 148.69 50.0514 147.684 49.3497C147.449 49.1834 147.226 49.0171 147.039 48.8711C146.658 48.9725 146.195 49.078 145.733 49.1429C145.445 49.1834 145.194 49.1996 144.954 49.1996C144.18 49.1996 143.608 48.9887 143.206 48.5547C142.809 48.1248 142.663 47.5285 142.796 46.912C142.975 46.1048 143.628 45.2652 144.853 44.2714C145.486 43.7563 146.175 43.2817 146.711 42.9329C146.828 42.0162 147.177 39.5176 148.56 37.1286C150.377 33.9932 153.351 32.1963 157.155 31.9286C157.342 31.9164 157.528 31.9083 157.711 31.9083C159.808 31.9083 161.816 32.7763 163.211 34.2893C164.087 35.2384 164.574 36.3092 164.505 37.1529C164.363 38.9336 161.548 41.8905 158.802 41.8905C158.599 41.8905 158.396 41.8743 158.202 41.8418C157.569 41.7363 156.944 41.6836 156.348 41.6836C152.892 41.6836 150.957 43.4278 150.272 44.1944C150.641 44.7947 150.953 45.3544 151.205 45.8695C151.846 47.1797 152.065 48.1491 151.894 48.9198C151.724 49.6985 151.144 50.2461 150.385 50.3516C150.3 50.3597 150.207 50.3678 150.118 50.3637Z" fill="#03B79E"/>
<path d="M160.708 66.8762C159.962 66.8762 159.345 66.2678 159.333 65.5215L159.199 58.0866C159.199 58.0866 158.06 58.1231 158.047 58.1231C157.853 58.1231 157.666 58.046 157.524 57.9122C157.179 57.5796 156.989 57.1334 156.977 56.6588C156.968 56.1802 157.147 55.73 157.475 55.3852L159.499 53.2882V50.315C159.499 49.7796 159.934 49.3456 160.469 49.3456H162.172C162.485 49.3456 162.765 49.4957 162.939 49.7228L164.338 48.2707C164.679 47.9178 165.133 47.7231 165.624 47.7231C166.115 47.7231 166.529 47.9016 166.865 48.222L173.98 55.085C174.325 55.4176 174.515 55.8638 174.527 56.3384C174.536 56.817 174.357 57.2672 174.029 57.612C173.887 57.758 173.692 57.8432 173.485 57.8432L172.357 57.8473L172.491 65.2822C172.499 65.6513 172.362 66.0001 172.106 66.2637C171.85 66.5274 171.506 66.6775 171.141 66.6856C171.141 66.6896 160.716 66.8762 160.708 66.8762Z" fill="#F49D4A"/>
</g>
<defs>
<clipPath id="clip0_259_1271">
<rect width="200" height="200" fill="white"/>
</clipPath>
</defs>
</svg>
