<svg width="24" height="24" viewBox="0 0 24 24" fill="none" xmlns="http://www.w3.org/2000/svg">
  <g id="Language">
    <path id="Subtract" fill-rule="evenodd" clip-rule="evenodd" d="M22 12C22 17.5228 17.5228 22 12 22C10.4003 22 8.88837 21.6244 7.54753 20.9565C7.19121 20.7791 6.78393 20.72 6.39939 20.8229L4.17335 21.4185C3.20701 21.677 2.32295 20.793 2.58151 19.8267L3.17712 17.6006C3.28001 17.2161 3.22094 16.8088 3.04346 16.4525C2.37562 15.1116 2 13.5997 2 12C2 6.47715 6.47715 2 12 2C17.5228 2 22 6.47715 22 12ZM15.4214 11.9654L16.9819 16.4573L16.9767 16.4627C17.0498 16.6722 16.9454 16.9033 16.7418 16.9785C16.7001 16.9946 16.6531 17 16.6114 17C16.4496 17 16.2982 16.8979 16.2408 16.7313L15.9172 15.8018H13.647L13.3234 16.7313C13.2503 16.9409 13.0259 17.0484 12.8224 16.9731C12.6188 16.8979 12.5144 16.6669 12.5875 16.4573L14.1428 11.9761C14.2628 11.6699 14.5029 11.4872 14.7847 11.4872C15.0665 11.4872 15.3118 11.6699 15.4214 11.9654ZM14.7899 12.5242L13.934 14.9904H15.6459L14.7899 12.5242ZM12.5999 10.2728C11.4217 12.1878 10.3578 13.347 9.06468 14.12C9.00205 14.1576 8.9342 14.1737 8.87158 14.1737C8.73588 14.1737 8.60541 14.1039 8.53234 13.9749C8.42274 13.7815 8.48537 13.5343 8.67325 13.4269C9.76924 12.7713 10.6669 11.831 11.6742 10.2728H8.39143C8.17745 10.2728 8 10.0901 8 9.86985C8 9.64955 8.17745 9.46687 8.39143 9.46687H10.3486V8.40299C10.3486 8.18269 10.526 8 10.74 8C10.954 8 11.1314 8.18269 11.1314 8.40299V9.46687H13.0885C13.3025 9.46687 13.48 9.64955 13.48 9.86985C13.48 10.0901 13.3025 10.2728 13.0885 10.2728H12.5999ZM12.4257 14.12C12.4884 14.1576 12.5562 14.1737 12.624 14.1737C12.7597 14.1737 12.8902 14.1039 12.9633 13.9749C13.0729 13.7815 13.0103 13.5343 12.8224 13.4215C12.5092 13.2334 12.2013 13.0293 11.9195 12.809C11.7473 12.6746 11.502 12.7122 11.3715 12.8896C11.241 13.0669 11.2775 13.3194 11.4498 13.4537C11.7577 13.6901 12.0865 13.9158 12.4257 14.12Z" fill="#0079FF"/>
  </g>
</svg>
