<svg width="25" height="24" viewBox="0 0 25 24" fill="none" xmlns="http://www.w3.org/2000/svg">
<path fill-rule="evenodd" clip-rule="evenodd" d="M3.83331 10.4167C3.83331 7.21907 3.83331 5.62028 4.21083 5.08241C4.58834 4.54454 6.09163 4.02996 9.09822 3.00079L9.67103 2.80472C11.2383 2.26824 12.0219 2 12.8333 2C13.6447 2 14.4283 2.26824 15.9956 2.80472L16.5684 3.00079C19.575 4.02996 21.0783 4.54454 21.4558 5.08241C21.8333 5.62028 21.8333 7.21907 21.8333 10.4167V11.9914C21.8333 17.6294 17.5943 20.3655 14.9347 21.5273C14.2133 21.8424 13.8526 22 12.8333 22C11.814 22 11.4533 21.8424 10.7319 21.5273C8.07227 20.3655 3.83331 17.6294 3.83331 11.9914V10.4167ZM14.8333 9C14.8333 10.1046 13.9379 11 12.8333 11C11.7287 11 10.8333 10.1046 10.8333 9C10.8333 7.89543 11.7287 7 12.8333 7C13.9379 7 14.8333 7.89543 14.8333 9ZM12.8333 17C16.8333 17 16.8333 16.1046 16.8333 15C16.8333 13.8954 15.0424 13 12.8333 13C10.6242 13 8.83331 13.8954 8.83331 15C8.83331 16.1046 8.83331 17 12.8333 17Z" fill="#0079FF"/>
</svg>
