<svg width="24" height="24" viewBox="0 0 24 24" fill="none" xmlns="http://www.w3.org/2000/svg">
<path d="M17.2001 11.6C14.1073 11.6 11.6001 14.1072 11.6001 17.2C11.6001 20.2928 14.1073 22.8 17.2001 22.8C20.2929 22.8 22.8001 20.2928 22.8001 17.2C22.8001 14.1072 20.2929 11.6 17.2001 11.6ZM17.2001 13.2C18.0153 13.2 18.7725 13.4452 19.4049 13.864L13.8641 19.4048C13.4453 18.7724 13.2001 18.0152 13.2001 17.2C13.2001 14.9908 14.9909 13.2 17.2001 13.2ZM17.2001 21.2C16.3849 21.2 15.6277 20.9548 14.9953 20.536L20.5361 14.9952C20.9549 15.6276 21.2001 16.3848 21.2001 17.2C21.2001 19.4092 19.4093 21.2 17.2001 21.2Z" fill="#0079FF"/>
<path d="M10.4 17.2C10.4 15.14 11.3196 13.298 12.7664 12.0512C11.9032 11.7628 10.974 11.6 10 11.6C5.5816 11.6 2 14.7816 2 19.2V21.6H12.0204C11.0116 20.4136 10.4 18.8792 10.4 17.2Z" fill="#0079FF"/>
<path d="M10.0001 10.4C12.4301 10.4 14.4001 8.43002 14.4001 5.99998C14.4001 3.56992 12.4301 1.59998 10.0001 1.59998C7.57006 1.59998 5.6001 3.56992 5.6001 5.99998C5.6001 8.43002 7.57006 10.4 10.0001 10.4Z" fill="#0079FF"/>
</svg>
