<svg width="18" height="18" viewBox="0 0 18 18" fill="none" xmlns="http://www.w3.org/2000/svg">
<g id="duration">
<path id="Subtract" fill-rule="evenodd" clip-rule="evenodd" d="M15.75 10.5C15.75 14.228 12.728 17.25 9 17.25C5.27208 17.25 2.25 14.228 2.25 10.5C2.25 6.77208 5.27208 3.75 9 3.75C12.728 3.75 15.75 6.77208 15.75 10.5ZM9.5625 7.5C9.5625 7.18934 9.31065 6.9375 9 6.9375C8.68935 6.9375 8.4375 7.18934 8.4375 7.5V10.5C8.4375 10.8106 8.68935 11.0625 9 11.0625C9.31065 11.0625 9.5625 10.8106 9.5625 10.5V7.5Z" fill="#0277FA"/>
<path id="Vector" fill-rule="evenodd" clip-rule="evenodd" d="M6.9375 2.0625C6.9375 1.75184 7.18934 1.5 7.5 1.5H10.5C10.8107 1.5 11.0625 1.75184 11.0625 2.0625C11.0625 2.37316 10.8107 2.625 10.5 2.625H7.5C7.18934 2.625 6.9375 2.37316 6.9375 2.0625Z" fill="#0277FA"/>
</g>
</svg>
