<svg width="18" height="18" viewBox="0 0 18 18" fill="none" xmlns="http://www.w3.org/2000/svg">
    <g id="pen-2-svgrepo-com 1">
        <path id="Vector" fill-rule="evenodd" clip-rule="evenodd" d="M2.4375 16.5C2.4375 16.1894 2.68934 15.9375 3 15.9375H15C15.3106 15.9375 15.5625 16.1894 15.5625 16.5C15.5625 16.8106 15.3106 17.0625 15 17.0625H3C2.68934 17.0625 2.4375 16.8106 2.4375 16.5Z" fill="#0079FF"/>
        <path id="Vector_2" d="M8.64008 11.1968L13.0776 6.75921C12.4736 6.50785 11.7583 6.09494 11.0818 5.41844C10.4052 4.74181 9.99225 4.02637 9.74093 3.42236L5.3033 7.85995C4.95703 8.20622 4.78385 8.3794 4.63494 8.57035C4.45928 8.7955 4.30868 9.03917 4.1858 9.29702C4.08164 9.51557 4.00421 9.74792 3.84934 10.2125L3.03267 12.6625C2.95646 12.8912 3.01596 13.1432 3.18638 13.3136C3.3568 13.484 3.60887 13.5436 3.8375 13.4673L6.28751 12.6507C6.75211 12.4958 6.98442 12.4184 7.20299 12.3142C7.46081 12.1913 7.70453 12.0407 7.92968 11.8651C8.12063 11.7161 8.2938 11.543 8.64008 11.1968Z" fill="#0079FF"/>
        <path id="Vector_3" d="M14.309 5.52783C15.2303 4.60641 15.2303 3.11249 14.309 2.19106C13.3875 1.26965 11.8936 1.26965 10.9722 2.19106L10.4399 2.72329C10.4472 2.7453 10.4548 2.76761 10.4627 2.79021C10.6577 3.3525 11.0258 4.08961 11.7182 4.78201C12.4106 5.47442 13.1477 5.84249 13.71 6.03757C13.7325 6.04537 13.7547 6.0529 13.7766 6.06016L14.309 5.52783Z" fill="#0079FF"/>
    </g>
</svg>
