<svg width="18" height="18" viewBox="0 0 18 18" fill="none" xmlns="http://www.w3.org/2000/svg">
<g id="users-group-two-rounded-svgrepo-com(1) 1">
<path id="Vector" d="M11.625 5.625C11.625 7.07475 10.4497 8.25 9 8.25C7.55025 8.25 6.375 7.07475 6.375 5.625C6.375 4.17525 7.55025 3 9 3C10.4497 3 11.625 4.17525 11.625 5.625Z" fill="#0277FA"/>
<path id="Vector_2" d="M13.5 12.375C13.5 13.8247 11.4853 15 9 15C6.51472 15 4.5 13.8247 4.5 12.375C4.5 10.9253 6.51472 9.75 9 9.75C11.4853 9.75 13.5 10.9253 13.5 12.375Z" fill="#0277FA"/>
<path id="Vector_3" d="M5.34155 3.75C5.47464 3.75 5.60458 3.76306 5.73005 3.78792C5.42438 4.33084 5.25001 4.95756 5.25001 5.625C5.25001 6.27619 5.41599 6.88862 5.70795 7.42227C5.58935 7.44437 5.46685 7.45595 5.34155 7.45595C4.28073 7.45595 3.42078 6.62634 3.42078 5.60297C3.42078 4.57961 4.28073 3.75 5.34155 3.75Z" fill="#0277FA"/>
<path id="Vector_4" d="M4.08551 14.2395C3.65956 13.7303 3.375 13.1055 3.375 12.375C3.375 11.6668 3.64243 11.058 4.04683 10.5575C2.61832 10.6683 1.5 11.4496 1.5 12.397C1.5 13.3533 2.63797 14.1403 4.08551 14.2395Z" fill="#0277FA"/>
<path id="Vector_5" d="M12.7499 5.625C12.7499 6.27619 12.5839 6.88862 12.2919 7.42227C12.4106 7.44437 12.5331 7.45595 12.6584 7.45595C13.7192 7.45595 14.5791 6.62634 14.5791 5.60297C14.5791 4.57961 13.7192 3.75 12.6584 3.75C12.5253 3.75 12.3954 3.76306 12.2699 3.78792C12.5755 4.33084 12.7499 4.95756 12.7499 5.625Z" fill="#0277FA"/>
<path id="Vector_6" d="M13.9144 14.2395C15.3619 14.1403 16.4999 13.3533 16.4999 12.397C16.4999 11.4496 15.3816 10.6683 13.9531 10.5575C14.3575 11.058 14.6249 11.6668 14.6249 12.375C14.6249 13.1055 14.3404 13.7303 13.9144 14.2395Z" fill="#0277FA"/>
</g>
</svg>
