<svg width="24" height="25" viewBox="0 0 24 25" fill="none" xmlns="http://www.w3.org/2000/svg">
<g id="history-svgrepo-com 1">
<path id="Vector" fill-rule="evenodd" clip-rule="evenodd" d="M5.07868 5.56891C8.87402 1.77893 15.0437 1.81923 18.8622 5.63778C22.6824 9.45797 22.7211 15.6313 18.9262 19.4262C15.1312 23.2211 8.95793 23.1824 5.13774 19.3622C2.87389 17.0984 1.93904 14.0099 2.34047 11.0812C2.39672 10.6708 2.775 10.3838 3.18537 10.44C3.59575 10.4963 3.88282 10.8745 3.82658 11.2849C3.4866 13.7652 4.27782 16.381 6.1984 18.3016C9.44288 21.5461 14.6664 21.5646 17.8655 18.3655C21.0646 15.1664 21.046 9.94292 17.8015 6.69844C14.5587 3.45561 9.33889 3.43539 6.13935 6.62957L6.88705 6.63333C7.30126 6.63541 7.63535 6.97288 7.63327 7.38709C7.63119 7.8013 7.29372 8.13539 6.87951 8.13331L4.33396 8.12052C3.92269 8.11845 3.58981 7.78556 3.58774 7.3743L3.57495 4.82874C3.57286 4.41454 3.90696 4.07707 4.32117 4.07498C4.73538 4.0729 5.07285 4.407 5.07493 4.82121L5.07868 5.56891ZM11.9999 7.74992C12.4141 7.74992 12.7499 8.08571 12.7499 8.49992V12.1893L15.0302 14.4696C15.3231 14.7625 15.3231 15.2374 15.0302 15.5302C14.7373 15.8231 14.2624 15.8231 13.9696 15.5302L11.2499 12.8106V8.49992C11.2499 8.08571 11.5857 7.74992 11.9999 7.74992Z" fill="#0277FA"/>
</g>
</svg>
