<svg width="45" height="44" viewBox="0 0 45 44" fill="none" xmlns="http://www.w3.org/2000/svg">
    <rect x="0.32666" width="44" height="44" rx="6" fill="#0079FF" fill-opacity="0.12"/>
    <path fill-rule="evenodd" clip-rule="evenodd" d="M21.1069 19.8708C20.9639 19.7914 20.8252 19.712 20.6885 19.6337C20.3129 19.4186 19.9522 19.2121 19.5595 19.0376C19.2024 18.8591 19.2024 18.74 19.4405 18.4425C20.0058 17.7879 20.5711 17.1184 21.1365 16.4489L21.1366 16.4487C21.702 15.7792 22.2674 15.1096 22.8328 14.455C23.4875 13.6813 24.1421 12.9076 24.7373 12.1339C24.9158 11.9554 24.9753 11.9554 25.1539 12.1339C26.5822 13.3242 28.0106 14.5145 29.4985 15.7048C29.7365 15.9428 29.677 16.0619 29.4985 16.2999C28.2784 17.7581 27.0583 19.2013 25.8383 20.6445L25.838 20.6448C24.6181 22.0879 23.3981 23.5311 22.1782 24.9891C22.0591 25.1676 21.9996 25.1676 21.8211 25.0486C20.5713 23.9773 19.381 22.9656 18.1312 21.9538L18.1907 21.8348C18.7858 22.0729 19.381 22.2514 20.0356 22.4299C20.7498 22.6085 21.464 22.3109 21.702 21.5967C21.9996 20.9421 21.7616 20.2279 21.1069 19.8708ZM27.3559 30.5835C27.1774 30.643 27.0584 30.643 26.9393 30.4644C26.5822 29.9883 26.0466 29.8693 25.4515 29.8693C25.1164 29.8693 24.7748 29.8628 24.431 29.8562C23.7367 29.8429 23.0334 29.8295 22.3567 29.8693C21.3449 29.8693 20.5117 29.5122 19.7976 28.8575L17.4765 26.8935C17.0599 26.4769 17.0004 26.0008 17.3575 25.6437C17.5955 25.2867 18.0716 25.2271 18.4882 25.5247C19.2619 26.0008 19.9761 26.4769 20.6903 27.0126C21.1664 27.3697 21.702 27.5482 22.2972 27.5482H25.2729C25.511 27.5482 25.749 27.5482 25.6895 27.3102C25.6895 27.0126 25.511 27.0126 25.2729 27.0126H23.4875C23.0114 26.9531 22.7138 26.6555 22.7138 26.2389C22.6543 25.8223 22.9518 25.4652 23.428 25.4652C23.8701 25.4652 24.3122 25.4555 24.7543 25.4458C25.8596 25.4215 26.9648 25.3972 28.0701 25.5247C29.0819 25.5842 29.7365 26.1794 30.1531 26.9531C30.5727 27.6664 30.874 28.4388 31.182 29.2287L31.1821 29.2289C31.311 29.5593 31.441 29.8929 31.5815 30.2264C30.0939 30.3454 28.7253 30.4644 27.3567 30.5834L27.3559 30.5835ZM21.1664 21.3587C21.2854 20.8826 21.1069 20.585 20.6903 20.3469C19.8571 19.9303 19.0834 19.4542 18.3097 18.9781C18.0121 18.8591 17.8336 18.6805 17.9526 18.3234C18.0121 18.0259 18.2502 17.9663 18.5478 17.9663C18.6093 17.9663 18.6708 17.9743 18.7302 17.982C18.9009 18.004 19.0546 18.0239 19.1429 17.8473C19.6454 17.2946 20.1479 16.6994 20.6862 16.0619L20.6867 16.0613C20.7858 15.9439 20.8861 15.825 20.9879 15.7048C20.7498 15.6651 20.5646 15.6254 20.3795 15.5858L20.3794 15.5857C20.2869 15.5659 20.1943 15.5461 20.0951 15.5262C19.9816 15.5062 19.8688 15.4854 19.7565 15.4647C18.8682 15.301 18.0109 15.143 17.0599 15.4072C16.9581 15.439 16.857 15.4708 16.7564 15.5025L16.7564 15.5025C15.9155 15.767 15.1068 16.0214 14.2032 16.1809C13.9651 16.1809 13.9651 16.3595 13.9651 16.4785V20.1684C14.1224 20.1235 14.2712 20.087 14.4115 20.0526C14.6429 19.9959 14.8512 19.9449 15.0364 19.8708C15.5125 19.6923 15.9291 19.8113 16.2267 20.2279C16.4647 20.466 16.7028 20.704 17.0599 20.8231C18.0716 21.1801 19.0834 21.5372 20.0951 21.8348C20.6308 22.0133 21.0474 21.7753 21.1664 21.3587ZM31.8789 30.8215L31.879 30.8215C32.1171 30.8215 32.1171 30.9405 32.1171 31.0596C32.2361 32.0118 32.1766 32.0118 31.2839 32.0118H27.0584C26.8798 32.0118 26.7608 31.9523 26.7608 31.7142C26.7608 31.6923 26.7599 31.6694 26.759 31.6462V31.6462V31.6462V31.6461C26.7524 31.4807 26.7452 31.2976 27.0584 31.2976C28.6652 31.1786 30.2721 31.0001 31.8789 30.8215ZM12.8939 15.7048H12.4773C12.2392 15.6453 12.1797 15.7643 12.1797 16.0619C12.3582 17.6093 12.4773 19.1566 12.5963 20.704C12.6558 21.0016 12.7748 21.0016 13.0129 21.0016C13.3105 21.0611 13.37 20.8826 13.37 20.6445C13.3305 20.131 13.3434 19.6436 13.3566 19.1477C13.3633 18.8965 13.37 18.6431 13.37 18.3829C13.37 18.1228 13.3633 17.8694 13.3566 17.6182C13.3434 17.1223 13.3305 16.6349 13.37 16.1214C13.37 15.7643 13.251 15.6453 12.8939 15.7048ZM23.4678 16.4949C23.609 16.781 23.8208 16.9956 24.1737 16.9956C24.4752 16.9956 24.6736 16.8913 24.901 16.7717C24.9399 16.7512 24.9796 16.7304 25.0208 16.7095C25.162 16.638 25.3031 16.5664 25.4443 16.7095C25.5855 16.8526 25.4443 16.9956 25.3031 17.1387C25.2325 17.2102 25.162 17.2818 25.0208 17.3533C25.0101 17.3587 24.999 17.3641 24.9878 17.3696C24.85 17.4369 24.6838 17.518 24.8796 17.7825C25.0208 17.9971 25.162 18.0686 25.4443 17.9256C25.5149 17.7825 25.6561 17.5679 25.8678 17.711C26.009 17.854 26.0796 17.854 26.2208 17.711C26.362 17.4964 26.362 17.4248 26.2208 17.2102C26.0796 17.1387 26.1502 16.9241 26.2208 16.8526C26.2208 15.9226 25.6561 15.565 24.809 15.9942C24.741 16.0171 24.6731 16.0622 24.6074 16.1057C24.4686 16.1978 24.3402 16.2829 24.2443 16.1372C24.1303 15.9062 24.2924 15.7684 24.4334 15.6486C24.467 15.6201 24.4995 15.5925 24.5267 15.565C24.5537 15.5512 24.5808 15.5401 24.6064 15.5297C24.7142 15.4855 24.7955 15.4523 24.7384 15.2788C24.5786 14.8739 24.3509 14.9962 24.1321 15.1137C23.9645 15.2037 23.8021 15.291 23.6796 15.1358C23.5384 15.0642 23.3267 15.4219 23.3267 15.4219C23.5334 15.5895 23.4979 15.8063 23.4614 16.029C23.4356 16.1864 23.4094 16.3468 23.4678 16.4949Z" fill="#0079FF"/>
</svg>
