<svg width="24" height="24" viewBox="0 0 24 24" fill="none" xmlns="http://www.w3.org/2000/svg">
<g id="location">
<path id="Vector" fill-rule="evenodd" clip-rule="evenodd" d="M3 10.1433C3 5.64588 7.02944 2 12 2C16.9706 2 21 5.64588 21 10.1433C21 14.6055 18.1275 19.8124 13.6458 21.6745C12.6011 22.1085 11.3989 22.1085 10.3542 21.6745C5.87249 19.8124 3 14.6055 3 10.1433ZM12 13.25C13.4202 13.25 14.5714 12.1308 14.5714 10.75C14.5714 9.36929 13.4202 8.25 12 8.25C10.5798 8.25 9.42857 9.36929 9.42857 10.75C9.42857 12.1308 10.5798 13.25 12 13.25Z" fill="#0079FF"/>
</g>
</svg>
