<svg width="24" height="24" viewBox="0 0 24 24" fill="none" xmlns="http://www.w3.org/2000/svg">
<g id="map_picc">
<path id="Subtract" fill-rule="evenodd" clip-rule="evenodd" d="M12 1C7.02944 1 3 4.64588 3 9.1433C3 12.9878 7.35914 18.1273 9.51362 20.6675C9.85979 21.0757 10.149 21.4167 10.3542 21.6745C11.3989 23.1085 12.6011 23.1085 13.6458 21.6745C13.851 21.4167 14.1403 21.0756 14.4865 20.6673C16.641 18.1271 21 12.9877 21 9.1433C21 4.64588 16.9706 1 12 1ZM12 5C12.3954 5 12.593 5 12.749 5.0609C12.9569 5.14209 13.1221 5.29783 13.2082 5.49385C13.2475 5.58333 13.2629 5.68739 13.2689 5.83918C13.2778 6.06226 13.3991 6.26876 13.6042 6.38038C13.8092 6.49201 14.0596 6.48784 14.2689 6.38352C14.4113 6.31254 14.5146 6.27308 14.6165 6.26044C14.8396 6.23274 15.0652 6.28974 15.2437 6.41891C15.3776 6.51575 15.4764 6.67709 15.674 6.99971L15.6742 7C15.8719 7.32281 15.9707 7.48422 15.9927 7.64199C16.0221 7.85235 15.9616 8.06509 15.8247 8.2334C15.7621 8.31028 15.6742 8.37484 15.5378 8.45568C15.3373 8.57444 15.2083 8.77672 15.2083 8.99996C15.2083 9.2232 15.3373 9.42556 15.5378 9.54432C15.6742 9.62512 15.7621 9.68972 15.8246 9.76656C15.9616 9.93488 16.0221 10.1476 15.9927 10.358C15.9706 10.5158 15.8718 10.6772 15.6741 11L15.6741 11C15.4764 11.3228 15.3776 11.4842 15.2437 11.5811C15.0652 11.7102 14.8395 11.7672 14.6164 11.7395C14.5146 11.7269 14.4113 11.6874 14.2689 11.6165C14.0595 11.5122 13.8092 11.508 13.6041 11.6196C13.3991 11.7312 13.2778 11.9377 13.2689 12.1608C13.2629 12.3126 13.2475 12.4167 13.2082 12.5062C13.1221 12.7022 12.9569 12.8579 12.749 12.9391C12.593 13 12.3954 13 12 13C11.6046 13 11.4069 13 11.251 12.9391C11.0431 12.8579 10.8779 12.7022 10.7918 12.5062C10.7525 12.4167 10.7371 12.3126 10.7311 12.1608C10.7222 11.9377 10.6009 11.7312 10.3958 11.6196C10.1908 11.508 9.94043 11.5122 9.73108 11.6165C9.58865 11.6874 9.48538 11.7269 9.38353 11.7396C9.16041 11.7672 8.93477 11.7102 8.75623 11.5811C8.62237 11.4843 8.52355 11.3229 8.32599 11.0003L8.32581 11C8.12813 10.6772 8.02929 10.5158 8.00726 10.358C7.97789 10.1476 8.03835 9.93492 8.17535 9.7666C8.23788 9.68976 8.32578 9.62516 8.46219 9.54432C8.66268 9.42556 8.79169 9.22324 8.7917 9C8.79171 8.77676 8.6627 8.5744 8.46219 8.4556C8.3258 8.3748 8.23792 8.31024 8.17539 8.2334C8.03839 8.06506 7.97793 7.85232 8.0073 7.64196C8.02933 7.48419 8.12817 7.32279 8.32585 6.99997C8.52353 6.67716 8.62237 6.51575 8.75628 6.41888C8.93481 6.28972 9.16046 6.23271 9.38357 6.26041C9.48542 6.27305 9.5887 6.31252 9.73115 6.3835C9.94048 6.48782 10.1908 6.49198 10.3959 6.38037C10.6009 6.26876 10.7222 6.06227 10.7311 5.8392C10.7371 5.6874 10.7525 5.58334 10.7918 5.49385C10.8779 5.29783 11.0431 5.14209 11.251 5.0609C11.4069 5 11.6046 5 12 5ZM13.2728 9C13.2728 9.66276 12.7029 10.2 12 10.2C11.297 10.2 10.7272 9.66276 10.7272 9C10.7272 8.33724 11.297 7.8 12 7.8C12.7029 7.8 13.2728 8.33724 13.2728 9Z" fill="#0079FF"/>
</g>
</svg>
