<svg width="330" height="214" viewBox="0 0 330 214" fill="none" xmlns="http://www.w3.org/2000/svg">
    <g clip-path="url(#clip0_2501_1396)">
        <path d="M329.718 79.1383C326.647 76.6732 322.238 77.3494 318.321 76.9552C315.656 76.6884 313.051 75.8576 310.723 74.5357C307.836 72.8984 304.898 70.4091 301.651 71.1004C299.98 71.4582 298.607 72.6225 297.033 73.2926C293.84 74.6509 290.135 73.8414 286.937 72.4921C284.117 71.3036 281.164 69.6724 278.183 70.3637C276.998 70.6396 275.93 71.2642 274.872 71.8645C269.496 74.9056 263.83 77.4312 257.972 79.396L329.718 79.1383Z" fill="#EBEBFF"/>
        <path d="M177.142 31.0478C172.312 27.1698 165.374 28.2341 159.21 27.6155C155.02 27.1941 150.921 25.8903 147.258 23.8104C142.716 21.2332 138.096 17.3189 132.99 18.4073C130.361 18.9683 128.202 20.8026 125.728 21.8547C120.704 23.9893 114.876 22.7188 109.846 20.5964C105.411 18.7257 100.766 16.1637 96.075 17.2491C94.2103 17.6827 92.5306 18.6681 90.866 19.611C82.4098 24.3955 73.4957 28.3675 64.2845 31.4571L177.142 31.0478Z" fill="#EBEBFF"/>
        <path d="M112.86 89.7504C108.03 85.8725 101.093 86.9367 94.9289 86.3182C90.7387 85.8967 86.6395 84.593 82.9768 82.513C78.4349 79.9358 73.8141 76.0215 68.7082 77.11C66.0794 77.6709 63.9207 79.5053 61.4466 80.5574C56.4225 82.6919 50.595 81.4215 45.5649 79.2991C41.1291 77.4283 36.4841 74.8663 31.7936 75.9518C29.9289 76.3853 28.2492 77.3707 26.5846 78.3137C18.1253 83.0982 9.21122 87.0731 0 90.1627L112.86 89.7504Z" fill="#EBEBFF"/>
        <path d="M104.764 209.918C104.764 209.918 76.6788 167.931 86.0446 152.252C95.4105 136.574 111.526 180.856 115.488 204.627L104.764 209.918Z" fill="url(#paint0_linear_2501_1396)"/>
        <path d="M113.072 206.482C113.072 206.482 99.8796 171.705 109.073 161.572C118.266 151.439 122.577 186.177 121.555 204.151L113.072 206.482Z" fill="url(#paint1_linear_2501_1396)"/>
        <path d="M198.556 213.135C198.556 213.135 217.421 184.928 211.133 174.398C204.842 163.865 194.014 193.615 191.352 209.581L198.556 213.135Z" fill="url(#paint2_linear_2501_1396)"/>
        <path d="M192.974 210.827C192.974 210.827 201.837 187.466 195.661 180.659C189.484 173.852 186.589 197.186 187.277 209.263L192.974 210.827Z" fill="url(#paint3_linear_2501_1396)"/>
        <path d="M302.718 213.65C290.978 210.179 283.604 205.07 275.041 200.734C267.428 196.88 260.573 191.553 252.659 188.36C244.746 185.168 235.031 184.482 228.227 189.637C222.815 193.736 220.138 200.825 214.398 204.454C204.517 210.703 191.74 203.766 182.656 196.407C173.572 189.048 162.682 180.51 151.484 183.876C147.261 185.146 143.728 187.996 140.002 190.355C130.745 196.219 119.045 199.212 108.666 195.692C94.7738 190.98 84.5408 175.441 69.9114 176.526C60.6729 177.212 53.487 184.507 47.2259 191.335C40.8163 198.323 34.4097 206.61 28 213.596L302.718 213.65Z" fill="url(#paint4_linear_2501_1396)"/>
        <path d="M149.565 6.78248V213.644H159.941V6.78248C159.941 3.91724 157.618 1.59473 154.753 1.59473C151.888 1.59473 149.565 3.91724 149.565 6.78248Z" fill="url(#paint5_linear_2501_1396)"/>
        <path d="M186.286 0.321289L188.626 1.16722L187.217 5.0694L184.876 4.22348L186.286 0.321289Z" fill="url(#paint6_linear_2501_1396)"/>
        <path d="M191.916 91.976L175.377 121.693C174.452 123.357 172.351 123.955 170.686 123.03L120.87 95.3052C120.13 94.8928 119.567 94.2227 119.291 93.4223L110.737 68.7842C110.052 66.8134 111.262 64.691 113.305 64.2757L138.362 59.1758C139.168 59.0121 140.008 59.1425 140.727 59.5427L190.579 87.2855C192.244 88.2133 192.844 90.3115 191.916 91.976Z" fill="url(#paint7_linear_2501_1396)"/>
        <path d="M137.173 124.933L129.797 146.112C129.384 147.297 130.009 148.595 131.194 149.008L166.696 161.375C167.224 161.56 167.8 161.542 168.315 161.327L184.197 154.729C185.467 154.201 185.983 152.676 185.288 151.485L176.808 136.913C176.535 136.443 176.104 136.088 175.592 135.909L140.066 123.536C138.883 123.123 137.589 123.748 137.173 124.933Z" fill="url(#paint8_linear_2501_1396)"/>
        <path d="M146.997 43.9156L142.886 56.8804C142.655 57.6051 143.058 58.3813 143.783 58.6117L165.516 65.5035C165.841 65.6065 166.19 65.5853 166.499 65.4459L176.013 61.1768C176.774 60.8342 177.059 59.9003 176.62 59.1908L171.232 50.5011C171.059 50.2222 170.789 50.013 170.477 49.9129L148.728 43.0151C148.001 42.7877 147.227 43.191 146.997 43.9156Z" fill="url(#paint9_linear_2501_1396)"/>
        <path d="M128.881 17.6707L133.08 42.1965C133.317 43.57 134.62 44.4918 135.991 44.2583L177.105 37.218C177.714 37.1149 178.266 36.7875 178.651 36.3023L190.534 21.3758C191.486 20.1812 191.164 18.4226 189.854 17.6404L173.803 8.03499C173.287 7.72572 172.675 7.61051 172.084 7.71359L130.94 14.76C129.569 14.9934 128.644 16.2972 128.881 17.6707Z" fill="url(#paint10_linear_2501_1396)"/>
        <path d="M108.854 48.4729L113.39 46.2505L117.092 53.8153L112.553 56.0348L108.854 48.4729Z" fill="url(#paint11_linear_2501_1396)"/>
        <path d="M101.581 56.1772L103.806 52.7207L109.564 56.4288L107.341 59.8853L101.581 56.1772Z" fill="url(#paint12_linear_2501_1396)"/>
        <path d="M99.6826 67.6382L99.437 63.5359L106.274 63.1235L106.523 67.2258L99.6826 67.6382Z" fill="url(#paint13_linear_2501_1396)"/>
        <path d="M192.353 4.20215L194.236 5.83033L191.528 8.97149L189.642 7.34633L192.353 4.20215Z" fill="url(#paint14_linear_2501_1396)"/>
        <path d="M198.013 9.90576L198.85 12.2495L194.942 13.6442L194.105 11.3005L198.013 9.90576Z" fill="url(#paint15_linear_2501_1396)"/>
        <path d="M154.753 29.4771C156.543 29.4771 157.994 28.0259 157.994 26.2358C157.994 24.4458 156.543 22.9946 154.753 22.9946C152.963 22.9946 151.512 24.4458 151.512 26.2358C151.512 28.0259 152.963 29.4771 154.753 29.4771Z" fill="url(#paint16_linear_2501_1396)"/>
        <path d="M154.753 92.3789C156.543 92.3789 157.994 90.9278 157.994 89.1377C157.994 87.3476 156.543 85.8965 154.753 85.8965C152.963 85.8965 151.512 87.3476 151.512 89.1377C151.512 90.9278 152.963 92.3789 154.753 92.3789Z" fill="url(#paint17_linear_2501_1396)"/>
        <path d="M154.428 144.909C155.683 144.909 156.699 143.892 156.699 142.638C156.699 141.383 155.683 140.367 154.428 140.367C153.174 140.367 152.157 141.383 152.157 142.638C152.157 143.892 153.174 144.909 154.428 144.909Z" fill="url(#paint18_linear_2501_1396)"/>
        <path d="M154.753 54.7702C155.47 54.7702 156.051 54.1892 156.051 53.4725C156.051 52.7558 155.47 52.1748 154.753 52.1748C154.036 52.1748 153.455 52.7558 153.455 53.4725C153.455 54.1892 154.036 54.7702 154.753 54.7702Z" fill="url(#paint19_linear_2501_1396)"/>
        <path d="M68.0679 103.761V213.438H77.2003V103.761C77.2003 100.214 75.1568 97.3364 72.6341 97.3364C70.1115 97.3364 68.0679 100.214 68.0679 103.761Z" fill="url(#paint20_linear_2501_1396)"/>
        <path d="M36.5594 110.874L102.139 101.796C105.795 101.29 109.173 103.846 109.679 107.503L113.436 134.639C113.942 138.296 111.386 141.673 107.73 142.18L42.1504 151.257C38.4938 151.764 35.1161 149.208 34.6098 145.551L30.8531 118.415C30.3468 114.755 32.9028 111.381 36.5594 110.874Z" fill="url(#paint21_linear_2501_1396)"/>
        <path d="M75.051 124.188C75.051 126.04 73.5493 127.542 71.6969 127.542C69.8444 127.542 68.3427 126.04 68.3427 124.188C68.3427 122.335 69.8444 120.833 71.6969 120.833C73.5493 120.833 75.051 122.335 75.051 124.188Z" fill="white"/>
        <path d="M77.4469 132.813C77.4469 134.665 74.8725 136.167 71.6969 136.167C68.5213 136.167 65.9469 134.665 65.9469 132.813C65.9469 130.96 68.5213 129.458 71.6969 129.458C74.8725 129.458 77.4469 130.96 77.4469 132.813Z" fill="white"/>
        <path d="M67.0222 121.792C67.1923 121.792 67.3583 121.808 67.5186 121.84C67.128 122.534 66.9052 123.334 66.9052 124.187C66.9052 125.019 67.1173 125.802 67.4904 126.484C67.3388 126.512 67.1823 126.527 67.0222 126.527C65.6667 126.527 64.5679 125.467 64.5679 124.159C64.5679 122.852 65.6667 121.792 67.0222 121.792Z" fill="white"/>
        <path d="M65.4173 135.195C64.873 134.544 64.5094 133.746 64.5094 132.813C64.5094 131.908 64.8511 131.13 65.3679 130.49C63.5426 130.632 62.1136 131.63 62.1136 132.841C62.1136 134.063 63.5677 135.068 65.4173 135.195Z" fill="white"/>
        <path d="M76.4885 124.187C76.4885 125.019 76.2764 125.802 75.9033 126.484C76.0549 126.512 76.2114 126.527 76.3715 126.527C77.727 126.527 78.8258 125.467 78.8258 124.159C78.8258 122.852 77.727 121.792 76.3715 121.792C76.2014 121.792 76.0355 121.808 75.8751 121.84C76.2656 122.534 76.4885 123.334 76.4885 124.187Z" fill="white"/>
        <path d="M77.9765 135.195C79.8261 135.068 81.2802 134.063 81.2802 132.841C81.2802 131.63 79.8512 130.632 78.0259 130.49C78.5426 131.13 78.8843 131.908 78.8843 132.813C78.8843 133.746 78.5207 134.544 77.9765 135.195Z" fill="white"/>
        <path fill-rule="evenodd" clip-rule="evenodd" d="M82.4317 115.235C82.5782 115.088 82.8156 115.088 82.9621 115.235L86.1969 118.47L89.4317 115.235C89.5782 115.088 89.8156 115.088 89.9621 115.235C90.1085 115.381 90.1085 115.619 89.9621 115.765L86.7272 119L89.9621 122.235C90.1085 122.381 90.1085 122.619 89.9621 122.765C89.8156 122.912 89.5782 122.912 89.4317 122.765L86.1969 119.53L82.9621 122.765C82.8156 122.912 82.5782 122.912 82.4317 122.765C82.2853 122.619 82.2853 122.381 82.4317 122.235L85.6666 119L82.4317 115.765C82.2853 115.619 82.2853 115.381 82.4317 115.235Z" fill="white" stroke="white" stroke-width="0.8" stroke-linecap="round" stroke-linejoin="round"/>
        <path d="M231.835 127.417C233.224 128.048 233.43 126.122 233.43 126.122C234.84 126.274 233.843 120.868 233.785 120.574C234.598 122.111 236.032 122.266 236.032 122.266L234.346 115.274C234.707 111.902 232.184 108.225 232.184 108.225L232.939 102.87L236.15 67.2531C236.881 62.7081 227.779 60.3644 227.791 61.2497C227.882 69.5362 226.454 118.567 226.454 118.567L230.019 126.247C230.82 127.79 231.835 127.417 231.835 127.417Z" fill="#FDBFBA"/>
        <path d="M231.869 97.3877L232.666 139.293C232.448 140.603 232.451 141.94 232.678 143.247L243.309 204.66H257.125L249 142.489L256.716 97.3877H231.869Z" fill="url(#paint22_linear_2501_1396)"/>
        <path d="M258.138 213.398H230.914C230.914 213.398 228.561 209.872 238.103 206.664C238.454 206.546 238.8 206.401 239.127 206.222L243.102 204.054L257.732 203.647C257.738 203.644 258.138 213.398 258.138 213.398Z" fill="url(#paint23_linear_2501_1396)"/>
        <path d="M266.67 213.398H239.446C239.446 213.398 237.093 209.869 246.647 206.661C246.992 206.546 247.329 206.404 247.65 206.231L252.45 203.645H266.267C266.27 203.645 266.67 213.398 266.67 213.398Z" fill="url(#paint24_linear_2501_1396)"/>
        <path d="M266.467 101.857L260.373 144.523L266.467 203.848H252.244L241.814 143.274C241.723 142.753 241.686 142.222 241.702 141.691L242.872 101.854H266.467V101.857Z" fill="url(#paint25_linear_2501_1396)"/>
        <path d="M253.223 21.6878L252.02 39.2582L241.799 39.7252L241.774 35.2408L241.768 34.1615L241.741 29.8075L241.738 29.6802C241.689 29.6741 241.641 29.668 241.595 29.662C232.366 28.3006 235.683 5.9699 235.683 5.9699C245.598 1.52499 252.668 6.20943 255.061 12.7222C257.459 19.2288 253.223 21.6878 253.223 21.6878Z" fill="#FDBFBA"/>
        <path d="M230.626 44.3945L226.087 66.4402H233.867L230.626 44.3945Z" fill="url(#paint26_linear_2501_1396)"/>
        <path d="M272.349 50.5918C272.025 51.4014 271.724 52.2322 271.439 53.0932C267.307 65.4881 266.376 106.129 266.376 106.129L231.92 106.647C231.926 106.566 230.623 44.3944 230.623 44.3944C230.244 44.6431 241.126 37.4815 241.244 37.3844C247.902 41.5959 252.514 34.8618 252.514 34.8618C257.986 36.305 265.594 38.7094 268.783 40.1709C268.89 40.2133 269.002 40.2618 269.114 40.3164C269.12 40.3225 269.123 40.3255 269.129 40.3255H269.135C269.15 40.3315 269.162 40.3376 269.178 40.3437C271.33 41.3351 272.825 43.4121 272.962 45.777C273.11 48.3118 272.349 50.5918 272.349 50.5918Z" fill="url(#paint27_linear_2501_1396)"/>
        <path d="M272.349 50.5917C272.025 51.4012 271.724 52.232 271.439 53.0931C270.302 55.8916 268.826 59.1874 266.916 63.0259C265.003 66.8674 255.916 58.6598 255.916 58.6598L261.049 43.6939C261.77 41.6927 263.465 40.1373 265.563 39.7826C266.522 39.6188 267.613 39.6795 268.786 40.1737C268.893 40.2161 269.005 40.2647 269.117 40.3192C269.123 40.3253 269.126 40.3283 269.132 40.3283H269.138C269.153 40.3344 269.165 40.3405 269.181 40.3465C271.333 41.338 272.828 43.4149 272.965 45.7799C273.11 48.3116 272.349 50.5917 272.349 50.5917Z" fill="url(#paint28_linear_2501_1396)"/>
        <path d="M266.467 63.9175L263.55 68.135L254.724 80.8967C252.235 84.4957 246.647 83.3708 245.743 79.0866L243.315 67.5256L241.859 58.6024L241.52 56.5346L239.922 46.72C239.922 46.72 237.02 43.8153 236.532 42.36C236.532 42.36 235.568 37.0418 236.047 36.0716C236.532 35.0983 237.502 36.0716 237.502 36.0716C237.502 36.0716 237.757 31.7358 237.757 30.7747C237.757 28.8281 237.921 28.8281 238.406 28.8281C239.701 28.8281 240.349 30.7747 240.407 34.1372L241.371 38.006L243.97 40.5438L243.791 37.0418C243.791 37.0418 246.207 36.5597 246.207 40.4255L245.246 44.3004L249.33 58.6054L252.02 67.7408L255.679 58.6024L255.946 58.7328L266.467 63.9175Z" fill="#FDBFBA"/>
        <path d="M249.924 16.1151C249.924 16.1151 246.832 11.1001 248.548 8.78369C248.548 8.78369 239.704 15.3783 235.462 8.98986C231.017 2.29217 240.219 -3.69907 251.137 2.78032C251.137 2.78032 254.294 1.77673 257.053 5.73956C257.053 5.73956 259.299 14.9629 252.671 24.2893V21.0481C252.671 21.0481 255.973 15.2146 251.835 14.6233C251.835 14.6233 250.643 14.7294 249.924 16.1151Z" fill="#473765"/>
        <path opacity="0.12" d="M250.534 25.9175C248.072 32.5636 243.748 34.6254 241.777 35.2409L241.771 34.1615L241.744 29.8075L241.741 29.6802C241.692 29.6741 241.644 29.6681 241.599 29.662C246.125 29.1708 250.388 26.0206 250.534 25.9175Z" fill="black"/>
        <path opacity="0.12" d="M266.467 63.9176L263.553 68.1351L255.949 58.7329L266.467 63.9176Z" fill="black"/>
    </g>
    <defs>
        <linearGradient id="paint0_linear_2501_1396" x1="79.7563" y1="174.814" x2="120.439" y2="185.22" gradientUnits="userSpaceOnUse">
            <stop stop-color="#79BFFD"/>
            <stop offset="1" stop-color="#6568EB"/>
        </linearGradient>
        <linearGradient id="paint1_linear_2501_1396" x1="100.978" y1="177.191" x2="128.237" y2="190.651" gradientUnits="userSpaceOnUse">
            <stop stop-color="#79BFFD"/>
            <stop offset="1" stop-color="#6568EB"/>
        </linearGradient>
        <linearGradient id="paint2_linear_2501_1396" x1="215.361" y1="189.562" x2="188.032" y2="196.552" gradientUnits="userSpaceOnUse">
            <stop stop-color="#79BFFD"/>
            <stop offset="1" stop-color="#6568EB"/>
        </linearGradient>
        <linearGradient id="paint3_linear_2501_1396" x1="201.09" y1="191.152" x2="182.778" y2="200.194" gradientUnits="userSpaceOnUse">
            <stop stop-color="#79BFFD"/>
            <stop offset="1" stop-color="#6568EB"/>
        </linearGradient>
        <linearGradient id="paint4_linear_2501_1396" x1="229.782" y1="194.553" x2="64.4347" y2="196.51" gradientUnits="userSpaceOnUse">
            <stop stop-color="#0079FF"/>
            <stop offset="1" stop-color="#4285F4"/>
        </linearGradient>
        <linearGradient id="paint5_linear_2501_1396" x1="149.566" y1="107.619" x2="159.942" y2="107.619" gradientUnits="userSpaceOnUse">
            <stop stop-color="#2B0246"/>
            <stop offset="1" stop-color="#6A4586"/>
        </linearGradient>
        <linearGradient id="paint6_linear_2501_1396" x1="184.876" y1="2.69662" x2="188.627" y2="2.69662" gradientUnits="userSpaceOnUse">
            <stop stop-color="#EA84DE"/>
            <stop offset="1" stop-color="#C352F7"/>
        </linearGradient>
        <linearGradient id="paint7_linear_2501_1396" x1="110.549" y1="91.2865" x2="192.353" y2="91.2865" gradientUnits="userSpaceOnUse">
            <stop stop-color="#F46595"/>
            <stop offset="1" stop-color="#F89597"/>
        </linearGradient>
        <linearGradient id="paint8_linear_2501_1396" x1="129.671" y1="142.454" x2="185.602" y2="142.454" gradientUnits="userSpaceOnUse">
            <stop stop-color="#79BFFD"/>
            <stop offset="1" stop-color="#6568EB"/>
        </linearGradient>
        <linearGradient id="paint9_linear_2501_1396" x1="142.82" y1="54.2607" x2="176.826" y2="54.2607" gradientUnits="userSpaceOnUse">
            <stop stop-color="#79BFFD"/>
            <stop offset="1" stop-color="#6568EB"/>
        </linearGradient>
        <linearGradient id="paint10_linear_2501_1396" x1="128.844" y1="25.9859" x2="191.085" y2="25.9859" gradientUnits="userSpaceOnUse">
            <stop stop-color="#EA84DE"/>
            <stop offset="1" stop-color="#C352F7"/>
        </linearGradient>
        <linearGradient id="paint11_linear_2501_1396" x1="108.853" y1="51.1435" x2="117.092" y2="51.1435" gradientUnits="userSpaceOnUse">
            <stop stop-color="#F46595"/>
            <stop offset="1" stop-color="#F89597"/>
        </linearGradient>
        <linearGradient id="paint12_linear_2501_1396" x1="101.581" y1="56.3023" x2="109.565" y2="56.3023" gradientUnits="userSpaceOnUse">
            <stop stop-color="#F46595"/>
            <stop offset="1" stop-color="#F89597"/>
        </linearGradient>
        <linearGradient id="paint13_linear_2501_1396" x1="99.4371" y1="65.3809" x2="106.522" y2="65.3809" gradientUnits="userSpaceOnUse">
            <stop stop-color="#F46595"/>
            <stop offset="1" stop-color="#F89597"/>
        </linearGradient>
        <linearGradient id="paint14_linear_2501_1396" x1="189.642" y1="6.58733" x2="194.237" y2="6.58733" gradientUnits="userSpaceOnUse">
            <stop stop-color="#EA84DE"/>
            <stop offset="1" stop-color="#C352F7"/>
        </linearGradient>
        <linearGradient id="paint15_linear_2501_1396" x1="194.107" y1="11.7755" x2="198.851" y2="11.7755" gradientUnits="userSpaceOnUse">
            <stop stop-color="#EA84DE"/>
            <stop offset="1" stop-color="#C352F7"/>
        </linearGradient>
        <linearGradient id="paint16_linear_2501_1396" x1="151.512" y1="26.2361" x2="157.996" y2="26.2361" gradientUnits="userSpaceOnUse">
            <stop stop-color="#2B0246"/>
            <stop offset="1" stop-color="#6A4586"/>
        </linearGradient>
        <linearGradient id="paint17_linear_2501_1396" x1="151.512" y1="89.1376" x2="157.996" y2="89.1376" gradientUnits="userSpaceOnUse">
            <stop stop-color="#2B0246"/>
            <stop offset="1" stop-color="#6A4586"/>
        </linearGradient>
        <linearGradient id="paint18_linear_2501_1396" x1="152.16" y1="142.637" x2="156.699" y2="142.637" gradientUnits="userSpaceOnUse">
            <stop stop-color="#2B0246"/>
            <stop offset="1" stop-color="#6A4586"/>
        </linearGradient>
        <linearGradient id="paint19_linear_2501_1396" x1="153.457" y1="53.472" x2="156.051" y2="53.472" gradientUnits="userSpaceOnUse">
            <stop stop-color="#2B0246"/>
            <stop offset="1" stop-color="#6A4586"/>
        </linearGradient>
        <linearGradient id="paint20_linear_2501_1396" x1="68.0672" y1="155.387" x2="77.1988" y2="155.387" gradientUnits="userSpaceOnUse">
            <stop stop-color="#2B0246"/>
            <stop offset="1" stop-color="#6A4586"/>
        </linearGradient>
        <linearGradient id="paint21_linear_2501_1396" x1="32.7314" y1="131.987" x2="111.559" y2="121.077" gradientUnits="userSpaceOnUse">
            <stop stop-color="#F46595"/>
            <stop offset="1" stop-color="#F89597"/>
        </linearGradient>
        <linearGradient id="paint22_linear_2501_1396" x1="230.421" y1="250.581" x2="247.93" y2="126.723" gradientUnits="userSpaceOnUse">
            <stop stop-color="#79BFFD"/>
            <stop offset="1" stop-color="#6568EB"/>
        </linearGradient>
        <linearGradient id="paint23_linear_2501_1396" x1="247.978" y1="208.522" x2="220.497" y2="208.522" gradientUnits="userSpaceOnUse">
            <stop stop-color="#2B0246"/>
            <stop offset="1" stop-color="#6A4586"/>
        </linearGradient>
        <linearGradient id="paint24_linear_2501_1396" x1="274.885" y1="208.522" x2="247.404" y2="208.522" gradientUnits="userSpaceOnUse">
            <stop stop-color="#2B0246"/>
            <stop offset="1" stop-color="#6A4586"/>
        </linearGradient>
        <linearGradient id="paint25_linear_2501_1396" x1="251.799" y1="174.458" x2="266.714" y2="62.273" gradientUnits="userSpaceOnUse">
            <stop stop-color="#79BFFD"/>
            <stop offset="1" stop-color="#6568EB"/>
        </linearGradient>
        <linearGradient id="paint26_linear_2501_1396" x1="228.852" y1="56.1226" x2="247.874" y2="83.1421" gradientUnits="userSpaceOnUse">
            <stop stop-color="#2B0246"/>
            <stop offset="1" stop-color="#6A4586"/>
        </linearGradient>
        <linearGradient id="paint27_linear_2501_1396" x1="254.408" y1="105.197" x2="251.443" y2="61.4653" gradientUnits="userSpaceOnUse">
            <stop stop-color="#2B0246"/>
            <stop offset="1" stop-color="#6A4586"/>
        </linearGradient>
        <linearGradient id="paint28_linear_2501_1396" x1="265.374" y1="66.585" x2="263.644" y2="39.9977" gradientUnits="userSpaceOnUse">
            <stop stop-color="#2B0246"/>
            <stop offset="1" stop-color="#6A4586"/>
        </linearGradient>
        <clipPath id="clip0_2501_1396">
            <rect width="329.718" height="213.65" fill="white"/>
        </clipPath>
    </defs>
</svg>
