<svg width="200" height="200" viewBox="0 0 200 200" fill="none" xmlns="http://www.w3.org/2000/svg">
<g clip-path="url(#clip0_5668_8309)">
<g clip-path="url(#clip1_5668_8309)">
<path opacity="0.06" d="M96.2318 180.27C139.428 180.27 174.394 145.26 174.394 102.107C174.394 58.9547 139.384 23.9014 96.2318 23.9014C53.0791 23.9014 18.0693 58.9112 18.0693 102.064C18.0693 145.216 53.0356 180.27 96.2318 180.27Z" fill="#0079FF"/>
<g filter="url(#filter0_d_5668_8309)">
<path d="M167.34 89.4795H68.1023C65.3155 89.4795 63.0947 91.7438 63.0947 94.4871V154.84C63.0947 157.627 65.359 159.847 68.1023 159.847H167.34C170.127 159.847 172.348 157.583 172.348 154.84V94.5307C172.348 91.7438 170.127 89.4795 167.34 89.4795Z" fill="#0079FF"/>
<path d="M167.34 89.4795H68.1023C65.3155 89.4795 63.0947 91.7438 63.0947 94.4871V154.84C63.0947 157.627 65.359 159.847 68.1023 159.847H167.34C170.127 159.847 172.348 157.583 172.348 154.84V94.5307C172.348 91.7438 170.127 89.4795 167.34 89.4795Z" fill="url(#paint0_linear_5668_8309)"/>
</g>
<path d="M128.324 96.2726V154.883C128.324 156.233 127.801 157.496 126.843 158.454C125.885 159.412 124.623 159.935 123.273 159.935H37.8383C36.4884 159.935 35.2256 159.412 34.2676 158.454C33.3096 157.496 32.7871 156.233 32.7871 154.883V91.7439C32.7871 91.0472 32.9177 90.3505 33.2226 89.6973C33.5274 89.0442 33.9193 88.4781 34.4853 87.9991L72.1949 54.4698C73.1093 53.6425 74.285 53.207 75.5043 53.207C76.7235 53.207 77.8992 53.5989 78.8137 54.3827L128.106 96.2726H128.324Z" fill="#0079FF"/>
<path d="M128.324 96.2726V154.883C128.324 156.233 127.801 157.496 126.843 158.454C125.885 159.412 124.623 159.935 123.273 159.935H37.8383C36.4884 159.935 35.2256 159.412 34.2676 158.454C33.3096 157.496 32.7871 156.233 32.7871 154.883V91.7439C32.7871 91.0472 32.9177 90.3505 33.2226 89.6973C33.5274 89.0442 33.9193 88.4781 34.4853 87.9991L72.1949 54.4698C73.1093 53.6425 74.285 53.207 75.5043 53.207C76.7235 53.207 77.8992 53.5989 78.8137 54.3827L128.106 96.2726H128.324Z" fill="url(#paint1_linear_5668_8309)"/>
<path d="M128.324 96.2719V89.5225L79.5537 47.9375H118.178C119.397 47.9375 120.573 48.3729 121.531 49.1567L176.876 94.3124C177.05 94.4431 177.181 94.6608 177.224 94.8785C177.268 95.0962 177.268 95.3139 177.181 95.5317C177.093 95.7494 176.963 95.9236 176.789 96.0542C176.614 96.1848 176.397 96.2719 176.179 96.2719H128.324Z" fill="#0079FF"/>
<path d="M128.324 96.2719V89.5225L79.5537 47.9375H118.178C119.397 47.9375 120.573 48.3729 121.531 49.1567L176.876 94.3124C177.05 94.4431 177.181 94.6608 177.224 94.8785C177.268 95.0962 177.268 95.3139 177.181 95.5317C177.093 95.7494 176.963 95.9236 176.789 96.0542C176.614 96.1848 176.397 96.2719 176.179 96.2719H128.324Z" fill="url(#paint2_linear_5668_8309)" fill-opacity="0.6"/>
<g opacity="0.7">
<path d="M93.4451 116.477H66.2298C65.4895 116.477 64.8799 117.086 64.8799 117.826V159.89H94.795V117.826C94.795 117.086 94.1853 116.477 93.4451 116.477Z" fill="#0079FF"/>
<path d="M93.4451 116.477H66.2298C65.4895 116.477 64.8799 117.086 64.8799 117.826V159.89H94.795V117.826C94.795 117.086 94.1853 116.477 93.4451 116.477Z" fill="url(#paint3_linear_5668_8309)"/>
</g>
<path d="M81.9049 49.9406L79.6406 47.9375L79.5971 47.981L79.5535 47.9375L76.3748 50.7679L25.9502 94.2689C25.776 94.3995 25.6454 94.6172 25.6018 94.835C25.5583 95.0527 25.5583 95.2704 25.6454 95.4881C25.7325 95.7058 25.8631 95.88 26.0373 96.0107C26.2115 96.1413 26.4292 96.2284 26.6469 96.2284L31.8287 96.3155L79.6406 55.1223L128.106 96.2719H128.323L136.161 96.1848L81.9049 49.9406Z" fill="#0079FF"/>
<path d="M81.9049 49.9406L79.6406 47.9375L79.5971 47.981L79.5535 47.9375L76.3748 50.7679L25.9502 94.2689C25.776 94.3995 25.6454 94.6172 25.6018 94.835C25.5583 95.0527 25.5583 95.2704 25.6454 95.4881C25.7325 95.7058 25.8631 95.88 26.0373 96.0107C26.2115 96.1413 26.4292 96.2284 26.6469 96.2284L31.8287 96.3155L79.6406 55.1223L128.106 96.2719H128.323L136.161 96.1848L81.9049 49.9406Z" fill="url(#paint4_linear_5668_8309)" fill-opacity="0.6"/>
<path d="M79.4229 101.368C84.7353 101.368 89.0027 97.0567 89.0027 91.7878C89.0027 86.4754 84.6918 82.208 79.4229 82.208C74.1105 82.208 69.8431 86.5189 69.8431 91.7878C69.7996 97.0567 74.1105 101.368 79.4229 101.368Z" fill="#0079FF"/>
<path d="M79.4229 101.368C84.7353 101.368 89.0027 97.0567 89.0027 91.7878C89.0027 86.4754 84.6918 82.208 79.4229 82.208C74.1105 82.208 69.8431 86.5189 69.8431 91.7878C69.7996 97.0567 74.1105 101.368 79.4229 101.368Z" fill="url(#paint5_linear_5668_8309)"/>
<g opacity="0.7">
<path d="M55.7352 116.477H40.4075C39.6672 116.477 39.0576 117.086 39.0576 117.826V142.298C39.0576 143.039 39.6672 143.648 40.4075 143.648H55.7352C56.4754 143.648 57.085 143.039 57.085 142.298V117.826C57.085 117.086 56.4754 116.477 55.7352 116.477Z" fill="#0079FF"/>
<path d="M55.7352 116.477H40.4075C39.6672 116.477 39.0576 117.086 39.0576 117.826V142.298C39.0576 143.039 39.6672 143.648 40.4075 143.648H55.7352C56.4754 143.648 57.085 143.039 57.085 142.298V117.826C57.085 117.086 56.4754 116.477 55.7352 116.477Z" fill="url(#paint6_linear_5668_8309)"/>
</g>
<path d="M59.0346 105.5C59.0346 101.898 58.3365 98.2958 56.9403 94.9648C55.544 91.6338 53.5273 88.6127 50.9675 86.0563C48.4078 83.5 45.3826 81.4859 42.0472 80.0915C38.7117 78.6972 35.1436 78 31.4979 78C27.891 78 24.2841 78.6972 20.9486 80.0915C17.6132 81.4859 14.588 83.5 12.0283 86.0563C9.46855 88.6127 7.45178 91.6338 6.05556 94.9648C4.69811 98.2958 4 101.859 4 105.5C4 109.102 4.69811 112.665 6.09434 116.035C7.49057 119.366 9.50734 122.387 12.0671 124.944C14.6268 127.5 17.652 129.514 20.9874 130.908C24.3229 132.303 27.891 133 31.5367 133H78L68.3428 125.099C65.434 122.736 63.1069 119.754 61.478 116.345C59.8878 112.937 59.0346 109.218 59.0346 105.5Z" fill="#212121"/>
<path d="M59.0346 105.5C59.0346 101.898 58.3365 98.2958 56.9403 94.9648C55.544 91.6338 53.5273 88.6127 50.9675 86.0563C48.4078 83.5 45.3826 81.4859 42.0472 80.0915C38.7117 78.6972 35.1436 78 31.4979 78C27.891 78 24.2841 78.6972 20.9486 80.0915C17.6132 81.4859 14.588 83.5 12.0283 86.0563C9.46855 88.6127 7.45178 91.6338 6.05556 94.9648C4.69811 98.2958 4 101.859 4 105.5C4 109.102 4.69811 112.665 6.09434 116.035C7.49057 119.366 9.50734 122.387 12.0671 124.944C14.6268 127.5 17.652 129.514 20.9874 130.908C24.3229 132.303 27.891 133 31.5367 133H78L68.3428 125.099C65.434 122.736 63.1069 119.754 61.478 116.345C59.8878 112.937 59.0346 109.218 59.0346 105.5Z" fill="url(#paint7_linear_5668_8309)" fill-opacity="0.3"/>
<g filter="url(#filter1_d_5668_8309)">
<path d="M29.6021 119.966C32.1759 119.966 34.0177 118.195 34.0177 115.739C34.0177 113.26 32.1759 111.512 29.6021 111.512C27.0756 111.512 25.1865 113.283 25.1865 115.739C25.1865 118.195 27.0519 119.966 29.6021 119.966ZM33.1204 110.804C33.1204 108.466 34.4664 107.64 36.2845 106.79C38.7166 105.656 40.5112 103.366 40.5112 100.556C40.5112 96.1169 36.1429 93 30.2161 93C23.8642 93 19.4014 96.5655 19 101.524L27.0992 103.012C27.3117 101.076 28.327 99.706 29.7674 99.706C30.8536 99.706 31.68 100.438 31.68 101.477C31.68 102.681 30.4758 103.413 29.5313 103.98C26.9811 105.633 26.0366 107.475 26.0366 110.828H33.1204V110.804Z" fill="white"/>
</g>
<g opacity="0.7">
<path d="M117.743 125.578H102.415C101.675 125.578 101.065 126.188 101.065 126.928V142.256C101.065 142.996 101.675 143.606 102.415 143.606H117.743C118.483 143.606 119.093 142.996 119.093 142.256V126.928C119.093 126.188 118.483 125.578 117.743 125.578Z" fill="#0079FF"/>
<path d="M117.743 125.578H102.415C101.675 125.578 101.065 126.188 101.065 126.928V142.256C101.065 142.996 101.675 143.606 102.415 143.606H117.743C118.483 143.606 119.093 142.996 119.093 142.256V126.928C119.093 126.188 118.483 125.578 117.743 125.578Z" fill="url(#paint8_linear_5668_8309)"/>
</g>
<g opacity="0.7">
<path d="M117.743 116.521H102.415C101.675 116.521 101.065 117.13 101.065 117.87V120.396C101.065 121.136 101.675 121.746 102.415 121.746H117.743C118.483 121.746 119.093 121.136 119.093 120.396V117.87C119.093 117.13 118.483 116.521 117.743 116.521Z" fill="#0079FF"/>
<path d="M117.743 116.521H102.415C101.675 116.521 101.065 117.13 101.065 117.87V120.396C101.065 121.136 101.675 121.746 102.415 121.746H117.743C118.483 121.746 119.093 121.136 119.093 120.396V117.87C119.093 117.13 118.483 116.521 117.743 116.521Z" fill="url(#paint9_linear_5668_8309)"/>
</g>
<g opacity="0.4">
<path d="M186.722 143.576C186.542 142.808 185.458 142.808 185.278 143.576L184.668 146.126C184.6 146.397 184.397 146.6 184.126 146.668L181.576 147.278C180.808 147.458 180.808 148.542 181.576 148.722L184.126 149.332C184.397 149.4 184.6 149.603 184.668 149.874L185.278 152.424C185.458 153.192 186.542 153.192 186.722 152.424L187.332 149.874C187.4 149.603 187.603 149.4 187.874 149.332L190.424 148.722C191.192 148.542 191.192 147.458 190.424 147.278L187.874 146.668C187.603 146.6 187.4 146.397 187.332 146.126L186.722 143.576Z" fill="#0079FF"/>
<path d="M186.722 143.576C186.542 142.808 185.458 142.808 185.278 143.576L184.668 146.126C184.6 146.397 184.397 146.6 184.126 146.668L181.576 147.278C180.808 147.458 180.808 148.542 181.576 148.722L184.126 149.332C184.397 149.4 184.6 149.603 184.668 149.874L185.278 152.424C185.458 153.192 186.542 153.192 186.722 152.424L187.332 149.874C187.4 149.603 187.603 149.4 187.874 149.332L190.424 148.722C191.192 148.542 191.192 147.458 190.424 147.278L187.874 146.668C187.603 146.6 187.4 146.397 187.332 146.126L186.722 143.576Z" fill="url(#paint10_linear_5668_8309)" fill-opacity="0.6"/>
</g>
<g opacity="0.4">
<path d="M113.295 172.576C113.096 171.808 111.904 171.808 111.705 172.576L111.035 175.126C110.96 175.397 110.737 175.6 110.439 175.668L107.633 176.278C106.789 176.458 106.789 177.542 107.633 177.722L110.439 178.332C110.737 178.4 110.96 178.603 111.035 178.874L111.705 181.424C111.904 182.192 113.096 182.192 113.295 181.424L113.965 178.874C114.04 178.603 114.263 178.4 114.561 178.332L117.367 177.722C118.211 177.542 118.211 176.458 117.367 176.278L114.561 175.668C114.263 175.6 114.04 175.397 113.965 175.126L113.295 172.576Z" fill="#0079FF"/>
<path d="M113.295 172.576C113.096 171.808 111.904 171.808 111.705 172.576L111.035 175.126C110.96 175.397 110.737 175.6 110.439 175.668L107.633 176.278C106.789 176.458 106.789 177.542 107.633 177.722L110.439 178.332C110.737 178.4 110.96 178.603 111.035 178.874L111.705 181.424C111.904 182.192 113.096 182.192 113.295 181.424L113.965 178.874C114.04 178.603 114.263 178.4 114.561 178.332L117.367 177.722C118.211 177.542 118.211 176.458 117.367 176.278L114.561 175.668C114.263 175.6 114.04 175.397 113.965 175.126L113.295 172.576Z" fill="url(#paint11_linear_5668_8309)" fill-opacity="0.6"/>
</g>
<g opacity="0.4">
<path d="M42.6284 42.625C42.28 41.1445 40.1899 41.1445 39.8415 42.625L38.6658 47.5456C38.5352 48.0681 38.1433 48.46 37.6208 48.5906L32.7002 49.7663C31.2197 50.1147 31.2197 52.2048 32.7002 52.5532L37.5772 53.7289C38.0997 53.8595 38.4917 54.2514 38.6223 54.774L39.798 59.6945C40.1463 61.175 42.2365 61.175 42.5848 59.6945L43.7605 54.774C43.8912 54.2514 44.2831 53.8595 44.8056 53.7289L49.7261 52.5532C51.2067 52.2048 51.2067 50.1147 49.7261 49.7663L44.8056 48.5906C44.2831 48.46 43.8912 48.0681 43.7605 47.5456L42.6284 42.625Z" fill="#212121"/>
<path d="M42.6284 42.625C42.28 41.1445 40.1899 41.1445 39.8415 42.625L38.6658 47.5456C38.5352 48.0681 38.1433 48.46 37.6208 48.5906L32.7002 49.7663C31.2197 50.1147 31.2197 52.2048 32.7002 52.5532L37.5772 53.7289C38.0997 53.8595 38.4917 54.2514 38.6223 54.774L39.798 59.6945C40.1463 61.175 42.2365 61.175 42.5848 59.6945L43.7605 54.774C43.8912 54.2514 44.2831 53.8595 44.8056 53.7289L49.7261 52.5532C51.2067 52.2048 51.2067 50.1147 49.7261 49.7663L44.8056 48.5906C44.2831 48.46 43.8912 48.0681 43.7605 47.5456L42.6284 42.625Z" fill="url(#paint12_linear_5668_8309)" fill-opacity="0.6"/>
</g>
<path d="M81.5139 36.0942C83.3176 36.0942 84.7797 34.632 84.7797 32.8283C84.7797 31.0247 83.3176 29.5625 81.5139 29.5625C79.7102 29.5625 78.248 31.0247 78.248 32.8283C78.248 34.632 79.7102 36.0942 81.5139 36.0942Z" stroke="url(#paint13_linear_5668_8309)" stroke-width="1.78998"/>
<g opacity="0.4">
<path d="M182.929 69.8839C183.669 69.3614 183.539 68.1857 182.711 67.8373L177.051 65.3117C176.223 64.9198 175.265 65.6165 175.396 66.531L176.049 72.7143C176.136 73.6287 177.181 74.1077 177.921 73.5416L182.929 69.8839Z" fill="#0079FF"/>
<path d="M182.929 69.8839C183.669 69.3614 183.539 68.1857 182.711 67.8373L177.051 65.3117C176.223 64.9198 175.265 65.6165 175.396 66.531L176.049 72.7143C176.136 73.6287 177.181 74.1077 177.921 73.5416L182.929 69.8839Z" fill="url(#paint14_linear_5668_8309)" fill-opacity="0.6"/>
</g>
<path opacity="0.4" d="M144.174 164.985C143.304 164.768 142.476 165.595 142.737 166.466L144.436 172.432C144.697 173.302 145.786 173.607 146.439 172.954L150.75 168.513C151.403 167.859 151.098 166.771 150.184 166.509L144.174 164.985Z" fill="url(#paint15_linear_5668_8309)"/>
<path d="M29.7385 175.829C31.5422 175.829 33.0043 174.366 33.0043 172.563C33.0043 170.759 31.5422 169.297 29.7385 169.297C27.9348 169.297 26.4727 170.759 26.4727 172.563C26.4727 174.366 27.9348 175.829 29.7385 175.829Z" stroke="url(#paint16_linear_5668_8309)" stroke-width="1.78998"/>
<path d="M159.371 31.7394C155.8 28.1687 151.576 25.3383 146.961 23.4224C142.301 21.5064 137.337 20.5049 132.286 20.5049C127.235 20.5049 122.271 21.5064 117.612 23.4224C112.952 25.3383 108.728 28.1687 105.201 31.7394C101.761 35.0923 99.0616 39.0984 97.1892 43.4964C95.3168 47.9379 94.4023 52.6843 94.4023 57.4742C94.4023 67.1846 98.1472 77.1999 105.201 85.9088L127.061 114.256C127.67 115.04 128.454 115.693 129.369 116.129C130.283 116.564 131.285 116.825 132.286 116.825C133.288 116.825 134.289 116.608 135.204 116.129C136.118 115.693 136.902 115.04 137.511 114.256L159.371 85.9088C166.425 77.2434 170.17 67.2282 170.17 57.4742C170.17 52.6843 169.212 47.9379 167.383 43.4964C165.511 39.0548 162.811 35.0923 159.371 31.7394Z" fill="#212121"/>
<path d="M159.371 31.7394C155.8 28.1687 151.576 25.3383 146.961 23.4224C142.301 21.5064 137.337 20.5049 132.286 20.5049C127.235 20.5049 122.271 21.5064 117.612 23.4224C112.952 25.3383 108.728 28.1687 105.201 31.7394C101.761 35.0923 99.0616 39.0984 97.1892 43.4964C95.3168 47.9379 94.4023 52.6843 94.4023 57.4742C94.4023 67.1846 98.1472 77.1999 105.201 85.9088L127.061 114.256C127.67 115.04 128.454 115.693 129.369 116.129C130.283 116.564 131.285 116.825 132.286 116.825C133.288 116.825 134.289 116.608 135.204 116.129C136.118 115.693 136.902 115.04 137.511 114.256L159.371 85.9088C166.425 77.2434 170.17 67.2282 170.17 57.4742C170.17 52.6843 169.212 47.9379 167.383 43.4964C165.511 39.0548 162.811 35.0923 159.371 31.7394Z" fill="url(#paint17_linear_5668_8309)" fill-opacity="0.3"/>
<g filter="url(#filter2_d_5668_8309)">
<path d="M132.286 74.1078C141.082 74.1078 148.18 67.0101 148.18 58.2141C148.18 49.4181 141.082 42.3203 132.286 42.3203C123.49 42.3203 116.393 49.4181 116.393 58.2141C116.393 67.0101 123.49 74.1078 132.286 74.1078Z" fill="white"/>
</g>
</g>
</g>
<defs>
<filter id="filter0_d_5668_8309" x="42.7947" y="76.1795" width="149.853" height="110.968" filterUnits="userSpaceOnUse" color-interpolation-filters="sRGB">
<feFlood flood-opacity="0" result="BackgroundImageFix"/>
<feColorMatrix in="SourceAlpha" type="matrix" values="0 0 0 0 0 0 0 0 0 0 0 0 0 0 0 0 0 0 127 0" result="hardAlpha"/>
<feOffset dy="7"/>
<feGaussianBlur stdDeviation="10.15"/>
<feComposite in2="hardAlpha" operator="out"/>
<feColorMatrix type="matrix" values="0 0 0 0 0 0 0 0 0 0.47451 0 0 0 0 1 0 0 0 0.38 0"/>
<feBlend mode="normal" in2="BackgroundImageFix" result="effect1_dropShadow_5668_8309"/>
<feBlend mode="normal" in="SourceGraphic" in2="effect1_dropShadow_5668_8309" result="shape"/>
</filter>
<filter id="filter1_d_5668_8309" x="6.2" y="84.2" width="47.1107" height="52.5658" filterUnits="userSpaceOnUse" color-interpolation-filters="sRGB">
<feFlood flood-opacity="0" result="BackgroundImageFix"/>
<feColorMatrix in="SourceAlpha" type="matrix" values="0 0 0 0 0 0 0 0 0 0 0 0 0 0 0 0 0 0 127 0" result="hardAlpha"/>
<feOffset dy="4"/>
<feGaussianBlur stdDeviation="6.4"/>
<feComposite in2="hardAlpha" operator="out"/>
<feColorMatrix type="matrix" values="0 0 0 0 0 0 0 0 0 0 0 0 0 0 0 0 0 0 0.42 0"/>
<feBlend mode="normal" in2="BackgroundImageFix" result="effect1_dropShadow_5668_8309"/>
<feBlend mode="normal" in="SourceGraphic" in2="effect1_dropShadow_5668_8309" result="shape"/>
</filter>
<filter id="filter2_d_5668_8309" x="103.593" y="33.5203" width="57.3871" height="57.3871" filterUnits="userSpaceOnUse" color-interpolation-filters="sRGB">
<feFlood flood-opacity="0" result="BackgroundImageFix"/>
<feColorMatrix in="SourceAlpha" type="matrix" values="0 0 0 0 0 0 0 0 0 0 0 0 0 0 0 0 0 0 127 0" result="hardAlpha"/>
<feOffset dy="4"/>
<feGaussianBlur stdDeviation="6.4"/>
<feComposite in2="hardAlpha" operator="out"/>
<feColorMatrix type="matrix" values="0 0 0 0 0 0 0 0 0 0 0 0 0 0 0 0 0 0 0.42 0"/>
<feBlend mode="normal" in2="BackgroundImageFix" result="effect1_dropShadow_5668_8309"/>
<feBlend mode="normal" in="SourceGraphic" in2="effect1_dropShadow_5668_8309" result="shape"/>
</filter>
<linearGradient id="paint0_linear_5668_8309" x1="172" y1="60" x2="155.5" y2="160" gradientUnits="userSpaceOnUse">
<stop stop-color="white" stop-opacity="0.6"/>
<stop offset="1" stop-color="white" stop-opacity="0.4"/>
</linearGradient>
<linearGradient id="paint1_linear_5668_8309" x1="111.525" y1="159.935" x2="22.8583" y2="84.7107" gradientUnits="userSpaceOnUse">
<stop offset="0.196807" stop-color="white" stop-opacity="0.3"/>
<stop offset="1" stop-color="white" stop-opacity="0.2"/>
</linearGradient>
<linearGradient id="paint2_linear_5668_8309" x1="160.074" y1="96.2719" x2="126.683" y2="32.3035" gradientUnits="userSpaceOnUse">
<stop stop-color="white" stop-opacity="0"/>
<stop offset="1" stop-color="white"/>
</linearGradient>
<linearGradient id="paint3_linear_5668_8309" x1="64.8799" y1="118.674" x2="96.5867" y2="156.179" gradientUnits="userSpaceOnUse">
<stop stop-color="white" stop-opacity="0.75"/>
<stop offset="1" stop-color="white" stop-opacity="0.64"/>
</linearGradient>
<linearGradient id="paint4_linear_5668_8309" x1="116.716" y1="96.3155" x2="85.7159" y2="29.1526" gradientUnits="userSpaceOnUse">
<stop stop-color="white" stop-opacity="0"/>
<stop offset="1" stop-color="white"/>
</linearGradient>
<linearGradient id="paint5_linear_5668_8309" x1="69.8428" y1="83.1777" x2="82.187" y2="104.368" gradientUnits="userSpaceOnUse">
<stop stop-color="white" stop-opacity="0.75"/>
<stop offset="1" stop-color="white" stop-opacity="0.64"/>
</linearGradient>
<linearGradient id="paint6_linear_5668_8309" x1="39.0576" y1="117.852" x2="59.0136" y2="140.58" gradientUnits="userSpaceOnUse">
<stop stop-color="white" stop-opacity="0.75"/>
<stop offset="1" stop-color="white" stop-opacity="0.64"/>
</linearGradient>
<linearGradient id="paint7_linear_5668_8309" x1="47.5573" y1="129.102" x2="38.6233" y2="83.259" gradientUnits="userSpaceOnUse">
<stop stop-color="white" stop-opacity="0"/>
<stop offset="1" stop-color="white"/>
</linearGradient>
<linearGradient id="paint8_linear_5668_8309" x1="101.065" y1="126.491" x2="112.68" y2="146.429" gradientUnits="userSpaceOnUse">
<stop stop-color="white" stop-opacity="0.75"/>
<stop offset="1" stop-color="white" stop-opacity="0.64"/>
</linearGradient>
<linearGradient id="paint9_linear_5668_8309" x1="101.065" y1="116.785" x2="102.336" y2="124.311" gradientUnits="userSpaceOnUse">
<stop stop-color="white" stop-opacity="0.75"/>
<stop offset="1" stop-color="white" stop-opacity="0.64"/>
</linearGradient>
<linearGradient id="paint10_linear_5668_8309" x1="189.242" y1="153" x2="180.833" y2="145.031" gradientUnits="userSpaceOnUse">
<stop stop-color="white" stop-opacity="0"/>
<stop offset="1" stop-color="white"/>
</linearGradient>
<linearGradient id="paint11_linear_5668_8309" x1="116.066" y1="182" x2="107.653" y2="173.229" gradientUnits="userSpaceOnUse">
<stop stop-color="white" stop-opacity="0"/>
<stop offset="1" stop-color="white"/>
</linearGradient>
<linearGradient id="paint12_linear_5668_8309" x1="47.4523" y1="60.8049" x2="31.2347" y2="45.469" gradientUnits="userSpaceOnUse">
<stop stop-color="white" stop-opacity="0"/>
<stop offset="1" stop-color="white"/>
</linearGradient>
<linearGradient id="paint13_linear_5668_8309" x1="77.5949" y1="40.3411" x2="82.834" y2="30.3551" gradientUnits="userSpaceOnUse">
<stop stop-color="#0079FF"/>
<stop offset="1" stop-color="white" stop-opacity="0"/>
</linearGradient>
<linearGradient id="paint14_linear_5668_8309" x1="182.003" y1="73.7854" x2="174.826" y2="67.4221" gradientUnits="userSpaceOnUse">
<stop stop-color="white" stop-opacity="0"/>
<stop offset="1" stop-color="white"/>
</linearGradient>
<linearGradient id="paint15_linear_5668_8309" x1="148.487" y1="172.225" x2="143.486" y2="156.911" gradientUnits="userSpaceOnUse">
<stop stop-color="#0079FF"/>
<stop offset="1" stop-color="#F7F7FF"/>
</linearGradient>
<linearGradient id="paint16_linear_5668_8309" x1="25.7948" y1="180.062" x2="31.0338" y2="170.076" gradientUnits="userSpaceOnUse">
<stop stop-color="#212121"/>
<stop offset="1" stop-color="white" stop-opacity="0"/>
</linearGradient>
<linearGradient id="paint17_linear_5668_8309" x1="139" y1="109.999" x2="114" y2="34.999" gradientUnits="userSpaceOnUse">
<stop stop-color="white" stop-opacity="0"/>
<stop offset="1" stop-color="white"/>
</linearGradient>
<clipPath id="clip0_5668_8309">
<rect width="200" height="200" fill="white"/>
</clipPath>
<clipPath id="clip1_5668_8309">
<rect width="200" height="168.779" fill="white" transform="translate(-0.349609 15.4111)"/>
</clipPath>
</defs>
</svg>
