<svg width="200" height="200" viewBox="0 0 200 200" fill="none" xmlns="http://www.w3.org/2000/svg">
<g clip-path="url(#clip0_5664_7665)">
<path opacity="0.06" d="M98.7312 189.145C145.857 189.145 184.004 150.95 184.004 103.871C184.004 56.7931 145.81 18.5508 98.7312 18.5508C51.6528 18.5508 13.458 56.7456 13.458 103.871C13.458 150.997 51.6053 189.145 98.7312 189.145Z" fill="#0079FF"/>
<g opacity="0.8">
<path d="M141.011 29.7148H55.1206C51.9377 29.7148 48.8498 30.9975 46.617 33.2303C44.3367 35.5106 43.1016 38.551 43.1016 41.7338V139.596H43.2441V173.943C43.2441 175.273 43.5766 176.556 44.2417 177.743C44.9068 178.883 45.8094 179.881 46.9495 180.546C48.0897 181.259 49.3723 181.639 50.7025 181.686C52.0327 181.734 53.3628 181.449 54.5505 180.879L94.1705 160.784C95.2631 160.261 96.4507 159.976 97.6384 159.976C98.826 159.976 100.014 160.261 101.106 160.784L141.961 181.021C143.149 181.591 144.479 181.876 145.762 181.829C147.092 181.781 148.375 181.354 149.467 180.689C150.607 179.976 151.51 179.026 152.175 177.886C152.84 176.746 153.173 175.416 153.173 174.085L153.078 139.596V41.7338C153.078 38.551 151.795 35.5106 149.562 33.2778C147.235 30.9975 144.194 29.7148 141.011 29.7148Z" fill="#0079FF"/>
<path d="M141.011 29.7148H55.1206C51.9377 29.7148 48.8498 30.9975 46.617 33.2303C44.3367 35.5106 43.1016 38.551 43.1016 41.7338V139.596H43.2441V173.943C43.2441 175.273 43.5766 176.556 44.2417 177.743C44.9068 178.883 45.8094 179.881 46.9495 180.546C48.0897 181.259 49.3723 181.639 50.7025 181.686C52.0327 181.734 53.3628 181.449 54.5505 180.879L94.1705 160.784C95.2631 160.261 96.4507 159.976 97.6384 159.976C98.826 159.976 100.014 160.261 101.106 160.784L141.961 181.021C143.149 181.591 144.479 181.876 145.762 181.829C147.092 181.781 148.375 181.354 149.467 180.689C150.607 179.976 151.51 179.026 152.175 177.886C152.84 176.746 153.173 175.416 153.173 174.085L153.078 139.596V41.7338C153.078 38.551 151.795 35.5106 149.562 33.2778C147.235 30.9975 144.194 29.7148 141.011 29.7148Z" fill="url(#paint0_linear_5664_7665)"/>
</g>
<g filter="url(#filter0_d_5664_7665)">
<path d="M194.883 61.4021C194.883 64.0149 193.933 66.5327 192.223 68.4804C190.513 70.4282 188.137 71.7108 185.572 72.0434C185.097 72.0909 184.622 72.1384 184.147 72.1384H148.422C147.662 72.1384 146.855 72.0909 146.095 71.9484C142.817 71.3783 139.871 69.6206 137.781 67.0078C135.738 64.3949 134.693 61.117 134.931 57.7916C135.168 54.4662 136.593 51.3308 138.969 49.003C141.344 46.6752 144.527 45.2975 147.852 45.155C149.563 41.4021 152.46 38.3142 156.118 36.3664C159.729 34.4187 163.909 33.7061 167.995 34.3237C172.08 34.9413 175.833 36.889 178.731 39.8344C181.629 42.7797 183.482 46.5802 184.004 50.6657H184.147C185.572 50.6657 186.95 50.9508 188.28 51.4733C189.563 51.9959 190.75 52.8035 191.748 53.8011C192.745 54.7987 193.553 55.9864 194.076 57.269C194.598 58.5992 194.883 60.0244 194.883 61.4021Z" fill="#0079FF"/>
<path d="M194.883 61.4021C194.883 64.0149 193.933 66.5327 192.223 68.4804C190.513 70.4282 188.137 71.7108 185.572 72.0434C185.097 72.0909 184.622 72.1384 184.147 72.1384H148.422C147.662 72.1384 146.855 72.0909 146.095 71.9484C142.817 71.3783 139.871 69.6206 137.781 67.0078C135.738 64.3949 134.693 61.117 134.931 57.7916C135.168 54.4662 136.593 51.3308 138.969 49.003C141.344 46.6752 144.527 45.2975 147.852 45.155C149.563 41.4021 152.46 38.3142 156.118 36.3664C159.729 34.4187 163.909 33.7061 167.995 34.3237C172.08 34.9413 175.833 36.889 178.731 39.8344C181.629 42.7797 183.482 46.5802 184.004 50.6657H184.147C185.572 50.6657 186.95 50.9508 188.28 51.4733C189.563 51.9959 190.75 52.8035 191.748 53.8011C192.745 54.7987 193.553 55.9864 194.076 57.269C194.598 58.5992 194.883 60.0244 194.883 61.4021Z" fill="url(#paint1_linear_5664_7665)" fill-opacity="0.6"/>
</g>
<g filter="url(#filter1_d_5664_7665)">
<path d="M13.1729 40.3564C13.1729 42.4941 14.028 44.5844 15.5481 46.1046C17.0683 47.6248 19.1111 48.4799 21.2964 48.4799H48.1847C50.8451 48.4799 53.3629 47.4348 55.2631 45.582C57.1633 43.7293 58.256 41.2115 58.3035 38.5511C58.351 35.8908 57.4009 33.3255 55.5481 31.3777C53.7429 29.43 51.2251 28.2899 48.6123 28.1473C47.3296 25.3445 45.1443 23.0167 42.389 21.544C39.6812 20.0713 36.5458 19.5488 33.4579 20.0238C30.37 20.4989 27.5671 21.9241 25.3819 24.1568C23.1966 26.3896 21.8189 29.24 21.3914 32.2804H21.2489C19.1111 32.2804 17.0208 33.1355 15.5006 34.6557C14.028 36.1758 13.1729 38.2186 13.1729 40.3564Z" fill="#0079FF"/>
<path d="M13.1729 40.3564C13.1729 42.4941 14.028 44.5844 15.5481 46.1046C17.0683 47.6248 19.1111 48.4799 21.2964 48.4799H48.1847C50.8451 48.4799 53.3629 47.4348 55.2631 45.582C57.1633 43.7293 58.256 41.2115 58.3035 38.5511C58.351 35.8908 57.4009 33.3255 55.5481 31.3777C53.7429 29.43 51.2251 28.2899 48.6123 28.1473C47.3296 25.3445 45.1443 23.0167 42.389 21.544C39.6812 20.0713 36.5458 19.5488 33.4579 20.0238C30.37 20.4989 27.5671 21.9241 25.3819 24.1568C23.1966 26.3896 21.8189 29.24 21.3914 32.2804H21.2489C19.1111 32.2804 17.0208 33.1355 15.5006 34.6557C14.028 36.1758 13.1729 38.2186 13.1729 40.3564Z" fill="url(#paint2_linear_5664_7665)" fill-opacity="0.6"/>
</g>
<g filter="url(#filter2_d_5664_7665)">
<path d="M101.249 48.907L110.798 68.2419C111.083 68.8119 111.51 69.287 112.033 69.667C112.555 70.0471 113.125 70.2846 113.791 70.3796L135.073 73.4675C135.786 73.5625 136.451 73.8951 137.021 74.3701C137.591 74.8452 137.971 75.4628 138.209 76.1754C138.446 76.888 138.446 77.6005 138.304 78.3131C138.114 79.0257 137.781 79.6908 137.259 80.1659L121.867 95.1777C121.392 95.6053 121.059 96.1754 120.869 96.7929C120.679 97.4105 120.631 98.0281 120.726 98.6932L124.384 119.928C124.527 120.641 124.432 121.401 124.147 122.066C123.862 122.731 123.387 123.349 122.817 123.776C122.199 124.204 121.534 124.489 120.774 124.536C120.061 124.584 119.301 124.441 118.636 124.109L99.5863 113.99C99.0162 113.705 98.3987 113.515 97.7336 113.515C97.116 113.515 96.4509 113.658 95.8808 113.99L76.8785 124.014C76.2134 124.346 75.5008 124.489 74.7407 124.441C74.0281 124.394 73.3155 124.109 72.6979 123.681C72.0804 123.254 71.6528 122.636 71.3678 121.971C71.0827 121.306 70.9877 120.546 71.1302 119.833L74.7882 98.5982C74.8832 97.9806 74.8357 97.3155 74.6457 96.6979C74.4557 96.0803 74.1231 95.5578 73.6481 95.0827L58.2561 80.1184C57.7336 79.5958 57.3535 78.9782 57.211 78.2656C57.021 77.553 57.0685 76.7929 57.306 76.1279C57.5435 75.4153 57.9236 74.7977 58.4937 74.3226C59.0637 73.8476 59.7288 73.5625 60.4414 73.42L81.7241 70.3321C82.3416 70.2371 82.9592 69.9996 83.4818 69.6195C84.0044 69.2395 84.4319 68.7644 84.7169 68.1944L94.2656 48.8594C94.5982 48.1944 95.1207 47.6718 95.7383 47.2917C96.3559 46.9117 97.0685 46.7217 97.7811 46.7217C98.4937 46.7217 99.2063 46.9117 99.8238 47.2917C100.441 47.7193 100.916 48.2419 101.249 48.907Z" fill="#0079FF"/>
<path d="M101.249 48.907L110.798 68.2419C111.083 68.8119 111.51 69.287 112.033 69.667C112.555 70.0471 113.125 70.2846 113.791 70.3796L135.073 73.4675C135.786 73.5625 136.451 73.8951 137.021 74.3701C137.591 74.8452 137.971 75.4628 138.209 76.1754C138.446 76.888 138.446 77.6005 138.304 78.3131C138.114 79.0257 137.781 79.6908 137.259 80.1659L121.867 95.1777C121.392 95.6053 121.059 96.1754 120.869 96.7929C120.679 97.4105 120.631 98.0281 120.726 98.6932L124.384 119.928C124.527 120.641 124.432 121.401 124.147 122.066C123.862 122.731 123.387 123.349 122.817 123.776C122.199 124.204 121.534 124.489 120.774 124.536C120.061 124.584 119.301 124.441 118.636 124.109L99.5863 113.99C99.0162 113.705 98.3987 113.515 97.7336 113.515C97.116 113.515 96.4509 113.658 95.8808 113.99L76.8785 124.014C76.2134 124.346 75.5008 124.489 74.7407 124.441C74.0281 124.394 73.3155 124.109 72.6979 123.681C72.0804 123.254 71.6528 122.636 71.3678 121.971C71.0827 121.306 70.9877 120.546 71.1302 119.833L74.7882 98.5982C74.8832 97.9806 74.8357 97.3155 74.6457 96.6979C74.4557 96.0803 74.1231 95.5578 73.6481 95.0827L58.2561 80.1184C57.7336 79.5958 57.3535 78.9782 57.211 78.2656C57.021 77.553 57.0685 76.7929 57.306 76.1279C57.5435 75.4153 57.9236 74.7977 58.4937 74.3226C59.0637 73.8476 59.7288 73.5625 60.4414 73.42L81.7241 70.3321C82.3416 70.2371 82.9592 69.9996 83.4818 69.6195C84.0044 69.2395 84.4319 68.7644 84.7169 68.1944L94.2656 48.8594C94.5982 48.1944 95.1207 47.6718 95.7383 47.2917C96.3559 46.9117 97.0685 46.7217 97.7811 46.7217C98.4937 46.7217 99.2063 46.9117 99.8238 47.2917C100.441 47.7193 100.916 48.2419 101.249 48.907Z" fill="url(#paint3_linear_5664_7665)" fill-opacity="0.6"/>
</g>
<g opacity="0.8">
<path d="M98.7934 94.5294C97.4303 94.5294 96.3228 95.636 96.3228 97C96.3228 98.3631 97.4295 99.4706 98.7934 99.4706C100.157 99.4706 101.264 98.364 101.264 97C101.264 95.6369 100.157 94.5294 98.7934 94.5294Z" fill="white"/>
<path d="M101.587 78.4706C101.587 77.1061 100.481 76 99.1162 76L98.4706 76C98.4273 76 98.384 76.0011 98.3408 76.0034C96.9782 76.0751 95.9317 77.2379 96.0035 78.6005L96.6709 91.2803C96.7303 92.4093 97.663 93.2942 98.7935 93.2942C99.9239 93.2942 100.857 92.4093 100.916 91.2803L101.583 78.6005C101.586 78.5572 101.587 78.5139 101.587 78.4706Z" fill="white"/>
</g>
<g filter="url(#filter3_d_5664_7665)">
<path d="M18 143.919C18 146.532 18.9501 149.002 20.6603 150.95C22.3705 152.898 24.7458 154.181 27.3112 154.513C27.7862 154.561 28.2613 154.608 28.7363 154.608H64.3183C65.0784 154.608 65.886 154.561 66.6461 154.418C69.924 153.848 72.9169 152.138 74.9596 149.525C77.0499 146.912 78.0475 143.634 77.8575 140.309C77.6199 136.983 76.1948 133.848 73.8195 131.52C71.4442 129.193 68.2613 127.862 64.9359 127.72C63.2257 123.967 60.3278 120.926 56.7173 118.979C53.1069 117.031 48.9264 116.318 44.8884 116.936C40.8504 117.554 37.0974 119.454 34.1995 122.399C31.3492 125.345 29.4964 129.145 28.9264 133.183H28.7363C27.3112 133.183 25.9335 133.468 24.6508 133.991C23.3682 134.513 22.1805 135.321 21.1829 136.318C20.1853 137.316 19.3777 138.504 18.8551 139.786C18.285 141.117 18 142.542 18 143.919Z" fill="#0079FF"/>
<path d="M18 143.919C18 146.532 18.9501 149.002 20.6603 150.95C22.3705 152.898 24.7458 154.181 27.3112 154.513C27.7862 154.561 28.2613 154.608 28.7363 154.608H64.3183C65.0784 154.608 65.886 154.561 66.6461 154.418C69.924 153.848 72.9169 152.138 74.9596 149.525C77.0499 146.912 78.0475 143.634 77.8575 140.309C77.6199 136.983 76.1948 133.848 73.8195 131.52C71.4442 129.193 68.2613 127.862 64.9359 127.72C63.2257 123.967 60.3278 120.926 56.7173 118.979C53.1069 117.031 48.9264 116.318 44.8884 116.936C40.8504 117.554 37.0974 119.454 34.1995 122.399C31.3492 125.345 29.4964 129.145 28.9264 133.183H28.7363C27.3112 133.183 25.9335 133.468 24.6508 133.991C23.3682 134.513 22.1805 135.321 21.1829 136.318C20.1853 137.316 19.3777 138.504 18.8551 139.786C18.285 141.117 18 142.542 18 143.919Z" fill="url(#paint4_linear_5664_7665)" fill-opacity="0.6"/>
</g>
<g opacity="0.2">
<path d="M166.237 84.7746C166 83.872 166.855 83.0169 167.758 83.3019L173.933 85.0121C174.836 85.2496 175.121 86.4373 174.456 87.0549L169.895 91.5204C169.23 92.1855 168.09 91.853 167.853 90.9503L166.237 84.7746Z" fill="#0079FF"/>
<path d="M166.237 84.7746C166 83.872 166.855 83.0169 167.758 83.3019L173.933 85.0121C174.836 85.2496 175.121 86.4373 174.456 87.0549L169.895 91.5204C169.23 92.1855 168.09 91.853 167.853 90.9503L166.237 84.7746Z" fill="url(#paint5_linear_5664_7665)" fill-opacity="0.6"/>
</g>
<g opacity="0.4">
<path d="M24.0998 84.7746C23.8622 83.872 24.7173 83.0169 25.6199 83.3019L31.7957 85.0121C32.6983 85.2496 32.9834 86.4373 32.3183 87.0549L27.7577 91.5204C27.0926 92.1855 25.9525 91.853 25.715 90.9503L24.0998 84.7746Z" fill="#212121"/>
<path d="M24.0998 84.7746C23.8622 83.872 24.7173 83.0169 25.6199 83.3019L31.7957 85.0121C32.6983 85.2496 32.9834 86.4373 32.3183 87.0549L27.7577 91.5204C27.0926 92.1855 25.9525 91.853 25.715 90.9503L24.0998 84.7746Z" fill="url(#paint6_linear_5664_7665)" fill-opacity="0.6"/>
</g>
<g opacity="0.6">
<path d="M71.8909 11.1401C72.271 9.61995 74.4087 9.61995 74.7413 11.1401L75.9764 16.2233C76.1189 16.7458 76.5465 17.1734 77.0691 17.3159L82.1522 18.5511C83.6724 18.9311 83.6724 21.0689 82.1522 21.4014L77.0691 22.6366C76.5465 22.7791 76.1189 23.2066 75.9764 23.7292L74.7413 28.8123C74.3612 30.3325 72.2235 30.3325 71.8909 28.8123L70.6558 23.7292C70.5132 23.2066 70.0857 22.7791 69.5631 22.6366L64.48 21.4014C62.9598 21.0214 62.9598 18.8836 64.48 18.5511L69.5631 17.3159C70.0857 17.1734 70.5132 16.7458 70.6558 16.2233L71.8909 11.1401Z" fill="#212121"/>
<path d="M71.8909 11.1401C72.271 9.61995 74.4087 9.61995 74.7413 11.1401L75.9764 16.2233C76.1189 16.7458 76.5465 17.1734 77.0691 17.3159L82.1522 18.5511C83.6724 18.9311 83.6724 21.0689 82.1522 21.4014L77.0691 22.6366C76.5465 22.7791 76.1189 23.2066 75.9764 23.7292L74.7413 28.8123C74.3612 30.3325 72.2235 30.3325 71.8909 28.8123L70.6558 23.7292C70.5132 23.2066 70.0857 22.7791 69.5631 22.6366L64.48 21.4014C62.9598 21.0214 62.9598 18.8836 64.48 18.5511L69.5631 17.3159C70.0857 17.1734 70.5132 16.7458 70.6558 16.2233L71.8909 11.1401Z" fill="url(#paint7_linear_5664_7665)" fill-opacity="0.6"/>
</g>
<path opacity="0.2" d="M111.746 188.373C111.746 190.226 110.226 191.746 108.373 191.746C106.52 191.746 105 190.226 105 188.373C105 186.52 106.52 185 108.373 185C110.226 185 111.746 186.52 111.746 188.373Z" stroke="#212121" stroke-width="1.92243"/>
<g opacity="0.6">
<path d="M165.43 145.915C165.81 144.394 167.948 144.394 168.28 145.915L169.515 150.998C169.658 151.52 170.086 151.948 170.608 152.09L175.691 153.325C177.211 153.706 177.211 155.843 175.691 156.176L170.608 157.411C170.086 157.554 169.658 157.981 169.515 158.504L168.28 163.587C167.9 165.107 165.763 165.107 165.43 163.587L164.195 158.504C164.052 157.981 163.625 157.554 163.102 157.411L158.019 156.176C156.499 155.796 156.499 153.658 158.019 153.325L163.102 152.09C163.625 151.948 164.052 151.52 164.195 150.998L165.43 145.915Z" fill="#212121"/>
<path d="M165.43 145.915C165.81 144.394 167.948 144.394 168.28 145.915L169.515 150.998C169.658 151.52 170.086 151.948 170.608 152.09L175.691 153.325C177.211 153.706 177.211 155.843 175.691 156.176L170.608 157.411C170.086 157.554 169.658 157.981 169.515 158.504L168.28 163.587C167.9 165.107 165.763 165.107 165.43 163.587L164.195 158.504C164.052 157.981 163.625 157.554 163.102 157.411L158.019 156.176C156.499 155.796 156.499 153.658 158.019 153.325L163.102 152.09C163.625 151.948 164.052 151.52 164.195 150.998L165.43 145.915Z" fill="url(#paint8_linear_5664_7665)" fill-opacity="0.6"/>
</g>
<path opacity="0.2" d="M171.178 127.957C173.04 127.957 174.551 126.447 174.551 124.584C174.551 122.721 173.04 121.211 171.178 121.211C169.315 121.211 167.805 122.721 167.805 124.584C167.805 126.447 169.315 127.957 171.178 127.957Z" stroke="#0079FF" stroke-width="1.92243"/>
</g>
<defs>
<filter id="filter0_d_5664_7665" x="114.597" y="20.8074" width="100.585" height="78.6312" filterUnits="userSpaceOnUse" color-interpolation-filters="sRGB">
<feFlood flood-opacity="0" result="BackgroundImageFix"/>
<feColorMatrix in="SourceAlpha" type="matrix" values="0 0 0 0 0 0 0 0 0 0 0 0 0 0 0 0 0 0 127 0" result="hardAlpha"/>
<feOffset dy="7"/>
<feGaussianBlur stdDeviation="10.15"/>
<feComposite in2="hardAlpha" operator="out"/>
<feColorMatrix type="matrix" values="0 0 0 0 0 0 0 0 0 0.47451 0 0 0 0 1 0 0 0 0.38 0"/>
<feBlend mode="normal" in2="BackgroundImageFix" result="effect1_dropShadow_5664_7665"/>
<feBlend mode="normal" in="SourceGraphic" in2="effect1_dropShadow_5664_7665" result="shape"/>
</filter>
<filter id="filter1_d_5664_7665" x="-7.12715" y="6.55352" width="85.7328" height="69.226" filterUnits="userSpaceOnUse" color-interpolation-filters="sRGB">
<feFlood flood-opacity="0" result="BackgroundImageFix"/>
<feColorMatrix in="SourceAlpha" type="matrix" values="0 0 0 0 0 0 0 0 0 0 0 0 0 0 0 0 0 0 127 0" result="hardAlpha"/>
<feOffset dy="7"/>
<feGaussianBlur stdDeviation="10.15"/>
<feComposite in2="hardAlpha" operator="out"/>
<feColorMatrix type="matrix" values="0 0 0 0 0 0 0 0 0 0.47451 0 0 0 0 1 0 0 0 0.38 0"/>
<feBlend mode="normal" in2="BackgroundImageFix" result="effect1_dropShadow_5664_7665"/>
<feBlend mode="normal" in="SourceGraphic" in2="effect1_dropShadow_5664_7665" result="shape"/>
</filter>
<filter id="filter2_d_5664_7665" x="29.8937" y="42.5217" width="135.708" height="132.223" filterUnits="userSpaceOnUse" color-interpolation-filters="sRGB">
<feFlood flood-opacity="0" result="BackgroundImageFix"/>
<feColorMatrix in="SourceAlpha" type="matrix" values="0 0 0 0 0 0 0 0 0 0 0 0 0 0 0 0 0 0 127 0" result="hardAlpha"/>
<feOffset dy="23"/>
<feGaussianBlur stdDeviation="13.6"/>
<feComposite in2="hardAlpha" operator="out"/>
<feColorMatrix type="matrix" values="0 0 0 0 0 0 0 0 0 0.47451 0 0 0 0 1 0 0 0 0.38 0"/>
<feBlend mode="normal" in2="BackgroundImageFix" result="effect1_dropShadow_5664_7665"/>
<feBlend mode="normal" in="SourceGraphic" in2="effect1_dropShadow_5664_7665" result="shape"/>
</filter>
<filter id="filter3_d_5664_7665" x="-2.3" y="103.42" width="100.48" height="78.4887" filterUnits="userSpaceOnUse" color-interpolation-filters="sRGB">
<feFlood flood-opacity="0" result="BackgroundImageFix"/>
<feColorMatrix in="SourceAlpha" type="matrix" values="0 0 0 0 0 0 0 0 0 0 0 0 0 0 0 0 0 0 127 0" result="hardAlpha"/>
<feOffset dy="7"/>
<feGaussianBlur stdDeviation="10.15"/>
<feComposite in2="hardAlpha" operator="out"/>
<feColorMatrix type="matrix" values="0 0 0 0 0 0 0 0 0 0.47451 0 0 0 0 1 0 0 0 0.38 0"/>
<feBlend mode="normal" in2="BackgroundImageFix" result="effect1_dropShadow_5664_7665"/>
<feBlend mode="normal" in="SourceGraphic" in2="effect1_dropShadow_5664_7665" result="shape"/>
</filter>
<linearGradient id="paint0_linear_5664_7665" x1="43.1016" y1="37.4137" x2="153.173" y2="174.135" gradientUnits="userSpaceOnUse">
<stop stop-color="white" stop-opacity="0.75"/>
<stop offset="1" stop-color="white" stop-opacity="0.64"/>
</linearGradient>
<linearGradient id="paint1_linear_5664_7665" x1="184.336" y1="72.1384" x2="154.737" y2="27.8915" gradientUnits="userSpaceOnUse">
<stop stop-color="white" stop-opacity="0"/>
<stop offset="1" stop-color="white"/>
</linearGradient>
<linearGradient id="paint2_linear_5664_7665" x1="50.3694" y1="48.4799" x2="28.0865" y2="15.1837" gradientUnits="userSpaceOnUse">
<stop stop-color="white" stop-opacity="0"/>
<stop offset="1" stop-color="white"/>
</linearGradient>
<linearGradient id="paint3_linear_5664_7665" x1="124.104" y1="124.545" x2="58.5775" y2="59.6613" gradientUnits="userSpaceOnUse">
<stop stop-color="white" stop-opacity="0"/>
<stop offset="1" stop-color="white"/>
</linearGradient>
<linearGradient id="paint4_linear_5664_7665" x1="67.3514" y1="154.608" x2="37.8862" y2="110.473" gradientUnits="userSpaceOnUse">
<stop stop-color="white" stop-opacity="0"/>
<stop offset="1" stop-color="white"/>
</linearGradient>
<linearGradient id="paint5_linear_5664_7665" x1="173.305" y1="91.8708" x2="166.053" y2="84.9986" gradientUnits="userSpaceOnUse">
<stop stop-color="white" stop-opacity="0"/>
<stop offset="1" stop-color="white"/>
</linearGradient>
<linearGradient id="paint6_linear_5664_7665" x1="31.1669" y1="91.8708" x2="23.9151" y2="84.9986" gradientUnits="userSpaceOnUse">
<stop stop-color="white" stop-opacity="0"/>
<stop offset="1" stop-color="white"/>
</linearGradient>
<linearGradient id="paint7_linear_5664_7665" x1="79.784" y1="29.9525" x2="63.0075" y2="14.0523" gradientUnits="userSpaceOnUse">
<stop stop-color="white" stop-opacity="0"/>
<stop offset="1" stop-color="white"/>
</linearGradient>
<linearGradient id="paint8_linear_5664_7665" x1="173.323" y1="164.727" x2="156.547" y2="148.827" gradientUnits="userSpaceOnUse">
<stop stop-color="white" stop-opacity="0"/>
<stop offset="1" stop-color="white"/>
</linearGradient>
<clipPath id="clip0_5664_7665">
<rect width="188.884" height="200" fill="white" transform="translate(6)"/>
</clipPath>
</defs>
</svg>
