<svg width="200" height="200" viewBox="0 0 200 200" fill="none" xmlns="http://www.w3.org/2000/svg">
<g clip-path="url(#clip0_5668_8792)">
<path opacity="0.06" d="M98.5265 181.54C114.729 181.54 130.568 176.736 144.039 167.734C157.511 158.733 168.011 145.938 174.212 130.969C180.412 116 182.034 99.5285 178.874 83.6373C175.713 67.7462 167.91 53.1493 156.453 41.6924C144.997 30.2355 130.4 22.4333 114.509 19.2724C98.6174 16.1114 82.1458 17.7337 67.1767 23.9341C52.2076 30.1346 39.4133 40.6346 30.4117 54.1064C21.4101 67.5783 16.6055 83.4169 16.6055 99.6193C16.6055 121.346 25.2364 142.183 40.5996 157.546C55.9628 172.909 76.7997 181.54 98.5265 181.54Z" fill="#0079FF"/>
<path d="M167.15 73.1544L96.9465 122.13L26.748 73.1544L91.01 28.2719C92.7511 27.0611 94.8212 26.4121 96.942 26.4121C99.0628 26.4121 101.133 27.0611 102.874 28.2719L115.692 37.2338L119.05 39.5656L152.844 63.1658L156.404 65.6618L167.15 73.1544Z" fill="#0079FF"/>
<path d="M167.15 73.1544L96.9465 122.13L26.748 73.1544L91.01 28.2719C92.7511 27.0611 94.8212 26.4121 96.942 26.4121C99.0628 26.4121 101.133 27.0611 102.874 28.2719L115.692 37.2338L119.05 39.5656L152.844 63.1658L156.404 65.6618L167.15 73.1544Z" fill="url(#paint0_linear_5668_8792)"/>
<g filter="url(#filter0_d_5668_8792)">
<path d="M85.5343 114.167L26.748 155.965V73.1543L85.5343 114.167Z" fill="#0079FF"/>
<path d="M85.5343 114.167L26.748 155.965V73.1543L85.5343 114.167Z" fill="url(#paint1_linear_5668_8792)" fill-opacity="0.6"/>
</g>
<g filter="url(#filter1_d_5668_8792)">
<path d="M108 114.167L166.786 155.965V73.1543L108 114.167Z" fill="#0079FF"/>
<path d="M108 114.167L166.786 155.965V73.1543L108 114.167Z" fill="url(#paint2_linear_5668_8792)" fill-opacity="0.6"/>
</g>
<path d="M157.7 79.8376L158.171 79.7117V80.4728H158.861V80.8397H158.171V82.2688C158.171 82.5974 158.264 82.7836 158.532 82.7836C158.658 82.7836 158.751 82.7671 158.811 82.7507L158.833 83.1121C158.74 83.1504 158.592 83.1778 158.406 83.1778C158.182 83.1778 158.001 83.1066 157.886 82.9752C157.749 82.8328 157.7 82.5974 157.7 82.2853V80.8397H157.289V80.4728H157.7V79.8376Z" fill="#212121"/>
<g filter="url(#filter2_d_5668_8792)">
<path d="M26.748 155.964L90.937 110.333C92.6942 109.084 94.7971 108.412 96.9534 108.412C99.1097 108.412 101.213 109.084 102.97 110.333L167.15 155.964H26.748Z" fill="#0079FF"/>
<path d="M26.748 155.964L90.937 110.333C92.6942 109.084 94.7971 108.412 96.9534 108.412C99.1097 108.412 101.213 109.084 102.97 110.333L167.15 155.964H26.748Z" fill="url(#paint3_linear_5668_8792)" fill-opacity="0.6"/>
</g>
<path d="M132.457 66.3643C134.419 66.3643 135.788 65.0273 135.788 63.1701C135.788 61.3129 134.419 59.976 132.457 59.976C131.609 59.976 130.797 60.3125 130.198 60.9115C129.599 61.5105 129.262 62.323 129.262 63.1701C129.262 64.0173 129.599 64.8297 130.198 65.4287C130.797 66.0277 131.609 66.3643 132.457 66.3643ZM135.135 58.8078C135.135 56.6312 136.194 55.7916 137.814 54.952C139.99 53.8295 141.605 51.9951 141.605 49.3805C141.605 45.4927 137.905 42.7549 132.958 42.7549C127.734 42.7549 124.001 45.835 123.627 50.1608L129.627 51.2513C129.846 49.2618 131.028 47.8017 132.707 47.8017C133.009 47.7844 133.312 47.8285 133.596 47.9314C133.88 48.0342 134.141 48.1937 134.362 48.4002C134.583 48.6066 134.76 48.8557 134.882 49.1325C135.003 49.4092 135.068 49.7078 135.071 50.0102C135.071 51.2833 133.921 51.9997 132.922 52.6522C130.745 54.085 129.814 55.7004 129.814 58.8124L135.135 58.8078Z" fill="white"/>
<g opacity="0.95">
<path d="M34.1638 58.1289C23.4026 63.1657 11.8377 66.2658 0 67.287C1.60164 71.0059 12.9637 89.6142 46.7032 104.951C47.6158 105.092 68.6835 95.2907 80.2418 88.5692C79.8494 89.1259 44.3304 76.0618 34.1638 58.1289Z" fill="#0079FF"/>
<path d="M34.1638 58.1289C23.4026 63.1657 11.8377 66.2658 0 67.287C1.60164 71.0059 12.9637 89.6142 46.7032 104.951C47.6158 105.092 68.6835 95.2907 80.2418 88.5692C79.8494 89.1259 44.3304 76.0618 34.1638 58.1289Z" fill="url(#paint4_linear_5668_8792)"/>
</g>
<path d="M132.056 78.497C136.689 78.497 141.217 77.1233 145.069 74.5496C148.921 71.9759 151.923 68.3179 153.696 64.038C155.468 59.7581 155.932 55.0487 155.028 50.5052C154.125 45.9617 151.894 41.7883 148.618 38.5126C145.343 35.2369 141.169 33.0062 136.626 32.1024C132.082 31.1987 127.373 31.6625 123.093 33.4353C118.813 35.2081 115.155 38.2101 112.581 42.0619C110.007 45.9137 108.634 50.4422 108.634 55.0747C108.634 58.1505 109.24 61.1963 110.417 64.038C111.594 66.8797 113.319 69.4618 115.494 71.6367C117.669 73.8117 120.251 75.537 123.093 76.7141C125.935 77.8911 128.98 78.497 132.056 78.497Z" fill="#212121"/>
<path d="M132.056 78.497C136.689 78.497 141.217 77.1233 145.069 74.5496C148.921 71.9759 151.923 68.3179 153.696 64.038C155.468 59.7581 155.932 55.0487 155.028 50.5052C154.125 45.9617 151.894 41.7883 148.618 38.5126C145.343 35.2369 141.169 33.0062 136.626 32.1024C132.082 31.1987 127.373 31.6625 123.093 33.4353C118.813 35.2081 115.155 38.2101 112.581 42.0619C110.007 45.9137 108.634 50.4422 108.634 55.0747C108.634 58.1505 109.24 61.1963 110.417 64.038C111.594 66.8797 113.319 69.4618 115.494 71.6367C117.669 73.8117 120.251 75.537 123.093 76.7141C125.935 77.8911 128.98 78.497 132.056 78.497Z" fill="url(#paint5_linear_5668_8792)" fill-opacity="0.3"/>
<g filter="url(#filter3_d_5668_8792)">
<path d="M131.836 69.0473C134.336 69.0473 136.08 67.3407 136.08 64.9634C136.08 62.586 134.336 60.8794 131.836 60.8794C129.335 60.8794 127.597 62.5814 127.597 64.9634C127.597 67.3453 129.381 69.0473 131.836 69.0473ZM135.249 59.4101C135.249 56.6357 136.618 55.5634 138.658 54.4956C141.432 53.0674 143.495 50.7265 143.495 47.3955C143.495 42.44 138.776 38.9492 132.47 38.9492C125.808 38.9492 121.062 42.8735 120.574 48.3857L128.231 49.7546C128.505 47.2175 130.015 45.3558 132.155 45.3558C133.862 45.3558 135.167 46.5422 135.167 48.1712C135.167 49.8002 133.702 50.7083 132.429 51.5388C129.65 53.364 128.464 55.4265 128.464 59.3918L135.249 59.4101Z" fill="white"/>
</g>
<path opacity="0.15" d="M34.9997 67.3824C34.7547 67.2138 34.4743 67.1035 34.1801 67.06C33.8858 67.0165 33.5855 67.041 33.3022 67.1315L14.4749 73.2232C14.3193 73.2744 14.1786 73.363 14.0651 73.4811C13.9516 73.5992 13.8688 73.7433 13.8238 73.9009C13.7788 74.0584 13.773 74.2245 13.807 74.3848C13.8409 74.545 13.9136 74.6945 14.0186 74.8203C14.1964 75.0346 14.4354 75.1897 14.7037 75.2647C14.9719 75.3397 15.2566 75.3311 15.5199 75.2401L34.8308 68.6281C34.9547 68.5865 35.0644 68.5112 35.1478 68.4107C35.2312 68.3101 35.2849 68.1883 35.303 68.0589C35.321 67.9296 35.3026 67.7977 35.2498 67.6782C35.197 67.5587 35.112 67.4563 35.0042 67.3824H34.9997Z" fill="#0079FF"/>
<path opacity="0.15" d="M34.6709 74.887C34.437 74.6659 34.1473 74.513 33.8328 74.4446C33.5184 74.3762 33.1912 74.3951 32.8867 74.4992L19.8545 78.8843C19.7214 78.9285 19.601 79.0044 19.5039 79.1057C19.4067 79.2069 19.3357 79.3303 19.2971 79.4652C19.2584 79.6 19.2532 79.7423 19.282 79.8796C19.3108 80.017 19.3726 80.1452 19.4621 80.2532C19.6147 80.441 19.8213 80.5772 20.054 80.6433C20.2867 80.7094 20.5341 80.7023 20.7626 80.6228L34.4519 75.9685C34.5576 75.9329 34.6523 75.8705 34.7266 75.7873C34.801 75.7041 34.8524 75.603 34.8759 75.4939C34.8994 75.3849 34.894 75.2716 34.8605 75.1652C34.827 75.0588 34.7663 74.9629 34.6846 74.887H34.6709Z" fill="#0079FF"/>
<path opacity="0.15" d="M41.6698 78.6022C41.4249 78.4051 41.1331 78.2747 40.823 78.2236C40.5128 78.1724 40.1946 78.2022 39.8994 78.3101L24.8868 83.7858C24.7506 83.8349 24.6288 83.9171 24.5323 84.025C24.4358 84.133 24.3677 84.2632 24.3342 84.4041C24.3007 84.5449 24.3028 84.6919 24.3403 84.8317C24.3779 84.9715 24.4496 85.0998 24.5491 85.2049C24.7102 85.3747 24.9174 85.4936 25.1452 85.5471C25.3731 85.6007 25.6115 85.5864 25.8314 85.5061L41.4827 79.7657C41.5926 79.7239 41.6895 79.654 41.7638 79.563C41.8381 79.4719 41.8872 79.363 41.9062 79.247C41.9251 79.131 41.9133 79.012 41.8718 78.9021C41.8303 78.7921 41.7607 78.695 41.6698 78.6204V78.6022Z" fill="#0079FF"/>
<path opacity="0.15" d="M46.9172 89.8632C46.694 89.6126 46.4005 89.435 46.0749 89.3536C45.7494 89.2722 45.4068 89.2908 45.0919 89.4069L36.5088 92.6832C36.3863 92.7301 36.2763 92.8047 36.1874 92.901C36.0984 92.9974 36.0328 93.1129 35.9957 93.2387C35.9587 93.3645 35.9511 93.4971 35.9736 93.6263C35.9961 93.7555 36.0481 93.8778 36.1255 93.9837C36.2779 94.1916 36.4948 94.3433 36.7424 94.4151C36.99 94.487 37.2544 94.4748 37.4944 94.3807L46.6936 90.8215C46.785 90.785 46.8663 90.7269 46.9305 90.6523C46.9947 90.5776 47.0399 90.4886 47.0623 90.3927C47.0847 90.2968 47.0836 90.197 47.0591 90.1016C47.0347 90.0062 46.9875 89.9182 46.9217 89.8449L46.9172 89.8632Z" fill="#0079FF"/>
<g opacity="0.95">
<path d="M158.571 84.1055C171.621 90.2083 185.645 93.9648 199.999 95.2029C198.06 99.7112 184.279 122.28 143.371 140.875C142.262 141.048 116.718 129.161 102.7 121.012C103.193 121.678 146.246 105.826 158.571 84.1055Z" fill="#0079FF"/>
<path d="M158.571 84.1055C171.621 90.2083 185.645 93.9648 199.999 95.2029C198.06 99.7112 184.279 122.28 143.371 140.875C142.262 141.048 116.718 129.161 102.7 121.012C103.193 121.678 146.246 105.826 158.571 84.1055Z" fill="url(#paint6_linear_5668_8792)"/>
</g>
<path opacity="0.15" d="M157.564 95.3071C157.86 95.101 158.199 94.9662 158.555 94.9131C158.911 94.8601 159.275 94.8903 159.618 95.0014L182.433 102.389C182.622 102.45 182.793 102.556 182.931 102.698C183.069 102.841 183.17 103.015 183.226 103.205C183.281 103.396 183.289 103.597 183.249 103.791C183.208 103.985 183.121 104.167 182.994 104.319C182.778 104.579 182.487 104.767 182.161 104.859C181.835 104.95 181.489 104.94 181.169 104.83L157.756 96.8129C157.607 96.7615 157.476 96.67 157.376 96.5484C157.276 96.4269 157.212 96.2801 157.19 96.1243C157.168 95.9685 157.19 95.8097 157.253 95.6655C157.316 95.5213 157.417 95.3972 157.546 95.3071H157.564Z" fill="#0079FF"/>
<path opacity="0.15" d="M151.17 101.385C151.455 101.12 151.807 100.938 152.188 100.858C152.569 100.778 152.965 100.802 153.333 100.928L169.139 106.249C169.299 106.305 169.444 106.398 169.56 106.522C169.675 106.646 169.759 106.796 169.804 106.959C169.849 107.123 169.854 107.295 169.817 107.46C169.781 107.626 169.705 107.78 169.596 107.91C169.411 108.139 169.16 108.305 168.878 108.387C168.596 108.469 168.295 108.461 168.017 108.366L151.434 102.722C151.306 102.678 151.192 102.602 151.102 102.5C151.012 102.399 150.95 102.277 150.922 102.145C150.893 102.012 150.9 101.875 150.94 101.746C150.98 101.617 151.053 101.5 151.152 101.408L151.17 101.385Z" fill="#0079FF"/>
<path opacity="0.15" d="M144.6 106.433C144.898 106.195 145.251 106.038 145.627 105.976C146.002 105.915 146.387 105.951 146.745 106.081L164.952 112.698C165.117 112.758 165.264 112.857 165.381 112.988C165.498 113.119 165.58 113.277 165.621 113.447C165.661 113.618 165.659 113.796 165.614 113.965C165.569 114.135 165.482 114.29 165.362 114.418C165.167 114.625 164.914 114.77 164.637 114.835C164.359 114.9 164.069 114.882 163.802 114.783L144.829 107.834C144.698 107.783 144.583 107.699 144.495 107.59C144.407 107.482 144.348 107.352 144.325 107.214C144.302 107.076 144.316 106.934 144.364 106.803C144.412 106.672 144.494 106.555 144.6 106.465V106.433Z" fill="#0079FF"/>
<path opacity="0.15" d="M129.815 116.536C130.088 116.233 130.447 116.02 130.843 115.925C131.24 115.83 131.656 115.857 132.037 116.002L142.436 119.972C142.585 120.029 142.718 120.12 142.826 120.237C142.933 120.355 143.012 120.495 143.057 120.648C143.101 120.801 143.109 120.962 143.081 121.119C143.052 121.276 142.988 121.423 142.893 121.551C142.708 121.802 142.445 121.985 142.146 122.072C141.847 122.16 141.527 122.147 141.236 122.035L130.116 117.713C130.005 117.671 129.906 117.602 129.827 117.512C129.748 117.422 129.693 117.315 129.665 117.199C129.637 117.083 129.638 116.962 129.667 116.847C129.696 116.731 129.753 116.625 129.833 116.536H129.815Z" fill="#0079FF"/>
<path opacity="0.15" d="M136.611 111.141C136.914 110.949 137.258 110.829 137.614 110.791C137.971 110.753 138.332 110.798 138.669 110.922L162.643 119.697C162.82 119.76 162.978 119.868 163.1 120.011C163.222 120.154 163.304 120.327 163.338 120.512C163.373 120.697 163.358 120.887 163.295 121.065C163.232 121.242 163.124 121.4 162.981 121.522C162.782 121.696 162.54 121.814 162.279 121.862C162.019 121.91 161.751 121.887 161.503 121.796L136.771 112.669C136.621 112.614 136.489 112.519 136.391 112.393C136.293 112.267 136.232 112.116 136.216 111.957C136.199 111.798 136.227 111.638 136.297 111.495C136.367 111.351 136.476 111.23 136.611 111.145V111.141Z" fill="#0079FF"/>
<path opacity="0.15" d="M52.1099 81.0605C51.8589 80.9043 51.5757 80.8071 51.2817 80.7763C50.9876 80.7454 50.6904 80.7818 50.4125 80.8825L30.6406 88.115C30.4965 88.168 30.3686 88.2575 30.2695 88.3748C30.1704 88.4921 30.1035 88.6332 30.0755 88.7841C30.0474 88.9351 30.0591 89.0908 30.1094 89.2359C30.1596 89.381 30.2468 89.5105 30.3623 89.6117C30.5273 89.7553 30.7279 89.8519 30.9431 89.8912C31.1583 89.9306 31.3801 89.9113 31.5852 89.8353L51.9822 82.3245C52.1063 82.2785 52.215 82.1987 52.296 82.094C52.377 81.9893 52.427 81.864 52.4403 81.7323C52.4536 81.6007 52.4297 81.4679 52.3713 81.3491C52.3129 81.2304 52.2223 81.1304 52.1099 81.0605Z" fill="#0079FF"/>
<path opacity="0.2" d="M166.392 36.9819C166.392 37.659 166.192 38.3208 165.815 38.8837C165.439 39.4466 164.904 39.8852 164.279 40.1441C163.653 40.403 162.965 40.4705 162.301 40.3381C161.637 40.2057 161.027 39.8793 160.549 39.4002C160.07 38.9211 159.745 38.3109 159.613 37.6467C159.482 36.9826 159.55 36.2943 159.81 35.6691C160.069 35.0438 160.509 34.5096 161.072 34.1341C161.636 33.7586 162.298 33.5587 162.975 33.5596C163.424 33.5596 163.869 33.6481 164.284 33.8202C164.699 33.9922 165.076 34.2444 165.393 34.5622C165.71 34.8801 165.962 35.2574 166.134 35.6726C166.305 36.0877 166.393 36.5327 166.392 36.9819Z" stroke="#212121" stroke-width="1.92243"/>
<path opacity="0.2" d="M41.6782 167.295C43.5683 167.295 45.1005 165.763 45.1005 163.873C45.1005 161.982 43.5683 160.45 41.6782 160.45C39.7881 160.45 38.2559 161.982 38.2559 163.873C38.2559 165.763 39.7881 167.295 41.6782 167.295Z" stroke="#212121" stroke-width="1.92243"/>
<path opacity="0.4" d="M159.422 173.845C161.312 173.845 162.845 172.312 162.845 170.422C162.845 168.532 161.312 167 159.422 167C157.532 167 156 168.532 156 170.422C156 172.312 157.532 173.845 159.422 173.845Z" stroke="#212121" stroke-width="1.92243"/>
<g opacity="0.6">
<path d="M42.6051 25.1445C42.6832 24.8184 42.8689 24.5282 43.1321 24.3205C43.3954 24.1129 43.7209 24 44.0562 24C44.3914 24 44.7169 24.1129 44.9802 24.3205C45.2435 24.5282 45.4291 24.8184 45.5072 25.1445L46.7484 30.2734C46.8119 30.5405 46.9483 30.7848 47.1425 30.979C47.3367 31.1731 47.5809 31.3096 47.8481 31.3731L52.9724 32.6097C53.2985 32.6878 53.5887 32.8734 53.7963 33.1367C54.004 33.3999 54.1169 33.7255 54.1169 34.0607C54.1169 34.396 54.004 34.7215 53.7963 34.9848C53.5887 35.248 53.2985 35.4337 52.9724 35.5118L47.8481 36.7484C47.5804 36.8123 47.3357 36.9494 47.1415 37.1444C46.9473 37.3395 46.8112 37.5847 46.7484 37.8527L45.5118 42.977C45.4337 43.3031 45.248 43.5933 44.9848 43.8009C44.7215 44.0085 44.396 44.1215 44.0607 44.1215C43.7255 44.1215 43.3999 44.0085 43.1367 43.8009C42.8734 43.5933 42.6878 43.3031 42.6097 42.977L41.3731 37.8527C41.3089 37.5853 41.1723 37.3409 40.9783 37.1461C40.7843 36.9513 40.5404 36.8137 40.2734 36.7484L35.1445 35.5118C34.8184 35.4337 34.5282 35.248 34.3205 34.9848C34.1129 34.7215 34 34.396 34 34.0607C34 33.7255 34.1129 33.3999 34.3205 33.1367C34.5282 32.8734 34.8184 32.6878 35.1445 32.6097L40.2734 31.3731C40.5398 31.3081 40.7833 31.1712 40.9773 30.9773C41.1712 30.7833 41.3081 30.5398 41.3731 30.2734L42.6051 25.1445Z" fill="#0079FF"/>
<path d="M42.6051 25.1445C42.6832 24.8184 42.8689 24.5282 43.1321 24.3205C43.3954 24.1129 43.7209 24 44.0562 24C44.3914 24 44.7169 24.1129 44.9802 24.3205C45.2435 24.5282 45.4291 24.8184 45.5072 25.1445L46.7484 30.2734C46.8119 30.5405 46.9483 30.7848 47.1425 30.979C47.3367 31.1731 47.5809 31.3096 47.8481 31.3731L52.9724 32.6097C53.2985 32.6878 53.5887 32.8734 53.7963 33.1367C54.004 33.3999 54.1169 33.7255 54.1169 34.0607C54.1169 34.396 54.004 34.7215 53.7963 34.9848C53.5887 35.248 53.2985 35.4337 52.9724 35.5118L47.8481 36.7484C47.5804 36.8123 47.3357 36.9494 47.1415 37.1444C46.9473 37.3395 46.8112 37.5847 46.7484 37.8527L45.5118 42.977C45.4337 43.3031 45.248 43.5933 44.9848 43.8009C44.7215 44.0085 44.396 44.1215 44.0607 44.1215C43.7255 44.1215 43.3999 44.0085 43.1367 43.8009C42.8734 43.5933 42.6878 43.3031 42.6097 42.977L41.3731 37.8527C41.3089 37.5853 41.1723 37.3409 40.9783 37.1461C40.7843 36.9513 40.5404 36.8137 40.2734 36.7484L35.1445 35.5118C34.8184 35.4337 34.5282 35.248 34.3205 34.9848C34.1129 34.7215 34 34.396 34 34.0607C34 33.7255 34.1129 33.3999 34.3205 33.1367C34.5282 32.8734 34.8184 32.6878 35.1445 32.6097L40.2734 31.3731C40.5398 31.3081 40.7833 31.1712 40.9773 30.9773C41.1712 30.7833 41.3081 30.5398 41.3731 30.2734L42.6051 25.1445Z" fill="url(#paint7_linear_5668_8792)" fill-opacity="0.6"/>
</g>
<g opacity="0.6">
<path d="M177.927 148.701C178.005 148.375 178.191 148.085 178.454 147.877C178.717 147.67 179.043 147.557 179.378 147.557C179.713 147.557 180.039 147.67 180.302 147.877C180.565 148.085 180.751 148.375 180.829 148.701L182.066 153.825C182.13 154.092 182.267 154.336 182.461 154.53C182.655 154.724 182.899 154.861 183.165 154.925L188.294 156.166C188.62 156.244 188.911 156.43 189.118 156.693C189.326 156.957 189.439 157.282 189.439 157.617C189.439 157.953 189.326 158.278 189.118 158.541C188.911 158.805 188.62 158.99 188.294 159.068L183.165 160.31C182.899 160.375 182.656 160.511 182.462 160.705C182.268 160.899 182.131 161.143 182.066 161.409L180.829 166.538C180.751 166.864 180.565 167.155 180.302 167.362C180.039 167.57 179.713 167.683 179.378 167.683C179.043 167.683 178.717 167.57 178.454 167.362C178.191 167.155 178.005 166.864 177.927 166.538L176.69 161.409C176.625 161.142 176.488 160.898 176.293 160.704C176.098 160.51 175.853 160.374 175.586 160.31L170.462 159.073C170.136 158.995 169.846 158.809 169.638 158.546C169.43 158.283 169.317 157.957 169.317 157.622C169.317 157.287 169.43 156.961 169.638 156.698C169.846 156.435 170.136 156.249 170.462 156.171L175.586 154.93C175.854 154.866 176.099 154.73 176.294 154.536C176.489 154.342 176.626 154.098 176.69 153.83L177.927 148.701Z" fill="#0079FF"/>
<path d="M177.927 148.701C178.005 148.375 178.191 148.085 178.454 147.877C178.717 147.67 179.043 147.557 179.378 147.557C179.713 147.557 180.039 147.67 180.302 147.877C180.565 148.085 180.751 148.375 180.829 148.701L182.066 153.825C182.13 154.092 182.267 154.336 182.461 154.53C182.655 154.724 182.899 154.861 183.165 154.925L188.294 156.166C188.62 156.244 188.911 156.43 189.118 156.693C189.326 156.957 189.439 157.282 189.439 157.617C189.439 157.953 189.326 158.278 189.118 158.541C188.911 158.805 188.62 158.99 188.294 159.068L183.165 160.31C182.899 160.375 182.656 160.511 182.462 160.705C182.268 160.899 182.131 161.143 182.066 161.409L180.829 166.538C180.751 166.864 180.565 167.155 180.302 167.362C180.039 167.57 179.713 167.683 179.378 167.683C179.043 167.683 178.717 167.57 178.454 167.362C178.191 167.155 178.005 166.864 177.927 166.538L176.69 161.409C176.625 161.142 176.488 160.898 176.293 160.704C176.098 160.51 175.853 160.374 175.586 160.31L170.462 159.073C170.136 158.995 169.846 158.809 169.638 158.546C169.43 158.283 169.317 157.957 169.317 157.622C169.317 157.287 169.43 156.961 169.638 156.698C169.846 156.435 170.136 156.249 170.462 156.171L175.586 154.93C175.854 154.866 176.099 154.73 176.294 154.536C176.489 154.342 176.626 154.098 176.69 153.83L177.927 148.701Z" fill="url(#paint8_linear_5668_8792)" fill-opacity="0.6"/>
</g>
<g opacity="0.6">
<path d="M18.9134 136.7C19.1298 136.662 19.3521 136.683 19.5578 136.76C19.7635 136.836 19.9452 136.966 20.0844 137.136C20.2236 137.306 20.3152 137.509 20.35 137.726C20.3848 137.943 20.3614 138.165 20.2824 138.37L18.0008 144.407C17.923 144.611 17.7926 144.792 17.6229 144.93C17.4533 145.068 17.2502 145.159 17.0342 145.193C16.8182 145.228 16.5968 145.205 16.3925 145.127C16.1881 145.049 16.0078 144.919 15.8699 144.749L11.795 139.73C11.6565 139.56 11.5653 139.357 11.5305 139.141C11.4957 138.925 11.5185 138.704 11.5968 138.5C11.6751 138.295 11.806 138.115 11.9762 137.978C12.1465 137.841 12.35 137.751 12.5662 137.717L18.9134 136.7Z" fill="#0079FF"/>
<path d="M18.9134 136.7C19.1298 136.662 19.3521 136.683 19.5578 136.76C19.7635 136.836 19.9452 136.966 20.0844 137.136C20.2236 137.306 20.3152 137.509 20.35 137.726C20.3848 137.943 20.3614 138.165 20.2824 138.37L18.0008 144.407C17.923 144.611 17.7926 144.792 17.6229 144.93C17.4533 145.068 17.2502 145.159 17.0342 145.193C16.8182 145.228 16.5968 145.205 16.3925 145.127C16.1881 145.049 16.0078 144.919 15.8699 144.749L11.795 139.73C11.6565 139.56 11.5653 139.357 11.5305 139.141C11.4957 138.925 11.5185 138.704 11.5968 138.5C11.6751 138.295 11.806 138.115 11.9762 137.978C12.1465 137.841 12.35 137.751 12.5662 137.717L18.9134 136.7Z" fill="url(#paint9_linear_5668_8792)" fill-opacity="0.6"/>
</g>
<g opacity="0.6">
<path d="M180.398 75.1386C180.344 74.9269 180.347 74.7049 180.406 74.4948C180.465 74.2847 180.579 74.0938 180.735 73.9413C180.891 73.7888 181.085 73.68 181.296 73.6259C181.508 73.5717 181.73 73.5741 181.94 73.6327L188.164 75.3804C188.374 75.4401 188.565 75.554 188.717 75.7106C188.869 75.8672 188.977 76.0611 189.031 76.2728C189.084 76.4845 189.082 76.7065 189.022 76.9167C188.963 77.1269 188.85 77.3178 188.693 77.4703L184.071 81.9832C183.914 82.1357 183.72 82.2443 183.509 82.2981C183.297 82.352 183.075 82.3492 182.864 82.29C182.654 82.2308 182.463 82.1174 182.31 81.961C182.157 81.8046 182.049 81.6108 181.995 81.3991L180.398 75.1386Z" fill="#0079FF"/>
<path d="M180.398 75.1386C180.344 74.9269 180.347 74.7049 180.406 74.4948C180.465 74.2847 180.579 74.0938 180.735 73.9413C180.891 73.7888 181.085 73.68 181.296 73.6259C181.508 73.5717 181.73 73.5741 181.94 73.6327L188.164 75.3804C188.374 75.4401 188.565 75.554 188.717 75.7106C188.869 75.8672 188.977 76.0611 189.031 76.2728C189.084 76.4845 189.082 76.7065 189.022 76.9167C188.963 77.1269 188.85 77.3178 188.693 77.4703L184.071 81.9832C183.914 82.1357 183.72 82.2443 183.509 82.2981C183.297 82.352 183.075 82.3492 182.864 82.29C182.654 82.2308 182.463 82.1174 182.31 81.961C182.157 81.8046 182.049 81.6108 181.995 81.3991L180.398 75.1386Z" fill="url(#paint10_linear_5668_8792)" fill-opacity="0.6"/>
</g>
</g>
<defs>
<filter id="filter0_d_5668_8792" x="6.44805" y="59.8543" width="99.3861" height="123.411" filterUnits="userSpaceOnUse" color-interpolation-filters="sRGB">
<feFlood flood-opacity="0" result="BackgroundImageFix"/>
<feColorMatrix in="SourceAlpha" type="matrix" values="0 0 0 0 0 0 0 0 0 0 0 0 0 0 0 0 0 0 127 0" result="hardAlpha"/>
<feOffset dy="7"/>
<feGaussianBlur stdDeviation="10.15"/>
<feComposite in2="hardAlpha" operator="out"/>
<feColorMatrix type="matrix" values="0 0 0 0 0 0 0 0 0 0.47451 0 0 0 0 1 0 0 0 0.38 0"/>
<feBlend mode="normal" in2="BackgroundImageFix" result="effect1_dropShadow_5668_8792"/>
<feBlend mode="normal" in="SourceGraphic" in2="effect1_dropShadow_5668_8792" result="shape"/>
</filter>
<filter id="filter1_d_5668_8792" x="87.7" y="59.8543" width="99.3861" height="123.411" filterUnits="userSpaceOnUse" color-interpolation-filters="sRGB">
<feFlood flood-opacity="0" result="BackgroundImageFix"/>
<feColorMatrix in="SourceAlpha" type="matrix" values="0 0 0 0 0 0 0 0 0 0 0 0 0 0 0 0 0 0 127 0" result="hardAlpha"/>
<feOffset dy="7"/>
<feGaussianBlur stdDeviation="10.15"/>
<feComposite in2="hardAlpha" operator="out"/>
<feColorMatrix type="matrix" values="0 0 0 0 0 0 0 0 0 0.47451 0 0 0 0 1 0 0 0 0.38 0"/>
<feBlend mode="normal" in2="BackgroundImageFix" result="effect1_dropShadow_5668_8792"/>
<feBlend mode="normal" in="SourceGraphic" in2="effect1_dropShadow_5668_8792" result="shape"/>
</filter>
<filter id="filter2_d_5668_8792" x="6.44805" y="95.1121" width="181.001" height="88.1518" filterUnits="userSpaceOnUse" color-interpolation-filters="sRGB">
<feFlood flood-opacity="0" result="BackgroundImageFix"/>
<feColorMatrix in="SourceAlpha" type="matrix" values="0 0 0 0 0 0 0 0 0 0 0 0 0 0 0 0 0 0 127 0" result="hardAlpha"/>
<feOffset dy="7"/>
<feGaussianBlur stdDeviation="10.15"/>
<feComposite in2="hardAlpha" operator="out"/>
<feColorMatrix type="matrix" values="0 0 0 0 0 0 0 0 0 0.47451 0 0 0 0 1 0 0 0 0.38 0"/>
<feBlend mode="normal" in2="BackgroundImageFix" result="effect1_dropShadow_5668_8792"/>
<feBlend mode="normal" in="SourceGraphic" in2="effect1_dropShadow_5668_8792" result="shape"/>
</filter>
<filter id="filter3_d_5668_8792" x="107.774" y="30.1492" width="48.5199" height="55.6977" filterUnits="userSpaceOnUse" color-interpolation-filters="sRGB">
<feFlood flood-opacity="0" result="BackgroundImageFix"/>
<feColorMatrix in="SourceAlpha" type="matrix" values="0 0 0 0 0 0 0 0 0 0 0 0 0 0 0 0 0 0 127 0" result="hardAlpha"/>
<feOffset dy="4"/>
<feGaussianBlur stdDeviation="6.4"/>
<feComposite in2="hardAlpha" operator="out"/>
<feColorMatrix type="matrix" values="0 0 0 0 0 0 0 0 0 0 0 0 0 0 0 0 0 0 0.42 0"/>
<feBlend mode="normal" in2="BackgroundImageFix" result="effect1_dropShadow_5668_8792"/>
<feBlend mode="normal" in="SourceGraphic" in2="effect1_dropShadow_5668_8792" result="shape"/>
</filter>
<linearGradient id="paint0_linear_5668_8792" x1="26.748" y1="31.2565" x2="75.3872" y2="153.729" gradientUnits="userSpaceOnUse">
<stop stop-color="white" stop-opacity="0.75"/>
<stop offset="1" stop-color="white" stop-opacity="0.64"/>
</linearGradient>
<linearGradient id="paint1_linear_5668_8792" x1="75.1977" y1="155.965" x2="10.6071" y2="112.508" gradientUnits="userSpaceOnUse">
<stop stop-color="white" stop-opacity="0"/>
<stop offset="1" stop-color="white"/>
</linearGradient>
<linearGradient id="paint2_linear_5668_8792" x1="118.336" y1="155.965" x2="182.927" y2="112.508" gradientUnits="userSpaceOnUse">
<stop stop-color="white" stop-opacity="0"/>
<stop offset="1" stop-color="white"/>
</linearGradient>
<linearGradient id="paint3_linear_5668_8792" x1="142.462" y1="155.964" x2="117.086" y2="84.9517" gradientUnits="userSpaceOnUse">
<stop stop-color="white" stop-opacity="0"/>
<stop offset="1" stop-color="white"/>
</linearGradient>
<linearGradient id="paint4_linear_5668_8792" x1="77.5" y1="88.5" x2="-2.7063e-06" y2="66.9373" gradientUnits="userSpaceOnUse">
<stop stop-color="white"/>
<stop offset="1" stop-color="white" stop-opacity="0.8"/>
</linearGradient>
<linearGradient id="paint5_linear_5668_8792" x1="136.207" y1="75.177" x2="126.264" y2="37.2558" gradientUnits="userSpaceOnUse">
<stop stop-color="white" stop-opacity="0"/>
<stop offset="1" stop-color="white"/>
</linearGradient>
<linearGradient id="paint6_linear_5668_8792" x1="102.7" y1="132.059" x2="199.999" y2="92.9235" gradientUnits="userSpaceOnUse">
<stop stop-color="white"/>
<stop offset="1" stop-color="white" stop-opacity="0.8"/>
</linearGradient>
<linearGradient id="paint7_linear_5668_8792" x1="50.5797" y1="44.1215" x2="33.6613" y2="28.0905" gradientUnits="userSpaceOnUse">
<stop stop-color="white" stop-opacity="0"/>
<stop offset="1" stop-color="white"/>
</linearGradient>
<linearGradient id="paint8_linear_5668_8792" x1="185.901" y1="167.683" x2="168.979" y2="151.648" gradientUnits="userSpaceOnUse">
<stop stop-color="white" stop-opacity="0"/>
<stop offset="1" stop-color="white"/>
</linearGradient>
<linearGradient id="paint9_linear_5668_8792" x1="18.8094" y1="145.209" x2="11.6299" y2="138.147" gradientUnits="userSpaceOnUse">
<stop stop-color="white" stop-opacity="0"/>
<stop offset="1" stop-color="white"/>
</linearGradient>
<linearGradient id="paint10_linear_5668_8792" x1="187.538" y1="82.3366" x2="180.183" y2="75.3976" gradientUnits="userSpaceOnUse">
<stop stop-color="white" stop-opacity="0"/>
<stop offset="1" stop-color="white"/>
</linearGradient>
<clipPath id="clip0_5668_8792">
<rect width="200" height="200" fill="white"/>
</clipPath>
</defs>
</svg>
