<svg width="201" height="200" viewBox="0 0 201 200" fill="none" xmlns="http://www.w3.org/2000/svg">
<g clip-path="url(#clip0_5666_7772)">
<g clip-path="url(#clip1_5666_7772)">
<path opacity="0.06" d="M102.975 172.502C144.823 172.502 178.698 138.586 178.698 96.78C178.698 54.9745 144.823 21.0576 102.975 21.0576C61.1276 21.0576 27.2529 54.9745 27.2529 96.78C27.2529 138.586 61.1698 172.502 102.975 172.502Z" fill="#0079FF"/>
<path fill-rule="evenodd" clip-rule="evenodd" d="M2.36323 59.9947C15.6516 52.0216 30.6695 50.503 45.0546 50.967C47.1217 51.0514 48.7248 52.7388 48.6404 54.8059C48.556 56.8729 46.8686 58.476 44.8015 58.3916C30.9648 57.9276 17.6343 59.4462 6.15989 66.3224C4.38812 67.3771 2.11012 66.8287 1.05549 65.0569C0.0430421 63.3273 0.59145 61.0493 2.36323 59.9947Z" fill="#212121"/>
<path fill-rule="evenodd" clip-rule="evenodd" d="M2.36323 59.9947C15.6516 52.0216 30.6695 50.503 45.0546 50.967C47.1217 51.0514 48.7248 52.7388 48.6404 54.8059C48.556 56.8729 46.8686 58.476 44.8015 58.3916C30.9648 57.9276 17.6343 59.4462 6.15989 66.3224C4.38812 67.3771 2.11012 66.8287 1.05549 65.0569C0.0430421 63.3273 0.59145 61.0493 2.36323 59.9947Z" fill="url(#paint0_linear_5666_7772)" fill-opacity="0.6"/>
<path fill-rule="evenodd" clip-rule="evenodd" d="M200.001 120.531C201.056 122.302 200.507 124.58 198.735 125.635C185.447 133.608 170.429 135.127 156.044 134.663C153.977 134.578 152.374 132.891 152.458 130.824C152.543 128.757 154.23 127.154 156.297 127.238C170.092 127.702 183.464 126.184 194.939 119.307C196.668 118.21 198.946 118.759 200.001 120.531Z" fill="#212121"/>
<path fill-rule="evenodd" clip-rule="evenodd" d="M200.001 120.531C201.056 122.302 200.507 124.58 198.735 125.635C185.447 133.608 170.429 135.127 156.044 134.663C153.977 134.578 152.374 132.891 152.458 130.824C152.543 128.757 154.23 127.154 156.297 127.238C170.092 127.702 183.464 126.184 194.939 119.307C196.668 118.21 198.946 118.759 200.001 120.531Z" fill="url(#paint1_linear_5666_7772)" fill-opacity="0.6"/>
<g filter="url(#filter0_d_5666_7772)">
<path d="M97.6592 163.306H135.541C148.239 163.306 158.532 149.554 158.532 132.596C158.532 115.637 148.197 101.885 135.541 101.885H97.7014C105.548 101.885 112.466 107.158 116.643 115.215C119.3 120.615 120.692 126.605 120.692 132.638C120.692 138.67 119.3 144.618 116.643 150.06C112.466 158.075 105.506 163.306 97.6592 163.306Z" fill="#0079FF"/>
<path d="M97.6592 163.306H135.541C148.239 163.306 158.532 149.554 158.532 132.596C158.532 115.637 148.197 101.885 135.541 101.885H97.7014C105.548 101.885 112.466 107.158 116.643 115.215C119.3 120.615 120.692 126.605 120.692 132.638C120.692 138.67 119.3 144.618 116.643 150.06C112.466 158.075 105.506 163.306 97.6592 163.306Z" fill="url(#paint2_linear_5666_7772)" fill-opacity="0.6"/>
</g>
<path d="M124.869 113.149C120.229 104.206 112.509 98.3418 103.734 98.3418H95.255C81.0808 98.3418 69.6064 113.697 69.6064 132.596C69.6064 151.495 81.0808 166.851 95.255 166.851H103.734C112.509 166.851 120.229 160.987 124.827 152.044C127.78 146.011 129.341 139.346 129.341 132.596C129.425 125.889 127.864 119.223 124.869 113.149Z" fill="#0079FF"/>
<path d="M124.869 113.149C120.229 104.206 112.509 98.3418 103.734 98.3418H95.255C81.0808 98.3418 69.6064 113.697 69.6064 132.596C69.6064 151.495 81.0808 166.851 95.255 166.851H103.734C112.509 166.851 120.229 160.987 124.827 152.044C127.78 146.011 129.341 139.346 129.341 132.596C129.425 125.889 127.864 119.223 124.869 113.149Z" fill="url(#paint3_linear_5666_7772)" fill-opacity="0.6"/>
<path d="M116.347 113.149C111.749 104.206 104.029 98.3418 95.2968 98.3418C81.1648 98.3418 69.6904 113.697 69.6904 132.596C69.6904 151.495 81.1648 166.851 95.2968 166.851C104.029 166.851 111.749 160.987 116.347 152.044C119.342 146.011 120.861 139.346 120.861 132.596C120.861 125.889 119.3 119.223 116.347 113.149Z" fill="#0079FF"/>
<path d="M116.347 113.149C111.749 104.206 104.029 98.3418 95.2968 98.3418C81.1648 98.3418 69.6904 113.697 69.6904 132.596C69.6904 151.495 81.1648 166.851 95.2968 166.851C104.029 166.851 111.749 160.987 116.347 152.044C119.342 146.011 120.861 139.346 120.861 132.596C120.861 125.889 119.3 119.223 116.347 113.149Z" fill="url(#paint4_linear_5666_7772)" fill-opacity="0.9"/>
<path d="M98.6302 126.267C97.3647 128.503 95.2132 129.98 92.8087 129.98H90.4885C86.5653 129.98 83.4014 126.141 83.4014 121.416C83.4014 116.691 86.5653 112.853 90.4885 112.853H92.8509C95.2554 112.853 97.4069 114.329 98.6724 116.565C99.4739 118.084 99.938 119.729 99.938 121.416C99.8958 123.104 99.4739 124.749 98.6302 126.267Z" fill="#0079FF"/>
<path d="M98.6302 126.267C97.3647 128.503 95.2132 129.98 92.8087 129.98H90.4885C86.5653 129.98 83.4014 126.141 83.4014 121.416C83.4014 116.691 86.5653 112.853 90.4885 112.853H92.8509C95.2554 112.853 97.4069 114.329 98.6724 116.565C99.4739 118.084 99.938 119.729 99.938 121.416C99.8958 123.104 99.4739 124.749 98.6302 126.267Z" fill="url(#paint5_linear_5666_7772)" fill-opacity="0.6"/>
<path d="M98.6302 126.267C97.3647 128.503 95.2132 129.98 92.8087 129.98H90.4885C86.5653 129.98 83.4014 126.141 83.4014 121.416C83.4014 116.691 86.5653 112.853 90.4885 112.853H92.8509C95.2554 112.853 97.4069 114.329 98.6724 116.565C99.4739 118.084 99.938 119.729 99.938 121.416C99.8958 123.104 99.4739 124.749 98.6302 126.267Z" fill="white" fill-opacity="0.58"/>
<path d="M98.6302 149.385C97.3647 151.62 95.2132 153.097 92.8087 153.097H90.4885C86.5653 153.097 83.4014 149.258 83.4014 144.533C83.4014 139.809 86.5653 135.97 90.4885 135.97H92.8509C95.2554 135.97 97.4069 137.446 98.6724 139.682C99.4739 141.201 99.938 142.846 99.938 144.533C99.938 146.221 99.4739 147.866 98.6302 149.385Z" fill="#0079FF"/>
<path d="M98.6302 149.385C97.3647 151.62 95.2132 153.097 92.8087 153.097H90.4885C86.5653 153.097 83.4014 149.258 83.4014 144.533C83.4014 139.809 86.5653 135.97 90.4885 135.97H92.8509C95.2554 135.97 97.4069 137.446 98.6724 139.682C99.4739 141.201 99.938 142.846 99.938 144.533C99.938 146.221 99.4739 147.866 98.6302 149.385Z" fill="url(#paint6_linear_5666_7772)" fill-opacity="0.6"/>
<path d="M98.6302 149.385C97.3647 151.62 95.2132 153.097 92.8087 153.097H90.4885C86.5653 153.097 83.4014 149.258 83.4014 144.533C83.4014 139.809 86.5653 135.97 90.4885 135.97H92.8509C95.2554 135.97 97.4069 137.446 98.6724 139.682C99.4739 141.201 99.938 142.846 99.938 144.533C99.938 146.221 99.4739 147.866 98.6302 149.385Z" fill="white" fill-opacity="0.42"/>
<path d="M96.0147 126.267C94.7492 128.503 92.6821 129.98 90.3197 129.98C86.4809 129.98 83.4014 126.141 83.4014 121.416C83.4014 116.691 86.5231 112.853 90.3197 112.853C92.6821 112.853 94.7914 114.329 96.0147 116.565C96.8163 118.084 97.2381 119.729 97.2381 121.416C97.2381 123.104 96.8163 124.749 96.0147 126.267Z" fill="#0079FF"/>
<path d="M96.0147 126.267C94.7492 128.503 92.6821 129.98 90.3197 129.98C86.4809 129.98 83.4014 126.141 83.4014 121.416C83.4014 116.691 86.5231 112.853 90.3197 112.853C92.6821 112.853 94.7914 114.329 96.0147 116.565C96.8163 118.084 97.2381 119.729 97.2381 121.416C97.2381 123.104 96.8163 124.749 96.0147 126.267Z" fill="url(#paint7_linear_5666_7772)" fill-opacity="0.6"/>
<path d="M96.0147 126.267C94.7492 128.503 92.6821 129.98 90.3197 129.98C86.4809 129.98 83.4014 126.141 83.4014 121.416C83.4014 116.691 86.5231 112.853 90.3197 112.853C92.6821 112.853 94.7914 114.329 96.0147 116.565C96.8163 118.084 97.2381 119.729 97.2381 121.416C97.2381 123.104 96.8163 124.749 96.0147 126.267Z" fill="white" fill-opacity="0.58"/>
<path d="M96.0147 149.385C94.7492 151.62 92.6821 153.097 90.3197 153.097C86.4809 153.097 83.4014 149.258 83.4014 144.533C83.4014 139.809 86.5231 135.97 90.3197 135.97C92.6821 135.97 94.7914 137.446 96.0147 139.682C96.8163 141.201 97.2381 142.846 97.2381 144.533C97.2381 146.221 96.8163 147.866 96.0147 149.385Z" fill="#0079FF"/>
<path d="M96.0147 149.385C94.7492 151.62 92.6821 153.097 90.3197 153.097C86.4809 153.097 83.4014 149.258 83.4014 144.533C83.4014 139.809 86.5231 135.97 90.3197 135.97C92.6821 135.97 94.7914 137.446 96.0147 139.682C96.8163 141.201 97.2381 142.846 97.2381 144.533C97.2381 146.221 96.8163 147.866 96.0147 149.385Z" fill="url(#paint8_linear_5666_7772)" fill-opacity="0.6"/>
<path d="M96.0147 149.385C94.7492 151.62 92.6821 153.097 90.3197 153.097C86.4809 153.097 83.4014 149.258 83.4014 144.533C83.4014 139.809 86.5231 135.97 90.3197 135.97C92.6821 135.97 94.7914 137.446 96.0147 139.682C96.8163 141.201 97.2381 142.846 97.2381 144.533C97.2381 146.221 96.8163 147.866 96.0147 149.385Z" fill="white" fill-opacity="0.42"/>
<g filter="url(#filter1_d_5666_7772)">
<path d="M103.397 87.9636H65.5573C52.8596 87.9636 42.5664 74.2113 42.5664 57.2528C42.5664 40.2944 52.8596 26.542 65.5573 26.542H103.397C95.551 26.542 88.6326 31.8151 84.4563 39.8303C81.7564 45.23 80.3643 51.2203 80.4065 57.2528C80.3643 63.2853 81.7564 69.2756 84.4563 74.6753C88.6326 82.7327 95.551 87.9636 103.397 87.9636Z" fill="#0079FF"/>
<path d="M103.397 87.9636H65.5573C52.8596 87.9636 42.5664 74.2113 42.5664 57.2528C42.5664 40.2944 52.8596 26.542 65.5573 26.542H103.397C95.551 26.542 88.6326 31.8151 84.4563 39.8303C81.7564 45.23 80.3643 51.2203 80.4065 57.2528C80.3643 63.2853 81.7564 69.2756 84.4563 74.6753C88.6326 82.7327 95.551 87.9636 103.397 87.9636Z" fill="url(#paint9_linear_5666_7772)" fill-opacity="0.6"/>
</g>
<path d="M76.1875 37.847C80.8279 28.9038 88.5478 23.04 97.3223 23.04H105.802C119.976 23.04 131.45 38.3954 131.45 57.2944C131.45 76.2356 119.976 91.5488 105.802 91.5488H97.3223C88.5478 91.5488 80.8279 85.6851 76.1875 76.7418C73.1502 70.7093 71.6315 64.044 71.6737 57.2944C71.6315 50.5448 73.1502 43.8795 76.1875 37.847Z" fill="#0079FF"/>
<path d="M76.1875 37.847C80.8279 28.9038 88.5478 23.04 97.3223 23.04H105.802C119.976 23.04 131.45 38.3954 131.45 57.2944C131.45 76.2356 119.976 91.5488 105.802 91.5488H97.3223C88.5478 91.5488 80.8279 85.6851 76.1875 76.7418C73.1502 70.7093 71.6315 64.044 71.6737 57.2944C71.6315 50.5448 73.1502 43.8795 76.1875 37.847Z" fill="url(#paint10_linear_5666_7772)" fill-opacity="0.6"/>
<path d="M84.751 37.847C89.3492 28.9038 97.0691 23.04 105.844 23.04C119.976 23.04 131.45 38.3954 131.45 57.2944C131.45 76.1934 119.976 91.5488 105.844 91.5488C97.1113 91.5488 89.3914 85.6851 84.751 76.7418C81.7137 70.7093 80.195 64.044 80.2372 57.2944C80.195 50.5448 81.7137 43.8795 84.751 37.847Z" fill="#0079FF"/>
<path d="M84.751 37.847C89.3492 28.9038 97.0691 23.04 105.844 23.04C119.976 23.04 131.45 38.3954 131.45 57.2944C131.45 76.1934 119.976 91.5488 105.844 91.5488C97.1113 91.5488 89.3914 85.6851 84.751 76.7418C81.7137 70.7093 80.195 64.044 80.2372 57.2944C80.195 50.5448 81.7137 43.8795 84.751 37.847Z" fill="url(#paint11_linear_5666_7772)" fill-opacity="0.9"/>
<path d="M108.164 52.7387C111.623 52.7387 114.449 49.0264 114.449 44.4704C114.449 39.9144 111.623 36.2021 108.164 36.2021C104.704 36.2021 101.878 39.9144 101.878 44.4704C101.878 49.0686 104.662 52.7387 108.164 52.7387Z" fill="#0079FF"/>
<path d="M108.164 52.7387C111.623 52.7387 114.449 49.0264 114.449 44.4704C114.449 39.9144 111.623 36.2021 108.164 36.2021C104.704 36.2021 101.878 39.9144 101.878 44.4704C101.878 49.0686 104.662 52.7387 108.164 52.7387Z" fill="url(#paint12_linear_5666_7772)" fill-opacity="0.6"/>
<path d="M108.164 52.7387C111.623 52.7387 114.449 49.0264 114.449 44.4704C114.449 39.9144 111.623 36.2021 108.164 36.2021C104.704 36.2021 101.878 39.9144 101.878 44.4704C101.878 49.0686 104.662 52.7387 108.164 52.7387Z" fill="white" fill-opacity="0.4"/>
<path d="M108.164 79.1469C111.623 79.1469 114.449 75.4346 114.449 70.8786C114.449 66.3226 111.623 62.6104 108.164 62.6104C104.704 62.6104 101.878 66.3226 101.878 70.8786C101.878 75.4768 104.662 79.1469 108.164 79.1469Z" fill="#0079FF"/>
<path d="M108.164 79.1469C111.623 79.1469 114.449 75.4346 114.449 70.8786C114.449 66.3226 111.623 62.6104 108.164 62.6104C104.704 62.6104 101.878 66.3226 101.878 70.8786C101.878 75.4768 104.662 79.1469 108.164 79.1469Z" fill="url(#paint13_linear_5666_7772)" fill-opacity="0.6"/>
<path d="M108.164 79.1469C111.623 79.1469 114.449 75.4346 114.449 70.8786C114.449 66.3226 111.623 62.6104 108.164 62.6104C104.704 62.6104 101.878 66.3226 101.878 70.8786C101.878 75.4768 104.662 79.1469 108.164 79.1469Z" fill="white" fill-opacity="0.2"/>
<g opacity="0.4">
<path d="M33.2851 103.783C33.6226 102.348 35.6475 102.348 35.985 103.783L37.124 108.55C37.2505 109.056 37.6302 109.436 38.1364 109.562L42.9033 110.701C44.3376 111.039 44.3376 113.063 42.9033 113.401L38.1364 114.54C37.6302 114.667 37.2505 115.046 37.124 115.552L35.985 120.362C35.6475 121.796 33.6226 121.796 33.2851 120.362L32.1461 115.595C32.0196 115.088 31.6399 114.709 31.1337 114.582L26.3667 113.443C24.9324 113.106 24.9324 111.081 26.3667 110.743L31.1337 109.604C31.6399 109.478 32.0196 109.098 32.1461 108.592L33.2851 103.783Z" fill="#0079FF"/>
<path d="M33.2851 103.783C33.6226 102.348 35.6475 102.348 35.985 103.783L37.124 108.55C37.2505 109.056 37.6302 109.436 38.1364 109.562L42.9033 110.701C44.3376 111.039 44.3376 113.063 42.9033 113.401L38.1364 114.54C37.6302 114.667 37.2505 115.046 37.124 115.552L35.985 120.362C35.6475 121.796 33.6226 121.796 33.2851 120.362L32.1461 115.595C32.0196 115.088 31.6399 114.709 31.1337 114.582L26.3667 113.443C24.9324 113.106 24.9324 111.081 26.3667 110.743L31.1337 109.604C31.6399 109.478 32.0196 109.098 32.1461 108.592L33.2851 103.783Z" fill="url(#paint14_linear_5666_7772)" fill-opacity="0.6"/>
</g>
<path d="M108.038 51.4319C110.822 51.4319 113.058 48.3102 113.058 44.4713C113.058 40.6324 110.822 37.5107 108.038 37.5107C105.253 37.5107 103.018 40.6324 103.018 44.4713C103.018 48.3102 105.253 51.4319 108.038 51.4319Z" fill="#0079FF"/>
<path d="M108.038 51.4319C110.822 51.4319 113.058 48.3102 113.058 44.4713C113.058 40.6324 110.822 37.5107 108.038 37.5107C105.253 37.5107 103.018 40.6324 103.018 44.4713C103.018 48.3102 105.253 51.4319 108.038 51.4319Z" fill="url(#paint15_linear_5666_7772)" fill-opacity="0.6"/>
<path d="M108.038 77.8391C110.822 77.8391 113.058 74.7174 113.058 70.8785C113.058 67.0397 110.822 63.918 108.038 63.918C105.253 63.918 103.018 67.0397 103.018 70.8785C103.018 74.7174 105.253 77.8391 108.038 77.8391Z" fill="#0079FF"/>
<path d="M108.038 77.8391C110.822 77.8391 113.058 74.7174 113.058 70.8785C113.058 67.0397 110.822 63.918 108.038 63.918C105.253 63.918 103.018 67.0397 103.018 70.8785C103.018 74.7174 105.253 77.8391 108.038 77.8391Z" fill="url(#paint16_linear_5666_7772)" fill-opacity="0.6"/>
<g opacity="0.4">
<path d="M148.324 18.231C148.662 16.7967 150.687 16.7967 151.024 18.231L152.163 22.9979C152.29 23.5041 152.669 23.8838 153.175 24.0104L157.942 25.1494C159.377 25.4868 159.377 27.5117 157.942 27.8492L153.175 28.9882C152.669 29.1148 152.29 29.4944 152.163 30.0007L151.024 34.7676C150.687 36.2019 148.662 36.2019 148.324 34.7676L147.185 30.0007C147.059 29.4944 146.679 29.1148 146.173 28.9882L141.406 27.8492C139.972 27.5117 139.972 25.4868 141.406 25.1494L146.173 24.0104C146.679 23.8838 147.059 23.5041 147.185 22.9979L148.324 18.231Z" fill="#0079FF"/>
<path d="M148.324 18.231C148.662 16.7967 150.687 16.7967 151.024 18.231L152.163 22.9979C152.29 23.5041 152.669 23.8838 153.175 24.0104L157.942 25.1494C159.377 25.4868 159.377 27.5117 157.942 27.8492L153.175 28.9882C152.669 29.1148 152.29 29.4944 152.163 30.0007L151.024 34.7676C150.687 36.2019 148.662 36.2019 148.324 34.7676L147.185 30.0007C147.059 29.4944 146.679 29.1148 146.173 28.9882L141.406 27.8492C139.972 27.5117 139.972 25.4868 141.406 25.1494L146.173 24.0104C146.679 23.8838 147.059 23.5041 147.185 22.9979L148.324 18.231Z" fill="url(#paint17_linear_5666_7772)" fill-opacity="0.6"/>
</g>
<path opacity="0.2" d="M34.6346 81.1295C36.382 81.1295 37.7985 79.713 37.7985 77.9656C37.7985 76.2183 36.382 74.8018 34.6346 74.8018C32.8872 74.8018 31.4707 76.2183 31.4707 77.9656C31.4707 79.713 32.8872 81.1295 34.6346 81.1295Z" stroke="#0079FF" stroke-width="1.92243"/>
<path opacity="0.2" d="M166 155.038C167.747 155.038 169.164 153.621 169.164 151.874C169.164 150.126 167.747 148.71 166 148.71C164.252 148.71 162.836 150.126 162.836 151.874C162.836 153.621 164.252 155.038 166 155.038Z" stroke="#0079FF" stroke-width="1.92243"/>
<g opacity="0.5">
<path d="M163.005 99.5216C162.794 98.6779 163.595 97.8764 164.439 98.1295L170.219 99.7747C171.062 100.028 171.358 101.082 170.725 101.715L166.422 105.892C165.789 106.524 164.734 106.229 164.481 105.343L163.005 99.5216Z" fill="#0079FF"/>
<path d="M163.005 99.5216C162.794 98.6779 163.595 97.8764 164.439 98.1295L170.219 99.7747C171.062 100.028 171.358 101.082 170.725 101.715L166.422 105.892C165.789 106.524 164.734 106.229 164.481 105.343L163.005 99.5216Z" fill="url(#paint18_linear_5666_7772)" fill-opacity="0.6"/>
</g>
<g opacity="0.2">
<path d="M58.891 155.418C59.7347 155.207 60.5362 156.009 60.2831 156.852L58.6378 162.632C58.3847 163.475 57.3301 163.771 56.6973 163.138L52.521 158.835C51.8882 158.202 52.1835 157.105 53.0694 156.894L58.891 155.418Z" fill="#0079FF"/>
<path d="M58.891 155.418C59.7347 155.207 60.5362 156.009 60.2831 156.852L58.6378 162.632C58.3847 163.475 57.3301 163.771 56.6973 163.138L52.521 158.835C51.8882 158.202 52.1835 157.105 53.0694 156.894L58.891 155.418Z" fill="url(#paint19_linear_5666_7772)" fill-opacity="0.6"/>
</g>
<path d="M193.482 67.0397C192.934 71.216 191.331 75.1814 188.842 78.5563C186.353 81.9311 183.02 84.6309 179.181 86.4027C175.343 88.1745 171.124 88.9338 166.948 88.5963C162.729 88.301 158.679 86.9089 155.178 84.5887L145.602 87.837C145.307 87.9214 145.011 87.9635 144.716 87.8792C144.421 87.7948 144.168 87.6261 143.957 87.4151C143.746 87.2042 143.619 86.9089 143.535 86.6136C143.451 86.3183 143.535 85.9808 143.619 85.7277L147.458 76.5314C145.433 73.1144 144.21 69.2755 143.999 65.3101C143.746 61.3447 144.463 57.3793 146.066 53.7514C147.669 50.1234 150.116 46.9174 153.195 44.4284C156.275 41.9395 159.945 40.2099 163.826 39.4084C167.707 38.6069 171.757 38.7334 175.596 39.8302C179.435 40.8849 182.936 42.8676 185.847 45.5674C188.757 48.2673 190.993 51.6421 192.301 55.3966C193.609 59.1089 194.031 63.1165 193.482 67.0397Z" fill="#212121"/>
<path d="M193.482 67.0397C192.934 71.216 191.331 75.1814 188.842 78.5563C186.353 81.9311 183.02 84.6309 179.181 86.4027C175.343 88.1745 171.124 88.9338 166.948 88.5963C162.729 88.301 158.679 86.9089 155.178 84.5887L145.602 87.837C145.307 87.9214 145.011 87.9635 144.716 87.8792C144.421 87.7948 144.168 87.6261 143.957 87.4151C143.746 87.2042 143.619 86.9089 143.535 86.6136C143.451 86.3183 143.535 85.9808 143.619 85.7277L147.458 76.5314C145.433 73.1144 144.21 69.2755 143.999 65.3101C143.746 61.3447 144.463 57.3793 146.066 53.7514C147.669 50.1234 150.116 46.9174 153.195 44.4284C156.275 41.9395 159.945 40.2099 163.826 39.4084C167.707 38.6069 171.757 38.7334 175.596 39.8302C179.435 40.8849 182.936 42.8676 185.847 45.5674C188.757 48.2673 190.993 51.6421 192.301 55.3966C193.609 59.1089 194.031 63.1165 193.482 67.0397Z" fill="url(#paint20_linear_5666_7772)" fill-opacity="0.3"/>
<path opacity="0.2" d="M81.5028 20.3405C83.2501 20.3405 84.6666 18.924 84.6666 17.1766C84.6666 15.4292 83.2501 14.0127 81.5028 14.0127C79.7554 14.0127 78.3389 15.4292 78.3389 17.1766C78.3389 18.924 79.7554 20.3405 81.5028 20.3405Z" stroke="#0079FF" stroke-width="1.92243"/>
<path d="M68.2147 115.468H89.3495C92.6399 115.468 95.2976 118.125 95.2976 121.416C95.2976 124.706 92.6399 127.364 89.3495 127.364H68.2147C64.9243 127.364 62.2666 124.706 62.2666 121.416C62.2666 118.125 64.9243 115.468 68.2147 115.468Z" fill="#0079FF"/>
<path d="M68.2147 115.468H89.3495C92.6399 115.468 95.2976 118.125 95.2976 121.416C95.2976 124.706 92.6399 127.364 89.3495 127.364H68.2147C64.9243 127.364 62.2666 124.706 62.2666 121.416C62.2666 118.125 64.9243 115.468 68.2147 115.468Z" fill="url(#paint21_linear_5666_7772)" fill-opacity="0.6"/>
<path d="M68.2147 138.586H89.3495C92.6399 138.586 95.2976 141.244 95.2976 144.534C95.2976 147.824 92.6399 150.482 89.3495 150.482H68.2147C64.9243 150.482 62.2666 147.824 62.2666 144.534C62.2666 141.244 64.9243 138.586 68.2147 138.586Z" fill="#0079FF"/>
<path d="M68.2147 138.586H89.3495C92.6399 138.586 95.2976 141.244 95.2976 144.534C95.2976 147.824 92.6399 150.482 89.3495 150.482H68.2147C64.9243 150.482 62.2666 147.824 62.2666 144.534C62.2666 141.244 64.9243 138.586 68.2147 138.586Z" fill="url(#paint22_linear_5666_7772)" fill-opacity="0.6"/>
<g clip-path="url(#clip2_5666_7772)">
<g filter="url(#filter2_d_5666_7772)">
<path d="M166.029 73.2637C166.029 71.8997 167.137 70.7931 168.5 70.7931C169.864 70.7931 170.971 71.9005 170.971 73.2637C170.971 74.6277 169.863 75.7343 168.5 75.7343C167.136 75.7343 166.029 74.6268 166.029 73.2637ZM168.823 52.2637C170.187 52.2637 171.293 53.3698 171.293 54.7343C171.293 54.7776 171.292 54.8209 171.29 54.8642L170.623 67.544C170.563 68.6729 169.631 69.5578 168.5 69.5578C167.37 69.5578 166.437 68.6729 166.377 67.544L165.71 54.8642C165.638 53.5015 166.685 52.3388 168.047 52.2671C168.091 52.2648 168.134 52.2637 168.177 52.2637L168.823 52.2637ZM155.897 61.4834C155.57 61.7999 155.049 61.7917 154.732 61.4651C154.416 61.1384 154.424 60.6171 154.75 60.3006C157.22 57.9079 160.216 56.2338 163.476 55.3803C163.916 55.2651 164.366 55.5284 164.481 55.9684C164.597 56.4084 164.333 56.8584 163.893 56.9736C160.906 57.7558 158.161 59.2894 155.897 61.4834ZM173.107 56.9736C172.667 56.8584 172.403 56.4084 172.519 55.9684C172.634 55.5284 173.084 55.2651 173.524 55.3803C176.784 56.2338 179.78 57.9079 182.25 60.3006C182.576 60.6171 182.584 61.1384 182.268 61.4651C181.951 61.7917 181.43 61.7999 181.103 61.4834C178.839 59.2894 176.094 57.7558 173.107 56.9736ZM159.765 65.3524C159.444 65.674 158.922 65.674 158.601 65.3524C158.279 65.0308 158.279 64.5093 158.601 64.1877C160.065 62.723 161.805 61.621 163.711 60.9286C164.138 60.7733 164.61 60.994 164.766 61.4215C164.921 61.849 164.7 62.3214 164.273 62.4767C162.592 63.0873 161.059 64.0589 159.765 65.3524ZM172.727 62.4767C172.3 62.3213 172.079 61.8489 172.234 61.4214C172.39 60.9939 172.862 60.7733 173.289 60.9286C175.195 61.6209 176.935 62.7229 178.399 64.1877C178.721 64.5093 178.721 65.0307 178.399 65.3523C178.078 65.6739 177.556 65.6739 177.235 65.3523C175.941 64.0589 174.408 63.0873 172.727 62.4767ZM163.841 69.0168C163.52 69.3385 162.998 69.3385 162.677 69.0168C162.355 68.6952 162.355 68.1738 162.677 67.8522C163.04 67.4887 163.433 67.1625 163.851 66.876C164.227 66.6189 164.739 66.7147 164.996 67.0899C165.253 67.4651 165.158 67.9777 164.782 68.2348C164.448 68.464 164.133 68.7252 163.841 69.0168ZM172.218 68.2348C171.842 67.9777 171.747 67.4651 172.004 67.0899C172.261 66.7147 172.773 66.6189 173.149 66.876C173.567 67.1625 173.96 67.4887 174.323 67.8522C174.645 68.1738 174.645 68.6953 174.323 69.0168C174.002 69.3385 173.48 69.3385 173.159 69.0168C172.867 68.7252 172.552 68.464 172.218 68.2348Z" fill="white"/>
</g>
</g>
</g>
</g>
<defs>
<filter id="filter0_d_5666_7772" x="77.3592" y="88.5848" width="101.473" height="102.022" filterUnits="userSpaceOnUse" color-interpolation-filters="sRGB">
<feFlood flood-opacity="0" result="BackgroundImageFix"/>
<feColorMatrix in="SourceAlpha" type="matrix" values="0 0 0 0 0 0 0 0 0 0 0 0 0 0 0 0 0 0 127 0" result="hardAlpha"/>
<feOffset dy="7"/>
<feGaussianBlur stdDeviation="10.15"/>
<feComposite in2="hardAlpha" operator="out"/>
<feColorMatrix type="matrix" values="0 0 0 0 0 0 0 0 0 0.47451 0 0 0 0 1 0 0 0 0.38 0"/>
<feBlend mode="normal" in2="BackgroundImageFix" result="effect1_dropShadow_5666_7772"/>
<feBlend mode="normal" in="SourceGraphic" in2="effect1_dropShadow_5666_7772" result="shape"/>
</filter>
<filter id="filter1_d_5666_7772" x="22.2664" y="13.242" width="101.431" height="102.022" filterUnits="userSpaceOnUse" color-interpolation-filters="sRGB">
<feFlood flood-opacity="0" result="BackgroundImageFix"/>
<feColorMatrix in="SourceAlpha" type="matrix" values="0 0 0 0 0 0 0 0 0 0 0 0 0 0 0 0 0 0 127 0" result="hardAlpha"/>
<feOffset dy="7"/>
<feGaussianBlur stdDeviation="10.15"/>
<feComposite in2="hardAlpha" operator="out"/>
<feColorMatrix type="matrix" values="0 0 0 0 0 0 0 0 0 0.47451 0 0 0 0 1 0 0 0 0.38 0"/>
<feBlend mode="normal" in2="BackgroundImageFix" result="effect1_dropShadow_5666_7772"/>
<feBlend mode="normal" in="SourceGraphic" in2="effect1_dropShadow_5666_7772" result="shape"/>
</filter>
<filter id="filter2_d_5666_7772" x="144.544" y="45.4192" width="47.9111" height="43.3818" filterUnits="userSpaceOnUse" color-interpolation-filters="sRGB">
<feFlood flood-opacity="0" result="BackgroundImageFix"/>
<feColorMatrix in="SourceAlpha" type="matrix" values="0 0 0 0 0 0 0 0 0 0 0 0 0 0 0 0 0 0 127 0" result="hardAlpha"/>
<feOffset dy="3.11111"/>
<feGaussianBlur stdDeviation="4.97778"/>
<feComposite in2="hardAlpha" operator="out"/>
<feColorMatrix type="matrix" values="0 0 0 0 0 0 0 0 0 0 0 0 0 0 0 0 0 0 0.42 0"/>
<feBlend mode="normal" in2="BackgroundImageFix" result="effect1_dropShadow_5666_7772"/>
<feBlend mode="normal" in="SourceGraphic" in2="effect1_dropShadow_5666_7772" result="shape"/>
</filter>
<linearGradient id="paint0_linear_5666_7772" x1="9.82955" y1="58.8761" x2="37.2114" y2="72.6498" gradientUnits="userSpaceOnUse">
<stop stop-color="white" stop-opacity="0"/>
<stop offset="1" stop-color="white"/>
</linearGradient>
<linearGradient id="paint1_linear_5666_7772" x1="161.732" y1="126.742" x2="189.13" y2="140.494" gradientUnits="userSpaceOnUse">
<stop stop-color="white" stop-opacity="0"/>
<stop offset="1" stop-color="white"/>
</linearGradient>
<linearGradient id="paint2_linear_5666_7772" x1="147.829" y1="163.306" x2="96.211" y2="114.822" gradientUnits="userSpaceOnUse">
<stop stop-color="white" stop-opacity="0"/>
<stop offset="1" stop-color="white"/>
</linearGradient>
<linearGradient id="paint3_linear_5666_7772" x1="118.84" y1="166.851" x2="62.1862" y2="120.031" gradientUnits="userSpaceOnUse">
<stop stop-color="white" stop-opacity="0"/>
<stop offset="1" stop-color="white"/>
</linearGradient>
<linearGradient id="paint4_linear_5666_7772" x1="138.562" y1="176.983" x2="60.7205" y2="109.953" gradientUnits="userSpaceOnUse">
<stop stop-color="white" stop-opacity="0"/>
<stop offset="0.919744" stop-color="white" stop-opacity="0.82"/>
</linearGradient>
<linearGradient id="paint5_linear_5666_7772" x1="97.0303" y1="129.98" x2="82.6652" y2="116.834" gradientUnits="userSpaceOnUse">
<stop stop-color="white" stop-opacity="0"/>
<stop offset="1" stop-color="white"/>
</linearGradient>
<linearGradient id="paint6_linear_5666_7772" x1="97.0303" y1="153.097" x2="82.6652" y2="139.952" gradientUnits="userSpaceOnUse">
<stop stop-color="white" stop-opacity="0"/>
<stop offset="1" stop-color="white"/>
</linearGradient>
<linearGradient id="paint7_linear_5666_7772" x1="94.8052" y1="129.98" x2="80.8827" y2="119.32" gradientUnits="userSpaceOnUse">
<stop stop-color="white" stop-opacity="0"/>
<stop offset="1" stop-color="white"/>
</linearGradient>
<linearGradient id="paint8_linear_5666_7772" x1="94.8052" y1="153.097" x2="80.8827" y2="142.437" gradientUnits="userSpaceOnUse">
<stop stop-color="white" stop-opacity="0"/>
<stop offset="1" stop-color="white"/>
</linearGradient>
<linearGradient id="paint9_linear_5666_7772" x1="92.7014" y1="87.9636" x2="41.0858" y2="39.5146" gradientUnits="userSpaceOnUse">
<stop stop-color="white" stop-opacity="0"/>
<stop offset="1" stop-color="white"/>
</linearGradient>
<linearGradient id="paint10_linear_5666_7772" x1="120.939" y1="91.5488" x2="64.2783" y2="44.6918" gradientUnits="userSpaceOnUse">
<stop stop-color="white" stop-opacity="0"/>
<stop offset="1" stop-color="white"/>
</linearGradient>
<linearGradient id="paint11_linear_5666_7772" x1="149.165" y1="101.681" x2="71.3146" y2="34.5865" gradientUnits="userSpaceOnUse">
<stop stop-color="white" stop-opacity="0"/>
<stop offset="0.919744" stop-color="white" stop-opacity="0.82"/>
</linearGradient>
<linearGradient id="paint12_linear_5666_7772" x1="112.239" y1="52.7387" x2="99.0304" y2="43.2222" gradientUnits="userSpaceOnUse">
<stop stop-color="white" stop-opacity="0"/>
<stop offset="1" stop-color="white"/>
</linearGradient>
<linearGradient id="paint13_linear_5666_7772" x1="112.239" y1="79.1469" x2="99.0304" y2="69.6305" gradientUnits="userSpaceOnUse">
<stop stop-color="white" stop-opacity="0"/>
<stop offset="1" stop-color="white"/>
</linearGradient>
<linearGradient id="paint14_linear_5666_7772" x1="40.6931" y1="121.437" x2="24.9462" y2="106.547" gradientUnits="userSpaceOnUse">
<stop stop-color="white" stop-opacity="0"/>
<stop offset="1" stop-color="white"/>
</linearGradient>
<linearGradient id="paint15_linear_5666_7772" x1="111.292" y1="51.4319" x2="100.37" y2="43.9663" gradientUnits="userSpaceOnUse">
<stop stop-opacity="0"/>
<stop offset="1" stop-opacity="0.3"/>
</linearGradient>
<linearGradient id="paint16_linear_5666_7772" x1="111.292" y1="77.8391" x2="100.37" y2="70.3735" gradientUnits="userSpaceOnUse">
<stop stop-opacity="0"/>
<stop offset="1" stop-opacity="0.3"/>
</linearGradient>
<linearGradient id="paint17_linear_5666_7772" x1="155.732" y1="35.8433" x2="140.019" y2="20.9508" gradientUnits="userSpaceOnUse">
<stop stop-color="white" stop-opacity="0"/>
<stop offset="1" stop-color="white"/>
</linearGradient>
<linearGradient id="paint18_linear_5666_7772" x1="169.642" y1="106.23" x2="162.794" y2="99.7819" gradientUnits="userSpaceOnUse">
<stop stop-color="white" stop-opacity="0"/>
<stop offset="1" stop-color="white"/>
</linearGradient>
<linearGradient id="paint19_linear_5666_7772" x1="58.8979" y1="163.478" x2="52.0896" y2="156.983" gradientUnits="userSpaceOnUse">
<stop stop-color="white" stop-opacity="0"/>
<stop offset="1" stop-color="white"/>
</linearGradient>
<linearGradient id="paint20_linear_5666_7772" x1="173.058" y1="85.1464" x2="162.571" y2="44.8026" gradientUnits="userSpaceOnUse">
<stop stop-color="white" stop-opacity="0"/>
<stop offset="1" stop-color="white"/>
</linearGradient>
<linearGradient id="paint21_linear_5666_7772" x1="89.4897" y1="127.364" x2="82.8373" y2="109.858" gradientUnits="userSpaceOnUse">
<stop stop-color="white" stop-opacity="0"/>
<stop offset="1" stop-color="white"/>
</linearGradient>
<linearGradient id="paint22_linear_5666_7772" x1="89.4897" y1="150.482" x2="82.8373" y2="132.976" gradientUnits="userSpaceOnUse">
<stop stop-color="white" stop-opacity="0"/>
<stop offset="1" stop-color="white"/>
</linearGradient>
<clipPath id="clip0_5666_7772">
<rect width="200" height="200" fill="white" transform="translate(0.5)"/>
</clipPath>
<clipPath id="clip1_5666_7772">
<rect width="200" height="173.845" fill="white" transform="translate(0.549805 13.127)"/>
</clipPath>
<clipPath id="clip2_5666_7772">
<rect width="28" height="28" fill="white" transform="translate(154.5 50)"/>
</clipPath>
</defs>
</svg>
