<svg width="201" height="201" viewBox="0 0 201 201" fill="none" xmlns="http://www.w3.org/2000/svg">
<g clip-path="url(#clip0_5664_6742)">
<path opacity="0.06" fill-rule="evenodd" clip-rule="evenodd" d="M97.769 164.987C125.707 164.987 150.866 166.555 168.452 169.058C185.651 169.137 199.5 172.68 199.5 177.039C199.5 180.494 190.802 183.437 178.63 184.548C175.725 185.139 172.455 185.696 168.863 186.214C168.957 186.544 169.003 186.877 169.003 187.213C169.003 194.821 144.957 200.987 115.293 200.987C88.6054 200.987 66.4639 195.996 62.2901 189.454C26.6798 187.595 1.5 183.017 1.5 177.666C1.5 170.664 44.6011 164.987 97.769 164.987Z" fill="#0079FF"/>
<path opacity="0.06" d="M100.347 170.728C147.237 170.728 185.194 132.724 185.194 85.8814C185.194 39.0384 147.19 0.987305 100.347 0.987305C53.5038 0.987305 15.5 38.9911 15.5 85.8814C15.5 132.772 53.4565 170.728 100.347 170.728Z" fill="#0079FF"/>
<path opacity="0.4" d="M69.1658 45.9873C61.8325 48.4873 50.9658 55.9873 66.1658 65.9873C85.1658 78.4873 106.166 81.9873 96.666 96.9873" stroke="#212121" stroke-width="0.5"/>
<g opacity="0.5">
<path fill-rule="evenodd" clip-rule="evenodd" d="M72.6964 46.6164C71.8161 46.4926 71.0628 46.0242 70.6616 45.2847C70.1709 44.4291 70.2869 43.4146 70.7875 42.5357C70.4923 42.5164 70.197 42.497 69.9125 42.3461C68.6934 41.928 67.8884 40.8827 68.0939 39.9844C68.2993 39.0861 69.4529 38.6911 70.672 39.1091C71.6364 39.4149 72.3329 40.1738 72.504 40.9055C74.2966 39.9568 76.442 40.3399 77.2499 41.753C78.0578 43.1662 77.2759 45.0634 75.5131 46.0509C75.8655 46.5813 75.9661 47.3673 75.8067 48.1068C75.5094 49.3226 74.559 50.0545 73.6596 49.7603C72.7602 49.4661 72.2666 48.2426 72.5639 47.0269C72.5747 46.8952 72.6505 46.7752 72.6964 46.6164Z" fill="#0079FF"/>
<path fill-rule="evenodd" clip-rule="evenodd" d="M72.6964 46.6164C71.8161 46.4926 71.0628 46.0242 70.6616 45.2847C70.1709 44.4291 70.2869 43.4146 70.7875 42.5357C70.4923 42.5164 70.197 42.497 69.9125 42.3461C68.6934 41.928 67.8884 40.8827 68.0939 39.9844C68.2993 39.0861 69.4529 38.6911 70.672 39.1091C71.6364 39.4149 72.3329 40.1738 72.504 40.9055C74.2966 39.9568 76.442 40.3399 77.2499 41.753C78.0578 43.1662 77.2759 45.0634 75.5131 46.0509C75.8655 46.5813 75.9661 47.3673 75.8067 48.1068C75.5094 49.3226 74.559 50.0545 73.6596 49.7603C72.7602 49.4661 72.2666 48.2426 72.5639 47.0269C72.5747 46.8952 72.6505 46.7752 72.6964 46.6164Z" fill="url(#paint0_linear_5664_6742)" fill-opacity="0.6"/>
</g>
<g opacity="0.5">
<path fill-rule="evenodd" clip-rule="evenodd" d="M89.7805 15.145C88.9638 15.4963 88.0768 15.487 87.3499 15.0633C86.4863 14.5868 86.0588 13.6596 86.0303 12.6485C85.7679 12.7853 85.5056 12.922 85.184 12.9407C83.9251 13.2163 82.6944 12.7409 82.4035 11.8665C82.1127 10.9922 82.8936 10.0556 84.1526 9.77991C85.1356 9.54054 86.1248 9.82745 86.6509 10.3641C87.6904 8.62249 89.7229 7.83604 91.1471 8.62435C92.5712 9.41267 92.8881 11.4401 91.8942 13.1993C92.4707 13.4697 92.9648 14.0892 93.2125 14.804C93.5896 15.9974 93.1573 17.1163 92.2359 17.3319C91.3145 17.5474 90.2574 16.758 89.8803 15.5646C89.8212 15.4465 89.8236 15.3046 89.7805 15.145Z" fill="#212121"/>
<path fill-rule="evenodd" clip-rule="evenodd" d="M89.7805 15.145C88.9638 15.4963 88.0768 15.487 87.3499 15.0633C86.4863 14.5868 86.0588 13.6596 86.0303 12.6485C85.7679 12.7853 85.5056 12.922 85.184 12.9407C83.9251 13.2163 82.6944 12.7409 82.4035 11.8665C82.1127 10.9922 82.8936 10.0556 84.1526 9.77991C85.1356 9.54054 86.1248 9.82745 86.6509 10.3641C87.6904 8.62249 89.7229 7.83604 91.1471 8.62435C92.5712 9.41267 92.8881 11.4401 91.8942 13.1993C92.4707 13.4697 92.9648 14.0892 93.2125 14.804C93.5896 15.9974 93.1573 17.1163 92.2359 17.3319C91.3145 17.5474 90.2574 16.758 89.8803 15.5646C89.8212 15.4465 89.8236 15.3046 89.7805 15.145Z" fill="url(#paint1_linear_5664_6742)" fill-opacity="0.6"/>
</g>
<path opacity="0.4" d="M122.5 34.9873C124 56.4873 137.485 52.421 139.861 53.9873C152 61.9873 118.5 63.9873 130 78.4873" stroke="#212121" stroke-width="0.5"/>
<g opacity="0.4">
<path d="M173.283 69.6995C173.333 69.6483 173.333 69.5457 173.333 69.4432C173.333 69.3406 173.333 69.2894 173.283 69.1868C173.234 69.0843 173.234 69.033 173.135 68.9818C173.036 68.9305 172.987 68.8792 172.937 68.828C170.711 67.9051 162.747 65.1366 158.443 70.6736C155.524 74.3137 151.468 76.7234 146.966 77.3899C146.867 77.3899 146.768 77.4411 146.669 77.5437C146.57 77.6462 146.521 77.7487 146.521 77.8513C146.472 77.9538 146.521 78.1076 146.521 78.2102C146.57 78.3127 146.62 78.4152 146.719 78.4665C150.577 81.3376 163.192 88.5152 173.283 69.6995Z" fill="#0079FF"/>
<path d="M173.283 69.6995C173.333 69.6483 173.333 69.5457 173.333 69.4432C173.333 69.3406 173.333 69.2894 173.283 69.1868C173.234 69.0843 173.234 69.033 173.135 68.9818C173.036 68.9305 172.987 68.8792 172.937 68.828C170.711 67.9051 162.747 65.1366 158.443 70.6736C155.524 74.3137 151.468 76.7234 146.966 77.3899C146.867 77.3899 146.768 77.4411 146.669 77.5437C146.57 77.6462 146.521 77.7487 146.521 77.8513C146.472 77.9538 146.521 78.1076 146.521 78.2102C146.57 78.3127 146.62 78.4152 146.719 78.4665C150.577 81.3376 163.192 88.5152 173.283 69.6995Z" fill="url(#paint2_linear_5664_6742)" fill-opacity="0.6"/>
</g>
<g opacity="0.4">
<path d="M182.342 102.859C182.293 102.807 182.293 102.756 182.293 102.705C182.293 102.654 182.293 102.602 182.293 102.551C182.293 102.5 182.342 102.449 182.392 102.397C182.441 102.346 182.491 102.346 182.54 102.295C184.024 101.68 189.367 99.8339 192.286 103.525C194.215 105.986 196.985 107.576 200.003 108.037C200.102 108.037 200.151 108.088 200.2 108.139C200.25 108.191 200.299 108.293 200.299 108.345C200.299 108.447 200.299 108.498 200.299 108.601C200.25 108.703 200.2 108.755 200.151 108.806C197.628 110.703 189.12 115.522 182.342 102.859Z" fill="#0079FF"/>
<path d="M182.342 102.859C182.293 102.807 182.293 102.756 182.293 102.705C182.293 102.654 182.293 102.602 182.293 102.551C182.293 102.5 182.342 102.449 182.392 102.397C182.441 102.346 182.491 102.346 182.54 102.295C184.024 101.68 189.367 99.8339 192.286 103.525C194.215 105.986 196.985 107.576 200.003 108.037C200.102 108.037 200.151 108.088 200.2 108.139C200.25 108.191 200.299 108.293 200.299 108.345C200.299 108.447 200.299 108.498 200.299 108.601C200.25 108.703 200.2 108.755 200.151 108.806C197.628 110.703 189.12 115.522 182.342 102.859Z" fill="url(#paint3_linear_5664_6742)" fill-opacity="0.6"/>
</g>
<g opacity="0.4">
<path d="M21.5989 22.2245C21.5495 22.122 21.5495 22.0707 21.5 21.9682C21.5 21.8656 21.5 21.7631 21.5495 21.7118C21.5989 21.6093 21.6484 21.558 21.6979 21.4555C21.7473 21.4042 21.8463 21.3529 21.9452 21.3017C24.4186 20.2763 33.224 17.2514 38.0224 23.3524C41.2378 27.4027 45.7889 30.0686 50.7852 30.8377C50.9336 30.8377 51.0325 30.889 51.1315 30.9915C51.2304 31.094 51.2799 31.1966 51.3293 31.2991C51.3788 31.4016 51.3293 31.5554 51.3293 31.658C51.2799 31.7605 51.1809 31.8631 51.082 31.9656C46.7288 35.093 32.7293 43.0397 21.5989 22.2245Z" fill="#0079FF"/>
<path d="M21.5989 22.2245C21.5495 22.122 21.5495 22.0707 21.5 21.9682C21.5 21.8656 21.5 21.7631 21.5495 21.7118C21.5989 21.6093 21.6484 21.558 21.6979 21.4555C21.7473 21.4042 21.8463 21.3529 21.9452 21.3017C24.4186 20.2763 33.224 17.2514 38.0224 23.3524C41.2378 27.4027 45.7889 30.0686 50.7852 30.8377C50.9336 30.8377 51.0325 30.889 51.1315 30.9915C51.2304 31.094 51.2799 31.1966 51.3293 31.2991C51.3788 31.4016 51.3293 31.5554 51.3293 31.658C51.2799 31.7605 51.1809 31.8631 51.082 31.9656C46.7288 35.093 32.7293 43.0397 21.5989 22.2245Z" fill="url(#paint4_linear_5664_6742)" fill-opacity="0.6"/>
</g>
<path opacity="0.35" d="M49.5418 68.966C49.2945 67.9918 50.1849 67.069 51.1248 67.3766L57.5557 69.2223C58.4956 69.4786 58.7924 70.7604 58.0998 71.4269L53.3509 76.2461C52.6583 76.9639 51.4711 76.605 51.2238 75.6309L49.5418 68.966Z" fill="#0079FF"/>
<path opacity="0.35" d="M149.404 14.6543C149.8 13.0137 152.026 13.0137 152.372 14.6543L153.659 20.1401C153.807 20.704 154.252 21.1654 154.796 21.3192L160.089 22.6522C161.672 23.0624 161.672 25.3695 160.089 25.7284L154.796 27.0614C154.252 27.2152 153.807 27.6766 153.659 28.2405L152.372 33.7263C151.977 35.3669 149.751 35.3669 149.404 33.7263L148.118 28.2405C147.97 27.6766 147.524 27.2152 146.98 27.0614L141.687 25.7284C140.104 25.3182 140.104 23.0111 141.687 22.6522L146.98 21.3192C147.524 21.1654 147.97 20.704 148.118 20.1401L149.404 14.6543Z" fill="#0079FF"/>
<path opacity="0.35" d="M67.6758 180.736C68.0715 179.096 70.2976 179.096 70.6439 180.736L71.93 186.222C72.0784 186.786 72.5236 187.247 73.0678 187.401L78.3609 188.734C79.9439 189.144 79.9439 191.452 78.3609 191.81L73.0678 193.143C72.5236 193.297 72.0784 193.759 71.93 194.323L70.6439 199.808C70.2481 201.449 68.022 201.449 67.6758 199.808L66.3896 194.323C66.2412 193.759 65.796 193.297 65.2518 193.143L59.9587 191.81C58.3757 191.4 58.3757 189.093 59.9587 188.734L65.2518 187.401C65.796 187.247 66.2412 186.786 66.3896 186.222L67.6758 180.736Z" fill="#0079FF"/>
<path opacity="0.35" d="M47.0968 172.533C47.0968 174.532 45.5138 176.173 43.5845 176.173C41.6552 176.173 40.0723 174.532 40.0723 172.533C40.0723 170.533 41.6552 168.893 43.5845 168.893C45.5138 168.893 47.0968 170.533 47.0968 172.533Z" fill="#0079FF"/>
<path opacity="0.4" d="M116.996 73.1122C117.306 71.1278 116.006 69.258 114.091 68.9359C112.177 68.6139 110.372 69.9615 110.062 71.9459C109.751 73.9304 111.051 75.8001 112.966 76.1222C114.881 76.4443 116.685 75.0966 116.996 73.1122Z" stroke="#212121" stroke-width="1.92243"/>
<path opacity="0.4" d="M179.011 132.636C180.951 132.636 182.524 131.006 182.524 128.996C182.524 126.985 180.951 125.355 179.011 125.355C177.072 125.355 175.499 126.985 175.499 128.996C175.499 131.006 177.072 132.636 179.011 132.636Z" stroke="#0079FF" stroke-width="1.92243"/>
<g opacity="0.3">
<path d="M161.6 100.02L116.071 92.1943L100.37 110.36L145.379 117.977L161.6 100.02Z" fill="#0079FF"/>
<path d="M161.6 100.02L116.071 92.1943L100.37 110.36L145.379 117.977L161.6 100.02Z" fill="url(#paint5_linear_5664_6742)" fill-opacity="0.6"/>
</g>
<g opacity="0.3">
<path d="M100.742 110.361L55.729 117.981L39.5 100.019L85.0337 92.1904L100.742 110.361Z" fill="#0079FF"/>
<path d="M100.742 110.361L55.729 117.981L39.5 100.019L85.0337 92.1904L100.742 110.361Z" fill="url(#paint6_linear_5664_6742)" fill-opacity="0.6"/>
</g>
<g opacity="0.8">
<path d="M55.752 118.031L100.803 110.161L145.409 118.031L100.639 125.593L55.752 118.031Z" fill="#0079FF"/>
<path d="M55.752 118.031L100.803 110.161L145.409 118.031L100.639 125.593L55.752 118.031Z" fill="url(#paint7_linear_5664_6742)" fill-opacity="0.6"/>
</g>
<g opacity="0.8">
<path d="M100.803 110.161L100.571 125.546L55.582 118.019L100.803 110.161Z" fill="#0079FF"/>
<path d="M100.803 110.161L100.571 125.546L55.582 118.019L100.803 110.161Z" fill="url(#paint8_linear_5664_6742)" fill-opacity="0.6"/>
</g>
<path d="M67.6729 110.521C68.1275 113.701 69.3925 116.729 71.3888 119.303C73.3852 121.878 76.0338 123.941 79.0777 125.266C82.1216 126.61 85.4817 127.177 88.8221 126.931C92.1625 126.685 95.3843 125.644 98.1911 123.884L105.84 126.382C106.078 126.458 106.315 126.458 106.552 126.401C106.789 126.345 107.007 126.231 107.165 126.061C107.323 125.89 107.441 125.682 107.481 125.455C107.52 125.228 107.501 124.982 107.402 124.774L104.338 117.77C105.959 115.177 106.927 112.224 107.125 109.196C107.323 106.168 106.769 103.139 105.504 100.357C104.239 97.5744 102.283 95.1327 99.8118 93.221C97.3411 91.3093 94.4356 90.0033 91.3324 89.3787C88.2292 88.773 85.0074 88.8676 81.9635 89.6815C78.9195 90.4954 76.1128 92.0096 73.8002 94.0728C71.4877 96.1359 69.7087 98.7101 68.6414 101.568C67.5938 104.464 67.2578 107.53 67.6729 110.521Z" fill="#212121"/>
<path d="M67.6729 110.521C68.1275 113.701 69.3925 116.729 71.3888 119.303C73.3852 121.878 76.0338 123.941 79.0777 125.266C82.1216 126.61 85.4817 127.177 88.8221 126.931C92.1625 126.685 95.3843 125.644 98.1911 123.884L105.84 126.382C106.078 126.458 106.315 126.458 106.552 126.401C106.789 126.345 107.007 126.231 107.165 126.061C107.323 125.89 107.441 125.682 107.481 125.455C107.52 125.228 107.501 124.982 107.402 124.774L104.338 117.77C105.959 115.177 106.927 112.224 107.125 109.196C107.323 106.168 106.769 103.139 105.504 100.357C104.239 97.5744 102.283 95.1327 99.8118 93.221C97.3411 91.3093 94.4356 90.0033 91.3324 89.3787C88.2292 88.773 85.0074 88.8676 81.9635 89.6815C78.9195 90.4954 76.1128 92.0096 73.8002 94.0728C71.4877 96.1359 69.7087 98.7101 68.6414 101.568C67.5938 104.464 67.2578 107.53 67.6729 110.521Z" fill="url(#paint9_linear_5664_6742)" fill-opacity="0.3"/>
<g filter="url(#filter0_d_5664_6742)">
<path d="M86.3716 118.987C88.5252 118.987 90.0664 117.477 90.0664 115.382C90.0664 113.268 88.5252 111.777 86.3716 111.777C84.2574 111.777 82.6767 113.288 82.6767 115.382C82.6767 117.477 84.2377 118.987 86.3716 118.987ZM89.3156 111.173C89.3156 109.179 90.4418 108.474 91.9632 107.749C93.9984 106.782 95.5 104.829 95.5 102.432C95.5 98.6458 91.8447 95.9873 86.8853 95.9873C81.5703 95.9873 77.8359 99.0285 77.5 103.258L84.2772 104.527C84.455 102.875 85.3046 101.707 86.5099 101.707C87.4188 101.707 88.1103 102.331 88.1103 103.218C88.1103 104.245 87.1026 104.869 86.3123 105.352C84.1784 106.762 83.388 108.333 83.388 111.193H89.3156V111.173Z" fill="white"/>
</g>
<g opacity="0.9">
<g filter="url(#filter1_d_5664_6742)">
<path d="M100.649 179.4L57.7269 172.449L55.873 117.979L100.639 125.537L100.649 179.4Z" fill="#0079FF"/>
<path d="M100.649 179.4L57.7269 172.449L55.873 117.979L100.639 125.537L100.649 179.4Z" fill="url(#paint10_linear_5664_6742)" fill-opacity="0.6"/>
</g>
</g>
<g filter="url(#filter2_d_5664_6742)">
<path d="M100.759 179.4L143.678 172.449L145.512 117.979L100.749 125.537L100.759 179.4Z" fill="#0079FF"/>
</g>
<path d="M100.581 125.547L55.5827 118.02L40.9795 135.495L85.4687 142.825L100.581 125.547Z" fill="#0079FF"/>
<path d="M100.581 125.547L55.5827 118.02L40.9795 135.495L85.4687 142.825L100.581 125.547Z" fill="#0079FF"/>
<path d="M100.581 125.547L55.5827 118.02L40.9795 135.495L85.4687 142.825L100.581 125.547Z" fill="url(#paint11_linear_5664_6742)" fill-opacity="0.6"/>
<path d="M100.571 125.547L145.571 118.02L160.174 135.495L115.684 142.826L100.571 125.547Z" fill="#0079FF"/>
<path d="M100.571 125.547L145.571 118.02L160.174 135.495L115.684 142.826L100.571 125.547Z" fill="#0079FF"/>
<path d="M100.571 125.547L145.571 118.02L160.174 135.495L115.684 142.826L100.571 125.547Z" fill="url(#paint12_linear_5664_6742)" fill-opacity="0.6"/>
<g opacity="0.8">
<path d="M33.5126 140.57C33.5792 140.845 33.6624 141.138 33.7623 141.448L33.9621 142.275C34.0286 142.551 34.0619 142.775 34.0619 142.947C34.0619 143.911 33.8122 144.764 33.3128 145.505C32.8134 146.245 32.1641 146.788 31.365 147.132C31.0653 147.167 30.749 147.184 30.4161 147.184C30.1497 147.219 29.8501 147.236 29.5171 147.236H28.5682L20.777 147.339V155.969C20.777 157.243 20.802 158.527 20.8519 159.818C20.9019 161.11 20.9601 162.273 21.0267 163.306C21.0933 164.547 21.1766 165.735 21.2764 166.872H14.0846L14.2344 164.857C14.2677 164.064 14.301 162.988 14.3343 161.627C14.3676 160.266 14.3843 158.449 14.3843 156.175V148.269C13.8182 148.786 13.1856 149.044 12.4864 149.044C11.9204 149.044 11.4293 148.907 11.0131 148.631C10.5969 148.355 10.2556 147.976 9.98924 147.494L4.34564 147.184C3.24689 146.908 2.33126 146.331 1.59875 145.453C0.866251 144.575 0.5 143.532 0.5 142.327C0.5 142.12 0.516648 141.931 0.549943 141.758C0.583239 141.586 0.633182 141.414 0.699773 141.242L1.94836 138.244C2.01495 137.487 2.22305 136.78 2.57265 136.126C2.92225 135.471 3.36342 134.903 3.89615 134.421L11.7373 119.383H11.7872C12.4198 118.178 13.169 117.144 14.0347 116.283C14.9003 115.422 16.0157 114.991 17.3809 114.991C18.5795 114.991 19.6533 115.318 20.6022 115.973C21.5511 116.628 22.2587 117.489 22.7248 118.557L29.0177 131.32C30.1497 131.734 31.082 132.457 31.8145 133.49C32.547 134.524 32.9132 135.712 32.9132 137.056C32.9132 137.607 32.83 138.193 32.6635 138.813L33.5126 140.57Z" fill="#0079FF"/>
<path d="M33.5126 140.57C33.5792 140.845 33.6624 141.138 33.7623 141.448L33.9621 142.275C34.0286 142.551 34.0619 142.775 34.0619 142.947C34.0619 143.911 33.8122 144.764 33.3128 145.505C32.8134 146.245 32.1641 146.788 31.365 147.132C31.0653 147.167 30.749 147.184 30.4161 147.184C30.1497 147.219 29.8501 147.236 29.5171 147.236H28.5682L20.777 147.339V155.969C20.777 157.243 20.802 158.527 20.8519 159.818C20.9019 161.11 20.9601 162.273 21.0267 163.306C21.0933 164.547 21.1766 165.735 21.2764 166.872H14.0846L14.2344 164.857C14.2677 164.064 14.301 162.988 14.3343 161.627C14.3676 160.266 14.3843 158.449 14.3843 156.175V148.269C13.8182 148.786 13.1856 149.044 12.4864 149.044C11.9204 149.044 11.4293 148.907 11.0131 148.631C10.5969 148.355 10.2556 147.976 9.98924 147.494L4.34564 147.184C3.24689 146.908 2.33126 146.331 1.59875 145.453C0.866251 144.575 0.5 143.532 0.5 142.327C0.5 142.12 0.516648 141.931 0.549943 141.758C0.583239 141.586 0.633182 141.414 0.699773 141.242L1.94836 138.244C2.01495 137.487 2.22305 136.78 2.57265 136.126C2.92225 135.471 3.36342 134.903 3.89615 134.421L11.7373 119.383H11.7872C12.4198 118.178 13.169 117.144 14.0347 116.283C14.9003 115.422 16.0157 114.991 17.3809 114.991C18.5795 114.991 19.6533 115.318 20.6022 115.973C21.5511 116.628 22.2587 117.489 22.7248 118.557L29.0177 131.32C30.1497 131.734 31.082 132.457 31.8145 133.49C32.547 134.524 32.9132 135.712 32.9132 137.056C32.9132 137.607 32.83 138.193 32.6635 138.813L33.5126 140.57Z" fill="url(#paint13_linear_5664_6742)" fill-opacity="0.6"/>
</g>
<path opacity="0.4" d="M86.7167 16.0088C72.8292 36.6191 78.728 52.0019 104.413 62.1572" stroke="#0079FF" stroke-width="0.5"/>
<path opacity="0.4" d="M81.9375 58.6855C86.6382 64.7395 90.9083 67.7664 94.7478 67.7664" stroke="#0079FF" stroke-width="0.5"/>
<path d="M172.271 177.542C172.299 177.658 172.333 177.78 172.375 177.911L172.458 178.257C172.486 178.373 172.5 178.467 172.5 178.539C172.5 178.944 172.396 179.301 172.187 179.612C171.979 179.923 171.708 180.151 171.375 180.295C171.25 180.31 171.118 180.317 170.979 180.317C170.868 180.331 170.743 180.338 170.604 180.338H170.208L166.958 180.382V184.002C166.958 184.537 166.969 185.075 166.99 185.617C167.01 186.159 167.035 186.647 167.063 187.08C167.09 187.6 167.125 188.099 167.167 188.576H164.167L164.229 187.731C164.243 187.398 164.257 186.946 164.271 186.376C164.285 185.805 164.292 185.042 164.292 184.089V180.772C164.056 180.989 163.792 181.097 163.5 181.097C163.264 181.097 163.059 181.039 162.885 180.924C162.712 180.808 162.569 180.649 162.458 180.447L160.104 180.317C159.646 180.201 159.264 179.959 158.958 179.591C158.653 179.222 158.5 178.785 158.5 178.279C158.5 178.192 158.507 178.113 158.521 178.041C158.535 177.968 158.556 177.896 158.583 177.824L159.104 176.566C159.132 176.249 159.219 175.952 159.365 175.678C159.51 175.403 159.694 175.165 159.917 174.962L163.188 168.654H163.208C163.472 168.148 163.785 167.715 164.146 167.353C164.507 166.992 164.972 166.812 165.542 166.812C166.042 166.812 166.49 166.949 166.885 167.223C167.281 167.498 167.576 167.859 167.771 168.307L170.396 173.662C170.868 173.835 171.257 174.139 171.563 174.572C171.868 175.006 172.021 175.504 172.021 176.068C172.021 176.299 171.986 176.545 171.917 176.805L172.271 177.542Z" fill="#0079FF"/>
<path d="M172.271 177.542C172.299 177.658 172.333 177.78 172.375 177.911L172.458 178.257C172.486 178.373 172.5 178.467 172.5 178.539C172.5 178.944 172.396 179.301 172.187 179.612C171.979 179.923 171.708 180.151 171.375 180.295C171.25 180.31 171.118 180.317 170.979 180.317C170.868 180.331 170.743 180.338 170.604 180.338H170.208L166.958 180.382V184.002C166.958 184.537 166.969 185.075 166.99 185.617C167.01 186.159 167.035 186.647 167.063 187.08C167.09 187.6 167.125 188.099 167.167 188.576H164.167L164.229 187.731C164.243 187.398 164.257 186.946 164.271 186.376C164.285 185.805 164.292 185.042 164.292 184.089V180.772C164.056 180.989 163.792 181.097 163.5 181.097C163.264 181.097 163.059 181.039 162.885 180.924C162.712 180.808 162.569 180.649 162.458 180.447L160.104 180.317C159.646 180.201 159.264 179.959 158.958 179.591C158.653 179.222 158.5 178.785 158.5 178.279C158.5 178.192 158.507 178.113 158.521 178.041C158.535 177.968 158.556 177.896 158.583 177.824L159.104 176.566C159.132 176.249 159.219 175.952 159.365 175.678C159.51 175.403 159.694 175.165 159.917 174.962L163.188 168.654H163.208C163.472 168.148 163.785 167.715 164.146 167.353C164.507 166.992 164.972 166.812 165.542 166.812C166.042 166.812 166.49 166.949 166.885 167.223C167.281 167.498 167.576 167.859 167.771 168.307L170.396 173.662C170.868 173.835 171.257 174.139 171.563 174.572C171.868 175.006 172.021 175.504 172.021 176.068C172.021 176.299 171.986 176.545 171.917 176.805L172.271 177.542Z" fill="url(#paint14_linear_5664_6742)" fill-opacity="0.6"/>
</g>
<defs>
<filter id="filter0_d_5664_6742" x="64.7" y="87.1873" width="43.6" height="48.6" filterUnits="userSpaceOnUse" color-interpolation-filters="sRGB">
<feFlood flood-opacity="0" result="BackgroundImageFix"/>
<feColorMatrix in="SourceAlpha" type="matrix" values="0 0 0 0 0 0 0 0 0 0 0 0 0 0 0 0 0 0 127 0" result="hardAlpha"/>
<feOffset dy="4"/>
<feGaussianBlur stdDeviation="6.4"/>
<feComposite in2="hardAlpha" operator="out"/>
<feColorMatrix type="matrix" values="0 0 0 0 0 0 0 0 0 0 0 0 0 0 0 0 0 0 0.42 0"/>
<feBlend mode="normal" in2="BackgroundImageFix" result="effect1_dropShadow_5664_6742"/>
<feBlend mode="normal" in="SourceGraphic" in2="effect1_dropShadow_5664_6742" result="shape"/>
</filter>
<filter id="filter1_d_5664_6742" x="35.573" y="104.679" width="85.3754" height="102.021" filterUnits="userSpaceOnUse" color-interpolation-filters="sRGB">
<feFlood flood-opacity="0" result="BackgroundImageFix"/>
<feColorMatrix in="SourceAlpha" type="matrix" values="0 0 0 0 0 0 0 0 0 0 0 0 0 0 0 0 0 0 127 0" result="hardAlpha"/>
<feOffset dy="7"/>
<feGaussianBlur stdDeviation="10.15"/>
<feComposite in2="hardAlpha" operator="out"/>
<feColorMatrix type="matrix" values="0 0 0 0 0 0 0 0 0 0.47451 0 0 0 0 1 0 0 0 0.38 0"/>
<feBlend mode="normal" in2="BackgroundImageFix" result="effect1_dropShadow_5664_6742"/>
<feBlend mode="normal" in="SourceGraphic" in2="effect1_dropShadow_5664_6742" result="shape"/>
</filter>
<filter id="filter2_d_5664_6742" x="80.449" y="104.679" width="85.3637" height="102.021" filterUnits="userSpaceOnUse" color-interpolation-filters="sRGB">
<feFlood flood-opacity="0" result="BackgroundImageFix"/>
<feColorMatrix in="SourceAlpha" type="matrix" values="0 0 0 0 0 0 0 0 0 0 0 0 0 0 0 0 0 0 127 0" result="hardAlpha"/>
<feOffset dy="7"/>
<feGaussianBlur stdDeviation="10.15"/>
<feComposite in2="hardAlpha" operator="out"/>
<feColorMatrix type="matrix" values="0 0 0 0 0 0 0 0 0 0.47451 0 0 0 0 1 0 0 0 0.38 0"/>
<feBlend mode="normal" in2="BackgroundImageFix" result="effect1_dropShadow_5664_6742"/>
<feBlend mode="normal" in="SourceGraphic" in2="effect1_dropShadow_5664_6742" result="shape"/>
</filter>
<linearGradient id="paint0_linear_5664_6742" x1="72.5338" y1="48.7042" x2="75.8066" y2="38.182" gradientUnits="userSpaceOnUse">
<stop stop-color="white" stop-opacity="0"/>
<stop offset="1" stop-color="white"/>
</linearGradient>
<linearGradient id="paint1_linear_5664_6742" x1="90.7254" y1="17.0138" x2="88.0595" y2="6.3217" gradientUnits="userSpaceOnUse">
<stop stop-color="white" stop-opacity="0"/>
<stop offset="1" stop-color="white"/>
</linearGradient>
<linearGradient id="paint2_linear_5664_6742" x1="168.615" y1="82.2267" x2="157.659" y2="63.5398" gradientUnits="userSpaceOnUse">
<stop stop-color="white" stop-opacity="0"/>
<stop offset="1" stop-color="white"/>
</linearGradient>
<linearGradient id="paint3_linear_5664_6742" x1="197.133" y1="111.301" x2="189.772" y2="98.7562" gradientUnits="userSpaceOnUse">
<stop stop-color="white" stop-opacity="0"/>
<stop offset="1" stop-color="white"/>
</linearGradient>
<linearGradient id="paint4_linear_5664_6742" x1="46.1025" y1="36.0864" x2="34.0714" y2="15.3866" gradientUnits="userSpaceOnUse">
<stop stop-color="white" stop-opacity="0"/>
<stop offset="1" stop-color="white"/>
</linearGradient>
<linearGradient id="paint5_linear_5664_6742" x1="150.834" y1="117.977" x2="134.723" y2="81.7151" gradientUnits="userSpaceOnUse">
<stop stop-color="white" stop-opacity="0"/>
<stop offset="1" stop-color="white"/>
</linearGradient>
<linearGradient id="paint6_linear_5664_6742" x1="89.974" y1="117.981" x2="73.857" y2="81.7092" gradientUnits="userSpaceOnUse">
<stop stop-color="white" stop-opacity="0"/>
<stop offset="1" stop-color="white"/>
</linearGradient>
<linearGradient id="paint7_linear_5664_6742" x1="129.644" y1="125.593" x2="125.076" y2="100.435" gradientUnits="userSpaceOnUse">
<stop stop-color="white" stop-opacity="0"/>
<stop offset="1" stop-color="white"/>
</linearGradient>
<linearGradient id="paint8_linear_5664_6742" x1="92.8513" y1="125.546" x2="84.6125" y2="102.594" gradientUnits="userSpaceOnUse">
<stop stop-color="white" stop-opacity="0"/>
<stop offset="1" stop-color="white"/>
</linearGradient>
<linearGradient id="paint9_linear_5664_6742" x1="91.0445" y1="124.294" x2="83.3336" y2="93.3386" gradientUnits="userSpaceOnUse">
<stop stop-color="white" stop-opacity="0"/>
<stop offset="1" stop-color="white"/>
</linearGradient>
<linearGradient id="paint10_linear_5664_6742" x1="92.7755" y1="179.4" x2="44.4014" y2="145.977" gradientUnits="userSpaceOnUse">
<stop stop-color="white" stop-opacity="0"/>
<stop offset="1" stop-color="white"/>
</linearGradient>
<linearGradient id="paint11_linear_5664_6742" x1="90.1013" y1="142.825" x2="74.7225" y2="107.804" gradientUnits="userSpaceOnUse">
<stop stop-color="white" stop-opacity="0"/>
<stop offset="1" stop-color="white"/>
</linearGradient>
<linearGradient id="paint12_linear_5664_6742" x1="149.694" y1="142.826" x2="134.314" y2="107.804" gradientUnits="userSpaceOnUse">
<stop stop-color="white" stop-opacity="0"/>
<stop offset="1" stop-color="white"/>
</linearGradient>
<linearGradient id="paint13_linear_5664_6742" x1="28.1607" y1="166.872" x2="-10.7723" y2="143.002" gradientUnits="userSpaceOnUse">
<stop stop-color="white" stop-opacity="0"/>
<stop offset="1" stop-color="white"/>
</linearGradient>
<linearGradient id="paint14_linear_5664_6742" x1="170.038" y1="188.576" x2="153.748" y2="178.644" gradientUnits="userSpaceOnUse">
<stop stop-color="white" stop-opacity="0"/>
<stop offset="1" stop-color="white"/>
</linearGradient>
<clipPath id="clip0_5664_6742">
<rect width="200" height="200" fill="white" transform="translate(0.5 0.987305)"/>
</clipPath>
</defs>
</svg>
