<svg width="330" height="214" viewBox="0 0 330 214" fill="none" xmlns="http://www.w3.org/2000/svg">
  <g clip-path="url(#clip0_2501_1551)">
    <path d="M319.718 89.1383C316.647 86.6732 312.238 87.3494 308.321 86.9552C305.656 86.6884 303.051 85.8576 300.723 84.5357C297.836 82.8984 294.898 80.4091 291.651 81.1004C289.98 81.4582 288.607 82.6225 287.033 83.2926C283.84 84.6509 280.135 83.8414 276.937 82.4921C274.117 81.3036 271.164 79.6724 268.183 80.3637C266.998 80.6396 265.93 81.2642 264.872 81.8645C259.497 84.9056 253.83 87.4312 247.972 89.396L319.718 89.1383Z" fill="#EBEBFF"/>
    <path d="M197.142 31.0478C192.312 27.1698 185.374 28.2341 179.21 27.6155C175.02 27.1941 170.921 25.8903 167.258 23.8104C162.716 21.2332 158.096 17.3189 152.99 18.4073C150.361 18.9683 148.202 20.8026 145.728 21.8547C140.704 23.9893 134.877 22.7188 129.846 20.5964C125.411 18.7257 120.766 16.1637 116.075 17.2491C114.21 17.6827 112.531 18.6681 110.866 19.611C102.41 24.3955 93.4957 28.3675 84.2845 31.4571L197.142 31.0478Z" fill="#EBEBFF"/>
    <path d="M112.86 89.7504C108.03 85.8725 101.093 86.9367 94.929 86.3182C90.7387 85.8967 86.6395 84.593 82.9768 82.513C78.4349 79.9358 73.8141 76.0215 68.7082 77.11C66.0795 77.6709 63.9207 79.5053 61.4466 80.5574C56.4225 82.6919 50.595 81.4215 45.5649 79.2991C41.1291 77.4283 36.4841 74.8663 31.7936 75.9518C29.9289 76.3853 28.2492 77.3707 26.5846 78.3137C18.1253 83.0982 9.21124 87.0731 1.52588e-05 90.1627L112.86 89.7504Z" fill="#EBEBFF"/>
    <path d="M90.6317 209.918C90.6317 209.918 62.5462 167.931 71.9121 152.252C81.2779 136.574 97.393 180.856 101.356 204.627L90.6317 209.918Z" fill="url(#paint0_linear_2501_1551)"/>
    <path d="M98.9393 206.482C98.9393 206.482 85.7471 171.705 94.9401 161.572C104.133 151.439 108.445 186.177 107.423 204.151L98.9393 206.482Z" fill="url(#paint1_linear_2501_1551)"/>
    <path d="M198.556 213.135C198.556 213.135 217.421 184.928 211.133 174.398C204.842 163.865 194.014 193.615 191.352 209.581L198.556 213.135Z" fill="url(#paint2_linear_2501_1551)"/>
    <path d="M192.974 210.827C192.974 210.827 201.837 187.466 195.661 180.659C189.484 173.852 186.589 197.186 187.277 209.263L192.974 210.827Z" fill="url(#paint3_linear_2501_1551)"/>
    <path d="M302.718 213.65C290.978 210.179 283.604 205.07 275.041 200.734C267.428 196.88 260.573 191.553 252.659 188.36C244.746 185.168 235.031 184.482 228.227 189.637C222.815 193.736 220.138 200.825 214.398 204.454C204.517 210.703 191.74 203.766 182.656 196.407C173.572 189.048 162.682 180.51 151.484 183.876C147.261 185.146 143.728 187.996 140.002 190.355C130.745 196.219 119.045 199.212 108.666 195.692C94.7738 190.98 84.5408 175.441 69.9114 176.526C60.6729 177.212 53.487 184.507 47.2259 191.335C40.8163 198.323 34.4097 206.61 28 213.596L302.718 213.65Z" fill="url(#paint4_linear_2501_1551)"/>
    <path d="M235.903 188.225L248.188 198.3L235.733 213.646C234.34 212.366 237.842 202.038 237.842 202.038L229.706 195.906L235.903 188.225Z" fill="url(#paint5_linear_2501_1551)"/>
    <g opacity="0.6">
      <path d="M241.026 196.754C241.349 196.523 241.847 196.588 242.091 196.902C242.336 197.217 242.275 197.724 241.956 197.959C241.637 198.195 241.034 198.134 240.825 197.798C240.615 197.461 240.724 196.868 241.087 196.71" fill="white"/>
    </g>
    <g opacity="0.6">
      <path d="M248.14 198.261L246.904 197.239L235.488 212.454C235.488 212.454 235.235 213.38 235.781 213.69L248.14 198.261Z" fill="white"/>
    </g>
    <path d="M237.558 202.226C237.637 202.283 237.973 201.938 238.514 201.763C239.052 201.575 239.528 201.65 239.554 201.558C239.598 201.475 239.056 201.226 238.405 201.444C237.755 201.658 237.475 202.187 237.558 202.226Z" fill="#263238"/>
    <path d="M236.916 204.375C236.973 204.449 237.366 204.231 237.89 204.231C238.414 204.218 238.807 204.432 238.864 204.353C238.934 204.292 238.536 203.886 237.886 203.895C237.239 203.899 236.846 204.318 236.916 204.375Z" fill="#263238"/>
    <path d="M238.104 206.855C238.174 206.798 237.886 206.392 237.318 206.252C236.75 206.108 236.305 206.331 236.34 206.414C236.366 206.506 236.772 206.458 237.235 206.58C237.702 206.689 238.034 206.921 238.104 206.855Z" fill="#263238"/>
    <path d="M235.859 200.623C235.951 200.645 236.13 200.221 236.501 199.819C236.864 199.413 237.274 199.199 237.244 199.108C237.226 199.02 236.685 199.116 236.252 199.592C235.82 200.064 235.772 200.61 235.859 200.623Z" fill="#263238"/>
    <path d="M234.335 198.78C234.366 198.806 234.654 198.549 234.955 198.007C235.104 197.741 235.252 197.4 235.361 197.003C235.414 196.806 235.457 196.592 235.484 196.37C235.497 196.26 235.519 196.142 235.492 195.99C235.484 195.841 235.322 195.636 235.121 195.631C234.938 195.614 234.776 195.71 234.685 195.819C234.588 195.928 234.536 196.038 234.492 196.138C234.396 196.343 234.322 196.549 234.27 196.749C234.165 197.151 234.139 197.527 234.16 197.837C234.2 198.461 234.383 198.811 234.418 198.798C234.471 198.785 234.374 198.422 234.396 197.837C234.409 197.544 234.453 197.204 234.567 196.837C234.623 196.653 234.698 196.47 234.789 196.287C234.877 196.09 234.99 195.95 235.095 195.968C235.134 195.976 235.147 195.981 235.169 196.055C235.187 196.125 235.174 196.225 235.165 196.335C235.143 196.544 235.108 196.741 235.069 196.929C234.986 197.304 234.868 197.632 234.75 197.902C234.51 198.44 234.296 198.745 234.335 198.78Z" fill="#263238"/>
    <path d="M234.523 198.767C234.558 198.75 234.409 198.383 233.946 197.964C233.715 197.754 233.405 197.545 233.021 197.387C232.828 197.309 232.619 197.248 232.396 197.204C232.173 197.169 231.881 197.117 231.61 197.379C231.479 197.527 231.496 197.75 231.562 197.872C231.623 198.008 231.706 198.091 231.78 198.178C231.938 198.353 232.117 198.492 232.296 198.597C232.663 198.815 233.042 198.903 233.357 198.912C233.999 198.933 234.339 198.693 234.322 198.667C234.305 198.61 233.946 198.754 233.379 198.676C233.099 198.636 232.767 198.536 232.457 198.331C232.304 198.23 232.156 198.108 232.025 197.955C231.881 197.798 231.798 197.632 231.868 197.584C231.929 197.505 232.156 197.475 232.339 197.518C232.54 197.553 232.732 197.601 232.911 197.667C233.265 197.798 233.567 197.968 233.798 198.139C234.261 198.492 234.479 198.802 234.523 198.767Z" fill="#263238"/>
    <path d="M241.471 196.456L241.323 212.344L221.557 212.261C221.679 210.375 231.924 206.628 231.924 206.628L231.601 196.443L241.471 196.456Z" fill="url(#paint6_linear_2501_1551)"/>
    <g opacity="0.6">
      <path d="M238.034 205.794C238.418 205.899 238.68 206.331 238.589 206.715C238.497 207.1 238.06 207.371 237.68 207.274C237.296 207.174 236.964 206.667 237.1 206.292C237.231 205.916 237.763 205.628 238.113 205.816" fill="white"/>
    </g>
    <g opacity="0.6">
      <path d="M241.323 212.279L241.344 210.676L222.334 211.323C222.334 211.323 221.456 211.707 221.557 212.327L241.323 212.279Z" fill="white"/>
    </g>
    <path d="M231.601 206.523C231.606 206.619 232.086 206.667 232.562 206.977C233.042 207.279 233.287 207.698 233.374 207.659C233.462 207.641 233.322 207.065 232.741 206.694C232.165 206.322 231.579 206.432 231.601 206.523Z" fill="#263238"/>
    <path d="M229.523 207.37C229.501 207.462 229.916 207.628 230.243 208.039C230.579 208.44 230.662 208.881 230.758 208.877C230.85 208.895 230.92 208.327 230.505 207.825C230.095 207.322 229.527 207.279 229.523 207.37Z" fill="#263238"/>
    <path d="M228.335 209.847C228.422 209.869 228.557 209.384 228.313 208.856C228.073 208.323 227.618 208.113 227.575 208.192C227.518 208.27 227.811 208.554 228.007 208.995C228.212 209.428 228.239 209.838 228.335 209.847Z" fill="#263238"/>
    <path d="M231.785 204.191C231.824 204.279 232.269 204.148 232.815 204.187C233.361 204.213 233.785 204.401 233.837 204.318C233.894 204.248 233.479 203.89 232.837 203.851C232.191 203.811 231.737 204.117 231.785 204.191Z" fill="#263238"/>
    <path d="M232.265 201.85C232.265 201.89 232.645 201.951 233.256 201.85C233.558 201.798 233.916 201.702 234.291 201.536C234.479 201.453 234.671 201.353 234.859 201.235C234.951 201.178 235.06 201.117 235.161 201.003C235.27 200.903 235.331 200.645 235.209 200.492C235.108 200.339 234.929 200.274 234.785 200.27C234.641 200.265 234.523 200.291 234.414 200.318C234.195 200.37 233.986 200.444 233.798 200.527C233.418 200.698 233.112 200.911 232.881 201.121C232.422 201.545 232.261 201.903 232.296 201.92C232.339 201.951 232.562 201.65 233.034 201.305C233.265 201.13 233.567 200.951 233.92 200.811C234.099 200.741 234.287 200.68 234.488 200.636C234.698 200.584 234.877 200.58 234.929 200.676C234.947 200.711 234.951 200.724 234.907 200.785C234.864 200.842 234.776 200.894 234.689 200.955C234.514 201.069 234.335 201.165 234.165 201.252C233.82 201.422 233.488 201.536 233.204 201.615C232.636 201.772 232.265 201.798 232.265 201.85Z" fill="#263238"/>
    <path d="M232.392 201.99C232.427 202.004 232.619 201.658 232.658 201.034C232.676 200.724 232.645 200.348 232.527 199.951C232.466 199.754 232.387 199.549 232.278 199.348C232.165 199.152 232.025 198.89 231.649 198.846C231.453 198.837 231.291 198.99 231.234 199.121C231.169 199.257 231.156 199.37 231.13 199.484C231.09 199.715 231.095 199.942 231.125 200.152C231.186 200.571 231.357 200.925 231.545 201.178C231.929 201.693 232.331 201.807 232.339 201.776C232.37 201.728 232.038 201.541 231.741 201.047C231.597 200.803 231.47 200.484 231.431 200.117C231.413 199.933 231.418 199.741 231.453 199.545C231.483 199.335 231.566 199.165 231.645 199.187C231.741 199.187 231.911 199.344 231.99 199.514C232.09 199.693 232.169 199.872 232.235 200.051C232.357 200.409 232.409 200.75 232.422 201.038C232.444 201.615 232.339 201.973 232.392 201.99Z" fill="#263238"/>
    <path d="M239.777 104.424C239.777 104.424 242.545 107.389 243.908 110.232C245.27 113.075 246.14 119.857 246.14 119.857C246.14 119.857 249.965 128.378 249.384 132.736C248.804 137.095 244.908 166.909 244.908 166.909C244.908 166.909 245.1 195.889 242.34 201.06L241.724 203.851L230.579 201.873L230.649 200.2L228.016 143.374L221.312 104.686L239.777 104.424Z" fill="url(#paint7_linear_2501_1551)"/>
    <path d="M215.185 112.874C215.185 112.874 208.521 149.554 207.936 155.921C207.346 162.289 230.025 195.854 230.025 195.854L240.397 185.054L225.513 157.389L230.352 129.509L223.622 104.874L216.556 105.122L215.185 112.874Z" fill="url(#paint8_linear_2501_1551)"/>
    <path d="M244.065 192.038C244.065 192.038 244.061 192.317 243.987 192.85C243.917 193.383 243.786 194.164 243.602 195.173C243.231 197.191 242.633 200.117 241.825 203.776L241.807 203.851L241.729 203.838C238.58 203.287 234.798 202.624 230.579 201.885L230.496 201.872L230.492 201.785C230.182 194.138 229.811 184.993 229.413 175.193C229.003 164.647 228.619 154.864 228.308 146.842V146.851C227.474 140.405 226.78 135.072 226.3 131.343C226.068 129.491 225.885 128.037 225.758 127.032C225.701 126.543 225.653 126.168 225.623 125.901C225.592 125.644 225.588 125.513 225.588 125.513C225.588 125.513 225.614 125.644 225.653 125.897C225.693 126.163 225.745 126.539 225.819 127.024C225.959 128.024 226.16 129.478 226.417 131.325C226.924 135.051 227.645 140.378 228.514 146.82V146.824V146.829C228.841 154.851 229.234 164.634 229.662 175.18C230.047 184.985 230.4 194.125 230.702 201.776L230.614 201.676C234.829 202.431 238.606 203.113 241.755 203.68L241.663 203.742C242.493 200.091 243.117 197.169 243.515 195.16C243.711 194.156 243.86 193.374 243.938 192.845C243.987 192.583 244.008 192.378 244.03 192.243C244.052 192.103 244.065 192.038 244.065 192.038Z" fill="url(#paint9_linear_2501_1551)"/>
    <path d="M241.205 73.5786C241.646 73.5786 249.878 74.1682 251.791 82.9855C253.703 91.8071 254.254 104.166 254.254 104.166L245.323 103.271L241.205 73.5786Z" fill="url(#paint10_linear_2501_1551)"/>
    <path d="M237.161 71.6266L235.706 68.9495L223.064 68.6089L222.208 70.8885L214.744 73.5787L215.329 106.656L209.805 137.182C209.805 137.182 209.862 141.575 224.596 142.986L225.762 127.028L233.121 126.854L232.92 142.44C232.92 142.44 245.908 142.23 250.026 139.291C250.026 139.291 251.275 124.439 247.729 113.748C244.624 104.385 243.414 101.965 243.414 101.965L243.148 73.9019L237.161 71.6266Z" fill="url(#paint11_linear_2501_1551)"/>
    <path d="M216.325 73.1592C213.285 73.7182 210.91 76.9542 210.22 80.4218C209.818 82.4525 208.634 92.2436 208.634 92.2436L207.984 95.8291C207.984 95.8291 207.438 108.171 210.054 109.546C213.111 111.153 214.862 109.389 215.871 108.096C216.875 106.804 217.958 98.3926 217.958 98.3926L216.81 78.2687L216.325 73.1592Z" fill="url(#paint12_linear_2501_1551)"/>
    <path d="M214.875 78.1074C214.866 78.1074 214.879 78.2297 214.91 78.4612C214.945 78.7145 214.993 79.0464 215.054 79.47C215.194 80.3652 215.386 81.6273 215.626 83.1733C215.88 84.7411 216.177 86.6015 216.504 88.6585C216.674 89.6891 216.849 90.7765 217.032 91.8989C217.22 93.0212 217.443 94.1785 217.539 95.3751C217.6 96.0826 217.605 96.7814 217.548 97.4364V97.4233C216.6 101.659 215.714 105.407 215.05 108.088C214.714 109.411 214.438 110.481 214.242 111.241C214.15 111.595 214.076 111.879 214.019 112.093C213.971 112.289 213.949 112.39 213.954 112.394C213.962 112.394 213.997 112.298 214.058 112.106C214.124 111.896 214.211 111.617 214.32 111.267C214.539 110.534 214.84 109.464 215.194 108.127C215.897 105.455 216.814 101.712 217.766 97.4757V97.467V97.4583C217.823 96.7857 217.819 96.0739 217.757 95.3577C217.661 94.1436 217.434 92.9863 217.242 91.864C217.054 90.7416 216.875 89.6585 216.701 88.6279C216.351 86.571 216.037 84.7149 215.775 83.1515C215.504 81.6099 215.286 80.3565 215.128 79.4612C215.05 79.042 214.989 78.7101 214.941 78.4612C214.91 78.2253 214.884 78.1074 214.875 78.1074Z" fill="url(#paint13_linear_2501_1551)"/>
    <path d="M232.562 74.8014C232.571 74.8102 232.663 74.7141 232.824 74.5307C232.986 74.3472 233.213 74.0721 233.497 73.7227L233.366 73.7053C233.68 74.618 234.156 75.9412 234.706 77.4261L234.785 77.6357L234.903 77.4566C234.968 77.3606 235.043 77.2601 235.108 77.1509C235.523 76.4522 235.776 75.736 236.012 75.0896C236.244 74.4433 236.431 73.8537 236.593 73.3603C236.755 72.8668 236.89 72.4694 236.99 72.1986C237.086 71.9278 237.148 71.775 237.13 71.7706C237.117 71.7662 237.03 71.9016 236.907 72.168C236.781 72.43 236.624 72.8231 236.44 73.3078C236.257 73.8144 236.043 74.3865 235.811 75.0198C235.567 75.6574 235.305 76.3692 234.907 77.033C234.846 77.1378 234.776 77.2296 234.715 77.3213L234.912 77.3518C234.357 75.8714 233.855 74.5569 233.497 73.6572L233.449 73.5306L233.37 73.6398C232.85 74.3429 232.545 74.7796 232.562 74.8014Z" fill="#263238"/>
    <path d="M222.522 72.6698C222.509 72.6786 222.561 72.8227 222.675 73.0847C222.788 73.3467 222.959 73.718 223.181 74.1765C223.404 74.6351 223.671 75.1766 223.989 75.7705C224.313 76.3644 224.658 77.0195 225.134 77.6615L225.278 77.858L225.334 77.6178C225.343 77.5872 225.352 77.5523 225.356 77.5174C225.714 75.9932 226.024 74.6088 226.238 73.6L226.099 73.635C226.47 74.0455 226.876 74.2202 227.103 74.3992C227.339 74.5695 227.448 74.6918 227.461 74.6831C227.47 74.6744 227.383 74.5302 227.16 74.3294C226.942 74.1241 226.548 73.9232 226.221 73.5302L226.121 73.4079L226.081 73.5651C225.828 74.5652 225.492 75.9452 225.134 77.4693C225.125 77.5043 225.116 77.5392 225.112 77.5698L225.313 77.5261C224.858 76.9147 224.5 76.2596 224.173 75.6744C223.858 75.098 223.574 74.5695 223.326 74.1066C223.103 73.6961 222.915 73.3424 222.758 73.0498C222.614 72.7965 222.535 72.6611 222.522 72.6698Z" fill="#263238"/>
    <path d="M233.73 61.5472L232.922 80.3139L226.067 80.627L226.051 70.6372L226.047 69.9133L226.029 66.9931L226.027 66.9077C225.994 66.9036 225.962 66.8996 225.931 66.8955C219.741 65.9824 221.966 51.0052 221.966 51.0052C228.615 48.024 233.358 51.1659 234.962 55.534C236.571 59.898 233.73 61.5472 233.73 61.5472Z" fill="#FDBFBA"/>
    <path d="M231.517 57.8097C231.517 57.8097 229.443 54.4462 230.594 52.8925C230.594 52.8925 224.662 57.3155 221.817 53.0308C218.836 48.5387 225.008 44.5203 232.331 48.8661C232.331 48.8661 234.448 48.193 236.298 50.8508C236.298 50.8508 237.805 57.0369 233.36 63.2922V61.1183C233.36 61.1183 235.574 57.2057 232.798 56.8092C232.798 56.8092 231.999 56.8803 231.517 57.8097Z" fill="#473765"/>
    <path d="M233.254 74.7097C233.254 74.7097 234.92 90.6525 235.352 92.7054C235.785 94.7539 233.029 127.137 233.029 127.137L225.824 127.574C225.824 127.574 224.46 100.821 224.561 100.637C224.662 100.454 224.513 81.9036 224.513 81.9036L226.042 74.5132L230.493 77.8022L233.254 74.7097Z" fill="white"/>
    <path d="M224.334 89.8287C224.317 89.8636 224.588 89.9204 224.714 90.2654C224.775 90.427 224.793 90.6584 224.679 90.8419C224.575 91.0296 224.321 91.1257 224.064 91.0777C223.806 91.0296 223.605 90.8506 223.574 90.6366C223.535 90.4226 223.636 90.2174 223.749 90.0863C223.994 89.8112 224.264 89.8505 224.26 89.8112C224.264 89.7981 224.203 89.7675 224.085 89.7719C223.968 89.7719 223.793 89.8287 223.636 89.9728C223.483 90.1169 223.33 90.3615 223.369 90.6672C223.4 90.9816 223.697 91.2436 224.024 91.3004C224.352 91.3659 224.723 91.2262 224.863 90.9423C225.007 90.6672 224.95 90.3877 224.863 90.1999C224.767 90.0077 224.623 89.8942 224.513 89.8505C224.4 89.8068 224.334 89.8199 224.334 89.8287Z" fill="#263238"/>
    <path d="M224.334 103.747C224.317 103.782 224.588 103.838 224.714 104.183C224.775 104.345 224.793 104.576 224.679 104.76C224.575 104.948 224.321 105.044 224.064 104.996C223.806 104.948 223.605 104.769 223.574 104.555C223.535 104.341 223.636 104.135 223.749 104.004C223.994 103.729 224.264 103.768 224.26 103.729C224.264 103.716 224.203 103.686 224.085 103.69C223.968 103.69 223.793 103.747 223.636 103.891C223.483 104.035 223.33 104.279 223.369 104.585C223.4 104.9 223.697 105.162 224.024 105.218C224.352 105.284 224.723 105.144 224.863 104.86C225.007 104.585 224.95 104.301 224.863 104.118C224.767 103.926 224.623 103.812 224.513 103.768C224.4 103.725 224.334 103.734 224.334 103.747Z" fill="#263238"/>
    <path d="M223.697 120.578C223.679 120.613 223.95 120.669 224.077 121.014C224.138 121.176 224.155 121.407 224.042 121.591C223.937 121.779 223.684 121.875 223.426 121.827C223.168 121.779 222.967 121.6 222.937 121.386C222.898 121.172 222.998 120.966 223.112 120.835C223.356 120.56 223.627 120.6 223.623 120.56C223.627 120.547 223.566 120.517 223.448 120.521C223.33 120.521 223.155 120.578 222.998 120.722C222.845 120.866 222.692 121.11 222.732 121.416C222.762 121.731 223.059 121.993 223.387 122.049C223.714 122.115 224.085 121.975 224.225 121.691C224.369 121.416 224.313 121.137 224.225 120.949C224.129 120.757 223.985 120.643 223.876 120.6C223.767 120.556 223.697 120.565 223.697 120.578Z" fill="#263238"/>
    <g opacity="0.3">
      <path d="M214.386 89.7063C214.543 88.4354 214.879 87.1864 214.967 85.9112C215.067 84.3827 214.805 82.8324 215.102 81.3301C216.142 83.0638 216.377 85.1601 216.382 87.1821C216.391 89.2041 216.198 91.2391 216.482 93.2393C216.679 94.6062 217.124 96.257 217.29 97.6283C217.456 98.9996 217.063 99.7638 216.661 101.825C215.286 97.9122 213.879 93.8245 214.386 89.7063Z" fill="black"/>
    </g>
    <path d="M216.81 86.457C215.128 91.143 215.814 96.615 218.609 100.738L216.81 86.457Z" fill="url(#paint14_linear_2501_1551)"/>
    <path d="M218.605 100.733C218.644 100.707 218.163 100.017 217.591 98.803C217.299 98.196 217.011 97.4492 216.744 96.6064C216.491 95.7548 216.272 94.8071 216.141 93.7896C216.019 92.772 215.997 91.7981 216.028 90.9116C216.076 90.0251 216.172 89.2302 216.303 88.5752C216.556 87.2563 216.849 86.4702 216.805 86.4571C216.792 86.4527 216.714 86.6449 216.583 87.003C216.517 87.1821 216.438 87.4004 216.373 87.6581C216.303 87.9157 216.207 88.2127 216.146 88.5446C215.993 89.204 215.879 90.0076 215.818 90.9029C215.775 91.7981 215.788 92.7895 215.914 93.8201C216.05 94.8508 216.277 95.8115 216.543 96.6719C216.823 97.5235 217.133 98.2746 217.447 98.8773C217.591 99.1874 217.753 99.445 217.884 99.6808C218.015 99.9167 218.142 100.109 218.251 100.266C218.469 100.576 218.591 100.746 218.605 100.733Z" fill="url(#paint15_linear_2501_1551)"/>
    <path d="M238.501 107.533C238.519 107.555 238.851 107.306 239.34 106.856C239.833 106.406 240.48 105.747 241.135 104.965C241.786 104.183 242.318 103.428 242.672 102.86C243.026 102.297 243.214 101.925 243.187 101.912C243.157 101.895 242.925 102.231 242.537 102.768C242.148 103.305 241.602 104.039 240.956 104.816C240.309 105.589 239.685 106.262 239.226 106.738C238.772 107.214 238.48 107.507 238.501 107.533Z" fill="#263238"/>
    <path d="M241.379 107.983C241.406 107.996 241.585 107.686 241.825 107.158C242.065 106.634 242.358 105.887 242.615 105.044C242.873 104.201 243.043 103.419 243.139 102.852C243.235 102.284 243.262 101.926 243.231 101.921C243.166 101.908 242.912 103.31 242.397 104.978C241.886 106.651 241.318 107.953 241.379 107.983Z" fill="#263238"/>
    <path d="M227.335 99.6721C227.356 99.7027 227.601 99.5324 228.029 99.3621C228.457 99.1874 229.095 99.0476 229.798 99.0957C230.501 99.1481 231.112 99.3795 231.51 99.611C231.911 99.8424 232.125 100.043 232.156 100.017C232.173 100.004 231.994 99.7551 231.597 99.4756C231.2 99.1961 230.562 98.9253 229.815 98.8686C229.068 98.8162 228.396 98.9952 227.963 99.2136C227.527 99.4319 227.317 99.6547 227.335 99.6721Z" fill="#263238"/>
    <path d="M251.581 98.6283C251.581 98.6283 254.787 102.118 254.542 104.555C254.297 106.991 253.162 112.354 250.153 112.193C247.148 112.031 244.428 107.197 244.021 103.362C243.615 99.5279 244.021 90.5098 244.021 90.5098L248.301 91.4749L251.581 98.6283Z" fill="#FDBFBA"/>
    <path d="M257.953 76.2648C255.734 79.0991 250.236 85.9337 250.236 85.9337L245.061 84.6192C244.685 84.5231 244.406 84.2087 244.358 83.82C244.327 83.5711 244.397 83.3178 244.554 83.1169L251.804 73.9371C252.363 73.234 253.31 72.9676 254.149 73.282L257.464 74.5267C258.171 74.7974 258.42 75.6709 257.953 76.2648Z" fill="#263238"/>
    <path d="M244.908 83.4615C244.921 83.4702 245.096 83.2999 245.406 82.9854C245.712 82.6666 246.153 82.1994 246.681 81.6054C247.738 80.4219 249.153 78.7449 250.607 76.8016C250.97 76.3168 251.319 75.8408 251.651 75.3735C251.978 74.9106 252.302 74.4608 252.734 74.2206C253.166 73.9673 253.664 74.0721 254.092 74.2249C254.529 74.3734 254.939 74.5132 255.319 74.6442C256.044 74.8844 256.643 75.0809 257.101 75.2337C257.525 75.3691 257.761 75.4346 257.765 75.4215C257.769 75.4084 257.542 75.3124 257.132 75.1508C256.677 74.9804 256.088 74.7577 255.372 74.4913C254.996 74.3559 254.586 74.2075 254.153 74.0459C253.931 73.9673 253.69 73.893 253.428 73.8712C253.166 73.845 252.878 73.9061 252.634 74.0371C252.136 74.3079 251.799 74.7883 251.467 75.2468C251.131 75.7054 250.782 76.1814 250.424 76.6662C248.974 78.6008 247.585 80.2909 246.559 81.5006C246.065 82.0771 245.65 82.5575 245.336 82.9287C245.052 83.2606 244.895 83.4527 244.908 83.4615Z" fill="url(#paint16_linear_2501_1551)"/>
    <path d="M255.018 75.3127C254.813 75.2122 254.538 75.3083 254.437 75.5092C254.337 75.7144 254.433 75.9896 254.634 76.09C254.839 76.1904 255.114 76.0944 255.214 75.8935C255.315 75.6926 255.223 75.4131 255.018 75.3127Z" fill="white"/>
    <path d="M250.577 81.509L252.97 81.9064L253.852 82.6881C254.096 82.9065 254.228 83.234 254.184 83.5572C254.14 83.8716 254.005 84.2778 253.642 84.7189C253.07 85.4089 252.603 85.7582 252.603 85.7582C252.603 85.7582 253.446 87.1208 252.14 87.8108C252.14 87.8108 252.227 89.2258 250.86 89.3699C250.86 89.3699 250.463 90.7106 249.437 90.7848L248.371 91.8373L248.694 92.4837L243.947 92.6278C243.947 92.6278 243.912 90.025 244.135 88.8371C244.349 87.6973 244.506 87.3348 244.506 87.3348C244.266 85.9941 245.266 85.4394 245.415 85.5312C245.415 85.5312 243.148 84.9372 243.441 83.3781L245.615 83.9371L249.603 84.7669L247.048 83.055C246.921 82.9371 246.803 82.8061 246.712 82.6619C246.493 82.3169 246.17 81.6924 246.445 81.33C246.563 81.1727 249.708 82.4872 249.708 82.4872L251.638 84.2909L252.245 83.4262C252.249 83.4262 250.267 83.0069 250.577 81.509Z" fill="#FDBFBA"/>
    <path d="M245.109 85.5572C245.1 85.6227 245.952 85.745 246.961 86.042C247.974 86.3302 248.755 86.684 248.786 86.6228C248.817 86.5704 248.061 86.1206 247.026 85.8236C245.991 85.5179 245.113 85.4961 245.109 85.5572Z" fill="#FDBFBA"/>
    <path d="M246.205 89.6667C246.231 89.6362 245.834 89.4003 245.41 88.8195L245.332 88.7103L245.275 88.837C245.205 88.9898 245.07 89.1296 244.886 89.2082C244.707 89.2824 244.467 89.2955 244.314 89.1732C244.24 89.1121 244.214 89.0422 244.231 88.9243C244.253 88.7977 244.275 88.6667 244.297 88.5313C244.349 88.2649 244.371 87.9679 244.458 87.7277C244.546 87.4832 244.746 87.3478 244.991 87.3478C245.236 87.339 245.476 87.422 245.716 87.4832C246.179 87.5967 246.607 87.7015 247 87.7976C247.729 87.9723 248.183 88.0596 248.188 88.029C248.192 87.9985 247.751 87.85 247.035 87.6404C246.651 87.5312 246.231 87.4089 245.777 87.2823C245.541 87.2168 245.284 87.1163 244.982 87.125C244.834 87.1294 244.672 87.1644 244.532 87.2604C244.393 87.3565 244.301 87.5006 244.244 87.6491C244.135 87.9548 244.122 88.2299 244.074 88.5007C244.052 88.6361 244.035 88.7715 244.013 88.9025C243.982 89.0422 244.048 89.2562 244.179 89.3392C244.436 89.5226 244.742 89.4789 244.956 89.3785C245.179 89.2737 245.34 89.0903 245.415 88.8981L245.279 88.9156C245.515 89.2082 245.747 89.4003 245.917 89.5182C246.092 89.6318 246.196 89.6798 246.205 89.6667Z" fill="#FDBFBA"/>
    <path d="M250.398 83.0767C250.349 83.1204 250.865 83.7143 251.463 84.4699C252.061 85.2254 252.52 85.8586 252.577 85.8237C252.629 85.7931 252.249 85.09 251.642 84.3257C251.035 83.5615 250.441 83.0331 250.398 83.0767Z" fill="#FDBFBA"/>
    <path d="M249.415 84.7146C249.393 84.7757 249.913 84.9329 250.271 85.4483C250.646 85.9505 250.633 86.492 250.699 86.492C250.725 86.4964 250.773 86.361 250.76 86.1339C250.747 85.9112 250.66 85.5967 250.454 85.3129C250.249 85.029 249.983 84.8456 249.773 84.767C249.563 84.684 249.419 84.6884 249.415 84.7146Z" fill="#FDBFBA"/>
    <path d="M210.927 92.1736L208.979 88.0204C208.656 86.7234 207.337 86.2867 205.722 86.1731L204.014 85.4744C204.014 85.4744 202.769 83.6795 201.616 83.7057C201.433 83.71 201.267 83.8323 201.215 84.0114C201.18 84.1337 201.197 84.2603 201.267 84.3695L202.669 86.5269L203.783 87.0815C203.783 87.0815 202.739 87.3348 202.324 86.9417C201.909 86.5487 200.503 85.4438 200.503 85.4438C200.503 85.4438 199.437 83.5179 198.044 83.662C197.865 83.6795 197.76 83.876 197.843 84.0332L198.909 86.0901C198.909 86.0901 196.965 83.1685 195.114 84.2603L197.166 86.4919C197.166 86.4919 194.188 84.8018 193 86.2168L200.542 89.3306L204.887 90.1822L206.407 94.3004L207.744 93.5405L210.927 92.1736Z" fill="#FDBFBA"/>
    <path d="M206.412 97.5715C206.412 97.5715 206.18 104.952 207.543 106.987C208.905 109.022 211.434 111.778 214.569 109.572L216.53 102.144C216.53 102.144 213.338 98.6415 212.757 97.209C211.307 93.6323 208.975 88.0249 208.975 88.0249L204.813 89.8766L206.412 97.5715Z" fill="#FDBFBA"/>
    <path d="M212.29 96.5368C212.264 96.5543 212.456 96.9037 212.761 97.467C213.067 98.0304 213.478 98.8208 213.884 99.7074C214.29 100.598 214.617 101.424 214.845 102.022C215.072 102.625 215.211 102.996 215.242 102.987C215.268 102.978 215.185 102.585 214.997 101.97C214.805 101.354 214.5 100.511 214.089 99.6113C213.678 98.7117 213.242 97.9299 212.897 97.384C212.556 96.8381 212.312 96.5193 212.29 96.5368Z" fill="#FDBFBA"/>
    <path d="M202.665 86.5183C202.638 86.5751 203.093 86.8459 203.682 87.1166C204.272 87.3918 204.77 87.5664 204.796 87.5097C204.822 87.4529 204.368 87.1821 203.778 86.9114C203.189 86.6406 202.691 86.4616 202.665 86.5183Z" fill="#FDBFBA"/>
    <path d="M202.036 88.4704C202.049 88.4442 201.844 88.3088 201.485 88.1603C201.276 88.073 201.066 87.99 200.857 87.9027C200.734 87.8502 200.616 87.8022 200.494 87.7498C200.354 87.693 200.289 87.6406 200.188 87.5271C199.808 87.0991 199.498 86.658 199.249 86.361C199.009 86.0641 198.826 85.885 198.791 85.9243C198.795 85.9418 198.813 85.9724 198.874 86.0728C198.957 86.2038 199.04 86.3305 199.118 86.4571C199.337 86.7803 199.621 87.2257 200.022 87.6843C200.075 87.7411 200.127 87.7935 200.197 87.8502C200.28 87.9114 200.337 87.9245 200.407 87.9594C200.538 88.0162 200.664 88.0642 200.787 88.1035C201.031 88.1909 201.25 88.2564 201.433 88.3175C201.8 88.4223 202.023 88.4966 202.036 88.4704Z" fill="#FDBFBA"/>
    <g clip-path="url(#clip1_2501_1551)">
      <path d="M176.092 118.413C182.539 91.709 166.118 64.8343 139.414 58.3869C112.709 51.9396 85.8347 68.361 79.3874 95.0652C72.94 121.769 89.3614 148.644 116.066 155.091C142.77 161.539 169.645 145.117 176.092 118.413Z" fill="white"/>
      <path d="M129.97 128.66C129.96 130.93 128.11 132.76 125.84 132.75C123.57 132.74 121.74 130.89 121.75 128.62C121.76 126.35 123.61 124.52 125.88 124.53C128.15 124.54 129.98 126.39 129.97 128.66Z" fill="url(#paint17_linear_2501_1551)"/>
      <path d="M117.65 123.37C122.16 118.63 129.5 118.49 134.13 123.15C136.23 125.26 139.51 122.01 137.41 119.9C131.06 113.5 120.63 113.54 114.39 120.09C112.34 122.24 115.59 125.53 117.65 123.37Z" fill="url(#paint18_linear_2501_1551)"/>
      <path d="M103.69 104.24C109.94 98.84 117.4 95.44 125.76 95.42C134.04 95.4 142.21 98.34 148.27 104.03C150.44 106.06 153.73 102.82 151.55 100.78C144.6 94.26 135.29 90.77 125.78 90.8C116.17 90.82 107.62 94.75 100.44 100.96C98.18 102.91 101.44 106.18 103.69 104.24Z" fill="url(#paint19_linear_2501_1551)"/>
      <path d="M109.2 114.84C113.39 110.31 119.26 107.47 125.47 107.33C131.85 107.18 138 109.81 142.43 114.36C144.51 116.5 147.79 113.24 145.71 111.11C140.47 105.72 133.03 102.53 125.49 102.71C118.11 102.88 110.95 106.14 105.95 111.56C103.93 113.74 107.17 117.03 109.2 114.84Z" fill="url(#paint20_linear_2501_1551)"/>
      <path d="M164.677 95.5499C165.889 88.6921 161.313 82.1499 154.455 80.9374C147.597 79.725 141.055 84.3013 139.843 91.1591C138.63 98.0169 143.207 104.559 150.064 105.772C156.922 106.984 163.464 102.408 164.677 95.5499Z" fill="url(#paint21_linear_2501_1551)"/>
      <path d="M157.474 89.8353L155.685 88.0464L147.673 96.0578L149.462 97.8468L157.474 89.8353Z" fill="white"/>
      <path d="M149.462 88.0426L147.673 89.8315L155.685 97.843L157.474 96.054L149.462 88.0426Z" fill="white"/>
    </g>
  </g>
  <defs>
    <linearGradient id="paint0_linear_2501_1551" x1="65.6237" y1="174.814" x2="106.307" y2="185.22" gradientUnits="userSpaceOnUse">
      <stop stop-color="#79BFFD"/>
      <stop offset="1" stop-color="#6568EB"/>
    </linearGradient>
    <linearGradient id="paint1_linear_2501_1551" x1="86.8456" y1="177.191" x2="114.105" y2="190.651" gradientUnits="userSpaceOnUse">
      <stop stop-color="#79BFFD"/>
      <stop offset="1" stop-color="#6568EB"/>
    </linearGradient>
    <linearGradient id="paint2_linear_2501_1551" x1="215.361" y1="189.562" x2="188.032" y2="196.552" gradientUnits="userSpaceOnUse">
      <stop stop-color="#79BFFD"/>
      <stop offset="1" stop-color="#6568EB"/>
    </linearGradient>
    <linearGradient id="paint3_linear_2501_1551" x1="201.09" y1="191.152" x2="182.778" y2="200.194" gradientUnits="userSpaceOnUse">
      <stop stop-color="#79BFFD"/>
      <stop offset="1" stop-color="#6568EB"/>
    </linearGradient>
    <linearGradient id="paint4_linear_2501_1551" x1="229.782" y1="194.553" x2="64.4347" y2="196.51" gradientUnits="userSpaceOnUse">
      <stop stop-color="#0079FF"/>
      <stop offset="1" stop-color="#4285F4"/>
    </linearGradient>
    <linearGradient id="paint5_linear_2501_1551" x1="224.181" y1="200.937" x2="242.663" y2="200.937" gradientUnits="userSpaceOnUse">
      <stop stop-color="#2B0246"/>
      <stop offset="1" stop-color="#6A4586"/>
    </linearGradient>
    <linearGradient id="paint6_linear_2501_1551" x1="215.604" y1="204.395" x2="235.519" y2="204.395" gradientUnits="userSpaceOnUse">
      <stop stop-color="#2B0246"/>
      <stop offset="1" stop-color="#6A4586"/>
    </linearGradient>
    <linearGradient id="paint7_linear_2501_1551" x1="237.972" y1="175.201" x2="225.436" y2="65.3363" gradientUnits="userSpaceOnUse">
      <stop stop-color="#79BFFD"/>
      <stop offset="1" stop-color="#6568EB"/>
    </linearGradient>
    <linearGradient id="paint8_linear_2501_1551" x1="227.155" y1="169.639" x2="218.017" y2="68.624" gradientUnits="userSpaceOnUse">
      <stop stop-color="#79BFFD"/>
      <stop offset="1" stop-color="#6568EB"/>
    </linearGradient>
    <linearGradient id="paint9_linear_2501_1551" x1="220.064" y1="164.687" x2="238.542" y2="164.687" gradientUnits="userSpaceOnUse">
      <stop stop-color="#2B0246"/>
      <stop offset="1" stop-color="#6A4586"/>
    </linearGradient>
    <linearGradient id="paint10_linear_2501_1551" x1="246.925" y1="103.548" x2="248.666" y2="84.9918" gradientUnits="userSpaceOnUse">
      <stop stop-color="#2B0246"/>
      <stop offset="1" stop-color="#6A4586"/>
    </linearGradient>
    <linearGradient id="paint11_linear_2501_1551" x1="227.53" y1="141.483" x2="230.863" y2="96.2097" gradientUnits="userSpaceOnUse">
      <stop stop-color="#2B0246"/>
      <stop offset="1" stop-color="#6A4586"/>
    </linearGradient>
    <linearGradient id="paint12_linear_2501_1551" x1="212.33" y1="109.44" x2="215.608" y2="87.2629" gradientUnits="userSpaceOnUse">
      <stop stop-color="#2B0246"/>
      <stop offset="1" stop-color="#6A4586"/>
    </linearGradient>
    <linearGradient id="paint13_linear_2501_1551" x1="215.642" y1="111.701" x2="222.273" y2="93.0788" gradientUnits="userSpaceOnUse">
      <stop stop-color="#2B0246"/>
      <stop offset="1" stop-color="#6A4586"/>
    </linearGradient>
    <linearGradient id="paint14_linear_2501_1551" x1="217.089" y1="100.449" x2="218.855" y2="92.0822" gradientUnits="userSpaceOnUse">
      <stop stop-color="#2B0246"/>
      <stop offset="1" stop-color="#6A4586"/>
    </linearGradient>
    <linearGradient id="paint15_linear_2501_1551" x1="217.028" y1="100.446" x2="218.733" y2="92.0546" gradientUnits="userSpaceOnUse">
      <stop stop-color="#2B0246"/>
      <stop offset="1" stop-color="#6A4586"/>
    </linearGradient>
    <linearGradient id="paint16_linear_2501_1551" x1="241.064" y1="78.6641" x2="253.922" y2="78.6641" gradientUnits="userSpaceOnUse">
      <stop stop-color="#2B0246"/>
      <stop offset="1" stop-color="#6A4586"/>
    </linearGradient>
    <linearGradient id="paint17_linear_2501_1551" x1="121.75" y1="128.64" x2="129.97" y2="128.64" gradientUnits="userSpaceOnUse">
      <stop stop-color="#79BFFD"/>
      <stop offset="1" stop-color="#6568EB"/>
    </linearGradient>
    <linearGradient id="paint18_linear_2501_1551" x1="113.737" y1="119.607" x2="138.084" y2="119.607" gradientUnits="userSpaceOnUse">
      <stop stop-color="#79BFFD"/>
      <stop offset="1" stop-color="#6568EB"/>
    </linearGradient>
    <linearGradient id="paint19_linear_2501_1551" x1="99.6751" y1="97.8173" x2="152.265" y2="97.8173" gradientUnits="userSpaceOnUse">
      <stop stop-color="#79BFFD"/>
      <stop offset="1" stop-color="#6568EB"/>
    </linearGradient>
    <linearGradient id="paint20_linear_2501_1551" x1="105.311" y1="109.133" x2="146.373" y2="109.133" gradientUnits="userSpaceOnUse">
      <stop stop-color="#79BFFD"/>
      <stop offset="1" stop-color="#6568EB"/>
    </linearGradient>
    <linearGradient id="paint21_linear_2501_1551" x1="150.065" y1="105.77" x2="154.455" y2="80.9373" gradientUnits="userSpaceOnUse">
      <stop stop-color="#F46595"/>
      <stop offset="1" stop-color="#F89597"/>
    </linearGradient>
    <clipPath id="clip0_2501_1551">
      <rect width="329.718" height="213.65" fill="white"/>
    </clipPath>
    <clipPath id="clip1_2501_1551">
      <rect width="99.48" height="99.48" fill="white" transform="translate(78 57)"/>
    </clipPath>
  </defs>
</svg>
