<svg width="200" height="200" viewBox="0 0 200 200" fill="none" xmlns="http://www.w3.org/2000/svg">
<g clip-path="url(#clip0_5677_6700)">
<path opacity="0.06" d="M102.595 191.416C149.387 191.416 187.264 153.491 187.264 106.746C187.264 59.9535 149.34 22.0762 102.595 22.0762C55.8493 22.0762 17.9248 59.9535 17.9248 106.699C17.9248 153.491 55.8493 191.416 102.595 191.416Z" fill="#0079FF"/>
<g filter="url(#filter0_d_5677_6700)">
<path d="M148.302 41.7461H54.4811C48.632 41.7461 43.915 46.5102 43.915 52.3121H158.915C158.868 46.4631 154.151 41.7461 148.302 41.7461Z" fill="#0079FF"/>
<path d="M148.302 41.7461H54.4811C48.632 41.7461 43.915 46.5102 43.915 52.3121H158.915C158.868 46.4631 154.151 41.7461 148.302 41.7461Z" fill="url(#paint0_linear_5677_6700)" fill-opacity="0.6"/>
</g>
<g opacity="0.8">
<path d="M43.915 52.0283H158.915V139.623C158.915 143.538 157.358 147.264 154.623 150C151.887 152.736 148.113 154.292 144.245 154.292H58.5848C54.6698 154.292 50.9433 152.736 48.2075 150C45.4716 147.264 43.915 143.491 43.915 139.623V52.0283Z" fill="#0079FF"/>
<path d="M43.915 52.0283H158.915V139.623C158.915 143.538 157.358 147.264 154.623 150C151.887 152.736 148.113 154.292 144.245 154.292H58.5848C54.6698 154.292 50.9433 152.736 48.2075 150C45.4716 147.264 43.915 143.491 43.915 139.623V52.0283Z" fill="url(#paint1_linear_5677_6700)"/>
</g>
<g filter="url(#filter1_d_5677_6700)">
<path d="M139.104 63.1133H63.6798C62.1232 63.1133 60.8496 64.3869 60.8496 65.9435C60.8496 67.5001 62.1232 68.7737 63.6798 68.7737H139.104C140.661 68.7737 141.935 67.5001 141.935 65.9435C141.982 64.3869 140.708 63.1133 139.104 63.1133Z" fill="#0079FF"/>
<path d="M139.104 63.1133H63.6798C62.1232 63.1133 60.8496 64.3869 60.8496 65.9435C60.8496 67.5001 62.1232 68.7737 63.6798 68.7737H139.104C140.661 68.7737 141.935 67.5001 141.935 65.9435C141.982 64.3869 140.708 63.1133 139.104 63.1133Z" fill="url(#paint2_linear_5677_6700)" fill-opacity="0.6"/>
</g>
<g filter="url(#filter2_d_5677_6700)">
<path d="M139.104 87.2178H63.6798C62.1232 87.2178 60.8496 88.4914 60.8496 90.048C60.8496 91.6046 62.1232 92.8782 63.6798 92.8782H139.104C140.661 92.8782 141.935 91.6046 141.935 90.048C141.982 88.4914 140.708 87.2178 139.104 87.2178Z" fill="#0079FF"/>
<path d="M139.104 87.2178H63.6798C62.1232 87.2178 60.8496 88.4914 60.8496 90.048C60.8496 91.6046 62.1232 92.8782 63.6798 92.8782H139.104C140.661 92.8782 141.935 91.6046 141.935 90.048C141.982 88.4914 140.708 87.2178 139.104 87.2178Z" fill="url(#paint3_linear_5677_6700)" fill-opacity="0.6"/>
</g>
<g filter="url(#filter3_d_5677_6700)">
<path d="M139.104 111.368H63.6798C62.1232 111.368 60.8496 112.642 60.8496 114.198C60.8496 115.755 62.1232 117.029 63.6798 117.029H139.104C140.661 117.029 141.935 115.755 141.935 114.198C141.982 112.642 140.708 111.368 139.104 111.368Z" fill="#0079FF"/>
<path d="M139.104 111.368H63.6798C62.1232 111.368 60.8496 112.642 60.8496 114.198C60.8496 115.755 62.1232 117.029 63.6798 117.029H139.104C140.661 117.029 141.935 115.755 141.935 114.198C141.982 112.642 140.708 111.368 139.104 111.368Z" fill="url(#paint4_linear_5677_6700)" fill-opacity="0.6"/>
</g>
<g filter="url(#filter4_d_5677_6700)">
<path d="M139.104 135.52H63.6798C62.1232 135.52 60.8496 136.793 60.8496 138.35C60.8496 139.906 62.1232 141.18 63.6798 141.18H139.104C140.661 141.18 141.935 139.906 141.935 138.35C141.935 136.793 140.708 135.52 139.104 135.52Z" fill="#0079FF"/>
<path d="M139.104 135.52H63.6798C62.1232 135.52 60.8496 136.793 60.8496 138.35C60.8496 139.906 62.1232 141.18 63.6798 141.18H139.104C140.661 141.18 141.935 139.906 141.935 138.35C141.935 136.793 140.708 135.52 139.104 135.52Z" fill="url(#paint5_linear_5677_6700)" fill-opacity="0.6"/>
</g>
<path d="M63.2083 106.181H23.0668C19.8593 106.181 17.2178 108.775 17.2178 112.03V169.435C17.2178 172.643 19.8121 175.284 23.0668 175.284H63.2083C66.4159 175.284 69.0574 172.69 69.0574 169.435V112.03C69.0102 108.822 66.4159 106.181 63.2083 106.181Z" fill="#0079FF"/>
<path d="M63.2083 106.181H23.0668C19.8593 106.181 17.2178 108.775 17.2178 112.03V169.435C17.2178 172.643 19.8121 175.284 23.0668 175.284H63.2083C66.4159 175.284 69.0574 172.69 69.0574 169.435V112.03C69.0102 108.822 66.4159 106.181 63.2083 106.181Z" fill="url(#paint6_linear_5677_6700)"/>
<g opacity="0.8">
<path d="M188.066 8H143.726C141.651 8 140 9.69811 140 11.7264V32.5755C140 34.6509 141.698 36.3019 143.726 36.3019H188.066C190.142 36.3019 191.792 34.6038 191.792 32.5755V11.7736C191.84 9.69811 190.142 8 188.066 8Z" fill="#0079FF"/>
<path d="M188.066 8H143.726C141.651 8 140 9.69811 140 11.7264V32.5755C140 34.6509 141.698 36.3019 143.726 36.3019H188.066C190.142 36.3019 191.792 34.6038 191.792 32.5755V11.7736C191.84 9.69811 190.142 8 188.066 8Z" fill="url(#paint7_linear_5677_6700)"/>
</g>
<g filter="url(#filter5_d_5677_6700)">
<path d="M58.7272 134.906H27.5479C26.5102 134.906 25.6611 135.755 25.6611 136.793C25.6611 137.831 26.5102 138.68 27.5479 138.68H58.7272C59.7649 138.68 60.614 137.831 60.614 136.793C60.614 135.755 59.7649 134.906 58.7272 134.906Z" fill="#0079FF"/>
<path d="M58.7272 134.906H27.5479C26.5102 134.906 25.6611 135.755 25.6611 136.793C25.6611 137.831 26.5102 138.68 27.5479 138.68H58.7272C59.7649 138.68 60.614 137.831 60.614 136.793C60.614 135.755 59.7649 134.906 58.7272 134.906Z" fill="url(#paint8_linear_5677_6700)" fill-opacity="0.6"/>
</g>
<g filter="url(#filter6_d_5677_6700)">
<path d="M58.7267 161.698H27.7833C26.7455 161.698 25.8965 162.5 25.8965 163.538C25.8965 164.576 26.7455 165.377 27.7833 165.377H58.7267C59.7644 165.377 60.6135 164.576 60.6135 163.538C60.6135 162.547 59.7644 161.698 58.7267 161.698Z" fill="#0079FF"/>
<path d="M58.7267 161.698H27.7833C26.7455 161.698 25.8965 162.5 25.8965 163.538C25.8965 164.576 26.7455 165.377 27.7833 165.377H58.7267C59.7644 165.377 60.6135 164.576 60.6135 163.538C60.6135 162.547 59.7644 161.698 58.7267 161.698Z" fill="url(#paint9_linear_5677_6700)" fill-opacity="0.6"/>
</g>
<g filter="url(#filter7_d_5677_6700)">
<path d="M58.7267 147.689H27.7833C26.7455 147.689 25.8965 148.491 25.8965 149.529C25.8965 150.567 26.7455 151.369 27.7833 151.369H58.7267C59.7644 151.369 60.6135 150.567 60.6135 149.529C60.6135 148.539 59.7644 147.689 58.7267 147.689Z" fill="#0079FF"/>
<path d="M58.7267 147.689H27.7833C26.7455 147.689 25.8965 148.491 25.8965 149.529C25.8965 150.567 26.7455 151.369 27.7833 151.369H58.7267C59.7644 151.369 60.6135 150.567 60.6135 149.529C60.6135 148.539 59.7644 147.689 58.7267 147.689Z" fill="url(#paint10_linear_5677_6700)" fill-opacity="0.6"/>
</g>
<g filter="url(#filter8_d_5677_6700)">
<path d="M38.9158 115.048H29.8121C27.7838 115.048 26.1328 116.699 26.1328 118.727V121.274C26.1328 123.303 27.7838 124.954 29.8121 124.954H38.9158C40.9441 124.954 42.5951 123.303 42.5951 121.274V118.727C42.5951 116.699 40.9441 115.048 38.9158 115.048Z" fill="#0079FF"/>
<path d="M38.9158 115.048H29.8121C27.7838 115.048 26.1328 116.699 26.1328 118.727V121.274C26.1328 123.303 27.7838 124.954 29.8121 124.954H38.9158C40.9441 124.954 42.5951 123.303 42.5951 121.274V118.727C42.5951 116.699 40.9441 115.048 38.9158 115.048Z" fill="url(#paint11_linear_5677_6700)" fill-opacity="0.6"/>
</g>
<g filter="url(#filter9_d_5677_6700)">
<path d="M150.945 26.4921C153.303 26.4921 155.237 24.5582 155.237 22.1997C155.237 19.8412 153.303 17.9072 150.945 17.9072C148.586 17.9072 146.652 19.8412 146.652 22.1997C146.652 24.5582 148.539 26.4921 150.945 26.4921Z" fill="#0079FF"/>
<path d="M150.945 26.4921C153.303 26.4921 155.237 24.5582 155.237 22.1997C155.237 19.8412 153.303 17.9072 150.945 17.9072C148.586 17.9072 146.652 19.8412 146.652 22.1997C146.652 24.5582 148.539 26.4921 150.945 26.4921Z" fill="url(#paint12_linear_5677_6700)" fill-opacity="0.6"/>
</g>
<g filter="url(#filter10_d_5677_6700)">
<path d="M166.322 26.4921C168.68 26.4921 170.614 24.5582 170.614 22.1997C170.614 19.8412 168.68 17.9072 166.322 17.9072C163.963 17.9072 162.029 19.8412 162.029 22.1997C162.029 24.5582 163.916 26.4921 166.322 26.4921Z" fill="#0079FF"/>
<path d="M166.322 26.4921C168.68 26.4921 170.614 24.5582 170.614 22.1997C170.614 19.8412 168.68 17.9072 166.322 17.9072C163.963 17.9072 162.029 19.8412 162.029 22.1997C162.029 24.5582 163.916 26.4921 166.322 26.4921Z" fill="url(#paint13_linear_5677_6700)" fill-opacity="0.6"/>
</g>
<g filter="url(#filter11_d_5677_6700)">
<path d="M181.7 26.4921C184.058 26.4921 185.992 24.5582 185.992 22.1997C185.992 19.8412 184.058 17.9072 181.7 17.9072C179.341 17.9072 177.407 19.8412 177.407 22.1997C177.407 24.5582 179.294 26.4921 181.7 26.4921Z" fill="#0079FF"/>
<path d="M181.7 26.4921C184.058 26.4921 185.992 24.5582 185.992 22.1997C185.992 19.8412 184.058 17.9072 181.7 17.9072C179.341 17.9072 177.407 19.8412 177.407 22.1997C177.407 24.5582 179.294 26.4921 181.7 26.4921Z" fill="url(#paint14_linear_5677_6700)" fill-opacity="0.6"/>
</g>
<g filter="url(#filter12_d_5677_6700)">
<path d="M159.434 137.642L148.538 149.67L179.246 177.547L190.142 165.519L159.434 137.642Z" fill="#0079FF"/>
<path d="M159.434 137.642L148.538 149.67L179.246 177.547L190.142 165.519L159.434 137.642Z" fill="url(#paint15_linear_5677_6700)" fill-opacity="0.6"/>
</g>
<g filter="url(#filter13_d_5677_6700)">
<path fill-rule="evenodd" clip-rule="evenodd" d="M170.944 117.736C170.944 142.877 150.567 163.255 125.425 163.255C100.284 163.255 79.9062 142.877 79.9062 117.736C79.9062 92.5942 100.284 72.2168 125.425 72.2168C150.567 72.2168 170.944 92.5942 170.944 117.736ZM163.963 117.736C163.963 139.009 146.699 156.273 125.425 156.273C104.152 156.273 86.8874 139.009 86.8874 117.736C86.8874 96.4621 104.152 79.1979 125.425 79.1979C146.746 79.1979 163.963 96.4621 163.963 117.736Z" fill="#0079FF"/>
<path fill-rule="evenodd" clip-rule="evenodd" d="M170.944 117.736C170.944 142.877 150.567 163.255 125.425 163.255C100.284 163.255 79.9062 142.877 79.9062 117.736C79.9062 92.5942 100.284 72.2168 125.425 72.2168C150.567 72.2168 170.944 92.5942 170.944 117.736ZM163.963 117.736C163.963 139.009 146.699 156.273 125.425 156.273C104.152 156.273 86.8874 139.009 86.8874 117.736C86.8874 96.4621 104.152 79.1979 125.425 79.1979C146.746 79.1979 163.963 96.4621 163.963 117.736Z" fill="url(#paint16_linear_5677_6700)" fill-opacity="0.6"/>
</g>
<path d="M125.472 156.275C146.746 156.275 164.01 139.011 164.01 117.737C164.01 96.4634 146.746 79.1992 125.472 79.1992C104.199 79.1992 86.9346 96.4634 86.9346 117.737C86.9346 139.011 104.152 156.275 125.472 156.275Z" fill="#0079FF"/>
<path d="M125.472 156.275C146.746 156.275 164.01 139.011 164.01 117.737C164.01 96.4634 146.746 79.1992 125.472 79.1992C104.199 79.1992 86.9346 96.4634 86.9346 117.737C86.9346 139.011 104.152 156.275 125.472 156.275Z" fill="url(#paint17_linear_5677_6700)"/>
<path d="M134.717 117.736L145.755 106.698C146.793 105.613 147.359 104.151 147.312 102.642C147.312 101.132 146.698 99.7171 145.613 98.6322C144.529 97.5473 143.113 96.9813 141.604 96.9341C140.095 96.9341 138.632 97.5001 137.547 98.4907L126.51 109.528L115.472 98.4907C114.953 97.9247 114.293 97.5001 113.585 97.1699C112.878 96.8398 112.123 96.6982 111.321 96.6982C110.566 96.6982 109.764 96.8397 109.057 97.1228C108.349 97.4058 107.689 97.8303 107.123 98.3964C106.557 98.9624 106.132 99.5756 105.849 100.33C105.566 101.038 105.425 101.793 105.425 102.594C105.425 103.349 105.613 104.151 105.897 104.859C106.227 105.566 106.651 106.179 107.217 106.745L118.255 117.783L107.359 128.774C106.793 129.293 106.368 129.953 106.038 130.661C105.708 131.368 105.566 132.123 105.566 132.925C105.566 133.679 105.708 134.481 105.991 135.189C106.274 135.896 106.698 136.557 107.264 137.123C107.83 137.689 108.444 138.113 109.198 138.396C109.906 138.679 110.661 138.821 111.463 138.821C112.217 138.821 113.019 138.632 113.727 138.349C114.434 138.019 115.095 137.594 115.613 137.028L126.651 125.991L137.689 137.028C138.774 138.019 140.236 138.538 141.698 138.444C143.161 138.396 144.576 137.783 145.613 136.745C146.651 135.708 147.264 134.293 147.312 132.83C147.359 131.368 146.84 129.953 145.849 128.821L134.717 117.736Z" fill="#0079FF"/>
<path d="M134.717 117.736L145.755 106.698C146.793 105.613 147.359 104.151 147.312 102.642C147.312 101.132 146.698 99.7171 145.613 98.6322C144.529 97.5473 143.113 96.9813 141.604 96.9341C140.095 96.9341 138.632 97.5001 137.547 98.4907L126.51 109.528L115.472 98.4907C114.953 97.9247 114.293 97.5001 113.585 97.1699C112.878 96.8398 112.123 96.6982 111.321 96.6982C110.566 96.6982 109.764 96.8397 109.057 97.1228C108.349 97.4058 107.689 97.8303 107.123 98.3964C106.557 98.9624 106.132 99.5756 105.849 100.33C105.566 101.038 105.425 101.793 105.425 102.594C105.425 103.349 105.613 104.151 105.897 104.859C106.227 105.566 106.651 106.179 107.217 106.745L118.255 117.783L107.359 128.774C106.793 129.293 106.368 129.953 106.038 130.661C105.708 131.368 105.566 132.123 105.566 132.925C105.566 133.679 105.708 134.481 105.991 135.189C106.274 135.896 106.698 136.557 107.264 137.123C107.83 137.689 108.444 138.113 109.198 138.396C109.906 138.679 110.661 138.821 111.463 138.821C112.217 138.821 113.019 138.632 113.727 138.349C114.434 138.019 115.095 137.594 115.613 137.028L126.651 125.991L137.689 137.028C138.774 138.019 140.236 138.538 141.698 138.444C143.161 138.396 144.576 137.783 145.613 136.745C146.651 135.708 147.264 134.293 147.312 132.83C147.359 131.368 146.84 129.953 145.849 128.821L134.717 117.736Z" fill="url(#paint18_linear_5677_6700)" fill-opacity="0.6"/>
<g opacity="0.5" filter="url(#filter14_d_5677_6700)">
<path d="M95.424 165.614C95.8014 164.01 98.0655 164.01 98.4429 165.614L99.7165 170.944C99.858 171.51 100.283 171.935 100.849 172.076L106.179 173.35C107.783 173.727 107.783 175.991 106.179 176.369L100.849 177.642C100.283 177.784 99.858 178.208 99.7165 178.774L98.4429 184.105C98.0655 185.708 95.8014 185.708 95.424 184.105L94.1505 178.774C94.0089 178.208 93.5844 177.784 93.0184 177.642L87.6882 176.369C86.0844 175.991 86.0844 173.727 87.6882 173.35L93.0184 172.076C93.5844 171.935 94.0089 171.51 94.1505 170.944L95.424 165.614Z" fill="#0079FF"/>
<path d="M95.424 165.614C95.8014 164.01 98.0655 164.01 98.4429 165.614L99.7165 170.944C99.858 171.51 100.283 171.935 100.849 172.076L106.179 173.35C107.783 173.727 107.783 175.991 106.179 176.369L100.849 177.642C100.283 177.784 99.858 178.208 99.7165 178.774L98.4429 184.105C98.0655 185.708 95.8014 185.708 95.424 184.105L94.1505 178.774C94.0089 178.208 93.5844 177.784 93.0184 177.642L87.6882 176.369C86.0844 175.991 86.0844 173.727 87.6882 173.35L93.0184 172.076C93.5844 171.935 94.0089 171.51 94.1505 170.944L95.424 165.614Z" fill="url(#paint19_linear_5677_6700)" fill-opacity="0.6"/>
</g>
<g filter="url(#filter15_d_5677_6700)">
<path d="M24.9387 22.2028C25.316 20.5991 27.5802 20.5991 27.9575 22.2028L29.2311 27.533C29.3726 28.0991 29.7972 28.5236 30.3632 28.6651L35.6934 29.9387C37.2972 30.316 37.2972 32.5802 35.6934 32.9575L30.3632 34.2311C29.7972 34.3726 29.3726 34.7972 29.2311 35.3632L27.9575 40.6934C27.5802 42.2972 25.316 42.2972 24.9387 40.6934L23.6651 35.3632C23.5236 34.7972 23.0991 34.3726 22.533 34.2311L17.2028 32.9575C15.5991 32.5802 15.5991 30.316 17.2028 29.9387L22.533 28.6651C23.0991 28.5236 23.5236 28.0991 23.6651 27.533L24.9387 22.2028Z" fill="#0079FF"/>
<path d="M24.9387 22.2028C25.316 20.5991 27.5802 20.5991 27.9575 22.2028L29.2311 27.533C29.3726 28.0991 29.7972 28.5236 30.3632 28.6651L35.6934 29.9387C37.2972 30.316 37.2972 32.5802 35.6934 32.9575L30.3632 34.2311C29.7972 34.3726 29.3726 34.7972 29.2311 35.3632L27.9575 40.6934C27.5802 42.2972 25.316 42.2972 24.9387 40.6934L23.6651 35.3632C23.5236 34.7972 23.0991 34.3726 22.533 34.2311L17.2028 32.9575C15.5991 32.5802 15.5991 30.316 17.2028 29.9387L22.533 28.6651C23.0991 28.5236 23.5236 28.0991 23.6651 27.533L24.9387 22.2028Z" fill="url(#paint20_linear_5677_6700)" fill-opacity="0.6"/>
</g>
<g opacity="0.4">
<path fill-rule="evenodd" clip-rule="evenodd" d="M99.2451 24.7174C100.66 24.7174 101.839 23.5381 101.839 22.123C101.839 20.7079 100.66 19.5287 99.2451 19.5287C97.83 19.5287 96.6508 20.7079 96.6508 22.123C96.6508 23.5381 97.7828 24.7174 99.2451 24.7174ZM99.2451 26.6513C101.745 26.6513 103.773 24.623 103.773 22.123C103.773 19.623 101.745 17.5947 99.2451 17.5947C96.7451 17.5947 94.7168 19.623 94.7168 22.123C94.7168 24.623 96.7451 26.6513 99.2451 26.6513Z" fill="#0079FF"/>
<path fill-rule="evenodd" clip-rule="evenodd" d="M99.2451 24.7174C100.66 24.7174 101.839 23.5381 101.839 22.123C101.839 20.7079 100.66 19.5287 99.2451 19.5287C97.83 19.5287 96.6508 20.7079 96.6508 22.123C96.6508 23.5381 97.7828 24.7174 99.2451 24.7174ZM99.2451 26.6513C101.745 26.6513 103.773 24.623 103.773 22.123C103.773 19.623 101.745 17.5947 99.2451 17.5947C96.7451 17.5947 94.7168 19.623 94.7168 22.123C94.7168 24.623 96.7451 26.6513 99.2451 26.6513Z" fill="url(#paint21_linear_5677_6700)" fill-opacity="0.6"/>
</g>
<g opacity="0.4" filter="url(#filter16_d_5677_6700)">
<path d="M179.622 95.8968C179.386 94.9534 180.283 94.0572 181.226 94.3402L187.688 96.1798C188.632 96.4628 188.962 97.6421 188.254 98.3496L183.443 103.019C182.735 103.727 181.556 103.397 181.273 102.406L179.622 95.8968Z" fill="#0079FF"/>
<path d="M179.622 95.8968C179.386 94.9534 180.283 94.0572 181.226 94.3402L187.688 96.1798C188.632 96.4628 188.962 97.6421 188.254 98.3496L183.443 103.019C182.735 103.727 181.556 103.397 181.273 102.406L179.622 95.8968Z" fill="url(#paint22_linear_5677_6700)" fill-opacity="0.6"/>
</g>
<g opacity="0.4" filter="url(#filter17_d_5677_6700)">
<path d="M28.0664 84.8116C29.0098 84.5758 29.9061 85.472 29.623 86.4154L27.7834 92.8777C27.5004 93.821 26.3211 94.1512 25.6136 93.4437L20.9438 88.6324C20.2362 87.9248 20.5664 86.7456 21.557 86.4626L28.0664 84.8116Z" fill="#0079FF"/>
<path d="M28.0664 84.8116C29.0098 84.5758 29.9061 85.472 29.623 86.4154L27.7834 92.8777C27.5004 93.821 26.3211 94.1512 25.6136 93.4437L20.9438 88.6324C20.2362 87.9248 20.5664 86.7456 21.557 86.4626L28.0664 84.8116Z" fill="url(#paint23_linear_5677_6700)" fill-opacity="0.6"/>
</g>
<g opacity="0.8" filter="url(#filter18_d_5677_6700)">
<path d="M151.368 174.151C152.312 173.916 153.208 174.812 152.925 175.755L151.085 182.217C150.802 183.161 149.623 183.491 148.915 182.784L144.246 177.972C143.538 177.265 143.868 176.085 144.859 175.802L151.368 174.151Z" fill="#0079FF"/>
<path d="M151.368 174.151C152.312 173.916 153.208 174.812 152.925 175.755L151.085 182.217C150.802 183.161 149.623 183.491 148.915 182.784L144.246 177.972C143.538 177.265 143.868 176.085 144.859 175.802L151.368 174.151Z" fill="url(#paint24_linear_5677_6700)" fill-opacity="0.6"/>
</g>
<g opacity="0.4">
<path fill-rule="evenodd" clip-rule="evenodd" d="M185.613 62.359C187.028 62.359 188.208 61.1797 188.208 59.7646C188.208 58.3495 187.028 57.1703 185.613 57.1703C184.198 57.1703 183.019 58.3495 183.019 59.7646C183.019 61.1797 184.198 62.359 185.613 62.359ZM185.613 64.2929C188.113 64.2929 190.142 62.2646 190.142 59.7646C190.142 57.2646 188.113 55.2363 185.613 55.2363C183.113 55.2363 181.085 57.2646 181.085 59.7646C181.085 62.2646 183.113 64.2929 185.613 64.2929Z" fill="#0079FF"/>
<path fill-rule="evenodd" clip-rule="evenodd" d="M185.613 62.359C187.028 62.359 188.208 61.1797 188.208 59.7646C188.208 58.3495 187.028 57.1703 185.613 57.1703C184.198 57.1703 183.019 58.3495 183.019 59.7646C183.019 61.1797 184.198 62.359 185.613 62.359ZM185.613 64.2929C188.113 64.2929 190.142 62.2646 190.142 59.7646C190.142 57.2646 188.113 55.2363 185.613 55.2363C183.113 55.2363 181.085 57.2646 181.085 59.7646C181.085 62.2646 183.113 64.2929 185.613 64.2929Z" fill="url(#paint25_linear_5677_6700)" fill-opacity="0.6"/>
</g>
<g filter="url(#filter19_d_5677_6700)">
<path d="M179.245 177.5L190.141 165.472L191.792 166.981C193.396 168.443 194.339 170.425 194.434 172.594C194.528 174.764 193.773 176.84 192.358 178.443C190.896 180.047 188.915 180.991 186.745 181.085C184.575 181.179 182.5 180.425 180.896 179.009L179.245 177.5Z" fill="#0079FF"/>
<path d="M179.245 177.5L190.141 165.472L191.792 166.981C193.396 168.443 194.339 170.425 194.434 172.594C194.528 174.764 193.773 176.84 192.358 178.443C190.896 180.047 188.915 180.991 186.745 181.085C184.575 181.179 182.5 180.425 180.896 179.009L179.245 177.5Z" fill="url(#paint26_linear_5677_6700)" fill-opacity="0.6"/>
</g>
</g>
<defs>
<filter id="filter0_d_5677_6700" x="23.615" y="28.4461" width="155.6" height="51.1664" filterUnits="userSpaceOnUse" color-interpolation-filters="sRGB">
<feFlood flood-opacity="0" result="BackgroundImageFix"/>
<feColorMatrix in="SourceAlpha" type="matrix" values="0 0 0 0 0 0 0 0 0 0 0 0 0 0 0 0 0 0 127 0" result="hardAlpha"/>
<feOffset dy="7"/>
<feGaussianBlur stdDeviation="10.15"/>
<feComposite in2="hardAlpha" operator="out"/>
<feColorMatrix type="matrix" values="0 0 0 0 0 0 0 0 0 0.47451 0 0 0 0 1 0 0 0 0.38 0"/>
<feBlend mode="normal" in2="BackgroundImageFix" result="effect1_dropShadow_5677_6700"/>
<feBlend mode="normal" in="SourceGraphic" in2="effect1_dropShadow_5677_6700" result="shape"/>
</filter>
<filter id="filter1_d_5677_6700" x="40.5496" y="49.8133" width="121.686" height="46.2602" filterUnits="userSpaceOnUse" color-interpolation-filters="sRGB">
<feFlood flood-opacity="0" result="BackgroundImageFix"/>
<feColorMatrix in="SourceAlpha" type="matrix" values="0 0 0 0 0 0 0 0 0 0 0 0 0 0 0 0 0 0 127 0" result="hardAlpha"/>
<feOffset dy="7"/>
<feGaussianBlur stdDeviation="10.15"/>
<feComposite in2="hardAlpha" operator="out"/>
<feColorMatrix type="matrix" values="0 0 0 0 0 0 0 0 0 0.47451 0 0 0 0 1 0 0 0 0.38 0"/>
<feBlend mode="normal" in2="BackgroundImageFix" result="effect1_dropShadow_5677_6700"/>
<feBlend mode="normal" in="SourceGraphic" in2="effect1_dropShadow_5677_6700" result="shape"/>
</filter>
<filter id="filter2_d_5677_6700" x="40.5496" y="73.9178" width="121.686" height="46.2602" filterUnits="userSpaceOnUse" color-interpolation-filters="sRGB">
<feFlood flood-opacity="0" result="BackgroundImageFix"/>
<feColorMatrix in="SourceAlpha" type="matrix" values="0 0 0 0 0 0 0 0 0 0 0 0 0 0 0 0 0 0 127 0" result="hardAlpha"/>
<feOffset dy="7"/>
<feGaussianBlur stdDeviation="10.15"/>
<feComposite in2="hardAlpha" operator="out"/>
<feColorMatrix type="matrix" values="0 0 0 0 0 0 0 0 0 0.47451 0 0 0 0 1 0 0 0 0.38 0"/>
<feBlend mode="normal" in2="BackgroundImageFix" result="effect1_dropShadow_5677_6700"/>
<feBlend mode="normal" in="SourceGraphic" in2="effect1_dropShadow_5677_6700" result="shape"/>
</filter>
<filter id="filter3_d_5677_6700" x="40.5496" y="98.0682" width="121.686" height="46.2602" filterUnits="userSpaceOnUse" color-interpolation-filters="sRGB">
<feFlood flood-opacity="0" result="BackgroundImageFix"/>
<feColorMatrix in="SourceAlpha" type="matrix" values="0 0 0 0 0 0 0 0 0 0 0 0 0 0 0 0 0 0 127 0" result="hardAlpha"/>
<feOffset dy="7"/>
<feGaussianBlur stdDeviation="10.15"/>
<feComposite in2="hardAlpha" operator="out"/>
<feColorMatrix type="matrix" values="0 0 0 0 0 0 0 0 0 0.47451 0 0 0 0 1 0 0 0 0.38 0"/>
<feBlend mode="normal" in2="BackgroundImageFix" result="effect1_dropShadow_5677_6700"/>
<feBlend mode="normal" in="SourceGraphic" in2="effect1_dropShadow_5677_6700" result="shape"/>
</filter>
<filter id="filter4_d_5677_6700" x="40.5496" y="122.22" width="121.685" height="46.2602" filterUnits="userSpaceOnUse" color-interpolation-filters="sRGB">
<feFlood flood-opacity="0" result="BackgroundImageFix"/>
<feColorMatrix in="SourceAlpha" type="matrix" values="0 0 0 0 0 0 0 0 0 0 0 0 0 0 0 0 0 0 127 0" result="hardAlpha"/>
<feOffset dy="7"/>
<feGaussianBlur stdDeviation="10.15"/>
<feComposite in2="hardAlpha" operator="out"/>
<feColorMatrix type="matrix" values="0 0 0 0 0 0 0 0 0 0.47451 0 0 0 0 1 0 0 0 0.38 0"/>
<feBlend mode="normal" in2="BackgroundImageFix" result="effect1_dropShadow_5677_6700"/>
<feBlend mode="normal" in="SourceGraphic" in2="effect1_dropShadow_5677_6700" result="shape"/>
</filter>
<filter id="filter5_d_5677_6700" x="5.36113" y="121.606" width="75.5531" height="44.3734" filterUnits="userSpaceOnUse" color-interpolation-filters="sRGB">
<feFlood flood-opacity="0" result="BackgroundImageFix"/>
<feColorMatrix in="SourceAlpha" type="matrix" values="0 0 0 0 0 0 0 0 0 0 0 0 0 0 0 0 0 0 127 0" result="hardAlpha"/>
<feOffset dy="7"/>
<feGaussianBlur stdDeviation="10.15"/>
<feComposite in2="hardAlpha" operator="out"/>
<feColorMatrix type="matrix" values="0 0 0 0 0 0 0 0 0 0.47451 0 0 0 0 1 0 0 0 0.38 0"/>
<feBlend mode="normal" in2="BackgroundImageFix" result="effect1_dropShadow_5677_6700"/>
<feBlend mode="normal" in="SourceGraphic" in2="effect1_dropShadow_5677_6700" result="shape"/>
</filter>
<filter id="filter6_d_5677_6700" x="5.59649" y="148.398" width="75.3168" height="44.2797" filterUnits="userSpaceOnUse" color-interpolation-filters="sRGB">
<feFlood flood-opacity="0" result="BackgroundImageFix"/>
<feColorMatrix in="SourceAlpha" type="matrix" values="0 0 0 0 0 0 0 0 0 0 0 0 0 0 0 0 0 0 127 0" result="hardAlpha"/>
<feOffset dy="7"/>
<feGaussianBlur stdDeviation="10.15"/>
<feComposite in2="hardAlpha" operator="out"/>
<feColorMatrix type="matrix" values="0 0 0 0 0 0 0 0 0 0.47451 0 0 0 0 1 0 0 0 0.38 0"/>
<feBlend mode="normal" in2="BackgroundImageFix" result="effect1_dropShadow_5677_6700"/>
<feBlend mode="normal" in="SourceGraphic" in2="effect1_dropShadow_5677_6700" result="shape"/>
</filter>
<filter id="filter7_d_5677_6700" x="5.59649" y="134.389" width="75.3168" height="44.2797" filterUnits="userSpaceOnUse" color-interpolation-filters="sRGB">
<feFlood flood-opacity="0" result="BackgroundImageFix"/>
<feColorMatrix in="SourceAlpha" type="matrix" values="0 0 0 0 0 0 0 0 0 0 0 0 0 0 0 0 0 0 127 0" result="hardAlpha"/>
<feOffset dy="7"/>
<feGaussianBlur stdDeviation="10.15"/>
<feComposite in2="hardAlpha" operator="out"/>
<feColorMatrix type="matrix" values="0 0 0 0 0 0 0 0 0 0.47451 0 0 0 0 1 0 0 0 0.38 0"/>
<feBlend mode="normal" in2="BackgroundImageFix" result="effect1_dropShadow_5677_6700"/>
<feBlend mode="normal" in="SourceGraphic" in2="effect1_dropShadow_5677_6700" result="shape"/>
</filter>
<filter id="filter8_d_5677_6700" x="5.83281" y="101.748" width="57.0619" height="50.5053" filterUnits="userSpaceOnUse" color-interpolation-filters="sRGB">
<feFlood flood-opacity="0" result="BackgroundImageFix"/>
<feColorMatrix in="SourceAlpha" type="matrix" values="0 0 0 0 0 0 0 0 0 0 0 0 0 0 0 0 0 0 127 0" result="hardAlpha"/>
<feOffset dy="7"/>
<feGaussianBlur stdDeviation="10.15"/>
<feComposite in2="hardAlpha" operator="out"/>
<feColorMatrix type="matrix" values="0 0 0 0 0 0 0 0 0 0.47451 0 0 0 0 1 0 0 0 0.38 0"/>
<feBlend mode="normal" in2="BackgroundImageFix" result="effect1_dropShadow_5677_6700"/>
<feBlend mode="normal" in="SourceGraphic" in2="effect1_dropShadow_5677_6700" result="shape"/>
</filter>
<filter id="filter9_d_5677_6700" x="126.352" y="4.60723" width="49.185" height="49.185" filterUnits="userSpaceOnUse" color-interpolation-filters="sRGB">
<feFlood flood-opacity="0" result="BackgroundImageFix"/>
<feColorMatrix in="SourceAlpha" type="matrix" values="0 0 0 0 0 0 0 0 0 0 0 0 0 0 0 0 0 0 127 0" result="hardAlpha"/>
<feOffset dy="7"/>
<feGaussianBlur stdDeviation="10.15"/>
<feComposite in2="hardAlpha" operator="out"/>
<feColorMatrix type="matrix" values="0 0 0 0 0 0 0 0 0 0.47451 0 0 0 0 1 0 0 0 0.38 0"/>
<feBlend mode="normal" in2="BackgroundImageFix" result="effect1_dropShadow_5677_6700"/>
<feBlend mode="normal" in="SourceGraphic" in2="effect1_dropShadow_5677_6700" result="shape"/>
</filter>
<filter id="filter10_d_5677_6700" x="141.729" y="4.60723" width="49.185" height="49.185" filterUnits="userSpaceOnUse" color-interpolation-filters="sRGB">
<feFlood flood-opacity="0" result="BackgroundImageFix"/>
<feColorMatrix in="SourceAlpha" type="matrix" values="0 0 0 0 0 0 0 0 0 0 0 0 0 0 0 0 0 0 127 0" result="hardAlpha"/>
<feOffset dy="7"/>
<feGaussianBlur stdDeviation="10.15"/>
<feComposite in2="hardAlpha" operator="out"/>
<feColorMatrix type="matrix" values="0 0 0 0 0 0 0 0 0 0.47451 0 0 0 0 1 0 0 0 0.38 0"/>
<feBlend mode="normal" in2="BackgroundImageFix" result="effect1_dropShadow_5677_6700"/>
<feBlend mode="normal" in="SourceGraphic" in2="effect1_dropShadow_5677_6700" result="shape"/>
</filter>
<filter id="filter11_d_5677_6700" x="157.107" y="4.60723" width="49.185" height="49.185" filterUnits="userSpaceOnUse" color-interpolation-filters="sRGB">
<feFlood flood-opacity="0" result="BackgroundImageFix"/>
<feColorMatrix in="SourceAlpha" type="matrix" values="0 0 0 0 0 0 0 0 0 0 0 0 0 0 0 0 0 0 127 0" result="hardAlpha"/>
<feOffset dy="7"/>
<feGaussianBlur stdDeviation="10.15"/>
<feComposite in2="hardAlpha" operator="out"/>
<feColorMatrix type="matrix" values="0 0 0 0 0 0 0 0 0 0.47451 0 0 0 0 1 0 0 0 0.38 0"/>
<feBlend mode="normal" in2="BackgroundImageFix" result="effect1_dropShadow_5677_6700"/>
<feBlend mode="normal" in="SourceGraphic" in2="effect1_dropShadow_5677_6700" result="shape"/>
</filter>
<filter id="filter12_d_5677_6700" x="128.238" y="124.342" width="82.2035" height="80.5053" filterUnits="userSpaceOnUse" color-interpolation-filters="sRGB">
<feFlood flood-opacity="0" result="BackgroundImageFix"/>
<feColorMatrix in="SourceAlpha" type="matrix" values="0 0 0 0 0 0 0 0 0 0 0 0 0 0 0 0 0 0 127 0" result="hardAlpha"/>
<feOffset dy="7"/>
<feGaussianBlur stdDeviation="10.15"/>
<feComposite in2="hardAlpha" operator="out"/>
<feColorMatrix type="matrix" values="0 0 0 0 0 0 0 0 0 0.47451 0 0 0 0 1 0 0 0 0.38 0"/>
<feBlend mode="normal" in2="BackgroundImageFix" result="effect1_dropShadow_5677_6700"/>
<feBlend mode="normal" in="SourceGraphic" in2="effect1_dropShadow_5677_6700" result="shape"/>
</filter>
<filter id="filter13_d_5677_6700" x="59.6063" y="58.9168" width="131.638" height="131.638" filterUnits="userSpaceOnUse" color-interpolation-filters="sRGB">
<feFlood flood-opacity="0" result="BackgroundImageFix"/>
<feColorMatrix in="SourceAlpha" type="matrix" values="0 0 0 0 0 0 0 0 0 0 0 0 0 0 0 0 0 0 127 0" result="hardAlpha"/>
<feOffset dy="7"/>
<feGaussianBlur stdDeviation="10.15"/>
<feComposite in2="hardAlpha" operator="out"/>
<feColorMatrix type="matrix" values="0 0 0 0 0 0 0 0 0 0.47451 0 0 0 0 1 0 0 0 0.38 0"/>
<feBlend mode="normal" in2="BackgroundImageFix" result="effect1_dropShadow_5677_6700"/>
<feBlend mode="normal" in="SourceGraphic" in2="effect1_dropShadow_5677_6700" result="shape"/>
</filter>
<filter id="filter14_d_5677_6700" x="66.1854" y="151.111" width="61.4965" height="61.4965" filterUnits="userSpaceOnUse" color-interpolation-filters="sRGB">
<feFlood flood-opacity="0" result="BackgroundImageFix"/>
<feColorMatrix in="SourceAlpha" type="matrix" values="0 0 0 0 0 0 0 0 0 0 0 0 0 0 0 0 0 0 127 0" result="hardAlpha"/>
<feOffset dy="7"/>
<feGaussianBlur stdDeviation="10.15"/>
<feComposite in2="hardAlpha" operator="out"/>
<feColorMatrix type="matrix" values="0 0 0 0 0 0 0 0 0 0.47451 0 0 0 0 1 0 0 0 0.38 0"/>
<feBlend mode="normal" in2="BackgroundImageFix" result="effect1_dropShadow_5677_6700"/>
<feBlend mode="normal" in="SourceGraphic" in2="effect1_dropShadow_5677_6700" result="shape"/>
</filter>
<filter id="filter15_d_5677_6700" x="-4.3" y="7.7" width="61.4965" height="61.4965" filterUnits="userSpaceOnUse" color-interpolation-filters="sRGB">
<feFlood flood-opacity="0" result="BackgroundImageFix"/>
<feColorMatrix in="SourceAlpha" type="matrix" values="0 0 0 0 0 0 0 0 0 0 0 0 0 0 0 0 0 0 127 0" result="hardAlpha"/>
<feOffset dy="7"/>
<feGaussianBlur stdDeviation="10.15"/>
<feComposite in2="hardAlpha" operator="out"/>
<feColorMatrix type="matrix" values="0 0 0 0 0 0 0 0 0 0.47451 0 0 0 0 1 0 0 0 0.38 0"/>
<feBlend mode="normal" in2="BackgroundImageFix" result="effect1_dropShadow_5677_6700"/>
<feBlend mode="normal" in="SourceGraphic" in2="effect1_dropShadow_5677_6700" result="shape"/>
</filter>
<filter id="filter16_d_5677_6700" x="159.284" y="80.9871" width="49.6508" height="49.7104" filterUnits="userSpaceOnUse" color-interpolation-filters="sRGB">
<feFlood flood-opacity="0" result="BackgroundImageFix"/>
<feColorMatrix in="SourceAlpha" type="matrix" values="0 0 0 0 0 0 0 0 0 0 0 0 0 0 0 0 0 0 127 0" result="hardAlpha"/>
<feOffset dy="7"/>
<feGaussianBlur stdDeviation="10.15"/>
<feComposite in2="hardAlpha" operator="out"/>
<feColorMatrix type="matrix" values="0 0 0 0 0 0 0 0 0 0.47451 0 0 0 0 1 0 0 0 0.38 0"/>
<feBlend mode="normal" in2="BackgroundImageFix" result="effect1_dropShadow_5677_6700"/>
<feBlend mode="normal" in="SourceGraphic" in2="effect1_dropShadow_5677_6700" result="shape"/>
</filter>
<filter id="filter17_d_5677_6700" x="0.26543" y="71.4734" width="49.7104" height="49.6508" filterUnits="userSpaceOnUse" color-interpolation-filters="sRGB">
<feFlood flood-opacity="0" result="BackgroundImageFix"/>
<feColorMatrix in="SourceAlpha" type="matrix" values="0 0 0 0 0 0 0 0 0 0 0 0 0 0 0 0 0 0 127 0" result="hardAlpha"/>
<feOffset dy="7"/>
<feGaussianBlur stdDeviation="10.15"/>
<feComposite in2="hardAlpha" operator="out"/>
<feColorMatrix type="matrix" values="0 0 0 0 0 0 0 0 0 0.47451 0 0 0 0 1 0 0 0 0.38 0"/>
<feBlend mode="normal" in2="BackgroundImageFix" result="effect1_dropShadow_5677_6700"/>
<feBlend mode="normal" in="SourceGraphic" in2="effect1_dropShadow_5677_6700" result="shape"/>
</filter>
<filter id="filter18_d_5677_6700" x="123.567" y="160.813" width="49.7104" height="49.6508" filterUnits="userSpaceOnUse" color-interpolation-filters="sRGB">
<feFlood flood-opacity="0" result="BackgroundImageFix"/>
<feColorMatrix in="SourceAlpha" type="matrix" values="0 0 0 0 0 0 0 0 0 0 0 0 0 0 0 0 0 0 127 0" result="hardAlpha"/>
<feOffset dy="7"/>
<feGaussianBlur stdDeviation="10.15"/>
<feComposite in2="hardAlpha" operator="out"/>
<feColorMatrix type="matrix" values="0 0 0 0 0 0 0 0 0 0.47451 0 0 0 0 1 0 0 0 0.38 0"/>
<feBlend mode="normal" in2="BackgroundImageFix" result="effect1_dropShadow_5677_6700"/>
<feBlend mode="normal" in="SourceGraphic" in2="effect1_dropShadow_5677_6700" result="shape"/>
</filter>
<filter id="filter19_d_5677_6700" x="158.945" y="152.172" width="55.7963" height="56.2211" filterUnits="userSpaceOnUse" color-interpolation-filters="sRGB">
<feFlood flood-opacity="0" result="BackgroundImageFix"/>
<feColorMatrix in="SourceAlpha" type="matrix" values="0 0 0 0 0 0 0 0 0 0 0 0 0 0 0 0 0 0 127 0" result="hardAlpha"/>
<feOffset dy="7"/>
<feGaussianBlur stdDeviation="10.15"/>
<feComposite in2="hardAlpha" operator="out"/>
<feColorMatrix type="matrix" values="0 0 0 0 0 0 0 0 0 0.47451 0 0 0 0 1 0 0 0 0.38 0"/>
<feBlend mode="normal" in2="BackgroundImageFix" result="effect1_dropShadow_5677_6700"/>
<feBlend mode="normal" in="SourceGraphic" in2="effect1_dropShadow_5677_6700" result="shape"/>
</filter>
<linearGradient id="paint0_linear_5677_6700" x1="138.694" y1="52.3121" x2="136.985" y2="34.6839" gradientUnits="userSpaceOnUse">
<stop stop-color="white" stop-opacity="0"/>
<stop offset="1" stop-color="white"/>
</linearGradient>
<linearGradient id="paint1_linear_5677_6700" x1="43.915" y1="57.204" x2="105.786" y2="176.639" gradientUnits="userSpaceOnUse">
<stop stop-color="white" stop-opacity="0.75"/>
<stop offset="1" stop-color="white" stop-opacity="0.64"/>
</linearGradient>
<linearGradient id="paint2_linear_5677_6700" x1="127.678" y1="68.7737" x2="126.98" y2="59.2926" gradientUnits="userSpaceOnUse">
<stop stop-color="white" stop-opacity="0"/>
<stop offset="1" stop-color="white"/>
</linearGradient>
<linearGradient id="paint3_linear_5677_6700" x1="127.678" y1="92.8782" x2="126.98" y2="83.3971" gradientUnits="userSpaceOnUse">
<stop stop-color="white" stop-opacity="0"/>
<stop offset="1" stop-color="white"/>
</linearGradient>
<linearGradient id="paint4_linear_5677_6700" x1="127.678" y1="117.029" x2="126.98" y2="107.548" gradientUnits="userSpaceOnUse">
<stop stop-color="white" stop-opacity="0"/>
<stop offset="1" stop-color="white"/>
</linearGradient>
<linearGradient id="paint5_linear_5677_6700" x1="127.677" y1="141.18" x2="126.979" y2="131.699" gradientUnits="userSpaceOnUse">
<stop stop-color="white" stop-opacity="0"/>
<stop offset="1" stop-color="white"/>
</linearGradient>
<linearGradient id="paint6_linear_5677_6700" x1="17.2178" y1="109.678" x2="66.806" y2="173.535" gradientUnits="userSpaceOnUse">
<stop stop-color="white" stop-opacity="0.75"/>
<stop offset="1" stop-color="white" stop-opacity="0.64"/>
</linearGradient>
<linearGradient id="paint7_linear_5677_6700" x1="140" y1="9.43238" x2="152.118" y2="47.4993" gradientUnits="userSpaceOnUse">
<stop stop-color="white" stop-opacity="0.75"/>
<stop offset="1" stop-color="white" stop-opacity="0.64"/>
</linearGradient>
<linearGradient id="paint8_linear_5677_6700" x1="54.4681" y1="138.68" x2="53.7535" y2="132.406" gradientUnits="userSpaceOnUse">
<stop stop-color="white" stop-opacity="0"/>
<stop offset="1" stop-color="white"/>
</linearGradient>
<linearGradient id="paint9_linear_5677_6700" x1="54.5091" y1="165.377" x2="53.8248" y2="159.258" gradientUnits="userSpaceOnUse">
<stop stop-color="white" stop-opacity="0"/>
<stop offset="1" stop-color="white"/>
</linearGradient>
<linearGradient id="paint10_linear_5677_6700" x1="54.5091" y1="151.369" x2="53.8248" y2="145.249" gradientUnits="userSpaceOnUse">
<stop stop-color="white" stop-opacity="0"/>
<stop offset="1" stop-color="white"/>
</linearGradient>
<linearGradient id="paint11_linear_5677_6700" x1="39.7005" y1="124.954" x2="32.1521" y2="113.064" gradientUnits="userSpaceOnUse">
<stop stop-color="white" stop-opacity="0"/>
<stop offset="1" stop-color="white"/>
</linearGradient>
<linearGradient id="paint12_linear_5677_6700" x1="153.728" y1="26.4921" x2="146.509" y2="19.6508" gradientUnits="userSpaceOnUse">
<stop stop-color="white" stop-opacity="0"/>
<stop offset="1" stop-color="white"/>
</linearGradient>
<linearGradient id="paint13_linear_5677_6700" x1="169.105" y1="26.4921" x2="161.886" y2="19.6508" gradientUnits="userSpaceOnUse">
<stop stop-color="white" stop-opacity="0"/>
<stop offset="1" stop-color="white"/>
</linearGradient>
<linearGradient id="paint14_linear_5677_6700" x1="184.483" y1="26.4921" x2="177.264" y2="19.6508" gradientUnits="userSpaceOnUse">
<stop stop-color="white" stop-opacity="0"/>
<stop offset="1" stop-color="white"/>
</linearGradient>
<linearGradient id="paint15_linear_5677_6700" x1="182.827" y1="177.547" x2="149.227" y2="144.348" gradientUnits="userSpaceOnUse">
<stop stop-color="white" stop-opacity="0"/>
<stop offset="1" stop-color="white"/>
</linearGradient>
<linearGradient id="paint16_linear_5677_6700" x1="154.937" y1="163.255" x2="78.3899" y2="90.7063" gradientUnits="userSpaceOnUse">
<stop stop-color="white" stop-opacity="0.2"/>
<stop offset="1" stop-color="white"/>
</linearGradient>
<linearGradient id="paint17_linear_5677_6700" x1="86.9346" y1="83.1001" x2="136.593" y2="168.345" gradientUnits="userSpaceOnUse">
<stop offset="0.131483" stop-color="white" stop-opacity="0.85"/>
<stop offset="1" stop-color="white" stop-opacity="0.64"/>
</linearGradient>
<linearGradient id="paint18_linear_5677_6700" x1="139.949" y1="138.821" x2="104.542" y2="105.449" gradientUnits="userSpaceOnUse">
<stop stop-color="white" stop-opacity="0"/>
<stop offset="1" stop-color="white"/>
</linearGradient>
<linearGradient id="paint19_linear_5677_6700" x1="103.707" y1="185.307" x2="86.1373" y2="168.655" gradientUnits="userSpaceOnUse">
<stop stop-color="white" stop-opacity="0"/>
<stop offset="1" stop-color="white"/>
</linearGradient>
<linearGradient id="paint20_linear_5677_6700" x1="33.222" y1="41.8962" x2="15.652" y2="25.244" gradientUnits="userSpaceOnUse">
<stop stop-color="white" stop-opacity="0"/>
<stop offset="1" stop-color="white"/>
</linearGradient>
<linearGradient id="paint21_linear_5677_6700" x1="102.181" y1="26.6513" x2="94.5659" y2="19.4341" gradientUnits="userSpaceOnUse">
<stop stop-color="white" stop-opacity="0"/>
<stop offset="1" stop-color="white"/>
</linearGradient>
<linearGradient id="paint22_linear_5677_6700" x1="187.043" y1="103.398" x2="179.386" y2="96.1878" gradientUnits="userSpaceOnUse">
<stop stop-color="white" stop-opacity="0"/>
<stop offset="1" stop-color="white"/>
</linearGradient>
<linearGradient id="paint23_linear_5677_6700" x1="28.0742" y1="93.8244" x2="20.4614" y2="86.5616" gradientUnits="userSpaceOnUse">
<stop stop-color="white" stop-opacity="0"/>
<stop offset="1" stop-color="white"/>
</linearGradient>
<linearGradient id="paint24_linear_5677_6700" x1="151.376" y1="183.164" x2="143.763" y2="175.901" gradientUnits="userSpaceOnUse">
<stop stop-color="white" stop-opacity="0"/>
<stop offset="1" stop-color="white"/>
</linearGradient>
<linearGradient id="paint25_linear_5677_6700" x1="188.549" y1="64.2929" x2="180.934" y2="57.0757" gradientUnits="userSpaceOnUse">
<stop stop-color="white" stop-opacity="0"/>
<stop offset="1" stop-color="white"/>
</linearGradient>
<linearGradient id="paint26_linear_5677_6700" x1="191.77" y1="181.093" x2="178.659" y2="169.005" gradientUnits="userSpaceOnUse">
<stop stop-color="white" stop-opacity="0"/>
<stop offset="1" stop-color="white"/>
</linearGradient>
<clipPath id="clip0_5677_6700">
<rect width="200" height="200" fill="white"/>
</clipPath>
</defs>
</svg>
