<svg width="24" height="24" viewBox="0 0 24 24" fill="none" xmlns="http://www.w3.org/2000/svg">
<g id="date">
<path id="Subtract" fill-rule="evenodd" clip-rule="evenodd" d="M22 12V14C22 17.7712 22 19.6569 20.8288 20.8284C19.6575 22 17.7724 22 14.0023 22H10.0034C6.2332 22 4.34812 22 3.17687 20.8284C2.00563 19.6569 2.00563 17.7712 2.00563 14V12C2.00563 11.6997 2.00401 11.4435 2.00251 11.2076C1.99983 10.7845 1.99757 10.4272 2.00585 10H21.9744C21.9762 10.0935 21.978 10.1837 21.9798 10.2719C21.9906 10.8114 22 11.2789 22 12ZM16.5 18C17.3284 18 18 17.3284 18 16.5C18 15.6716 17.3284 15 16.5 15C15.6716 15 15 15.6716 15 16.5C15 17.3284 15.6716 18 16.5 18Z" fill="#212121" fill-opacity="0.35"/>
<path id="Vector" d="M6.96006 2C7.37758 2 7.71605 2.30996 7.71605 2.69231V4.08883C8.38663 4.07692 9.13829 4.07692 9.98402 4.07692H14.016C14.8617 4.07692 15.6134 4.07692 16.284 4.08883V2.69231C16.284 2.30996 16.6224 2 17.0399 2C17.4575 2 17.7959 2.30996 17.7959 2.69231V4.15008C19.2468 4.25647 20.1992 4.51758 20.899 5.15838C21.5987 5.79917 21.8838 6.67139 22 8V9H2V8C2.11618 6.67139 2.4013 5.79917 3.10104 5.15838C3.80079 4.51758 4.75323 4.25647 6.20406 4.15008V2.69231C6.20406 2.30996 6.54253 2 6.96006 2Z" fill="#212121" fill-opacity="0.35"/>
</g>
</svg>
