<svg width="200" height="200" viewBox="0 0 200 200" fill="none" xmlns="http://www.w3.org/2000/svg">
<g clip-path="url(#clip0_5668_8461)">
<g clip-path="url(#clip1_5668_8461)">
<path opacity="0.06" d="M94.5408 184.176C142.286 184.176 180.964 145.475 180.964 97.7537C180.964 50.0324 142.262 11.3311 94.5408 11.3311C46.8195 11.3311 8.11816 50.0324 8.11816 97.7537C8.11816 145.475 46.7958 184.176 94.5408 184.176Z" fill="#0079FF"/>
<path d="M161.413 46.2549H51.6133V100.423H161.389V46.2549H161.413Z" fill="#0079FF"/>
<path d="M161.413 46.2549H51.6133V100.423H161.389V46.2549H161.413Z" fill="url(#paint0_linear_5668_8461)"/>
<g filter="url(#filter0_d_5668_8461)">
<path d="M161.412 46.2549H172.439C179.618 46.2549 186.513 49.112 191.589 54.1888C196.666 59.2655 199.5 66.1604 199.5 73.3387C199.5 80.517 196.643 87.4119 191.566 92.4887C186.489 97.5654 179.594 100.423 172.416 100.423H161.389V46.2549H161.412Z" fill="#0079FF"/>
<path d="M161.412 46.2549H172.439C179.618 46.2549 186.513 49.112 191.589 54.1888C196.666 59.2655 199.5 66.1604 199.5 73.3387C199.5 80.517 196.643 87.4119 191.566 92.4887C186.489 97.5654 179.594 100.423 172.416 100.423H161.389V46.2549H161.412Z" fill="url(#paint1_linear_5668_8461)"/>
</g>
<path d="M168.52 54.2119H174.824C179.665 54.2119 184.316 56.1482 187.74 59.572C191.164 62.9959 193.1 67.6476 193.1 72.4882V74.1647C193.1 79.0053 191.164 83.657 187.74 87.0809C184.316 90.5047 179.665 92.441 174.824 92.441H168.52V54.2119Z" fill="#0079FF"/>
<path d="M168.52 54.2119H174.824C179.665 54.2119 184.316 56.1482 187.74 59.572C191.164 62.9959 193.1 67.6476 193.1 72.4882V74.1647C193.1 79.0053 191.164 83.657 187.74 87.0809C184.316 90.5047 179.665 92.441 174.824 92.441H168.52V54.2119Z" fill="url(#paint2_linear_5668_8461)"/>
<g opacity="0.8">
<path d="M161.412 55.3457H60.8457V100.422H161.412V55.3457Z" fill="#0079FF"/>
<path d="M161.412 55.3457H60.8457V100.422H161.412V55.3457Z" fill="url(#paint3_linear_5668_8461)"/>
</g>
<path d="M66.1581 109.442H25.3789V161.65H66.1581V109.442Z" fill="#0079FF"/>
<path d="M66.1581 109.442H25.3789V161.65H66.1581V109.442Z" fill="url(#paint4_linear_5668_8461)"/>
<path d="M116.241 109.442H75.4619V161.65H116.241V109.442Z" fill="#0079FF"/>
<path d="M116.241 109.442H75.4619V161.65H116.241V109.442Z" fill="url(#paint5_linear_5668_8461)"/>
<path d="M152.015 109.442H125.545V161.65H152.015V109.442Z" fill="#0079FF"/>
<path d="M152.015 109.442H125.545V161.65H152.015V109.442Z" fill="url(#paint6_linear_5668_8461)"/>
<path d="M161.412 46.2549H152.038V100.423H161.412V46.2549Z" fill="#0079FF"/>
<path d="M161.412 46.2549H152.038V100.423H161.412V46.2549Z" fill="url(#paint7_linear_5668_8461)"/>
<path d="M75.4616 100.139H66.1582V170.953H75.4616V100.139Z" fill="#0079FF"/>
<path d="M75.4616 100.139H66.1582V170.953H75.4616V100.139Z" fill="url(#paint8_linear_5668_8461)"/>
<g filter="url(#filter1_d_5668_8461)">
<path fill-rule="evenodd" clip-rule="evenodd" d="M19.6651 100.139H25.7808V170.953H19.6651C17.6817 170.953 16.0996 169.348 16.0996 167.388V103.728C16.0996 101.744 17.7053 100.139 19.6651 100.139ZM120.515 109.442V100.139H25.7808V109.442H120.515ZM120.515 170.953V161.65H25.7808V170.953H120.515Z" fill="#0079FF"/>
<path fill-rule="evenodd" clip-rule="evenodd" d="M19.6651 100.139H25.7808V170.953H19.6651C17.6817 170.953 16.0996 169.348 16.0996 167.388V103.728C16.0996 101.744 17.7053 100.139 19.6651 100.139ZM120.515 109.442V100.139H25.7808V109.442H120.515ZM120.515 170.953V161.65H25.7808V170.953H120.515Z" fill="url(#paint9_linear_5668_8461)" fill-opacity="0.6"/>
</g>
<g filter="url(#filter2_d_5668_8461)">
<path fill-rule="evenodd" clip-rule="evenodd" d="M125.521 100.139H119.807C117.823 100.139 116.241 101.744 116.241 103.704V170.953H125.545H152.015H157.729C159.712 170.953 161.294 169.348 161.294 167.388V100.139H151.991H125.521ZM151.991 109.442H125.545V161.65H152.015V109.442H151.991Z" fill="#0079FF"/>
<path fill-rule="evenodd" clip-rule="evenodd" d="M125.521 100.139H119.807C117.823 100.139 116.241 101.744 116.241 103.704V170.953H125.545H152.015H157.729C159.712 170.953 161.294 169.348 161.294 167.388V100.139H151.991H125.521ZM151.991 109.442H125.545V161.65H152.015V109.442H151.991Z" fill="url(#paint10_linear_5668_8461)" fill-opacity="0.6"/>
</g>
<path d="M58.9805 100.54V100.634V103.846V127.317H84.6003C85.0017 127.317 85.3087 126.986 85.3087 126.609V103.846V101.248C85.3087 100.847 84.9781 100.54 84.6003 100.54H58.9805Z" fill="#0079FF"/>
<path d="M58.9805 100.54V100.634V103.846V127.317H84.6003C85.0017 127.317 85.3087 126.986 85.3087 126.609V103.846V101.248C85.3087 100.847 84.9781 100.54 84.6003 100.54H58.9805Z" fill="black" fill-opacity="0.2"/>
<path d="M57.4222 100.54C57.0208 100.54 56.7139 100.871 56.7139 101.248V126.609C56.7139 127.01 57.0444 127.317 57.4222 127.317H83.0421V100.54H57.4222Z" fill="#0079FF"/>
<path d="M57.4222 100.54C57.0208 100.54 56.7139 100.871 56.7139 101.248V126.609C56.7139 127.01 57.0444 127.317 57.4222 127.317H83.0421V100.54H57.4222Z" fill="url(#paint11_linear_5668_8461)"/>
<path d="M78.6497 103.114H61.1054C60.3262 103.114 59.665 103.752 59.665 104.555V123.138C59.665 123.917 60.3026 124.578 61.1054 124.578H78.6497C79.4289 124.578 80.0901 123.941 80.0901 123.138V104.555C80.0901 103.752 79.4525 103.114 78.6497 103.114Z" fill="#0079FF"/>
<path d="M78.6497 103.114H61.1054C60.3262 103.114 59.665 103.752 59.665 104.555V123.138C59.665 123.917 60.3026 124.578 61.1054 124.578H78.6497C79.4289 124.578 80.0901 123.941 80.0901 123.138V104.555C80.0901 103.752 79.4525 103.114 78.6497 103.114Z" fill="url(#paint12_linear_5668_8461)"/>
<g opacity="0.95">
<path d="M10.3613 82.4054L20.2787 106.75C20.4204 107.081 20.6093 107.388 20.869 107.647C21.1287 107.907 21.4121 108.096 21.7663 108.238C22.0969 108.379 22.4511 108.45 22.8052 108.45C23.1594 108.45 23.5136 108.379 23.8442 108.238L46.0402 99.2177C46.725 98.9343 47.2444 98.4148 47.5278 97.73C47.8111 97.0689 47.8111 96.3133 47.5514 95.6285L36.0992 67.5293C35.8159 66.8682 35.2964 66.3251 34.6352 66.0417C33.9741 65.7584 33.2185 65.7584 32.5337 66.0181L14.0921 73.5034L10.3613 82.4054Z" fill="#0079FF"/>
<path d="M10.3613 82.4054L20.2787 106.75C20.4204 107.081 20.6093 107.388 20.869 107.647C21.1287 107.907 21.4121 108.096 21.7663 108.238C22.0969 108.379 22.4511 108.45 22.8052 108.45C23.1594 108.45 23.5136 108.379 23.8442 108.238L46.0402 99.2177C46.725 98.9343 47.2444 98.4148 47.5278 97.73C47.8111 97.0689 47.8111 96.3133 47.5514 95.6285L36.0992 67.5293C35.8159 66.8682 35.2964 66.3251 34.6352 66.0417C33.9741 65.7584 33.2185 65.7584 32.5337 66.0181L14.0921 73.5034L10.3613 82.4054Z" fill="url(#paint13_linear_5668_8461)"/>
</g>
<g opacity="0.95">
<path d="M167.197 68.0961L157.304 92.4409C157.162 92.7715 156.973 93.0784 156.713 93.3382C156.453 93.5979 156.17 93.7868 155.816 93.9285C155.485 94.0702 155.131 94.141 154.777 94.141C154.423 94.141 154.069 94.0702 153.738 93.9285L131.542 84.9084C130.857 84.6251 130.338 84.1056 130.054 83.4208C129.771 82.7597 129.771 82.0041 130.031 81.3193L141.483 53.1729C141.766 52.4881 142.286 51.9686 142.947 51.6853C143.608 51.4019 144.364 51.4019 145.049 51.6617L163.49 59.1469L167.197 68.0961Z" fill="#0079FF"/>
<path d="M167.197 68.0961L157.304 92.4409C157.162 92.7715 156.973 93.0784 156.713 93.3382C156.453 93.5979 156.17 93.7868 155.816 93.9285C155.485 94.0702 155.131 94.141 154.777 94.141C154.423 94.141 154.069 94.0702 153.738 93.9285L131.542 84.9084C130.857 84.6251 130.338 84.1056 130.054 83.4208C129.771 82.7597 129.771 82.0041 130.031 81.3193L141.483 53.1729C141.766 52.4881 142.286 51.9686 142.947 51.6853C143.608 51.4019 144.364 51.4019 145.049 51.6617L163.49 59.1469L167.197 68.0961Z" fill="url(#paint14_linear_5668_8461)"/>
</g>
<g opacity="0.95">
<path d="M10.3613 82.4057L16.6659 79.8556L14.0921 73.5273L10.3613 82.4057Z" fill="#0079FF"/>
<path d="M10.3613 82.4057L16.6659 79.8556L14.0921 73.5273L10.3613 82.4057Z" fill="url(#paint15_linear_5668_8461)"/>
</g>
<g opacity="0.95">
<path d="M167.197 68.0962L160.893 65.546L163.466 59.2178L167.197 68.0962Z" fill="#0079FF"/>
<path d="M167.197 68.0962L160.893 65.546L163.466 59.2178L167.197 68.0962Z" fill="url(#paint16_linear_5668_8461)"/>
</g>
<path d="M72.5578 114.732C73.3606 114.165 73.9745 113.339 74.3051 112.418C74.6121 111.473 74.6357 110.458 74.3287 109.513C74.0218 108.569 73.4315 107.742 72.6286 107.152C71.8258 106.562 70.8577 106.255 69.8659 106.255C68.8742 106.255 67.9061 106.562 67.1032 107.152C66.3004 107.742 65.7101 108.569 65.4031 109.513C65.0962 110.458 65.1198 111.473 65.4267 112.418C65.7337 113.362 66.3476 114.165 67.1741 114.732L65.167 121.627H74.5413L72.5578 114.732Z" fill="white" fill-opacity="0.42"/>
<g opacity="0.95">
<path d="M130.29 42.358C130.29 43.3733 130.149 44.365 129.842 45.3096C129.37 46.8444 128.519 48.2375 127.362 49.3709C127.032 49.7015 126.678 50.0321 126.276 50.3155C126.017 50.5044 125.757 50.6933 125.473 50.8585C125.19 51.0238 124.907 51.1891 124.623 51.3072C124.198 51.5197 123.75 51.7086 123.277 51.8503C122.309 52.1573 121.318 52.2989 120.326 52.2989H118.508V100.256H66.8193V41.319C66.8193 38.9577 67.7638 36.6909 69.4404 35.038C71.1169 33.3615 73.3601 32.4406 75.7213 32.417H120.326C121.577 32.417 122.805 32.6531 123.962 33.1018C124.293 33.2198 124.6 33.3615 124.907 33.5268C125.048 33.5976 125.214 33.6921 125.355 33.7865C125.473 33.8574 125.591 33.9282 125.71 33.999C126.323 34.3768 126.867 34.8255 127.386 35.3214C128.071 36.0061 128.638 36.7617 129.086 37.6118C129.393 38.1785 129.653 38.7688 129.842 39.3828L129.983 39.855C130.054 40.1856 130.125 40.4926 130.172 40.8231C130.243 41.3426 130.29 41.8385 130.29 42.358Z" fill="#0079FF"/>
<path d="M130.29 42.358C130.29 43.3733 130.149 44.365 129.842 45.3096C129.37 46.8444 128.519 48.2375 127.362 49.3709C127.032 49.7015 126.678 50.0321 126.276 50.3155C126.017 50.5044 125.757 50.6933 125.473 50.8585C125.19 51.0238 124.907 51.1891 124.623 51.3072C124.198 51.5197 123.75 51.7086 123.277 51.8503C122.309 52.1573 121.318 52.2989 120.326 52.2989H118.508V100.256H66.8193V41.319C66.8193 38.9577 67.7638 36.6909 69.4404 35.038C71.1169 33.3615 73.3601 32.4406 75.7213 32.417H120.326C121.577 32.417 122.805 32.6531 123.962 33.1018C124.293 33.2198 124.6 33.3615 124.907 33.5268C125.048 33.5976 125.214 33.6921 125.355 33.7865C125.473 33.8574 125.591 33.9282 125.71 33.999C126.323 34.3768 126.867 34.8255 127.386 35.3214C128.071 36.0061 128.638 36.7617 129.086 37.6118C129.393 38.1785 129.653 38.7688 129.842 39.3828L129.983 39.855C130.054 40.1856 130.125 40.4926 130.172 40.8231C130.243 41.3426 130.29 41.8385 130.29 42.358Z" fill="url(#paint17_linear_5668_8461)"/>
</g>
<g opacity="0.95">
<path d="M130.291 42.3587C130.291 43.3741 130.149 44.3658 129.842 45.3103C129.653 45.9243 129.393 46.5146 129.086 47.0813C128.614 47.9313 128.047 48.687 127.363 49.3717C127.032 49.7023 126.678 50.0329 126.276 50.3162C126.017 50.5051 125.757 50.6704 125.474 50.8593C125.19 51.0246 124.907 51.1899 124.624 51.308C124.198 51.5205 123.75 51.7094 123.278 51.8511C122.309 52.158 121.318 52.2997 120.326 52.2997H118.508V41.3198C118.508 39.5724 119.027 37.8487 120.019 36.3847C120.987 34.9207 122.38 33.7873 124.01 33.1025C124.34 33.2206 124.647 33.3623 124.954 33.5276C125.096 33.5984 125.261 33.6929 125.403 33.7873C125.521 33.8581 125.639 33.929 125.757 33.9998C126.371 34.3776 126.914 34.8263 127.433 35.3221C128.118 36.0069 128.685 36.7625 129.134 37.6126C129.441 38.1793 129.7 38.7696 129.889 39.3835L130.031 39.8558C130.125 40.1864 130.173 40.4933 130.22 40.8239C130.267 41.3434 130.291 41.8393 130.291 42.3587Z" fill="#0079FF"/>
<path d="M130.291 42.3587C130.291 43.3741 130.149 44.3658 129.842 45.3103C129.653 45.9243 129.393 46.5146 129.086 47.0813C128.614 47.9313 128.047 48.687 127.363 49.3717C127.032 49.7023 126.678 50.0329 126.276 50.3162C126.017 50.5051 125.757 50.6704 125.474 50.8593C125.19 51.0246 124.907 51.1899 124.624 51.308C124.198 51.5205 123.75 51.7094 123.278 51.8511C122.309 52.158 121.318 52.2997 120.326 52.2997H118.508V41.3198C118.508 39.5724 119.027 37.8487 120.019 36.3847C120.987 34.9207 122.38 33.7873 124.01 33.1025C124.34 33.2206 124.647 33.3623 124.954 33.5276C125.096 33.5984 125.261 33.6929 125.403 33.7873C125.521 33.8581 125.639 33.929 125.757 33.9998C126.371 34.3776 126.914 34.8263 127.433 35.3221C128.118 36.0069 128.685 36.7625 129.134 37.6126C129.441 38.1793 129.7 38.7696 129.889 39.3835L130.031 39.8558C130.125 40.1864 130.173 40.4933 130.22 40.8239C130.267 41.3434 130.291 41.8393 130.291 42.3587Z" fill="url(#paint18_linear_5668_8461)"/>
</g>
<path opacity="0.35" d="M108.189 82.7832H75.5562C75.0131 82.7832 74.5645 83.2318 74.5645 83.7749C74.5645 84.318 75.0131 84.7667 75.5562 84.7667H108.189C108.732 84.7667 109.181 84.318 109.181 83.7749C109.181 83.2318 108.732 82.7832 108.189 82.7832Z" fill="#0079FF"/>
<path opacity="0.35" d="M108.189 72.6768H75.5562C75.0131 72.6768 74.5645 73.1254 74.5645 73.6685C74.5645 74.2116 75.0131 74.6602 75.5562 74.6602H108.189C108.732 74.6602 109.181 74.2116 109.181 73.6685C109.181 73.1254 108.732 72.6768 108.189 72.6768Z" fill="#0079FF"/>
<path opacity="0.35" d="M108.19 62.5713H87.1743C86.6313 62.5713 86.1826 63.0199 86.1826 63.563C86.1826 64.1061 86.6313 64.5548 87.1743 64.5548H108.19C108.733 64.5548 109.181 64.1061 109.181 63.563C109.181 62.9963 108.733 62.5713 108.19 62.5713Z" fill="#0079FF"/>
<path opacity="0.35" d="M94.3992 52.4414H75.3201C74.895 52.4414 74.5645 52.772 74.5645 53.197V53.6457C74.5645 54.0707 74.895 54.4013 75.3201 54.4013H94.3992C94.8242 54.4013 95.1548 54.0707 95.1548 53.6457V53.197C95.1548 52.772 94.8242 52.4414 94.3992 52.4414Z" fill="#0079FF"/>
<path opacity="0.35" d="M82.5692 62.5713H75.5562C75.0131 62.5713 74.5645 63.0199 74.5645 63.563C74.5645 64.1061 75.0131 64.5548 75.5562 64.5548H82.5692C83.1123 64.5548 83.5609 64.1061 83.5609 63.563C83.5609 62.9963 83.1123 62.5713 82.5692 62.5713Z" fill="#0079FF"/>
<path d="M25.7568 109.442H28.9682V161.65H25.7568V109.442Z" fill="#0079FF"/>
<path d="M25.7568 109.442H28.9682V161.65H25.7568V109.442Z" fill="url(#paint19_linear_5668_8461)"/>
<path d="M75.4619 127.341H78.3191V161.674H75.4619V127.341Z" fill="#0079FF"/>
<path d="M75.4619 127.341H78.3191V161.674H75.4619V127.341Z" fill="url(#paint20_linear_5668_8461)"/>
<path d="M125.545 109.442H128.756V161.65H125.545V109.442Z" fill="#0079FF"/>
<path d="M125.545 109.442H128.756V161.65H125.545V109.442Z" fill="url(#paint21_linear_5668_8461)"/>
<path d="M12.0854 52.4652C12.6285 56.4322 14.1397 60.2102 16.5246 63.4216C18.9095 66.6329 22.0736 69.2067 25.71 70.8596C29.3464 72.5361 33.3605 73.2445 37.3511 72.9375C41.3416 72.6305 45.1905 71.3318 48.5435 69.1358L57.6817 72.2527C57.965 72.3472 58.2484 72.3472 58.5317 72.2763C58.8151 72.2055 59.0748 72.0638 59.2637 71.8513C59.4526 71.6388 59.5943 71.3791 59.6415 71.0957C59.6887 70.8123 59.6651 70.5054 59.5471 70.2456L55.8871 61.5089C57.8233 58.274 58.9804 54.5904 59.2165 50.8123C59.4526 47.0343 58.7915 43.2563 57.2802 39.7852C55.769 36.3141 53.4314 33.2681 50.4798 30.8832C47.5282 28.4983 44.0571 26.869 40.3499 26.0898C36.6427 25.3342 32.7938 25.4522 29.1575 26.4676C25.5211 27.4829 22.1681 29.372 19.4054 31.9458C16.6427 34.5195 14.5176 37.7309 13.2425 41.2964C11.991 44.9092 11.5896 48.7344 12.0854 52.4652Z" fill="#212121"/>
<path d="M12.0854 52.4652C12.6285 56.4322 14.1397 60.2102 16.5246 63.4216C18.9095 66.6329 22.0736 69.2067 25.71 70.8596C29.3464 72.5361 33.3605 73.2445 37.3511 72.9375C41.3416 72.6305 45.1905 71.3318 48.5435 69.1358L57.6817 72.2527C57.965 72.3472 58.2484 72.3472 58.5317 72.2763C58.8151 72.2055 59.0748 72.0638 59.2637 71.8513C59.4526 71.6388 59.5943 71.3791 59.6415 71.0957C59.6887 70.8123 59.6651 70.5054 59.5471 70.2456L55.8871 61.5089C57.8233 58.274 58.9804 54.5904 59.2165 50.8123C59.4526 47.0343 58.7915 43.2563 57.2802 39.7852C55.769 36.3141 53.4314 33.2681 50.4798 30.8832C47.5282 28.4983 44.0571 26.869 40.3499 26.0898C36.6427 25.3342 32.7938 25.4522 29.1575 26.4676C25.5211 27.4829 22.1681 29.372 19.4054 31.9458C16.6427 34.5195 14.5176 37.7309 13.2425 41.2964C11.991 44.9092 11.5896 48.7344 12.0854 52.4652Z" fill="url(#paint22_linear_5668_8461)" fill-opacity="0.3"/>
<g filter="url(#filter3_d_5668_8461)">
<path d="M34.9664 61.4609C37.5402 61.4609 39.382 59.6899 39.382 57.2342C39.382 54.7549 37.5402 53.0075 34.9664 53.0075C32.4398 53.0075 30.5508 54.7785 30.5508 57.2342C30.5508 59.6899 32.4162 61.4609 34.9664 61.4609ZM38.4847 52.2991C38.4847 49.9615 39.8306 49.135 41.6488 48.285C44.0809 47.1516 45.8755 44.8611 45.8755 42.0512C45.8755 37.612 41.5071 34.4951 35.5803 34.4951C29.2285 34.4951 24.7657 38.0606 24.3643 43.0193L32.4634 44.5069C32.6759 42.5707 33.6913 41.2011 35.1317 41.2011C36.2179 41.2011 37.0443 41.9331 37.0443 42.9721C37.0443 44.1763 35.8401 44.9083 34.8955 45.475C32.3454 47.1279 31.4009 48.9697 31.4009 52.3227H38.4847V52.2991Z" fill="white"/>
</g>
<path opacity="0.5" d="M153.455 35.4868C153.455 37.4702 151.849 39.0995 149.842 39.0995C147.859 39.0995 146.229 37.4939 146.229 35.4868C146.229 33.5033 147.835 31.874 149.842 31.874C151.849 31.8976 153.455 33.5033 153.455 35.4868Z" stroke="#212121" stroke-width="1.92243"/>
<path opacity="0.2" d="M128.756 183.043C130.752 183.043 132.369 181.425 132.369 179.43C132.369 177.435 130.752 175.817 128.756 175.817C126.761 175.817 125.144 177.435 125.144 179.43C125.144 181.425 126.761 183.043 128.756 183.043Z" stroke="#212121" stroke-width="1.92243"/>
<g opacity="0.8">
<path d="M7.38643 132.819C8.37816 132.654 9.18099 133.645 8.8268 134.59L6.39469 140.965C6.0405 141.91 4.78902 142.099 4.15148 141.32L-0.169655 136.007C-0.807199 135.227 -0.358557 134.047 0.633179 133.882L7.38643 132.819Z" fill="#0079FF"/>
<path d="M7.38643 132.819C8.37816 132.654 9.18099 133.645 8.8268 134.59L6.39469 140.965C6.0405 141.91 4.78902 142.099 4.15148 141.32L-0.169655 136.007C-0.807199 135.227 -0.358557 134.047 0.633179 133.882L7.38643 132.819Z" fill="url(#paint23_linear_5668_8461)" fill-opacity="0.6"/>
</g>
<path d="M173.88 127.365C173.621 126.397 174.542 125.499 175.51 125.783L182.074 127.624C183.042 127.908 183.349 129.112 182.641 129.82L177.753 134.59C177.021 135.299 175.817 134.944 175.557 133.976L173.88 127.365Z" fill="#0079FF"/>
<path d="M173.88 127.365C173.621 126.397 174.542 125.499 175.51 125.783L182.074 127.624C183.042 127.908 183.349 129.112 182.641 129.82L177.753 134.59C177.021 135.299 175.817 134.944 175.557 133.976L173.88 127.365Z" fill="url(#paint24_linear_5668_8461)" fill-opacity="0.6"/>
<g opacity="0.4">
<path d="M86.3708 7.10464C86.7486 5.49897 89.0391 5.49897 89.4405 7.10464L90.7392 12.512C90.8809 13.0787 91.3295 13.5273 91.8962 13.669L97.3035 14.9677C98.9092 15.3455 98.9092 17.6359 97.3035 18.0373L91.9198 19.3597C91.3531 19.5013 90.9045 19.95 90.7628 20.5167L89.4641 25.924C89.0863 27.5297 86.7959 27.5297 86.3944 25.924L85.0957 20.5167C84.9541 19.95 84.5054 19.5013 83.9387 19.3597L78.5314 18.061C76.9257 17.6832 76.9257 15.3927 78.5314 14.9913L83.9387 13.6926C84.5054 13.5509 84.9541 13.1023 85.0957 12.5356L86.3708 7.10464Z" fill="#0079FF"/>
<path d="M86.3708 7.10464C86.7486 5.49897 89.0391 5.49897 89.4405 7.10464L90.7392 12.512C90.8809 13.0787 91.3295 13.5273 91.8962 13.669L97.3035 14.9677C98.9092 15.3455 98.9092 17.6359 97.3035 18.0373L91.9198 19.3597C91.3531 19.5013 90.9045 19.95 90.7628 20.5167L89.4641 25.924C89.0863 27.5297 86.7959 27.5297 86.3944 25.924L85.0957 20.5167C84.9541 19.95 84.5054 19.5013 83.9387 19.3597L78.5314 18.061C76.9257 17.6832 76.9257 15.3927 78.5314 14.9913L83.9387 13.6926C84.5054 13.5509 84.9541 13.1023 85.0957 12.5356L86.3708 7.10464Z" fill="url(#paint25_linear_5668_8461)" fill-opacity="0.6"/>
</g>
<g opacity="0.4">
<path d="M46.4423 174.401C46.8201 172.795 49.1105 172.795 49.512 174.401L50.8107 179.808C50.9523 180.375 51.401 180.823 51.9677 180.965L57.375 182.264C58.9807 182.641 58.9807 184.932 57.375 185.333L51.9677 186.632C51.401 186.774 50.9523 187.222 50.8107 187.789L49.512 193.196C49.1341 194.802 46.8437 194.802 46.4423 193.196L45.1436 187.789C45.0019 187.222 44.5533 186.774 43.9866 186.632L38.5793 185.333C36.9736 184.955 36.9736 182.665 38.5793 182.264L43.9866 180.965C44.5533 180.823 45.0019 180.375 45.1436 179.808L46.4423 174.401Z" fill="#0079FF"/>
<path d="M46.4423 174.401C46.8201 172.795 49.1105 172.795 49.512 174.401L50.8107 179.808C50.9523 180.375 51.401 180.823 51.9677 180.965L57.375 182.264C58.9807 182.641 58.9807 184.932 57.375 185.333L51.9677 186.632C51.401 186.774 50.9523 187.222 50.8107 187.789L49.512 193.196C49.1341 194.802 46.8437 194.802 46.4423 193.196L45.1436 187.789C45.0019 187.222 44.5533 186.774 43.9866 186.632L38.5793 185.333C36.9736 184.955 36.9736 182.665 38.5793 182.264L43.9866 180.965C44.5533 180.823 45.0019 180.375 45.1436 179.808L46.4423 174.401Z" fill="url(#paint26_linear_5668_8461)" fill-opacity="0.6"/>
</g>
</g>
</g>
<defs>
<filter id="filter0_d_5668_8461" x="131.089" y="32.9549" width="78.7113" height="94.768" filterUnits="userSpaceOnUse" color-interpolation-filters="sRGB">
<feFlood flood-opacity="0" result="BackgroundImageFix"/>
<feColorMatrix in="SourceAlpha" type="matrix" values="0 0 0 0 0 0 0 0 0 0 0 0 0 0 0 0 0 0 127 0" result="hardAlpha"/>
<feOffset dx="-10" dy="7"/>
<feGaussianBlur stdDeviation="10.15"/>
<feComposite in2="hardAlpha" operator="out"/>
<feColorMatrix type="matrix" values="0 0 0 0 0 0 0 0 0 0.47451 0 0 0 0 1 0 0 0 0.38 0"/>
<feBlend mode="normal" in2="BackgroundImageFix" result="effect1_dropShadow_5668_8461"/>
<feBlend mode="normal" in="SourceGraphic" in2="effect1_dropShadow_5668_8461" result="shape"/>
</filter>
<filter id="filter1_d_5668_8461" x="-4.20039" y="86.8387" width="145.016" height="111.414" filterUnits="userSpaceOnUse" color-interpolation-filters="sRGB">
<feFlood flood-opacity="0" result="BackgroundImageFix"/>
<feColorMatrix in="SourceAlpha" type="matrix" values="0 0 0 0 0 0 0 0 0 0 0 0 0 0 0 0 0 0 127 0" result="hardAlpha"/>
<feOffset dy="7"/>
<feGaussianBlur stdDeviation="10.15"/>
<feComposite in2="hardAlpha" operator="out"/>
<feColorMatrix type="matrix" values="0 0 0 0 0 0 0 0 0 0.47451 0 0 0 0 1 0 0 0 0.38 0"/>
<feBlend mode="normal" in2="BackgroundImageFix" result="effect1_dropShadow_5668_8461"/>
<feBlend mode="normal" in="SourceGraphic" in2="effect1_dropShadow_5668_8461" result="shape"/>
</filter>
<filter id="filter2_d_5668_8461" x="95.9412" y="86.8387" width="85.6527" height="111.414" filterUnits="userSpaceOnUse" color-interpolation-filters="sRGB">
<feFlood flood-opacity="0" result="BackgroundImageFix"/>
<feColorMatrix in="SourceAlpha" type="matrix" values="0 0 0 0 0 0 0 0 0 0 0 0 0 0 0 0 0 0 127 0" result="hardAlpha"/>
<feOffset dy="7"/>
<feGaussianBlur stdDeviation="10.15"/>
<feComposite in2="hardAlpha" operator="out"/>
<feColorMatrix type="matrix" values="0 0 0 0 0 0 0 0 0 0.47451 0 0 0 0 1 0 0 0 0.38 0"/>
<feBlend mode="normal" in2="BackgroundImageFix" result="effect1_dropShadow_5668_8461"/>
<feBlend mode="normal" in="SourceGraphic" in2="effect1_dropShadow_5668_8461" result="shape"/>
</filter>
<filter id="filter3_d_5668_8461" x="11.5643" y="25.6951" width="47.1107" height="52.5658" filterUnits="userSpaceOnUse" color-interpolation-filters="sRGB">
<feFlood flood-opacity="0" result="BackgroundImageFix"/>
<feColorMatrix in="SourceAlpha" type="matrix" values="0 0 0 0 0 0 0 0 0 0 0 0 0 0 0 0 0 0 127 0" result="hardAlpha"/>
<feOffset dy="4"/>
<feGaussianBlur stdDeviation="6.4"/>
<feComposite in2="hardAlpha" operator="out"/>
<feColorMatrix type="matrix" values="0 0 0 0 0 0 0 0 0 0 0 0 0 0 0 0 0 0 0.42 0"/>
<feBlend mode="normal" in2="BackgroundImageFix" result="effect1_dropShadow_5668_8461"/>
<feBlend mode="normal" in="SourceGraphic" in2="effect1_dropShadow_5668_8461" result="shape"/>
</filter>
<linearGradient id="paint0_linear_5668_8461" x1="106.513" y1="46.2549" x2="106.513" y2="100.423" gradientUnits="userSpaceOnUse">
<stop stop-color="white" stop-opacity="0.7"/>
<stop offset="1" stop-color="white" stop-opacity="0"/>
</linearGradient>
<linearGradient id="paint1_linear_5668_8461" x1="180.444" y1="46.2549" x2="180.444" y2="100.423" gradientUnits="userSpaceOnUse">
<stop stop-color="white" stop-opacity="0.7"/>
<stop offset="1" stop-color="white" stop-opacity="0"/>
</linearGradient>
<linearGradient id="paint2_linear_5668_8461" x1="168.52" y1="56.386" x2="198.549" y2="84.4339" gradientUnits="userSpaceOnUse">
<stop stop-color="white" stop-opacity="0.65"/>
<stop offset="1" stop-color="white" stop-opacity="0.9"/>
</linearGradient>
<linearGradient id="paint3_linear_5668_8461" x1="60.8457" y1="57.6271" x2="77.1681" y2="120.138" gradientUnits="userSpaceOnUse">
<stop stop-color="white" stop-opacity="0.75"/>
<stop offset="1" stop-color="white" stop-opacity="0.64"/>
</linearGradient>
<linearGradient id="paint4_linear_5668_8461" x1="25.3789" y1="112.411" x2="66.1581" y2="158.681" gradientUnits="userSpaceOnUse">
<stop stop-color="white" stop-opacity="0.65"/>
<stop offset="1" stop-color="white" stop-opacity="0.9"/>
</linearGradient>
<linearGradient id="paint5_linear_5668_8461" x1="75.4619" y1="112.411" x2="116.241" y2="158.681" gradientUnits="userSpaceOnUse">
<stop stop-color="white" stop-opacity="0.65"/>
<stop offset="1" stop-color="white" stop-opacity="0.9"/>
</linearGradient>
<linearGradient id="paint6_linear_5668_8461" x1="125.545" y1="112.411" x2="164.8" y2="141.322" gradientUnits="userSpaceOnUse">
<stop stop-color="white" stop-opacity="0.65"/>
<stop offset="1" stop-color="white" stop-opacity="0.9"/>
</linearGradient>
<linearGradient id="paint7_linear_5668_8461" x1="156.725" y1="46.2549" x2="156.725" y2="100.423" gradientUnits="userSpaceOnUse">
<stop stop-color="white" stop-opacity="0.7"/>
<stop offset="1" stop-color="white" stop-opacity="0"/>
</linearGradient>
<linearGradient id="paint8_linear_5668_8461" x1="70.8099" y1="100.139" x2="70.8099" y2="170.953" gradientUnits="userSpaceOnUse">
<stop stop-color="white" stop-opacity="0.7"/>
<stop offset="1" stop-color="white" stop-opacity="0"/>
</linearGradient>
<linearGradient id="paint9_linear_5668_8461" x1="102.156" y1="170.953" x2="11.195" y2="82.0162" gradientUnits="userSpaceOnUse">
<stop stop-color="white" stop-opacity="0"/>
<stop offset="1" stop-color="white"/>
</linearGradient>
<linearGradient id="paint10_linear_5668_8461" x1="116.241" y1="165.014" x2="135.731" y2="24.0805" gradientUnits="userSpaceOnUse">
<stop stop-color="white" stop-opacity="0"/>
<stop offset="1" stop-color="white"/>
</linearGradient>
<linearGradient id="paint11_linear_5668_8461" x1="115.5" y1="83.5" x2="69.878" y2="127.317" gradientUnits="userSpaceOnUse">
<stop stop-color="white" stop-opacity="0.7"/>
<stop offset="1" stop-color="white" stop-opacity="0"/>
</linearGradient>
<linearGradient id="paint12_linear_5668_8461" x1="88.5" y1="91" x2="69.8776" y2="124.578" gradientUnits="userSpaceOnUse">
<stop stop-color="white" stop-opacity="0.7"/>
<stop offset="1" stop-color="white" stop-opacity="0"/>
</linearGradient>
<linearGradient id="paint13_linear_5668_8461" x1="10.3613" y1="77.6978" x2="47.7434" y2="96.5786" gradientUnits="userSpaceOnUse">
<stop stop-color="white"/>
<stop offset="1" stop-color="white" stop-opacity="0.8"/>
</linearGradient>
<linearGradient id="paint14_linear_5668_8461" x1="167" y1="65.5" x2="130.5" y2="81.5" gradientUnits="userSpaceOnUse">
<stop stop-color="white"/>
<stop offset="0.963559" stop-color="white" stop-opacity="0.8"/>
</linearGradient>
<linearGradient id="paint15_linear_5668_8461" x1="15.999" y1="79.5" x2="10.3613" y2="75.8324" gradientUnits="userSpaceOnUse">
<stop stop-color="white" stop-opacity="0.8"/>
<stop offset="1" stop-color="white"/>
</linearGradient>
<linearGradient id="paint16_linear_5668_8461" x1="166.53" y1="65.1904" x2="160.893" y2="61.5228" gradientUnits="userSpaceOnUse">
<stop stop-color="white" stop-opacity="0.8"/>
<stop offset="1" stop-color="white"/>
</linearGradient>
<linearGradient id="paint17_linear_5668_8461" x1="98.5549" y1="32.417" x2="98.5549" y2="100.256" gradientUnits="userSpaceOnUse">
<stop stop-color="white"/>
<stop offset="1" stop-color="white" stop-opacity="0.8"/>
</linearGradient>
<linearGradient id="paint18_linear_5668_8461" x1="124.399" y1="33.1025" x2="124.399" y2="52.2997" gradientUnits="userSpaceOnUse">
<stop stop-color="white" stop-opacity="0.8"/>
<stop offset="1" stop-color="white"/>
</linearGradient>
<linearGradient id="paint19_linear_5668_8461" x1="20.5" y1="85.5" x2="27.2068" y2="161.65" gradientUnits="userSpaceOnUse">
<stop stop-color="white" stop-opacity="0.7"/>
<stop offset="1" stop-color="white" stop-opacity="0"/>
</linearGradient>
<linearGradient id="paint20_linear_5668_8461" x1="70.7849" y1="111.596" x2="74.0564" y2="161.849" gradientUnits="userSpaceOnUse">
<stop stop-color="white" stop-opacity="0.7"/>
<stop offset="1" stop-color="white" stop-opacity="0"/>
</linearGradient>
<linearGradient id="paint21_linear_5668_8461" x1="120.288" y1="85.5" x2="126.995" y2="161.65" gradientUnits="userSpaceOnUse">
<stop stop-color="white" stop-opacity="0.7"/>
<stop offset="1" stop-color="white" stop-opacity="0"/>
</linearGradient>
<linearGradient id="paint22_linear_5668_8461" x1="40.006" y1="69.6476" x2="30.0135" y2="31.233" gradientUnits="userSpaceOnUse">
<stop stop-color="white" stop-opacity="0"/>
<stop offset="1" stop-color="white"/>
</linearGradient>
<linearGradient id="paint23_linear_5668_8461" x1="7.26305" y1="141.805" x2="-0.317984" y2="134.321" gradientUnits="userSpaceOnUse">
<stop stop-color="white" stop-opacity="0"/>
<stop offset="1" stop-color="white"/>
</linearGradient>
<linearGradient id="paint24_linear_5668_8461" x1="181.412" y1="134.963" x2="173.65" y2="127.64" gradientUnits="userSpaceOnUse">
<stop stop-color="white" stop-opacity="0"/>
<stop offset="1" stop-color="white"/>
</linearGradient>
<linearGradient id="paint25_linear_5668_8461" x1="94.7835" y1="27.1283" x2="76.9368" y2="10.2514" gradientUnits="userSpaceOnUse">
<stop stop-color="white" stop-opacity="0"/>
<stop offset="1" stop-color="white"/>
</linearGradient>
<linearGradient id="paint26_linear_5668_8461" x1="54.8508" y1="194.401" x2="37.0218" y2="177.503" gradientUnits="userSpaceOnUse">
<stop stop-color="white" stop-opacity="0"/>
<stop offset="1" stop-color="white"/>
</linearGradient>
<clipPath id="clip0_5668_8461">
<rect width="200" height="200" fill="white"/>
</clipPath>
<clipPath id="clip1_5668_8461">
<rect width="200" height="188.501" fill="white" transform="translate(-0.5 5.89941)"/>
</clipPath>
</defs>
</svg>
