<svg xmlns="http://www.w3.org/2000/svg" xmlns:xlink="http://www.w3.org/1999/xlink" width="305.129" height="305.129" viewBox="0 0 305.129 305.129">
  <defs>
    <linearGradient id="linear-gradient" x1="-1.785" y1="1.358" x2="-1.784" y2="1.358" gradientUnits="objectBoundingBox">
      <stop offset="0" stop-color="#e2e8fa"/>
      <stop offset="1" stop-color="#b9d3fa"/>
    </linearGradient>
    <linearGradient id="linear-gradient-2" x1="-1.951" y1="1.379" x2="-1.95" y2="1.379" gradientUnits="objectBoundingBox">
      <stop offset="0" stop-color="#d0dbf6"/>
      <stop offset="1" stop-color="#a6c2eb"/>
    </linearGradient>
    <linearGradient id="linear-gradient-3" x1="0.5" x2="0.5" y2="1" gradientUnits="objectBoundingBox">
      <stop offset="0" stop-color="#259ffc"/>
      <stop offset="1" stop-color="#143486"/>
    </linearGradient>
  </defs>
  <g id="Registration" transform="translate(-33.436 -141.436)">
    <g id="Group_2081" data-name="Group 2081" transform="translate(33.093 141.093)">
      <path id="Path_12175" data-name="Path 12175" d="M305.129,152.564A152.564,152.564,0,1,1,152.564,0,152.564,152.564,0,0,1,305.129,152.564" transform="translate(0.343 0.343)" fill="#f4f4f7"/>
    </g>
    <g id="waiting" transform="translate(-976.617 -521.938)">
      <g id="Front" transform="translate(1040.335 720.1)">
        <g id="Group_2082" data-name="Group 2082" transform="translate(99.917 0)">
          <path id="Path_12176" data-name="Path 12176" d="M2067.524,724.9a4.8,4.8,0,0,0-4.8-4.8H1952.2a4.8,4.8,0,0,0-4.8,4.8V900.269a4.8,4.8,0,0,0,4.8,4.8H2062.71a4.8,4.8,0,0,0,4.8-4.8V724.9Z" transform="translate(-1947.4 -720.1)" fill-rule="evenodd" fill="url(#linear-gradient)"/>
          <path id="Path_12177" data-name="Path 12177" d="M1947.4,814.3V984.092a4.8,4.8,0,0,0,4.8,4.8h105.066V819.114a4.8,4.8,0,0,0-4.8-4.8L1947.4,814.3Z" transform="translate(-1947.4 -803.923)" fill-rule="evenodd" fill="url(#linear-gradient-2)"/>
        </g>
        <g id="Group_2083" data-name="Group 2083" transform="translate(102.746 13.681)">
          <path id="Path_12178" data-name="Path 12178" d="M1925.482,848.747a4.3,4.3,0,0,0-4.137-4.448h-95.207a4.3,4.3,0,0,0-4.137,4.448v162.4a4.3,4.3,0,0,0,4.137,4.447h95.2a4.3,4.3,0,0,0,4.137-4.447v-162.4Z" transform="translate(-1822 -844.3)" fill="#f2f5fd" fill-rule="evenodd"/>
          <path id="Path_12179" data-name="Path 12179" d="M2014.611,1114.7a.877.877,0,0,0-.826-.915h-76.658a.877.877,0,0,0-.827.915v2.743a.877.877,0,0,0,.827.915h76.658a.877.877,0,0,0,.826-.915Zm0-12.511a.877.877,0,0,0-.826-.915h-76.658a.877.877,0,0,0-.827.915v2.743a.877.877,0,0,0,.827.914h76.658a.877.877,0,0,0,.826-.914Zm0-12.521a.877.877,0,0,0-.826-.915h-76.658a.877.877,0,0,0-.827.915v2.743a.877.877,0,0,0,.827.915h76.658a.877.877,0,0,0,.826-.915Zm0-12.511a.877.877,0,0,0-.826-.915h-76.658a.877.877,0,0,0-.827.915v2.743a.877.877,0,0,0,.827.915h76.658a.877.877,0,0,0,.826-.915Zm0-12.521a.877.877,0,0,0-.826-.914h-76.658a.877.877,0,0,0-.827.914v2.744a.877.877,0,0,0,.827.914h76.658a.877.877,0,0,0,.826-.914Zm0-12.521a.877.877,0,0,0-.826-.915h-76.658a.877.877,0,0,0-.827.915v2.743a.877.877,0,0,0,.827.915h76.658a.877.877,0,0,0,.826-.915Zm0-12.511a.877.877,0,0,0-.826-.914h-76.658a.877.877,0,0,0-.827.914v2.743a.877.877,0,0,0,.827.914h76.658a.877.877,0,0,0,.826-.914Zm0-12.521a.877.877,0,0,0-.826-.915h-76.658a.877.877,0,0,0-.827.915v2.743a.877.877,0,0,0,.827.915h76.658a.877.877,0,0,0,.826-.915Zm0-12.511a.877.877,0,0,0-.826-.915h-76.658a.877.877,0,0,0-.827.915v2.743a.877.877,0,0,0,.827.914h76.658a.877.877,0,0,0,.826-.914Zm0-12.521a.877.877,0,0,0-.826-.914h-76.658a.877.877,0,0,0-.827.914v2.743a.877.877,0,0,0,.827.914h76.658a.877.877,0,0,0,.826-.914Zm0-12.511a.877.877,0,0,0-.826-.915h-76.658a.877.877,0,0,0-.827.915v2.743a.877.877,0,0,0,.827.914h76.658a.877.877,0,0,0,.826-.914Zm0-12.521a.877.877,0,0,0-.826-.914h-76.658a.877.877,0,0,0-.827.914v2.743a.877.877,0,0,0,.827.914h76.658a.877.877,0,0,0,.826-.914Z" transform="translate(-1923.71 -961.582)" fill="#c3d6f2" fill-rule="evenodd"/>
        </g>
        <g id="Group_2084" data-name="Group 2084" transform="translate(0 33.268)">
          <path id="Path_12180" data-name="Path 12180" d="M1138.346,1097.357a49.28,49.28,0,1,1,5.6,7.4l-92.992,72.448a6.639,6.639,0,0,1-9.385-1.245h0a6.116,6.116,0,0,1,1.267-8.614l95.515-69.992Z" transform="translate(-1040.335 -1022.112)" stroke="rgba(0,0,0,0)" stroke-width="1" fill-rule="evenodd" fill="url(#linear-gradient-3)"/>
          <path id="Path_12181" data-name="Path 12181" d="M2017.246,1119.426a40.359,40.359,0,1,1-56.52-7.942,40.376,40.376,0,0,1,56.52,7.942Z" transform="translate(-1845.046 -1094.411)" fill="#ecf7ff" fill-rule="evenodd"/>
        </g>
      </g>
      <path id="Path_12182" data-name="Path 12182" d="M2626.915,891.058l-1.377-5.442-3.117.793a11.739,11.739,0,0,0-1.8-2.456l1.664-2.8-4.814-2.875-1.609,2.688a11.261,11.261,0,0,0-3.5-.551l-.815-3.217-5.442,1.377.815,3.217a11.412,11.412,0,0,0-2.644,1.972l-2.534-1.509-2.874,4.814,2.533,1.509a11.527,11.527,0,0,0-.484,3.261l-3.117.793,1.377,5.442,3.117-.793a11.535,11.535,0,0,0,2.148,2.82l-1.608,2.688,4.814,2.875,1.663-2.8a11.475,11.475,0,0,0,3.019.407l.815,3.216,5.441-1.377-.815-3.217a11.423,11.423,0,0,0,2.644-1.972l2.952,1.762,2.875-4.814-2.952-1.763a11.5,11.5,0,0,0,.484-3.26Zm-12.977,5.662c-6.4,2.027-9.506-7.656-3.151-9.749C2617.188,884.933,2620.294,894.615,2613.938,896.72Z" transform="translate(-1385.903 -139.795)" fill="#007aff" opacity="0.21"/>
      <path id="Path_12183" data-name="Path 12183" d="M1852.233,2260.768l-.077-1.994-1.762.066a11.3,11.3,0,0,0-1.211-3.932l1.5-.937-1.057-1.7-1.5.937a11.774,11.774,0,0,0-3.018-2.8l.826-1.564-1.762-.936-.826,1.564a11.64,11.64,0,0,0-4.01-.914l-.066-1.763-1.994.077.066,1.762a11.291,11.291,0,0,0-3.932,1.212l-.937-1.5-1.7,1.058.937,1.5a11.779,11.779,0,0,0-2.8,3.019l-1.564-.827-.936,1.763,1.564.826a11.663,11.663,0,0,0-.914,4.01l-1.762.066.077,1.993,1.762-.066a11.307,11.307,0,0,0,1.211,3.933l-1.5.936,1.058,1.7,1.5-.937a11.764,11.764,0,0,0,3.018,2.8l-.826,1.564,1.762.937.826-1.564a11.651,11.651,0,0,0,4.01.914l.066,1.762,1.994-.077-.066-1.762a11.287,11.287,0,0,0,3.932-1.212l.937,1.5,1.7-1.058-.937-1.5a11.77,11.77,0,0,0,2.8-3.018l1.564.826.936-1.762-1.564-.826a11.666,11.666,0,0,0,.914-4.01Zm-13.208,7.1c-10.024.2-10.564-14.706-.551-15.234C1848.488,2252.44,1849.039,2267.344,1839.026,2267.873Z" transform="translate(-698.498 -1358.527)" fill="#343f53" opacity="0.63"/>
      <g id="Group_2085" data-name="Group 2085" transform="translate(1147.787 766.947)">
        <path id="Path_12184" data-name="Path 12184" d="M2185.083,1313.2a4.542,4.542,0,0,0,3.327-3.129l1.685-4.957.672.232a.6.6,0,0,0,.76-.375l.9-2.655a.6.6,0,0,0-.374-.76l-21.833-7.424a.6.6,0,0,0-.76.374l-.9,2.655a.6.6,0,0,0,.375.76l.672.231-1.718,5.045c-.8,2.379-.275,3.183.738,4.406l4.417,5.287-.5,1.443c-1.685.363-6.1,1.333-6.7,1.5a4.541,4.541,0,0,0-3.327,3.128l-1.454,4.263-.672-.232a.6.6,0,0,0-.76.375l-.9,2.655a.6.6,0,0,0,.374.76l21.833,7.425a.6.6,0,0,0,.76-.375l.9-2.655a.6.6,0,0,0-.375-.76l-.672-.231,1.476-4.351c.815-2.379.275-3.184-.738-4.4l-4.417-5.287.5-1.443C2180.071,1314.336,2184.488,1313.378,2185.083,1313.2Zm-9.22,3.866,4.8,5.75a2.913,2.913,0,0,1,.616.9,3,3,0,0,1-.265,1.432l-1.476,4.351-16.413-5.585,1.454-4.263a2.441,2.441,0,0,1,1.9-1.763c.474-.132,4.538-1.025,7.149-1.6a1.07,1.07,0,0,0,.793-.7l.881-2.589a1.1,1.1,0,0,0-.187-1.036l-4.792-5.739-.011-.022a2.9,2.9,0,0,1-.617-.9,2.989,2.989,0,0,1,.264-1.432l1.719-5.045,16.413,5.585-1.685,4.957a2.441,2.441,0,0,1-1.9,1.763c-.474.132-4.538,1.024-7.149,1.6a1.069,1.069,0,0,0-.793.7l-.882,2.589A1.054,1.054,0,0,0,2175.863,1317.068Z" transform="translate(-2142.96 -1277.719)" fill="#007aff"/>
        <path id="Path_12185" data-name="Path 12185" d="M2280.068,1412.84c.98-.121,6.918-1.344,6.918-1.344s.474-.2-.121-.3c-1.4-.231-4,.331-6.852-.407s-3.437-3.25-5.288-3.426c-.408-.033-.463.121-.11.529s3.569,3.955,4.009,4.45A1.342,1.342,0,0,0,2280.068,1412.84Z" transform="translate(-2245.898 -1378.503)" fill="#007aff"/>
        <path id="Path_12186" data-name="Path 12186" d="M2221.713,1552.288c-.617.275-.936.506.132.87.87.3,9.617,3.272,10.729,3.646s.8-.143.452-.815a8.512,8.512,0,0,0-4.671-4.219A9.232,9.232,0,0,0,2221.713,1552.288Z" transform="translate(-2198.525 -1506.639)" fill="#007aff"/>
        <path id="Path_12187" data-name="Path 12187" d="M2312.48,1465.392c-.155-.055-.319.066-.385.253a.334.334,0,0,0,.154.44c.154.055.32-.066.385-.253A.344.344,0,0,0,2312.48,1465.392Z" transform="translate(-2279.433 -1430.13)" fill="#007aff"/>
        <path id="Path_12188" data-name="Path 12188" d="M2308.179,1478.092c-.154-.055-.319.066-.385.253a.334.334,0,0,0,.154.441c.155.055.32-.066.385-.254A.356.356,0,0,0,2308.179,1478.092Z" transform="translate(-2275.606 -1441.431)" fill="#007aff"/>
        <path id="Path_12189" data-name="Path 12189" d="M2303.548,1491.486c.154.055.32-.066.386-.253a.334.334,0,0,0-.154-.44c-.154-.055-.32.066-.386.253A.326.326,0,0,0,2303.548,1491.486Z" transform="translate(-2271.691 -1452.732)" fill="#007aff"/>
        <path id="Path_12190" data-name="Path 12190" d="M2299.248,1504.286c.154.055.32-.066.385-.253a.334.334,0,0,0-.154-.441c-.154-.055-.32.066-.385.253A.335.335,0,0,0,2299.248,1504.286Z" transform="translate(-2267.865 -1464.122)" fill="#007aff"/>
        <path id="Path_12191" data-name="Path 12191" d="M2294.9,1516.986c.154.055.319-.066.386-.253a.334.334,0,0,0-.155-.44c-.154-.055-.319.066-.385.253A.355.355,0,0,0,2294.9,1516.986Z" transform="translate(-2264 -1475.424)" fill="#007aff"/>
        <path id="Path_12192" data-name="Path 12192" d="M2290.561,1529.686c.154.055.319-.066.386-.254a.335.335,0,0,0-.155-.441c-.155-.055-.32.066-.385.253A.34.34,0,0,0,2290.561,1529.686Z" transform="translate(-2260.136 -1486.724)" fill="#007aff"/>
        <path id="Path_12193" data-name="Path 12193" d="M2286.248,1542.386c.154.055.32-.066.385-.253a.334.334,0,0,0-.154-.44c-.155-.055-.32.066-.385.253A.327.327,0,0,0,2286.248,1542.386Z" transform="translate(-2256.298 -1498.026)" fill="#007aff"/>
        <path id="Path_12194" data-name="Path 12194" d="M2061.668,1205.181c-.485.276-.969.529-1.465.771a2.46,2.46,0,0,0-.232.132,2.157,2.157,0,0,0-.231.1,26.841,26.841,0,0,1-6.686,2.115c-.033,0-.055.011-.088.011-.54.1-1.1.176-1.641.243h-.022a27.884,27.884,0,0,1-3.052.165,27.269,27.269,0,0,1-25.677-18.164c-.055-.165-.11-.319-.165-.484a27.216,27.216,0,0,1,0-17.162c.022-.055.033-.121.055-.177.055-.154.11-.319.165-.473.022-.077.055-.144.077-.221a27.353,27.353,0,0,1,18.991-16.975h.022l.4-.1c.011,0,.033-.011.044-.011a27.139,27.139,0,0,1,5.948-.683l.022,2.8c.011.87.551,1.124,1.223.562l5.915-5.012a1.277,1.277,0,0,0-.022-2.027l-5.993-4.913c-.672-.551-1.212-.286-1.212.584l.022,2.8a32.248,32.248,0,0,0-22.758,9.5c-.594.595-1.167,1.223-1.718,1.85l-.011.011a.3.3,0,0,0-.055.066,32.137,32.137,0,0,0-7.7,20.048c0,.055-.011.11-.011.176-.011.253-.011.5-.011.749,0,.408.011.826.022,1.234,0,.044.011.1.011.143a32.131,32.131,0,0,0,6.719,18.473.2.2,0,0,0,.044.055c.4.518.826,1.035,1.256,1.52l.088.088c.441.5.892.98,1.366,1.454a32.221,32.221,0,0,0,17.46,9.044.482.482,0,0,1,.055.011.067.067,0,0,1,.044.011,33.364,33.364,0,0,0,5.364.441,32.194,32.194,0,0,0,13.692-3.018c.088-.044.177-.088.264-.143a3.087,3.087,0,0,0,.286-.121q.892-.43,1.751-.926a2.6,2.6,0,0,0,.981-3.558A2.571,2.571,0,0,0,2061.668,1205.181Z" transform="translate(-2015.799 -1145.388)" fill="#007aff"/>
        <path id="Path_12195" data-name="Path 12195" d="M2503.4,1290.534a2.608,2.608,0,1,0,4.33-2.908c-.364-.551-.749-1.091-1.156-1.608a2.609,2.609,0,1,0-4.142,3.172C2502.764,1289.62,2503.094,1290.071,2503.4,1290.534Z" transform="translate(-2448.347 -1269.615)" fill="#007aff"/>
        <path id="Path_12196" data-name="Path 12196" d="M2544.681,1369.952c.165.529.319,1.057.463,1.6a2.607,2.607,0,0,0,2.522,1.96,2.675,2.675,0,0,0,.65-.077,2.607,2.607,0,0,0,1.884-3.172c-.166-.639-.342-1.278-.551-1.894a2.608,2.608,0,0,0-4.968,1.586Z" transform="translate(-2486.309 -1342.192)" fill="#007aff"/>
        <path id="Path_12197" data-name="Path 12197" d="M2485.807,1627.339a2.6,2.6,0,0,0-3.679.265q-.545.628-1.123,1.223a2.606,2.606,0,0,0,3.723,3.646c.462-.474.9-.958,1.333-1.454A2.6,2.6,0,0,0,2485.807,1627.339Z" transform="translate(-2429.099 -1573.682)" fill="#007aff"/>
        <path id="Path_12198" data-name="Path 12198" d="M2559.2,1457.69a2.61,2.61,0,0,0-2.688,2.533c-.011.551-.055,1.113-.1,1.652a2.6,2.6,0,0,0,2.358,2.831,1.811,1.811,0,0,0,.242.011,2.617,2.617,0,0,0,2.6-2.368c.054-.65.1-1.322.121-1.983A2.607,2.607,0,0,0,2559.2,1457.69Z" transform="translate(-2496.849 -1423.288)" fill="#007aff"/>
        <path id="Path_12199" data-name="Path 12199" d="M2536.779,1548.028a2.605,2.605,0,0,0-3.382,1.476c-.2.518-.418,1.025-.65,1.531a2.606,2.606,0,0,0,1.267,3.459,2.571,2.571,0,0,0,1.091.242,2.618,2.618,0,0,0,2.368-1.509c.275-.595.54-1.212.782-1.818A2.6,2.6,0,0,0,2536.779,1548.028Z" transform="translate(-2475.587 -1503.513)" fill="#007aff"/>
        <path id="Path_12200" data-name="Path 12200" d="M2440.578,1227.676a2.605,2.605,0,0,0-.54-3.646c-.529-.385-1.08-.771-1.619-1.124a2.611,2.611,0,0,0-2.854,4.373c.463.3.925.617,1.366.948a2.615,2.615,0,0,0,1.553.507A2.589,2.589,0,0,0,2440.578,1227.676Z" transform="translate(-2388.277 -1213.993)" fill="#007aff"/>
      </g>
    </g>
  </g>
</svg>
