<svg width="25" height="24" viewBox="0 0 25 24" fill="none" xmlns="http://www.w3.org/2000/svg">
<g clip-path="url(#clip0_297_11370)">
<path d="M20.4435 16.1258L16.9345 12.0262C16.5432 11.5688 16.5986 10.8837 17.0584 10.4958L20.823 7.31594C21.2824 6.9276 21.8519 6.65676 22.0944 6.71159C22.3368 6.76544 22.8726 6.45939 23.2913 6.02746L24.1356 5.15623C24.5543 4.72431 24.6161 4.03127 24.2732 3.61015C23.9304 3.18804 23.2428 3.11115 22.7379 3.43772L21.7232 4.09394C21.2178 4.4206 20.8078 4.86964 20.8078 5.09744C20.8078 5.32515 20.4356 5.82424 19.9762 6.21304L16.1587 9.44576C15.6993 9.8341 15.0097 9.77927 14.6184 9.32186L13.4822 7.99467C13.0909 7.53726 13.0252 6.81442 13.3029 6.35845C13.5802 5.90249 14.0517 5.07925 14.0532 4.47742C14.0547 3.75458 13.7168 2.71335 12.2799 1.54048C10.7115 0.258846 9.31135 0.0242912 8.40528 0.0566157C7.8039 0.0776852 7.64714 0.625221 8.03017 1.08947L9.94506 3.40981C10.328 3.87406 10.3158 4.61653 9.9176 5.06808L9.876 5.11563C9.47829 5.56664 8.73978 6.1872 8.22655 6.50207L8.20692 6.51386C7.69369 6.82828 6.95464 6.71708 6.55648 6.26607L4.56532 4.01074C4.16717 3.55973 3.60198 3.62825 3.48691 4.21891C3.34636 4.9369 3.32727 6.00009 3.86013 7.30325C4.08784 7.86006 4.57811 8.71022 4.95718 9.17744C5.68984 10.0805 6.40782 10.4037 6.96607 10.4914C7.56016 10.5849 8.41176 10.2593 8.86277 10.0771C9.31432 9.89497 9.97594 10.1031 10.354 10.5717L11.4858 11.9748C11.8635 12.443 11.9403 13.0175 11.6573 13.2569C11.3742 13.4969 10.833 13.3157 10.4486 12.8529L10.3966 12.7902C10.0127 12.3274 9.57877 11.9518 9.42841 11.9518C9.27804 11.9518 9.16783 12.4395 9.1826 13.0414L9.19043 13.3794C9.20511 13.9813 8.7423 14.3803 8.15758 14.2717C7.57231 14.163 6.72116 14.3843 6.25646 14.7662L1.34188 18.7997C0.877089 19.1817 0.5 19.8233 0.5 20.2327C0.5 20.6426 0.804607 21.3551 1.18071 21.8253L2.11902 22.9983C2.49512 23.4684 3.12495 23.8901 3.52599 23.94C3.92712 23.991 4.62691 23.7191 5.08972 23.3342L10.013 19.2347C10.4753 18.8498 10.8696 18.0505 10.8931 17.4491L10.8985 17.312C10.922 16.71 11.4171 16.3291 12.0048 16.4598L12.0568 16.4706C12.6445 16.6014 13.1205 16.5652 13.1205 16.3899C13.1205 16.2145 12.8752 15.7757 12.5715 15.4104C12.2684 15.0456 12.2493 14.5583 12.5284 14.3222C12.8075 14.0861 13.3404 14.2742 13.7185 14.7424L16.9977 18.8087C17.3754 19.2769 17.6437 19.82 17.6206 20.0252C17.607 20.1481 17.5996 20.2726 17.5996 20.3989C17.5996 22.305 19.1442 23.8491 21.0497 23.8491C22.9553 23.8491 24.4999 22.305 24.4999 20.3989C24.4999 18.9038 23.5484 17.6334 22.2177 17.1554C21.6522 16.9514 20.8348 16.5832 20.4435 16.1258ZM21.0498 22.2602C20.0218 22.2602 19.1889 21.4267 19.1889 20.3987C19.1889 19.3707 20.0219 18.5372 21.0498 18.5372C22.0783 18.5372 22.9113 19.3707 22.9113 20.3987C22.9112 21.4267 22.0783 22.2602 21.0498 22.2602Z" fill="#212121"/>
</g>
<defs>
<clipPath id="clip0_297_11370">
<rect width="25" height="24" fill="white"/>
</clipPath>
</defs>
</svg>
