<svg width="330" height="214" viewBox="0 0 330 214" fill="none" xmlns="http://www.w3.org/2000/svg">
    <g clip-path="url(#clip0_2501_1470)">
        <path d="M329.718 79.1383C326.647 76.6732 322.238 77.3494 318.321 76.9552C315.656 76.6884 313.051 75.8576 310.723 74.5357C307.836 72.8984 304.898 70.4091 301.651 71.1004C299.98 71.4582 298.607 72.6225 297.033 73.2926C293.84 74.6509 290.135 73.8414 286.937 72.4921C284.117 71.3036 281.164 69.6724 278.183 70.3637C276.998 70.6396 275.93 71.2642 274.872 71.8645C269.496 74.9056 263.83 77.4312 257.972 79.396L329.718 79.1383Z" fill="#EBEBFF"/>
        <path d="M177.142 31.0478C172.312 27.1698 165.374 28.2341 159.21 27.6155C155.02 27.1941 150.921 25.8903 147.258 23.8104C142.716 21.2332 138.096 17.3189 132.99 18.4073C130.361 18.9683 128.202 20.8026 125.728 21.8547C120.704 23.9893 114.876 22.7188 109.846 20.5964C105.411 18.7257 100.766 16.1637 96.075 17.2491C94.2103 17.6827 92.5306 18.6681 90.866 19.611C82.4098 24.3955 73.4957 28.3675 64.2845 31.4571L177.142 31.0478Z" fill="#EBEBFF"/>
        <path d="M112.86 89.7504C108.03 85.8725 101.093 86.9367 94.9289 86.3182C90.7387 85.8967 86.6395 84.593 82.9768 82.513C78.4349 79.9358 73.8141 76.0215 68.7082 77.11C66.0794 77.6709 63.9207 79.5053 61.4466 80.5574C56.4225 82.6919 50.595 81.4215 45.5649 79.2991C41.1291 77.4283 36.4841 74.8663 31.7936 75.9518C29.9289 76.3853 28.2492 77.3707 26.5846 78.3137C18.1253 83.0982 9.21122 87.0731 0 90.1627L112.86 89.7504Z" fill="#EBEBFF"/>
        <path d="M120.829 209.918C120.829 209.918 92.7431 167.931 102.109 152.252C111.475 136.574 127.59 180.856 131.553 204.627L120.829 209.918Z" fill="url(#paint0_linear_2501_1470)"/>
        <path d="M129.136 206.482C129.136 206.482 115.944 171.705 125.137 161.572C134.33 151.439 138.642 186.177 137.62 204.151L129.136 206.482Z" fill="url(#paint1_linear_2501_1470)"/>
        <path d="M198.556 213.135C198.556 213.135 217.421 184.928 211.133 174.398C204.842 163.865 194.014 193.615 191.352 209.581L198.556 213.135Z" fill="url(#paint2_linear_2501_1470)"/>
        <path d="M192.974 210.827C192.974 210.827 201.837 187.466 195.661 180.659C189.484 173.852 186.589 197.186 187.277 209.263L192.974 210.827Z" fill="url(#paint3_linear_2501_1470)"/>
        <path d="M302.718 213.65C290.978 210.179 283.604 205.07 275.041 200.734C267.428 196.88 260.573 191.553 252.659 188.36C244.746 185.168 235.031 184.482 228.227 189.637C222.815 193.736 220.138 200.825 214.398 204.454C204.517 210.703 191.74 203.766 182.656 196.407C173.572 189.048 162.682 180.51 151.484 183.876C147.261 185.146 143.728 187.996 140.002 190.355C130.745 196.219 119.045 199.212 108.666 195.692C94.7738 190.98 84.5408 175.441 69.9114 176.526C60.6729 177.212 53.487 184.507 47.2259 191.335C40.8163 198.323 34.4097 206.61 28 213.596L302.718 213.65Z" fill="url(#paint4_linear_2501_1470)"/>
        <path d="M88.4611 156.428C87.541 156.845 87.4044 155.57 87.4044 155.57C86.4702 155.67 87.1312 152.088 87.1694 151.893C86.6309 152.912 85.6807 153.014 85.6807 153.014L86.7977 148.382C86.5586 146.148 88.2301 143.711 88.2301 143.711L87.7299 140.163L85.6023 116.563C85.1182 113.552 91.1492 111.999 91.1411 112.585C91.0809 118.076 92.0271 150.563 92.0271 150.563L89.6645 155.652C89.1341 156.675 88.4611 156.428 88.4611 156.428Z" fill="#FDBFBA"/>
        <path d="M88.439 136.53L87.9107 164.297C88.0553 165.164 88.0533 166.05 87.9026 166.916L80.8591 207.608H71.7041L77.0882 166.414L71.9753 136.53H88.439Z" fill="url(#paint5_linear_2501_1470)"/>
        <path d="M71.0331 213.398H89.0718C89.0718 213.398 90.6308 211.062 84.3085 208.936C84.0755 208.858 83.8465 208.762 83.6295 208.643L80.9957 207.207L71.3023 206.938C71.2983 206.935 71.0331 213.398 71.0331 213.398Z" fill="url(#paint6_linear_2501_1470)"/>
        <path d="M65.3798 213.398H83.4186C83.4186 213.398 84.9776 211.06 78.6472 208.934C78.4182 208.858 78.1952 208.764 77.9822 208.649L74.802 206.936H65.647C65.645 206.936 65.3798 213.398 65.3798 213.398Z" fill="url(#paint7_linear_2501_1470)"/>
        <path d="M65.5144 139.491L69.5525 167.762L65.5144 207.07H74.9386L81.8495 166.934C81.9098 166.589 81.9339 166.237 81.9238 165.885L81.1484 139.489H65.5144V139.491Z" fill="url(#paint8_linear_2501_1470)"/>
        <path d="M74.2897 86.3715L75.0872 98.0136L81.8596 98.323L81.8756 95.3517L81.8797 94.6365L81.8977 91.7516L81.8997 91.6672C81.9319 91.6632 81.964 91.6592 81.9942 91.6552C88.1095 90.7531 85.9117 75.9569 85.9117 75.9569C79.3423 73.0117 74.6573 76.1156 73.0722 80.4309C71.4831 84.7422 74.2897 86.3715 74.2897 86.3715Z" fill="#FDBFBA"/>
        <path d="M89.2627 101.417L92.2702 116.024H87.1151L89.2627 101.417Z" fill="url(#paint9_linear_2501_1470)"/>
        <path d="M61.617 105.523C61.8319 106.06 62.0308 106.61 62.2197 107.181C64.9579 115.393 65.5747 142.322 65.5747 142.322L88.4049 142.666C88.4009 142.611 89.2647 101.417 89.2647 101.417C89.5159 101.582 82.3056 96.8364 82.2272 96.7721C77.8155 99.5626 74.7598 95.1006 74.7598 95.1006C71.1336 96.0569 66.093 97.65 63.9795 98.6183C63.9092 98.6465 63.8349 98.6786 63.7605 98.7148C63.7565 98.7188 63.7545 98.7208 63.7505 98.7208H63.7465C63.7364 98.7248 63.7284 98.7288 63.7184 98.7328C62.292 99.3898 61.3015 100.766 61.2111 102.333C61.1127 104.012 61.617 105.523 61.617 105.523Z" fill="url(#paint10_linear_2501_1470)"/>
        <path d="M61.617 105.523C61.8319 106.06 62.0308 106.61 62.2197 107.181C62.973 109.035 63.9514 111.219 65.2171 113.762C66.4847 116.307 72.5057 110.869 72.5057 110.869L69.1045 100.953C68.6263 99.6267 67.5033 98.5961 66.1131 98.3611C65.4782 98.2526 64.755 98.2928 63.9775 98.6202C63.9072 98.6484 63.8329 98.6805 63.7585 98.7167C63.7545 98.7207 63.7525 98.7227 63.7485 98.7227H63.7445C63.7344 98.7267 63.7264 98.7307 63.7164 98.7347C62.29 99.3917 61.2995 100.768 61.2091 102.335C61.1127 104.012 61.617 105.523 61.617 105.523Z" fill="url(#paint11_linear_2501_1470)"/>
        <path d="M65.5144 114.353L67.447 117.147L73.2952 125.603C74.9446 127.988 78.6472 127.242 79.2459 124.404L80.8551 116.743L81.8194 110.831L82.0444 109.461L83.1031 102.958C83.1031 102.958 85.0257 101.033 85.3492 100.069C85.3492 100.069 85.9881 96.5449 85.6706 95.902C85.3492 95.2571 84.7063 95.902 84.7063 95.902C84.7063 95.902 84.5376 93.0292 84.5376 92.3923C84.5376 91.1025 84.4291 91.1025 84.1076 91.1025C83.2498 91.1025 82.8199 92.3923 82.7817 94.6203L82.1428 97.1838L80.4211 98.8653L80.5397 96.5449C80.5397 96.5449 78.9385 96.2255 78.9385 98.7869L79.5753 101.354L76.8692 110.833L75.0872 116.886L72.6624 110.831L72.4856 110.917L65.5144 114.353Z" fill="#FDBFBA"/>
        <path d="M76.4755 82.6791C76.4755 82.6791 78.5246 79.3562 77.3875 77.8213C77.3875 77.8213 83.2478 82.1909 86.0584 77.9579C89.0035 73.5201 82.9062 69.5503 75.6719 73.8435C75.6719 73.8435 73.5805 73.1785 71.7523 75.8043C71.7523 75.8043 70.2636 81.9157 74.6553 88.0953V85.9477C74.6553 85.9477 72.4675 82.0824 75.2098 81.6907C75.2098 81.6907 75.9993 81.761 76.4755 82.6791Z" fill="#473765"/>
        <path opacity="0.12" d="M76.0717 89.1743C77.703 93.578 80.5678 94.9441 81.8737 95.352L81.8777 94.6368L81.8958 91.7519L81.8978 91.6675C81.9299 91.6635 81.9621 91.6594 81.9922 91.6554C78.9928 91.33 76.1681 89.2426 76.0717 89.1743Z" fill="black"/>
        <path opacity="0.12" d="M65.5144 114.353L67.445 117.147L72.4836 110.917L65.5144 114.353Z" fill="black"/>
        <path d="M116.197 138.8L175.526 65L212.185 75.6118L199.162 176.424L116.197 138.8Z" fill="url(#paint12_linear_2501_1470)"/>
        <path d="M222.612 62.5544C224.292 56.2847 223.412 49.6043 220.167 43.983C216.921 38.3617 211.576 34.2599 205.306 32.58C199.036 30.9 192.356 31.7795 186.735 35.0249C181.113 38.2704 177.012 43.616 175.332 49.8857L198.972 56.2201L222.612 62.5544Z" fill="url(#paint13_linear_2501_1470)"/>
        <ellipse cx="196.473" cy="65.5469" rx="60.1976" ry="10.2039" transform="rotate(15 196.473 65.5469)" fill="url(#paint14_linear_2501_1470)"/>
        <ellipse cx="195.123" cy="70.5824" rx="45.599" ry="5.13921" transform="rotate(15 195.123 70.5824)" fill="#0079FF"/>
        <ellipse cx="194.468" cy="73.0288" rx="24.474" ry="2.45788" transform="rotate(15 194.468 73.0288)" fill="#87B4FF"/>
    </g>
    <defs>
        <linearGradient id="paint0_linear_2501_1470" x1="95.8206" y1="174.814" x2="136.504" y2="185.22" gradientUnits="userSpaceOnUse">
            <stop stop-color="#79BFFD"/>
            <stop offset="1" stop-color="#6568EB"/>
        </linearGradient>
        <linearGradient id="paint1_linear_2501_1470" x1="117.043" y1="177.191" x2="144.301" y2="190.651" gradientUnits="userSpaceOnUse">
            <stop stop-color="#79BFFD"/>
            <stop offset="1" stop-color="#6568EB"/>
        </linearGradient>
        <linearGradient id="paint2_linear_2501_1470" x1="215.361" y1="189.562" x2="188.032" y2="196.552" gradientUnits="userSpaceOnUse">
            <stop stop-color="#79BFFD"/>
            <stop offset="1" stop-color="#6568EB"/>
        </linearGradient>
        <linearGradient id="paint3_linear_2501_1470" x1="201.09" y1="191.152" x2="182.778" y2="200.194" gradientUnits="userSpaceOnUse">
            <stop stop-color="#79BFFD"/>
            <stop offset="1" stop-color="#6568EB"/>
        </linearGradient>
        <linearGradient id="paint4_linear_2501_1470" x1="229.782" y1="194.553" x2="64.4347" y2="196.51" gradientUnits="userSpaceOnUse">
            <stop stop-color="#0079FF"/>
            <stop offset="1" stop-color="#4285F4"/>
        </linearGradient>
        <linearGradient id="paint5_linear_2501_1470" x1="89.3982" y1="238.036" x2="77.797" y2="155.968" gradientUnits="userSpaceOnUse">
            <stop stop-color="#79BFFD"/>
            <stop offset="1" stop-color="#6568EB"/>
        </linearGradient>
        <linearGradient id="paint6_linear_2501_1470" x1="77.7649" y1="210.167" x2="95.9738" y2="210.167" gradientUnits="userSpaceOnUse">
            <stop stop-color="#2B0246"/>
            <stop offset="1" stop-color="#6A4586"/>
        </linearGradient>
        <linearGradient id="paint7_linear_2501_1470" x1="59.9368" y1="210.167" x2="78.1458" y2="210.167" gradientUnits="userSpaceOnUse">
            <stop stop-color="#2B0246"/>
            <stop offset="1" stop-color="#6A4586"/>
        </linearGradient>
        <linearGradient id="paint8_linear_2501_1470" x1="75.2335" y1="187.597" x2="65.351" y2="113.263" gradientUnits="userSpaceOnUse">
            <stop stop-color="#79BFFD"/>
            <stop offset="1" stop-color="#6568EB"/>
        </linearGradient>
        <linearGradient id="paint9_linear_2501_1470" x1="90.4379" y1="109.188" x2="77.8341" y2="127.091" gradientUnits="userSpaceOnUse">
            <stop stop-color="#2B0246"/>
            <stop offset="1" stop-color="#6A4586"/>
        </linearGradient>
        <linearGradient id="paint10_linear_2501_1470" x1="73.5048" y1="141.704" x2="75.4693" y2="112.728" gradientUnits="userSpaceOnUse">
            <stop stop-color="#2B0246"/>
            <stop offset="1" stop-color="#6A4586"/>
        </linearGradient>
        <linearGradient id="paint11_linear_2501_1470" x1="66.2388" y1="116.12" x2="67.3846" y2="98.5036" gradientUnits="userSpaceOnUse">
            <stop stop-color="#2B0246"/>
            <stop offset="1" stop-color="#6A4586"/>
        </linearGradient>
        <linearGradient id="paint12_linear_2501_1470" x1="194.338" y1="71.7529" x2="156.232" y2="156.165" gradientUnits="userSpaceOnUse">
            <stop stop-color="#0079FF" stop-opacity="0.12"/>
            <stop offset="1" stop-color="#0079FF" stop-opacity="0"/>
        </linearGradient>
        <linearGradient id="paint13_linear_2501_1470" x1="175.334" y1="49.8868" x2="222.612" y2="62.5549" gradientUnits="userSpaceOnUse">
            <stop stop-color="#F46595"/>
            <stop offset="1" stop-color="#F89597"/>
        </linearGradient>
        <linearGradient id="paint14_linear_2501_1470" x1="136.272" y1="65.5477" x2="256.666" y2="65.5477" gradientUnits="userSpaceOnUse">
            <stop stop-color="#79BFFD"/>
            <stop offset="1" stop-color="#6568EB"/>
        </linearGradient>
        <clipPath id="clip0_2501_1470">
            <rect width="329.718" height="213.65" fill="white"/>
        </clipPath>
    </defs>
</svg>
