<svg xmlns="http://www.w3.org/2000/svg" width="31" height="22" viewBox="0 0 31 22">
    <path data-name="Rectangle 240" style="fill:none" d="M0 0h31v22H0z"/>
    <path data-name="Path 244" d="M0 0h27.778v22H0z" transform="translate(1.611)" style="fill-rule:evenodd;fill:#fff22d"/>
    <path data-name="Path 245" d="M0 16.417h27.769V22H0zM0 .009h27.769v5.574H0z" transform="translate(1.611)" style="fill:#cc2229;fill-rule:evenodd"/>
    <path data-name="Path 246" d="M9.8 14.306h1.38v.594H9.8z" transform="translate(1.611)" style="fill:#d0d1d3;fill-rule:evenodd"/>
    <path data-name="Path 247" d="M11.176 14.87v.12a.621.621 0 0 1-.444-.056.686.686 0 0 0-.472 0 .616.616 0 0 1-.463.028v-.111a.644.644 0 0 0 .472-.028.662.662 0 0 1 .463-.009.68.68 0 0 0 .444.056zm0-.3v.12a.74.74 0 0 1-.444-.065.821.821 0 0 0-.472 0 .721.721 0 0 1-.463.028v-.111a.752.752 0 0 0 .472-.028.719.719 0 0 1 .463 0 .824.824 0 0 0 .444.055zm0-.306v.121a.735.735 0 0 1-.444-.056.821.821 0 0 0-.472 0 .973.973 0 0 1-.463.037v-.13a.644.644 0 0 0 .472-.028.981.981 0 0 1 .463 0 .744.744 0 0 0 .444.06z" transform="translate(1.611)" style="fill:#6b7a96;fill-rule:evenodd"/>
    <path data-name="Path 248" d="M3.315 14.306h1.38v.594h-1.38z" transform="translate(1.611)" style="fill:#d0d1d3;fill-rule:evenodd"/>
    <path data-name="Path 249" d="m3.306 14.574.019.12a.78.78 0 0 0 .454-.065.79.79 0 0 1 .463 0 .729.729 0 0 0 .463.028v-.111a.72.72 0 0 1-.463-.028.748.748 0 0 0-.472 0 .846.846 0 0 1-.463.055zm0 .3.019.12a.652.652 0 0 0 .454-.056.66.66 0 0 1 .463 0 .621.621 0 0 0 .463.028v-.111a.617.617 0 0 1-.463-.028.691.691 0 0 0-.472-.009.705.705 0 0 1-.463.056zm0-.6.019.121a.774.774 0 0 0 .454-.056.79.79 0 0 1 .463 0 .992.992 0 0 0 .463.037v-.13a.617.617 0 0 1-.463-.028 1.021 1.021 0 0 0-.472 0 .768.768 0 0 1-.463.056z" transform="translate(1.611)" style="fill:#6b7a96;fill-rule:evenodd"/>
    <path data-name="Path 250" d="M6.972 12.88v1.37l-.231.194v-1.787a1.316 1.316 0 0 0 .231.223zm-.7-.833v2.62l.213-.074v-2.547zm-.231 0v2.694l-.241-.1v-2.595zm-.5 2.435v-2.436h-.235v2.222c.074.074.148.139.231.213z" transform="translate(1.611)" style="stroke-width:.028px;stroke-linecap:round;stroke-linejoin:round;stroke-miterlimit:2.613;stroke:#000;fill:#cc2229;fill-rule:evenodd"/>
    <path data-name="Path 251" d="M5.083 11.5v-.472A2.171 2.171 0 0 0 3.2 11.3a.944.944 0 0 0 .157.445 1.639 1.639 0 0 1 1.726-.245z" transform="translate(1.611)" style="stroke-width:.013px;stroke-linecap:round;stroke-linejoin:round;stroke-miterlimit:2.613;stroke:#000;fill:#cc2229;fill-rule:evenodd"/>
    <path data-name="Path 252" d="M3.38 11.741a.493.493 0 0 0 .287.213" transform="translate(1.611)" style="stroke-width:.013px;stroke-linecap:round;stroke-linejoin:round;stroke-miterlimit:2.613;stroke:#000;fill:none"/>
    <path data-name="Path 253" d="M4.361 11.611c.065.019.213.111.231.176-.213.315-.87.509-1.287.769a.432.432 0 0 0 .028.426 6.337 6.337 0 0 0 1.3-.787.726.726 0 0 0-.037-.407.571.571 0 0 0-.231-.176z" transform="translate(1.611)" style="stroke-width:.013px;stroke-linecap:round;stroke-linejoin:round;stroke-miterlimit:2.613;stroke:#000;fill:#cc2229;fill-rule:evenodd"/>
    <path data-name="Path 254" d="M3.481 12.9c.1.056.157.333.037.315a1.26 1.26 0 0 0-.176-.232l.139-.083z" transform="translate(1.611)" style="stroke-width:.013px;stroke-linecap:round;stroke-linejoin:round;stroke-miterlimit:2.613;stroke:#000;fill:#cc2229;fill-rule:evenodd"/>
    <path data-name="Path 255" d="M10.333 11.37v.75m0-2.037v.861" transform="translate(1.611)" style="stroke-width:.013px;stroke-linecap:round;stroke-linejoin:round;stroke-miterlimit:2.613;stroke:#000;fill:none"/>
    <path data-name="Path 256" d="M10.991 14v.287H10V14h.991zm-.2-.13.109.13h-.833l.13-.13zm.028-.074h-.676c-.009 0-.028.009-.028.046s.019.028.028.028h.676c.037 0 .046 0 .046-.028s-.009-.046-.046-.046z" transform="translate(1.611)" style="fill:#c6aa6a;stroke-width:.013px;stroke-linecap:round;stroke-linejoin:round;stroke-miterlimit:2.613;stroke:#000;fill-rule:evenodd"/>
    <path data-name="Path 257" d="M10.176 12.435V13.8h.639v-1.013c-.204-.12-.426-.231-.639-.352zm.639-.935v.843c-.222-.093-.426-.213-.648-.315v-.676a1.629 1.629 0 0 1 .648.148zm-.009-1.417v.935a2.452 2.452 0 0 0-.63-.083v-.852z" transform="translate(1.611)" style="fill:#fff;stroke-width:.013px;stroke-linecap:round;stroke-linejoin:round;stroke-miterlimit:2.613;stroke:#000;fill-rule:evenodd"/>
    <path data-name="Path 258" d="M10.806 9.991v.093h-.63v-.093zm.111-.167-.12.167h-.62l-.13-.167zm.037-.25h-.935v.25h.935zM3.519 14v.287H4.5V14zm.2-.13-.13.13h.843l-.12-.13h-.59zm-.043-.07h.676a.043.043 0 0 1 .046.046c0 .028-.028.028-.046.028h-.676c-.028 0-.037 0-.037-.028s.009-.046.037-.046z" transform="translate(1.611)" style="fill:#c6aa6a;stroke-width:.013px;stroke-linecap:round;stroke-linejoin:round;stroke-miterlimit:2.613;stroke:#000;fill-rule:evenodd"/>
    <path data-name="Path 259" d="M4.333 12.435V13.8h-.648v-1.013c.204-.12.435-.213.648-.352zm-.657-.917v.852c.222-.12.463-.222.657-.343v-.657a2.051 2.051 0 0 0-.657.149zm.019-1.435v.935a2.418 2.418 0 0 1 .639-.083v-.852h-.64zm0-.093v.093h.639v-.092h-.64z" transform="translate(1.611)" style="fill:#fff;stroke-width:.013px;stroke-linecap:round;stroke-linejoin:round;stroke-miterlimit:2.613;stroke:#000;fill-rule:evenodd"/>
    <path data-name="Path 260" d="m3.593 9.824.111.167h.63l.12-.167zm-.056-.25h.944v.25h-.944z" transform="translate(1.611)" style="fill:#c6aa6a;stroke-width:.013px;stroke-linecap:round;stroke-linejoin:round;stroke-miterlimit:2.613;stroke:#000;fill-rule:evenodd"/>
    <path data-name="Path 261" d="M4.241 10.083v.861m.046-.861v.861m6.407-.861v.861m.065-.861v.861m-6.519.426v.7m.046-.7v.7m6.407-.7v.7m.065-.7v.7m-6.517.43v1.287m.046-1.287v1.287m6.407-1.287v1.287m.065-1.287v1.287" transform="translate(1.611)" style="stroke-width:.013px;stroke-linecap:round;stroke-linejoin:round;stroke-miterlimit:2.613;stroke:#000;fill:none"/>
    <path data-name="Path 262" d="m9.472 11.454.009-.445a2.083 2.083 0 0 1 1.833.287.944.944 0 0 1-.157.445 1.579 1.579 0 0 0-1.685-.287z" transform="translate(1.611)" style="stroke-width:.013px;stroke-linecap:round;stroke-linejoin:round;stroke-miterlimit:2.613;stroke:#000;fill:#cc2229;fill-rule:evenodd"/>
    <path data-name="Path 263" d="M11.148 11.732a.68.68 0 0 1-.315.25" transform="translate(1.611)" style="stroke-width:.013px;stroke-linecap:round;stroke-linejoin:round;stroke-miterlimit:2.613;stroke:#000;fill:none"/>
    <path data-name="Path 264" d="M10.139 11.62c-.065.019-.194.1-.213.167.213.315.87.509 1.287.769a.432.432 0 0 1-.028.426 6.086 6.086 0 0 1-1.3-.787.651.651 0 0 1 .037-.407.48.48 0 0 1 .213-.167z" transform="translate(1.611)" style="stroke-width:.013px;stroke-linecap:round;stroke-linejoin:round;stroke-miterlimit:2.613;stroke:#000;fill:#cc2229;fill-rule:evenodd"/>
    <path data-name="Path 265" d="M11.028 12.9c-.093.056-.148.333-.028.315a1.26 1.26 0 0 1 .176-.232l-.148-.083z" transform="translate(1.611)" style="stroke-width:.013px;stroke-linecap:round;stroke-linejoin:round;stroke-miterlimit:2.613;stroke:#000;fill:#cc2229;fill-rule:evenodd"/>
    <path data-name="Path 266" d="m3.528 11.528-.139-.306c.074-.046.176-.111.241-.009.028.065 0 .13-.13.176l.056.12zm-.1-.3.056.12c.083-.018.157-.065.111-.13s-.1-.019-.167.009zm.407.12.139-.037.009.028-.167.056-.1-.343h.034l.083.3zm.426-.028L4.1 11h.037l.139.287.1-.3h.037l-.12.333zm.333-.111a.064.064 0 1 0 .12-.018c-.009-.037-.167-.046-.13-.148a.105.105 0 0 1 .167-.037c.019.009.019.046.019.074l-.028-.009c-.019-.074-.12-.065-.12-.018-.019.092.12.028.139.167a.092.092 0 0 1-.111.1.11.11 0 0 1-.1-.111h.046zm6.37-.055.037.019-.009.324-.028-.019v-.108l-.13-.056-.083.074-.028-.009.241-.222zm0 .037-.111.1.111.046zm-.528.111.074-.287c.13.019.194.056.176.139a.094.094 0 0 1-.1.074l.046.12H10.6l-.074-.167c.083.018.111.018.13-.037.028-.074-.093-.092-.12-.092l-.074.259-.028-.009zm-.185-.019.028-.278L10.2 11l.009-.009.171.009v.019l-.074-.009-.028.278h-.028zm-.278-.037.13-.009v.028l-.148.019L9.926 11l.028-.009.019.259zm-.222.065-.185-.269.037-.009.157.241.055-.274h.028l-.065.315z" transform="translate(1.611)" style="stroke:#fff22d;stroke-width:.013px;stroke-linecap:round;stroke-linejoin:round;stroke-miterlimit:2.613;fill-rule:evenodd;fill:#fff22d"/>
    <path data-name="Path 267" d="M7.222 9.639h2.269v2.417H7.222z" transform="translate(1.611)" style="fill:#fff;stroke-width:.028px;stroke-linecap:round;stroke-linejoin:round;stroke-miterlimit:2.613;stroke:#000;fill-rule:evenodd"/>
    <path data-name="Path 268" d="m8.824 10.083.167-.037-.1-.065.019-.074-.095-.027v-.074l-.1.009-.056-.083-.074.037-.065-.046.046.185c.148-.009.148.074.259.176z" transform="translate(1.611)" style="stroke-width:.039px;fill:#c6aa6a;stroke-linecap:round;stroke-linejoin:round;stroke-miterlimit:2.613;stroke:#000;fill-rule:evenodd"/>
    <path data-name="Path 269" d="M5.093 9.639h2.12v2.407h-2.12z" transform="translate(1.611)" style="stroke-width:.028px;stroke-linecap:round;stroke-linejoin:round;stroke-miterlimit:2.613;stroke:#000;fill:#cc2229;fill-rule:evenodd"/>
    <path data-name="Path 270" d="M5.676 10.769h1.009v.611l.093.083a1 1 0 0 0-.157.3H5.537v-.352h.139v-.639zm-.065-.3v.3h1.111v-.315h-.166l-.009.148h-.14v-.139h-.185v.13H6.1v-.13h-.156v.148h-.138v-.139h-.195z" transform="translate(1.611)" style="stroke-width:.013px;stroke-linecap:round;stroke-linejoin:round;stroke-miterlimit:2.613;stroke:#000;fill-rule:evenodd;fill:#fff22d"/>
    <path data-name="Path 271" d="M6.269 11.157h.324v-.231c0-.111-.324-.111-.324 0zm-.537 0h.324v-.231c0-.111-.324-.111-.324 0z" transform="translate(1.611)" style="fill:#505e86;stroke:#fff22d;stroke-width:.013px;stroke-linecap:round;stroke-linejoin:round;stroke-miterlimit:2.613;fill-rule:evenodd"/>
    <path data-name="Path 272" d="M7.213 13.908A1.479 1.479 0 0 1 6 14.713a3.524 3.524 0 0 0 2.444.037 2.109 2.109 0 0 1-1.231-.842z" transform="translate(1.611)" style="fill:#fff;stroke-width:.028px;stroke-linecap:round;stroke-linejoin:round;stroke-miterlimit:2.613;stroke:#000;fill-rule:evenodd"/>
    <path data-name="Path 273" d="M7.213 14.194a.247.247 0 0 1 0 .491.246.246 0 0 1 0-.491z" transform="translate(1.611)" style="fill:#e5a773;stroke-width:.013px;stroke-linecap:round;stroke-linejoin:round;stroke-miterlimit:2.613;stroke:#000;fill-rule:evenodd"/>
    <path data-name="Path 274" d="M7.333 14.8c-.009-.148.241-.185.343-.093-.093.093-.232.21-.343.093z" transform="translate(1.611)" style="fill:#598376;stroke-width:.013px;stroke-linecap:round;stroke-linejoin:round;stroke-miterlimit:2.613;stroke:#000;fill-rule:evenodd"/>
    <path data-name="Path 275" d="M7.139 14.676a.2.2 0 0 1 0 .222h.185c-.093-.056-.065-.176-.046-.222a.178.178 0 0 1-.139 0z" transform="translate(1.611)" style="stroke-width:.013px;stroke-linecap:round;stroke-linejoin:round;stroke-miterlimit:2.613;stroke:#000;fill-rule:evenodd"/>
    <path data-name="Path 276" d="M6.713 14.676a.547.547 0 0 0 .426.13c-.195-.206-.315-.213-.426-.13z" transform="translate(1.611)" style="fill:#598376;stroke-width:.013px;stroke-linecap:round;stroke-linejoin:round;stroke-miterlimit:2.613;stroke:#000;fill-rule:evenodd"/>
    <path data-name="Path 277" d="M7.194 14.287c.065 0 .1.065.1.148s-.037.13-.1.13c-.046 0-.093-.056-.093-.13s.047-.148.093-.148z" transform="translate(1.611)" style="stroke-width:.013px;stroke-linecap:round;stroke-linejoin:round;stroke-miterlimit:2.613;stroke:#000;fill:#cc2229;fill-rule:evenodd"/>
    <path data-name="Path 278" d="M5.778 10.287v.324h.167l.009-.324h-.176zm.611 0v.324h.167v-.324h-.167zm-.306-.25v.574h.148v-.574zm-.093-.185v.185h.333v-.185h-.064v.083h-.065v-.083H6.12v.083h-.055v-.083h-.074zm-.3.259v.176h.333v-.176h-.06v.083H5.9v-.083h-.076v.083h-.055v-.083h-.075zm.611.009v.167h.329v-.176h-.065v.083H6.5v-.074h-.055v.074H6.37v-.074h-.064z" transform="translate(1.611)" style="stroke-width:.013px;stroke-linecap:round;stroke-linejoin:round;stroke-miterlimit:2.613;stroke:#000;fill-rule:evenodd;fill:#fff22d"/>
    <path data-name="Path 279" d="M5.87 9.389c0 .3 2.7.324 2.75-.028-.194-.38-2.676-.361-2.75.028z" transform="translate(1.611)" style="stroke-width:.047px;stroke-linecap:round;stroke-linejoin:round;stroke-miterlimit:2.613;stroke:#000;fill-rule:evenodd;fill:#fff22d"/>
    <path data-name="Path 280" d="M9.259 8.028c-.019-.278-.574-.481-.944-.241a.841.841 0 0 0-1.084-.167.732.732 0 0 0-1.031.139c-.315-.194-.917-.028-.917.37.25.972.435.852.556.824a7.26 7.26 0 0 1 2.861.028c.291.028.513-.462.559-.953z" transform="translate(1.611)" style="stroke-width:.028px;stroke-linecap:round;stroke-linejoin:round;stroke-miterlimit:2.613;stroke:#000;fill:#cc2229;fill-rule:evenodd"/>
    <path data-name="Path 281" d="M5.991 9.37a4.139 4.139 0 0 1 2.444-.009c.028.259-2.556.2-2.444.009z" transform="translate(1.611)" style="stroke-width:.047px;stroke-linecap:round;stroke-linejoin:round;stroke-miterlimit:2.613;stroke:#000;fill:#cc2229;fill-rule:evenodd"/>
    <path data-name="Path 282" d="m8.611 9.37.089-.314a7.562 7.562 0 0 0-2.889-.009l.046.324c.171-.38 2.652-.352 2.754-.001z" transform="translate(1.611)" style="stroke-width:.047px;stroke-linecap:round;stroke-linejoin:round;stroke-miterlimit:2.613;stroke:#000;fill-rule:evenodd;fill:#fff22d"/>
    <path data-name="Path 283" d="M5.787 8.935c-.065.028-.074.111.046.1a7.381 7.381 0 0 1 2.815.009.072.072 0 0 0 .074-.019c0-.019-.009-.065-.083-.093a8.4 8.4 0 0 0-2.852 0zM5.481 8.7c-.037-.019-.046-.009-.046.009a.3.3 0 0 0 .315.259c.056-.046.176-.148.176-.194.093.111.361.139.361-.083a.3.3 0 0 0 .5-.019.3.3 0 0 0 .463.009.361.361 0 0 0 .509-.019.247.247 0 0 0 .407.093.309.309 0 0 0 .4.1c.13.009.083.167.222.12.065-.009.231-.13.222-.25-.306.287-.287.111-.343 0-.157.093-.37.185-.491-.111-.167.157-.3.12-.352-.139-.065.13-.389.4-.556-.028a.261.261 0 0 1-.481.1c-.046.056-.269.361-.491-.009-.1.25-.222.315-.389.065-.046.259-.278.343-.426.093zm1.75-1.481a.044.044 0 0 1 .046.046.042.042 0 0 1-.046.037.04.04 0 0 1-.037-.037.042.042 0 0 1 .037-.043zm0 .148c.037 0 .056.009.056.037a.052.052 0 0 1-.056.046.059.059 0 0 1-.046-.046c0-.024.028-.034.046-.034zm0 .13a.066.066 0 0 1 .074.065c0 .037-.028.056-.074.056a.061.061 0 0 1-.065-.056.07.07 0 0 1 .065-.062zm0 .167c.065 0 .1.037.1.074s-.037.074-.1.074a.084.084 0 0 1-.093-.074.091.091 0 0 1 .093-.071zm2.213.519a.094.094 0 1 0 0 .185.093.093 0 1 0 0-.185zm.074-.25a.089.089 0 1 0 0 .176.1.1 0 0 0 .111-.093c.001-.044-.055-.081-.11-.081zm.028-.213c-.065 0-.111.037-.111.083a.105.105 0 0 0 .111.1.111.111 0 0 0 .111-.1c0-.044-.057-.081-.111-.081zm-.056-.231a.094.094 0 1 0 0 .185.094.094 0 1 0 0-.185zm-.2-.176a.1.1 0 0 0-.111.093c0 .056.046.093.111.093a.1.1 0 0 0 .1-.093.109.109 0 0 0-.103-.091zm-.234-.063a.089.089 0 1 0 0 .176.1.1 0 0 0 .111-.093c0-.046-.056-.083-.111-.083zm-.222-.037a.1.1 0 0 0-.1.093.1.1 0 0 0 .1.093.111.111 0 0 0 .111-.093.1.1 0 0 0-.112-.093zm-.2-.019a.094.094 0 1 0 0 .185.093.093 0 1 0 0-.185zm-.315.667a.066.066 0 0 0-.074.065.072.072 0 0 0 .074.065c.037 0 .083-.028.083-.065s-.05-.065-.087-.065zM8.37 7.7a.065.065 0 1 0 .074.065.072.072 0 0 0-.074-.065zm.056-.194a.082.082 0 0 0-.083.074.083.083 0 0 0 .083.083.08.08 0 1 0 0-.157zM8.4 7.278a.091.091 0 0 0-.093.074.085.085 0 0 0 .093.083.078.078 0 0 0 .083-.083.081.081 0 0 0-.083-.074zm-.167-.185c-.065 0-.111.037-.111.093s.046.093.111.093a.093.093 0 1 0 0-.185zM7.981 7c-.056 0-.111.037-.111.083a.112.112 0 0 0 .222 0C8.093 7.037 8.037 7 7.981 7zm-.231-.028a.1.1 0 0 0-.1.093.1.1 0 0 0 .1.093.1.1 0 0 0 .111-.093.111.111 0 0 0-.111-.093zm-.222.009c-.065 0-.111.037-.111.093s.046.093.111.093c.046 0 .111-.037.111-.093s-.065-.093-.111-.093zm-.583 0a.093.093 0 1 1-.1.093.1.1 0 0 1 .099-.093zm-.222-.009a.1.1 0 0 1 .1.093.1.1 0 0 1-.2 0 .1.1 0 0 1 .099-.093zM6.491 7a.094.094 0 0 1 .1.083.1.1 0 1 1-.2 0 .094.094 0 0 1 .1-.083zm-.25.093c.065 0 .111.037.111.093s-.046.093-.111.093a.093.093 0 0 1 0-.185zm-.167.185a.082.082 0 0 1 .083.074.083.083 0 1 1-.167 0 .082.082 0 0 1 .084-.074zm-.037.231a.08.08 0 1 1 0 .157.076.076 0 0 1-.074-.083.073.073 0 0 1 .074-.074zM6.1 7.7a.065.065 0 1 1-.074.065A.072.072 0 0 1 6.1 7.7zm.056.157a.058.058 0 0 1 .065.065.063.063 0 0 1-.065.065.066.066 0 0 1-.074-.065c.001-.042.029-.061.075-.061zm-.315-.667a.094.094 0 1 1 0 .185.093.093 0 1 1 0-.185zm-.213.019c.065 0 .111.037.111.093a.1.1 0 0 1-.109.098.1.1 0 0 1-.093-.093.093.093 0 0 1 .093-.094zm-.213.037a.089.089 0 1 1 0 .176.1.1 0 0 1-.111-.093c.002-.042.057-.079.113-.079zm-.435.241a.093.093 0 1 1-.1.093.1.1 0 0 1 .101-.089zm.2-.176a.1.1 0 0 1 .111.093c0 .056-.046.093-.111.093a.1.1 0 0 1-.1-.093.1.1 0 0 1 .105-.089zm-.231.62a.089.089 0 1 1-.1.083.094.094 0 0 1 .105-.079zm-.028-.213c.065 0 .111.037.111.083a.105.105 0 0 1-.111.1.1.1 0 0 1-.1-.1.094.094 0 0 1 .105-.079zm.1.463a.093.093 0 1 1-.1.093.1.1 0 0 1 .107-.089zm4.222.157-.067-.208c.454-.435-.194-.759-.657-.667l-.009-.074c.435-.009 1.259.158.713.75l.083.176-.056.028zm-1.012-.255-.1-.241c.426-.472-.417-.769-.676-.528v-.073c.37-.259 1.194.13.741.62L8.287 8zm-.778-.759c-.019.176-.13.4.074.546l-.194.148-.028-.046.13-.093a.653.653 0 0 1 .019-.639zm-.444 0c.028.176.148.4-.046.546l.185.148.019-.046-.13-.093a.61.61 0 0 0-.028-.639zm-.769.759.093-.241c-.407-.472.417-.769.685-.528v-.073c-.38-.259-1.194.13-.75.62L6.194 8zm-1.028.259.074-.213c-.444-.435.2-.759.657-.667l.009-.074c-.426-.009-1.241.158-.713.75l-.074.176.046.028zm2.057-1.648c.269.176.148.361 0 .509-.093-.083-.176-.12-.176-.259a.255.255 0 0 1 .176-.25zm.009.3V6.6h.1v-.054h-.1v-.083h-.056v.093H7.13V6.6h.1v.389h-.137l.009.037h.3l.019-.037h-.143z" transform="translate(1.611)" style="fill:#fff;stroke-width:.013px;stroke-linecap:round;stroke-linejoin:round;stroke-miterlimit:2.613;stroke:#000;fill-rule:evenodd"/>
    <path data-name="Path 284" d="M9.5 8.565a.219.219 0 0 0-.407-.009c-.028.056-.093.009-.167-.037.028.056.019.074-.028.093-.019 0-.074.009-.111.009a.675.675 0 0 1 .093.079.333.333 0 0 0-.093.065.689.689 0 0 1 .241-.019c0-.237.372-.181.472-.181zm-1.111.083-.037-.093.185-.028-.157-.064.093-.083-.213.009.111-.2-.13.019-.046-.12-.083.111-.1-.056.037.222L7.87 8.3l.056.111-.167.028.148.074-.065.074.231.009.315.056zm-1.12-.194-.333.056L7 8.426l-.259-.093.241-.046-.074-.13.222.1-.093-.3.13.065.065-.185.083.185.12-.093-.065.343.25-.083-.12.12.231.065-.2.065.046.1-.306-.093zM6 8.6l.019-.093-.185-.028.157-.065-.091-.081.222.009-.111-.2.12.019.037-.12.093.1.1-.046-.046.222.176-.065-.046.111.157.028-.148.074.065.074-.231.009L6 8.6zm-1-.1a.212.212 0 0 1 .4-.009c.028.056.093.009.167-.037-.028.056-.019.074.028.093.019 0 .074.009.1.009a.9.9 0 0 0-.065.083c.019.019.065.037.083.065a.416.416 0 0 0-.241-.019C5.463 8.444 5.1 8.5 5 8.5z" transform="translate(1.611)" style="stroke-width:.013px;stroke-linecap:round;stroke-linejoin:round;stroke-miterlimit:2.613;stroke:#000;fill-rule:evenodd;fill:#fff22d"/>
    <path data-name="Path 285" d="M5.38 8.583c-.13 0-.148.037-.12.12a.1.1 0 0 0 .167-.083c0-.028-.037-.037-.046-.037z" transform="translate(1.611)" style="stroke-width:.013px;stroke-linecap:round;stroke-linejoin:round;stroke-miterlimit:2.613;stroke:#000;fill:#cc2229;fill-rule:evenodd"/>
    <path data-name="Path 286" d="M5.843 8.5c-.213 0-.019.259.065.083a.082.082 0 0 0-.065-.083z" transform="translate(1.611)" style="fill:#fff;stroke-width:.013px;stroke-linecap:round;stroke-linejoin:round;stroke-miterlimit:2.613;stroke:#000;fill-rule:evenodd"/>
    <path data-name="Path 287" d="M6.2 8.324c-.074.074-.037.231.1.176.117-.056-.059-.185-.1-.176z" transform="translate(1.611)" style="stroke-width:.013px;stroke-linecap:round;stroke-linejoin:round;stroke-miterlimit:2.613;stroke:#000;fill:#cc2229;fill-rule:evenodd"/>
    <path data-name="Path 288" d="M6.778 8.352c-.056-.028-.148.056-.1.111.165.13.192-.046.1-.111z" transform="translate(1.611)" style="fill:#fff;stroke-width:.013px;stroke-linecap:round;stroke-linejoin:round;stroke-miterlimit:2.613;stroke:#000;fill-rule:evenodd"/>
    <path data-name="Path 289" d="M7.287 8.25c-.028 0-.13 0-.139.056-.009.1.139.148.2.065a.126.126 0 0 0-.065-.12z" transform="translate(1.611)" style="stroke-width:.013px;stroke-linecap:round;stroke-linejoin:round;stroke-miterlimit:2.613;stroke:#000;fill:#cc2229;fill-rule:evenodd"/>
    <path data-name="Path 290" d="M7.759 8.38c-.231 0 0 .231.074.074 0-.019-.033-.074-.074-.074z" transform="translate(1.611)" style="fill:#fff;stroke-width:.013px;stroke-linecap:round;stroke-linejoin:round;stroke-miterlimit:2.613;stroke:#000;fill-rule:evenodd"/>
    <path data-name="Path 291" d="M8.167 8.38c.083.065.056.213-.111.176-.093-.065.064-.186.111-.176z" transform="translate(1.611)" style="stroke-width:.013px;stroke-linecap:round;stroke-linejoin:round;stroke-miterlimit:2.613;stroke:#000;fill:#cc2229;fill-rule:evenodd"/>
    <path data-name="Path 292" d="M8.648 8.556c.2 0 0 .241-.065.065 0-.038.01-.065.065-.065z" transform="translate(1.611)" style="fill:#fff;stroke-width:.013px;stroke-linecap:round;stroke-linejoin:round;stroke-miterlimit:2.613;stroke:#000;fill-rule:evenodd"/>
    <path data-name="Path 293" d="M9.1 8.657c.139 0 .176.046.139.1-.056.074-.176.037-.176-.083 0-.019.028-.019.037-.019z" transform="translate(1.611)" style="stroke-width:.013px;stroke-linecap:round;stroke-linejoin:round;stroke-miterlimit:2.613;stroke:#000;fill:#cc2229;fill-rule:evenodd"/>
    <path data-name="Path 294" d="M6.12 9.056c.037-.009.083 0 .083.037a.07.07 0 0 1-.065.065c-.037.019-.074 0-.074-.019-.009-.037.019-.065.056-.083zm2.231 0a.047.047 0 0 0-.065.037.061.061 0 0 0 .056.065.034.034 0 0 0 .058-.019.081.081 0 0 0-.048-.083zM6.87 8.981a.056.056 0 1 1-.056.056.06.06 0 0 1 .056-.056zm.769-.028a.062.062 0 0 0-.065.056c0 .028.028.046.065.046a.052.052 0 0 0 .056-.046.06.06 0 0 0-.056-.056z" transform="translate(1.611)" style="fill:#fff;stroke-width:.013px;stroke-linecap:round;stroke-linejoin:round;stroke-miterlimit:2.613;stroke:#000;fill-rule:evenodd"/>
    <path data-name="Path 295" d="M6.491 8.991c.111-.009.194 0 .2.028s-.083.065-.194.083-.194 0-.194-.028.074-.065.185-.083zm1.519 0c-.1-.009-.194 0-.194.028s.074.065.185.083.194 0 .2-.028-.083-.065-.194-.083z" transform="translate(1.611)" style="fill:#33a457;stroke-width:.013px;stroke-linecap:round;stroke-linejoin:round;stroke-miterlimit:2.613;stroke:#000;fill-rule:evenodd"/>
    <path data-name="Path 296" d="M7.259 8.935c.1.009.194.037.194.065s-.093.046-.2.046-.194-.028-.194-.065.089-.046.2-.046zm-1.435.157-.093.108.111.065.093-.111zm2.861 0 .083.111-.111.065-.093-.111z" transform="translate(1.611)" style="stroke-width:.013px;stroke-linecap:round;stroke-linejoin:round;stroke-miterlimit:2.613;stroke:#000;fill:#cc2229;fill-rule:evenodd"/>
    <path data-name="Path 297" d="M10.167 9.528c0 .074.639.083.648 0-.046-.093-.63-.084-.648 0z" transform="translate(1.611)" style="stroke-width:.047px;stroke-linecap:round;stroke-linejoin:round;stroke-miterlimit:2.613;stroke:#000;fill-rule:evenodd;fill:#fff22d"/>
    <path data-name="Path 298" d="M10.963 9.213c0-.074-.13-.12-.222-.056a.191.191 0 0 0-.25-.046.168.168 0 0 0-.241.037c-.074-.056-.222-.009-.222.083.065.222.111.2.13.194a1.669 1.669 0 0 1 .676.009c.065.009.12-.111.13-.222z" transform="translate(1.611)" style="stroke-width:.028px;stroke-linecap:round;stroke-linejoin:round;stroke-miterlimit:2.613;stroke:#000;fill:#cc2229;fill-rule:evenodd"/>
    <path data-name="Path 299" d="M10.194 9.528a1.012 1.012 0 0 1 .574-.009c.01.064-.601.055-.574.009z" transform="translate(1.611)" style="stroke-width:.047px;stroke-linecap:round;stroke-linejoin:round;stroke-miterlimit:2.613;stroke:#000;fill:#cc2229;fill-rule:evenodd"/>
    <path data-name="Path 300" d="m10.806 9.519.028-.065a1.551 1.551 0 0 0-.685 0l.019.065a.894.894 0 0 1 .638 0z" transform="translate(1.611)" style="stroke-width:.047px;stroke-linecap:round;stroke-linejoin:round;stroke-miterlimit:2.613;stroke:#000;fill-rule:evenodd;fill:#fff22d"/>
    <path data-name="Path 301" d="M10.148 9.417c-.009.009-.019.028.009.028a1.617 1.617 0 0 1 .667 0c0 .009.009 0 .019 0a.034.034 0 0 0-.028-.019 2.026 2.026 0 0 0-.667-.009zm-.074-.046c0-.009-.009-.009-.009 0a.065.065 0 0 0 .074.056c.009-.009.046-.028.046-.037.019.019.083.028.083-.028a.061.061 0 0 0 .111 0c.046.037.074.037.111 0a.085.085 0 0 0 .12 0 .066.066 0 0 0 .1.019.06.06 0 0 0 .09.019c.037.009.028.046.056.037s.056-.037.056-.065c-.074.074-.065.028-.083 0-.037.028-.083.046-.111-.028-.037.046-.074.037-.083-.028-.019.028-.093.093-.13-.009-.019.056-.074.083-.12.028 0 .009-.056.083-.111 0-.019.056-.056.065-.093.009-.009.065-.065.083-.1.028zm.417-.352a.009.009 0 0 1 .009.009c0 .009 0 .009-.009.009s-.009 0-.009-.009a.009.009 0 0 1 .009-.009zm0 .028c.009 0 .009.009.009.019a.009.009 0 0 1-.019 0c0-.01 0-.02.01-.02zm0 .037a.009.009 0 0 1 .009.009c0 .009 0 .019-.009.019a.02.02 0 0 1-.019-.019.032.032 0 0 1 .019-.01zm0 .037a.019.019 0 1 1 0 .037c-.009 0-.028-.009-.028-.019s.018-.019.028-.019zm.519.12a.03.03 0 0 0-.028.028c0 .009.009.019.028.019a.02.02 0 0 0 .019-.019c-.001-.01-.01-.028-.02-.028zm.019-.056c-.019 0-.028.009-.028.019s.009.019.028.019.028-.009.028-.019-.02-.019-.029-.019zm0-.046a.019.019 0 1 0 0 .037c.019 0 .028-.009.028-.019s-.011-.018-.029-.018zm-.009-.056c-.009 0-.028.009-.028.019s.019.019.028.019.028-.009.028-.019-.02-.019-.029-.019zm-.046-.046a.025.025 0 0 0-.028.028c0 .009.009.019.028.019s.026-.01.026-.019a.03.03 0 0 0-.028-.028zm-.056-.009c-.009 0-.028.009-.028.019s.019.019.028.019.028-.009.028-.019-.02-.019-.029-.019zm-.056-.009a.019.019 0 0 0 0 .037c.019 0 .028-.009.028-.019s-.01-.018-.029-.018zm-.046-.009c-.019 0-.019.009-.019.028s0 .019.019.019.028-.009.028-.019a.025.025 0 0 0-.029-.029zm-.074.157c-.009 0-.009.009-.009.019s0 .019.009.019a.019.019 0 1 0 0-.037zm.019-.037a.02.02 0 0 0-.019.019c0 .009.009.009.019.009s.019 0 .019-.009a.02.02 0 0 0-.019-.019zm.009-.046a.019.019 0 1 0 0 .037c.009 0 .028-.009.028-.019s-.02-.019-.029-.019zm-.009-.046c-.009 0-.019 0-.019.009a.02.02 0 0 0 .019.019c.019 0 .028-.009.028-.019s-.011-.01-.03-.01zm-.037-.046c-.009 0-.028.009-.028.019a.028.028 0 0 0 .056 0c-.002-.011-.021-.02-.03-.02zm-.056-.028a.034.034 0 0 0-.028.019.025.025 0 0 0 .028.028c.009 0 .019-.009.019-.028-.002-.002-.011-.02-.02-.02zm-.056 0c-.009 0-.028.009-.028.019S10.6 9 10.611 9s.028-.009.028-.019-.019-.018-.028-.018zm-.056 0a.019.019 0 0 0 0 .037c.009 0 .028-.009.028-.019s-.019-.019-.028-.019zm-.13 0a.019.019 0 1 1 0 .037c-.019 0-.028-.009-.028-.019s.009-.019.028-.019zm-.056 0a.019.019 0 1 1 0 .037c-.019 0-.028-.009-.028-.019s.01-.019.028-.019zm-.056 0c.009 0 .019.019.019.019 0 .019-.009.028-.019.028a.03.03 0 0 1-.028-.028s.02-.02.029-.02zm-.056.028a.02.02 0 0 1 .019.019c0 .009-.009.028-.019.028a.03.03 0 0 1-.028-.028c.001-.011.011-.02.029-.02zm-.046.046c.009 0 .028 0 .028.009s-.019.019-.028.019a.02.02 0 0 1-.019-.019c.001-.01.007-.01.02-.01zm-.009.046c.019 0 .028.009.028.019s-.009.019-.028.019-.009-.009-.009-.019 0-.02.006-.02zm.019.046a.02.02 0 0 1 .019.019c0 .009-.009.009-.019.009s-.019 0-.019-.009a.02.02 0 0 1 .019-.019zm.009.037a.019.019 0 1 1-.019.019.02.02 0 0 1 .019-.019zm-.074-.157a.025.025 0 0 1 .028.028c0 .009-.009.019-.028.019a.02.02 0 0 1-.019-.019c.001-.019.01-.029.019-.029zm-.046.009c.019 0 .028.009.028.019s-.009.019-.028.019-.028-.009-.028-.019.017-.019.028-.019zm-.046.009a.019.019 0 1 1 0 .037c-.019 0-.028-.009-.028-.019s.009-.018.028-.018zm-.1.056a.019.019 0 0 1 0 .037c-.019 0-.028-.009-.028-.019s.007-.019.026-.019zm.046-.046c.009 0 .019.009.019.028a.02.02 0 0 1-.019.019c-.019 0-.028-.009-.028-.019a.025.025 0 0 1 .026-.029zm-.056.148a.019.019 0 1 1 0 .037c-.019 0-.028-.009-.028-.019s.008-.019.027-.019zm-.009-.046c.019 0 .028.009.028.019s-.009.019-.028.019a.019.019 0 0 1 0-.037zm.028.1c.009 0 .019.019.019.028a.02.02 0 0 1-.019.019c-.009 0-.028-.009-.028-.019a.042.042 0 0 1 .026-.027zm.991.037-.019-.046c.111-.1-.046-.185-.148-.157l-.009-.019c.1 0 .3.037.167.176l.019.046h-.009zm-.241-.065-.024-.055c.093-.111-.1-.176-.167-.12v-.018c.093-.056.287.037.176.148l.019.037-.009.009zm-.176-.176c-.009.046-.037.1.009.13l-.046.037-.011-.009.037-.028c-.037-.037-.019-.111.009-.148zm-.111 0c.009.046.037.1-.009.13l.046.037v-.009l-.028-.028c.037-.037.009-.111-.009-.148zm-.176.176.019-.056c-.093-.111.1-.176.157-.12v-.017c-.083-.056-.278.037-.176.148l-.019.037.019.009zm-.241.065.009-.046c-.1-.1.046-.185.157-.157v-.018c-.1 0-.287.037-.167.176L10 9.278zm.481-.389c.056.046.028.093 0 .13-.028-.028-.046-.037-.046-.065s.009-.046.046-.065zm0 .074V8.87h.019v-.009h-.02v-.018h-.009v.019h-.028v.008h.028v.093h-.037v.009h.074l.009-.009H10.5z" transform="translate(1.611)" style="fill:#fff;stroke-width:.013px;stroke-linecap:round;stroke-linejoin:round;stroke-miterlimit:2.613;stroke:#000;fill-rule:evenodd"/>
    <path data-name="Path 302" d="M11.028 9.333c-.028-.046-.083-.046-.1 0-.009.009-.019 0-.037-.009.009.009 0 .019-.009.019h-.028a.071.071 0 0 1 .019.028.032.032 0 0 1-.019.009.151.151 0 0 1 .065 0c0-.056.083-.046.111-.046zm-.269.019-.009-.019.046-.009-.037-.009.019-.028-.046.009.028-.056-.028.009-.019-.028-.019.028-.019-.019v.056l-.037-.009.009.019-.037.009.037.019-.019.009.056.009.074.009zm-.259-.046-.083.019.019-.028-.065-.019.065-.009-.019-.028.046.019-.019-.065.028.019.019-.046.019.046.028-.028-.019.083.056-.019-.019.028.056.009-.056.018.009.028-.065-.027zm-.306.037.009-.019-.046-.009.037-.019-.019-.019h.046l-.028-.046.037.009.009-.028.019.019.019-.009-.009.056.046-.018-.009.028h.037l-.037.028.019.019h-.056l-.074.009zm-.231-.028a.05.05 0 0 1 .093 0c.009.019.019 0 .037-.009-.009.019 0 .019.009.028h.028c-.009 0-.009.009-.019.019a.02.02 0 0 1 .019.019c-.009-.009-.046-.019-.056-.009 0-.056-.083-.046-.111-.046z" transform="translate(1.611)" style="stroke-width:.013px;stroke-linecap:round;stroke-linejoin:round;stroke-miterlimit:2.613;stroke:#000;fill-rule:evenodd;fill:#fff22d"/>
    <path data-name="Path 303" d="M10.056 9.343c-.037 0-.037.009-.028.028s.037.009.037-.019a.009.009 0 0 0-.009-.009z" transform="translate(1.611)" style="stroke-width:.013px;stroke-linecap:round;stroke-linejoin:round;stroke-miterlimit:2.613;stroke:#000;fill:#cc2229;fill-rule:evenodd"/>
    <path data-name="Path 304" d="M10.167 9.324c-.056 0-.009.056.009.019a.032.032 0 0 0-.009-.019z" transform="translate(1.611)" style="fill:#fff;stroke-width:.013px;stroke-linecap:round;stroke-linejoin:round;stroke-miterlimit:2.613;stroke:#000;fill-rule:evenodd"/>
    <path data-name="Path 305" d="M10.25 9.278c-.019.019-.009.056.019.046s-.01-.046-.019-.046z" transform="translate(1.611)" style="stroke-width:.013px;stroke-linecap:round;stroke-linejoin:round;stroke-miterlimit:2.613;stroke:#000;fill:#cc2229;fill-rule:evenodd"/>
    <path data-name="Path 306" d="M10.38 9.287c-.009-.009-.028.009-.019.028.039.028.046-.009.019-.028z" transform="translate(1.611)" style="fill:#fff;stroke-width:.013px;stroke-linecap:round;stroke-linejoin:round;stroke-miterlimit:2.613;stroke:#000;fill-rule:evenodd"/>
    <path data-name="Path 307" d="M10.5 9.269c0-.009-.028 0-.028.009a.024.024 0 0 0 .046.009.02.02 0 0 0-.019-.019z" transform="translate(1.611)" style="stroke-width:.013px;stroke-linecap:round;stroke-linejoin:round;stroke-miterlimit:2.613;stroke:#000;fill:#cc2229;fill-rule:evenodd"/>
    <path data-name="Path 308" d="M10.611 9.3c-.056 0 0 .046.019.019a.02.02 0 0 0-.019-.019z" transform="translate(1.611)" style="fill:#fff;stroke-width:.013px;stroke-linecap:round;stroke-linejoin:round;stroke-miterlimit:2.613;stroke:#000;fill-rule:evenodd"/>
    <path data-name="Path 309" d="M10.713 9.3c.019.009.009.046-.028.037-.018-.013.009-.05.028-.037z" transform="translate(1.611)" style="stroke-width:.013px;stroke-linecap:round;stroke-linejoin:round;stroke-miterlimit:2.613;stroke:#000;fill:#cc2229;fill-rule:evenodd"/>
    <path data-name="Path 310" d="M10.824 9.333c.046 0 0 .056-.019.019.001-.009.001-.019.019-.019z" transform="translate(1.611)" style="fill:#fff;stroke-width:.013px;stroke-linecap:round;stroke-linejoin:round;stroke-miterlimit:2.613;stroke:#000;fill-rule:evenodd"/>
    <path data-name="Path 311" d="M10.926 9.361c.037 0 .046.009.037.028a.031.031 0 0 1-.046-.028z" transform="translate(1.611)" style="stroke-width:.013px;stroke-linecap:round;stroke-linejoin:round;stroke-miterlimit:2.613;stroke:#000;fill:#cc2229;fill-rule:evenodd"/>
    <path data-name="Path 312" d="M10.222 9.454h.028a.02.02 0 0 1-.019.019c-.009.009-.019 0-.019-.009a.009.009 0 0 1 .009-.009zm.528 0h-.019a.02.02 0 0 0 .019.019c0 .009.009 0 .009-.009a.009.009 0 0 0-.009-.01zm-.35-.019a.032.032 0 0 1 .019.009c0 .009-.009.009-.019.009a.009.009 0 0 1-.009-.009zm.185-.009a.032.032 0 0 0-.019.009.02.02 0 0 0 .019.019c.009 0 .009-.009.009-.019a.009.009 0 0 0-.011-.009z" transform="translate(1.611)" style="fill:#fff;stroke-width:.013px;stroke-linecap:round;stroke-linejoin:round;stroke-miterlimit:2.613;stroke:#000;fill-rule:evenodd"/>
    <path data-name="Path 313" d="M10.315 9.435c.028 0 .046 0 .046.009s-.019.009-.046.019-.046 0-.046-.009a.389.389 0 0 1 .046-.019zm.361 0c-.028 0-.056 0-.056.009s.019.009.046.019.046 0 .046-.009z" transform="translate(1.611)" style="fill:#33a457;stroke-width:.013px;stroke-linecap:round;stroke-linejoin:round;stroke-miterlimit:2.613;stroke:#000;fill-rule:evenodd"/>
    <path data-name="Path 314" d="M10.5 9.426a.188.188 0 0 1 .046.009c0 .009-.028.019-.046.019s-.056-.009-.056-.019.028-.009.056-.009zm-.343.028-.019.028.028.019.019-.028zm.676 0 .019.028-.028.019-.024-.029.037-.019z" transform="translate(1.611)" style="stroke-width:.013px;stroke-linecap:round;stroke-linejoin:round;stroke-miterlimit:2.613;stroke:#000;fill:#cc2229;fill-rule:evenodd"/>
    <path data-name="Path 315" d="M3.694 9.528c0 .074.63.083.639 0-.037-.093-.63-.083-.639 0z" transform="translate(1.611)" style="stroke-width:.047px;stroke-linecap:round;stroke-linejoin:round;stroke-miterlimit:2.613;stroke:#000;fill-rule:evenodd;fill:#fff22d"/>
    <path data-name="Path 316" d="M4.481 9.213c0-.074-.13-.12-.213-.056a.2.2 0 0 0-.259-.046.168.168 0 0 0-.241.037c-.074-.056-.213-.009-.213.083.056.222.1.2.13.194a1.624 1.624 0 0 1 .667.009c.065.009.12-.111.13-.222z" transform="translate(1.611)" style="stroke-width:.028px;stroke-linecap:round;stroke-linejoin:round;stroke-miterlimit:2.613;stroke:#000;fill:#cc2229;fill-rule:evenodd"/>
    <path data-name="Path 317" d="M3.713 9.528a1.045 1.045 0 0 1 .587-.009c0 .065-.6.056-.583.009z" transform="translate(1.611)" style="stroke-width:.047px;stroke-linecap:round;stroke-linejoin:round;stroke-miterlimit:2.613;stroke:#000;fill:#cc2229;fill-rule:evenodd"/>
    <path data-name="Path 318" d="m4.333 9.519.019-.065a1.51 1.51 0 0 0-.676 0l.009.065a.919.919 0 0 1 .648 0z" transform="translate(1.611)" style="stroke-width:.047px;stroke-linecap:round;stroke-linejoin:round;stroke-miterlimit:2.613;stroke:#000;fill-rule:evenodd;fill:#fff22d"/>
    <path data-name="Path 319" d="M3.667 9.417c-.009.009-.019.028.019.028a1.573 1.573 0 0 1 .657 0c.009.009.009 0 .019 0s-.009-.019-.019-.019a2.084 2.084 0 0 0-.676-.009zm-.074-.047c0-.009-.009-.009-.009 0a.07.07 0 0 0 .074.056c.019-.009.046-.028.046-.037.019.019.083.028.083-.028.019.037.074.056.12 0 .037.037.074.037.1 0a.086.086 0 0 0 .12 0 .067.067 0 0 0 .1.019.07.07 0 0 0 .093.019c.028.009.019.046.046.037s.056-.037.056-.065c-.074.074-.065.028-.074 0-.046.028-.093.046-.12-.028q-.056.069-.083-.028c-.019.028-.093.093-.13-.009-.019.056-.074.083-.111.028-.009.009-.065.083-.12 0-.019.056-.046.065-.083.009-.019.065-.074.083-.111.028zm.417-.352a.009.009 0 0 1 .009.009c0 .009 0 .009-.009.009S4 9.037 4 9.028a.009.009 0 0 1 .009-.009zm0 .028c.009 0 .009.009.009.019a.009.009 0 0 1-.019 0c0-.009 0-.019.009-.019zm0 .037a.032.032 0 0 1 .019.009.02.02 0 0 1-.019.019C4 9.111 4 9.1 4 9.093a.009.009 0 0 1 .009-.01zm0 .037c.019 0 .028.009.028.019s-.009.019-.028.019a.019.019 0 1 1 0-.037zm.519.12c-.009 0-.019.019-.019.028a.02.02 0 0 0 .019.019c.009 0 .028-.009.028-.019a.042.042 0 0 0-.029-.027zm.019-.056a.019.019 0 1 0 0 .037c.019 0 .028-.009.028-.019s-.011-.017-.03-.017zm.009-.046c-.019 0-.028.009-.028.019s.009.019.028.019.028-.009.028-.019-.02-.018-.029-.018zm-.019-.056a.019.019 0 1 0 0 .037c.019 0 .028-.009.028-.019s-.01-.017-.029-.017zm-.046-.046c-.019 0-.019.009-.019.028s0 .019.019.019.028-.009.028-.019a.025.025 0 0 0-.029-.027zm-.056-.009a.019.019 0 1 0 0 .037c.019 0 .028-.009.028-.019s-.01-.017-.029-.017zm-.046-.009c-.019 0-.028.009-.028.019s.009.019.028.019.028-.009.028-.019-.018-.018-.029-.018zm-.046-.009a.025.025 0 0 0-.028.028c0 .009.009.019.028.019a.02.02 0 0 0 .019-.019c-.002-.018-.011-.028-.02-.028zm-.074.157a.019.019 0 1 0 .019.019.02.02 0 0 0-.02-.018zm.009-.037a.02.02 0 0 0-.019.019c0 .009.009.009.019.009s.019 0 .019-.009a.02.02 0 0 0-.019-.019zm.021-.046c-.019 0-.028.009-.028.019s.009.019.028.019c0 0 .019-.009.019-.019S4.3 9.083 4.3 9.083zm-.009-.046c-.019 0-.028 0-.028.009s.009.019.028.019a.02.02 0 0 0 .019-.019c-.004-.009-.01-.009-.023-.009zm-.046-.046a.02.02 0 0 0-.019.019c0 .009.009.028.019.028a.03.03 0 0 0 .028-.028c-.004-.01-.014-.019-.032-.019zm-.056-.028c-.009 0-.019.019-.019.019 0 .019.009.028.019.028a.03.03 0 0 0 .028-.028s-.023-.019-.032-.019zm-.056 0A.019.019 0 1 0 4.13 9c.019 0 .028-.009.028-.019s-.01-.018-.028-.018zm-.056 0a.019.019 0 1 0 0 .037c.019 0 .028-.009.028-.019s-.012-.018-.031-.018zm-.13 0a.019.019 0 1 1 0 .037c-.009 0-.028-.009-.028-.019s.016-.018.025-.018zm-.056 0c.019 0 .028.009.028.019S3.907 9 3.889 9a.019.019 0 1 1 0-.037zm-.056 0a.034.034 0 0 1 .028.019.025.025 0 0 1-.028.028c-.009 0-.019-.009-.019-.028-.001-.001.008-.019.017-.019zm-.056.028c.019 0 .028.009.028.019a.03.03 0 0 1-.028.028c-.019 0-.019-.019-.019-.028s-.001-.019.018-.019zm-.037.046c.009 0 .019 0 .019.009a.02.02 0 0 1-.019.019c-.019 0-.028-.009-.028-.019s.008-.009.027-.009zm-.009.046a.019.019 0 1 1-.019.019.02.02 0 0 1 .017-.019zm.009.046a.02.02 0 0 1 .019.019c0 .009-.009.009-.019.009s-.009 0-.009-.009-.002-.018.008-.018zm.019.037a.023.023 0 0 1 0 .037.019.019 0 1 1 0-.037zm-.074-.157c.019 0 .019.009.019.028s0 .019-.019.019-.028-.009-.028-.019a.03.03 0 0 1 .026-.028zm-.046.009a.019.019 0 1 1 0 .037c-.019 0-.028-.009-.028-.019s.007-.017.026-.017zm-.056.009c.009 0 .028.009.028.019s-.019.019-.028.019-.028-.009-.028-.019.017-.018.026-.018zm-.1.056c.009 0 .028.009.028.019s-.019.019-.028.019-.019-.009-.019-.019-.003-.019.015-.019zm.046-.046a.025.025 0 0 1 .028.028c0 .009-.009.019-.028.019a.02.02 0 0 1-.019-.019c-.003-.019.007-.028.016-.028zm-.056.148c.019 0 .028.009.028.019s-.009.019-.028.019a.019.019 0 1 1 0-.037zm-.009-.046c.019 0 .028.009.028.019s-.009.019-.028.019a.019.019 0 1 1 0-.037zm.028.1a.03.03 0 0 1 .028.028c0 .009-.009.019-.028.019s-.028-.009-.028-.019a.042.042 0 0 1 .025-.026zm.991.037-.009-.046c.1-.1-.056-.185-.157-.157l-.009-.019c.111 0 .3.037.167.176l.028.046h-.024zm-.241-.065-.019-.056c.1-.111-.1-.176-.167-.12v-.016c.093-.056.287.037.185.148l.019.037-.019.009zm-.176-.176c-.009.046-.037.1.009.13l-.04.035-.009-.009.028-.028a.168.168 0 0 1 .009-.148zm-.111 0c.009.046.037.1-.009.13l.046.037L4 9.194l-.037-.028c.037-.037.019-.111-.009-.148zm-.176.176.019-.054c-.093-.111.1-.176.167-.12v-.018c-.093-.056-.287.037-.176.148l-.032.033.019.009zm-.241.065.019-.046c-.1-.1.046-.185.148-.157v-.017c-.093 0-.287.037-.167.176l-.019.046zm.481-.389c.065.046.037.093 0 .13-.019-.028-.037-.037-.046-.065a.107.107 0 0 1 .046-.065zm0 .074V8.87h.028v-.009h-.03v-.018h-.01v.019h-.018v.008h.019v.093h-.038l.009.009h.074v-.009z" transform="translate(1.611)" style="fill:#fff;stroke-width:.013px;stroke-linecap:round;stroke-linejoin:round;stroke-miterlimit:2.613;stroke:#000;fill-rule:evenodd"/>
    <path data-name="Path 320" d="M4.546 9.333a.055.055 0 0 0-.1 0c0 .009-.019 0-.037-.009.009.009.009.019 0 .019H4.38a.071.071 0 0 1 .02.027c-.009 0-.019.009-.028.009.019 0 .046-.009.065 0 0-.056.083-.046.111-.046zm-.259.019-.009-.019.037-.009-.037-.009.022-.028-.05.013.028-.056-.028.006-.009-.028-.028.028-.019-.019.009.056-.037-.009.009.019-.046.009.037.019-.009.009.046.009.083.009zm-.269-.046-.083.019.019-.025-.065-.019.065-.009-.019-.028.056.019-.028-.065.037.015.009-.046.019.046.028-.028-.009.083.053-.018-.028.028.056.009-.056.018.019.028-.074-.028zm-.3.037v-.019l-.037-.009.041-.015-.028-.019h.056l-.028-.046.028.009.009-.028.019.019.028-.009-.006.052.037-.018-.009.028h.037l-.037.028.019.019h-.06l-.065.009zm-.241-.028c.028-.037.083-.046.1 0 0 .019.019 0 .037-.009-.009.019-.009.019.009.028h.019c-.009 0-.009.009-.019.019a.02.02 0 0 1 .019.019.057.057 0 0 0-.056-.009c.007-.057-.077-.048-.105-.048z" transform="translate(1.611)" style="stroke-width:.013px;stroke-linecap:round;stroke-linejoin:round;stroke-miterlimit:2.613;stroke:#000;fill-rule:evenodd;fill:#fff22d"/>
    <path data-name="Path 321" d="M3.583 9.343c-.037 0-.046.009-.037.028s.037.009.037-.019v-.009z" transform="translate(1.611)" style="stroke-width:.013px;stroke-linecap:round;stroke-linejoin:round;stroke-miterlimit:2.613;stroke:#000;fill:#cc2229;fill-rule:evenodd"/>
    <path data-name="Path 322" d="M3.685 9.324c-.046 0 0 .056.019.019a.02.02 0 0 0-.019-.019z" transform="translate(1.611)" style="fill:#fff;stroke-width:.013px;stroke-linecap:round;stroke-linejoin:round;stroke-miterlimit:2.613;stroke:#000;fill-rule:evenodd"/>
    <path data-name="Path 323" d="M3.769 9.278a.027.027 0 0 0 .028.046c.018-.018-.019-.046-.028-.046z" transform="translate(1.611)" style="stroke-width:.013px;stroke-linecap:round;stroke-linejoin:round;stroke-miterlimit:2.613;stroke:#000;fill:#cc2229;fill-rule:evenodd"/>
    <path data-name="Path 324" d="M3.907 9.287a.02.02 0 0 0-.028.028c.038.028.047-.009.028-.028z" transform="translate(1.611)" style="fill:#fff;stroke-width:.013px;stroke-linecap:round;stroke-linejoin:round;stroke-miterlimit:2.613;stroke:#000;fill-rule:evenodd"/>
    <path data-name="Path 325" d="M4.028 9.269c-.009-.009-.028 0-.037.009s.037.037.046.009c0-.009 0-.018-.009-.018z" transform="translate(1.611)" style="stroke-width:.013px;stroke-linecap:round;stroke-linejoin:round;stroke-miterlimit:2.613;stroke:#000;fill:#cc2229;fill-rule:evenodd"/>
    <path data-name="Path 326" d="M4.139 9.3c-.056 0 0 .046.019.019-.001-.013-.019-.019-.019-.019z" transform="translate(1.611)" style="fill:#fff;stroke-width:.013px;stroke-linecap:round;stroke-linejoin:round;stroke-miterlimit:2.613;stroke:#000;fill-rule:evenodd"/>
    <path data-name="Path 327" d="M4.231 9.3c.019.009.009.046-.028.037-.018-.013.019-.05.028-.037z" transform="translate(1.611)" style="stroke-width:.013px;stroke-linecap:round;stroke-linejoin:round;stroke-miterlimit:2.613;stroke:#000;fill:#cc2229;fill-rule:evenodd"/>
    <path data-name="Path 328" d="M4.343 9.333c.056 0 .009.056-.009.019-.001-.009-.001-.019.009-.019z" transform="translate(1.611)" style="fill:#fff;stroke-width:.013px;stroke-linecap:round;stroke-linejoin:round;stroke-miterlimit:2.613;stroke:#000;fill-rule:evenodd"/>
    <path data-name="Path 329" d="M4.454 9.361q.042 0 .028.028c-.009.009-.037 0-.037-.028z" transform="translate(1.611)" style="stroke-width:.013px;stroke-linecap:round;stroke-linejoin:round;stroke-miterlimit:2.613;stroke:#000;fill:#cc2229;fill-rule:evenodd"/>
    <path data-name="Path 330" d="M3.75 9.454h.019a.02.02 0 0 1-.019.019c-.009.009-.019 0-.019-.009a.032.032 0 0 1 .019-.01zm.528 0h-.019c0 .009 0 .019.009.019s.019 0 .019-.009zm-.352-.019a.009.009 0 0 1 .009.009c0 .009 0 .009-.009.009s-.019 0-.019-.009a.032.032 0 0 1 .019-.009zm.174-.009-.009.009a.033.033 0 0 0 .009.019.02.02 0 0 0 .019-.019.032.032 0 0 0-.019-.009z" transform="translate(1.611)" style="fill:#fff;stroke-width:.013px;stroke-linecap:round;stroke-linejoin:round;stroke-miterlimit:2.613;stroke:#000;fill-rule:evenodd"/>
    <path data-name="Path 331" d="M3.833 9.435c.028 0 .046 0 .046.009s-.009.009-.037.019-.046 0-.046-.009zm.361 0c-.028 0-.046 0-.046.009s.019.009.037.019.056 0 .056-.009a.389.389 0 0 0-.046-.019z" transform="translate(1.611)" style="fill:#33a457;stroke-width:.013px;stroke-linecap:round;stroke-linejoin:round;stroke-miterlimit:2.613;stroke:#000;fill-rule:evenodd"/>
    <path data-name="Path 332" d="M4.019 9.426a.112.112 0 0 1 .046.009c0 .009-.019.019-.046.019s-.046-.009-.046-.019.018-.009.046-.009zm-.343.028-.019.028.028.019.015-.029zm.676 0 .019.028-.028.018-.019-.028z" transform="translate(1.611)" style="stroke-width:.013px;stroke-linecap:round;stroke-linejoin:round;stroke-miterlimit:2.613;stroke:#000;fill:#cc2229;fill-rule:evenodd"/>
    <path data-name="Path 333" d="M7.213 12.056h2.268v1.852c.037.481-.639.685-1.065.852a2.17 2.17 0 0 1-1.2-.852v-1.852z" transform="translate(1.611)" style="stroke-width:.028px;stroke-linecap:round;stroke-linejoin:round;stroke-miterlimit:2.613;stroke:#000;fill:#cc2229;fill-rule:evenodd"/>
    <path data-name="Path 334" d="M8.287 12.4H8.4l.065.065v.213l-.056.065h-.13l-.056-.065v-.2l.065-.074zm.722-.213v.113l-.065.065h-.222l-.056-.056v-.12l.056-.065h.213l.074.065zm-.907 0v.12l-.074.065h-.213l-.056-.056v-.13l.056-.056h.213l.074.056zm-.676.333h.111l.065.065v.215l-.056.056h-.13l-.055-.056v-.2l.065-.074zm.361.065.074-.083.1-.009.157.139.009.083-.083.093h-.081l-.148-.13zm1.176-.019-.074-.083h-.1l-.157.13-.009.074.083.1h.083l.157-.12.019-.1zm.157-.046h.12l.065.065v.215l-.056.056H9.12l-.064-.056v-.2zm-.111.435v.111l-.065.065h-.222l-.056-.056v-.13l.056-.056h.213l.074.065zm-.909-.02v.12l-.074.065h-.211l-.056-.056v-.13l.056-.065h.213l.074.065zm-.676.213h.111l.074.074v.222l-.065.046h-.13l-.056-.056v-.213zm.685.12-.074-.074-.1-.009-.157.139-.009.074.093.1h.083l.157-.13.009-.1zm.509.028.074-.093.093-.009.167.139v.083l-.074.1h-.091l-.157-.13zm.509-.148h.111l.065.065v.213l-.056.065H9.12l-.056-.065v-.213zm-.852.389h.111l.065.065v.213l-.051.055h-.13l-.056-.056V13.6l.065-.065zm.769.592-.056-.1L8.9 14l-.194.1-.009.074.056.12.083.019.176-.1.037-.083zm-1.324.056.046-.1.093-.028.194.083.028.074-.056.12-.074.028-.185-.083-.046-.092z" transform="translate(1.611)" style="stroke-width:.004px;stroke-linecap:round;stroke-linejoin:round;stroke-miterlimit:2.613;stroke:#000;fill-rule:evenodd;fill:#fff22d"/>
    <path data-name="Path 335" d="M9.12 13.731 7.537 12.37v.583H9.12v-.528l-1.555 1.334c0 .222.37.491.722.491v-1.944l-.639-.006 1.472 1.256v-.509H7.537v.537L9.065 12.3H8.4v1.935c.352.009.722-.259.722-.5zm.12-1.537v1.491c-.009.4-.481.657-.88.657s-.935-.241-.935-.592v-1.556h1.816z" transform="translate(1.611)" style="stroke-width:.013px;stroke-linecap:round;stroke-linejoin:round;stroke-miterlimit:2.613;stroke:#000;fill-rule:evenodd;fill:#fff22d"/>
    <path data-name="Path 336" d="M8.343 12.824a.185.185 0 0 1 0 .37.185.185 0 0 1 0-.37z" transform="translate(1.611)" style="fill:#598376;fill-rule:evenodd"/>
    <path data-name="Path 337" d="M9.167 12.9a.1.1 0 0 1 .111.1.112.112 0 0 1-.222 0 .1.1 0 0 1 .111-.1zm-.815-.741a.1.1 0 0 1 .111.1.111.111 0 0 1-.111.1.1.1 0 0 1-.111-.1.1.1 0 0 1 .111-.102zm-.009 2.019a.1.1 0 0 1 .111.1.112.112 0 0 1-.222 0 .1.1 0 0 1 .111-.102zm-.87-1.269a.105.105 0 0 1 .111.1.107.107 0 0 1-.111.111.1.1 0 0 1-.1-.111.1.1 0 0 1 .1-.1z" transform="translate(1.611)" style="stroke-width:.013px;stroke-linecap:round;stroke-linejoin:round;stroke-miterlimit:2.613;stroke:#000;fill-rule:evenodd;fill:#fff22d"/>
    <path data-name="Path 338" d="M8.056 12.2v.1l-.046.046h-.167L7.8 12.3v-.1l.056-.037H8l.056.046zm.907-.009v.093l-.046.046H8.75l-.05-.03v-.111l.056-.037h.148zm.167.361h.093l.046.046v.176l-.037.037h-.1l-.046-.046v-.157zm-.213.028-.056-.065-.074-.009-.12.111-.009.056.065.083h.065l.111-.1.019-.074zm-.62-.148h.093l.046.046v.176l-.037.037h-.112l-.037-.046v-.157zm-.463.167.056-.065.074-.009.12.111.009.056-.065.083h-.065l-.111-.111-.019-.064zm-.4-.046h.093l.046.046v.176l-.046.037h-.092l-.046-.046v-.157zm.62.4v.083l-.046.046h-.165l-.043-.036v-.1l.056-.037H8l.056.047zm.907.009v.092l-.046.046H8.75l-.05-.044v-.092l.056-.046h.148l.056.046zm-.315.343.065-.065h.074l.12.093.019.065-.074.074H8.8l-.12-.093-.028-.074zm.491-.111h.093l.046.046v.16l-.037.046H9.13l-.037-.046v-.158zm-1.7 0h.093l.046.046v.167l-.046.037h-.095l-.046-.044v-.15zm.639.093-.065-.065-.065-.009-.12.111-.009.056.056.083h.074l.111-.1.019-.074zm.213.287h.081l.056.046v.167l-.046.046h-.1l-.037-.046v-.157zm.722.565-.046-.074-.074-.028-.139.074-.019.056.046.093.056.018.139-.074.037-.065zm-1.241.056.037-.083.065-.028.148.065.019.056L8 14.3l-.056.019-.144-.069-.028-.056z" transform="translate(1.611)" style="stroke-width:.004px;stroke-linecap:round;stroke-linejoin:round;stroke-miterlimit:2.613;stroke:#000;fill:#cc2229;fill-rule:evenodd"/>
    <path data-name="Path 339" d="m7.2 9.648.009 4.259a1.489 1.489 0 0 1-1.2.815m-.926-2.676 4.4.009m0 1.9V9.648h-4.4v4.259c.25.768 1.5 1.046 2.093 1.046s2.333-.314 2.305-.999z" transform="translate(1.611)" style="stroke-width:.013px;stroke-linecap:round;stroke-linejoin:round;stroke-miterlimit:2.613;stroke:#000;fill:none"/>
    <path data-name="Path 340" d="M7.231 11.2a.784.784 0 0 1 .657.861.788.788 0 0 1-.657.87.788.788 0 0 1-.657-.87.784.784 0 0 1 .657-.861z" transform="translate(1.611)" style="stroke-width:.013px;stroke-linecap:round;stroke-linejoin:round;stroke-miterlimit:2.613;stroke:#000;fill:#cc2229;fill-rule:evenodd"/>
    <path data-name="Path 341" d="M7.222 11.463a.549.549 0 0 1 .472.6.563.563 0 0 1-.472.62c-.25 0-.463-.278-.463-.62a.55.55 0 0 1 .463-.6z" transform="translate(1.611)" style="stroke-width:.013px;stroke-linecap:round;stroke-linejoin:round;stroke-miterlimit:2.613;stroke:#000;fill-rule:evenodd"/>
    <path data-name="Path 342" d="M7.019 12.092c.083 0 .1-.1.074-.12s0-.037.009-.046a.069.069 0 0 1 .111 0c0-.083-.065-.139-.13-.093 0-.056 0-.158-.065-.2a.241.241 0 0 0-.056.2.1.1 0 0 0-.139.093.079.079 0 0 1 .12 0c.009.009.028.028 0 .046s0 .12.074.12zm.417 0c.074 0 .093-.1.065-.12s0-.037.009-.046c.019-.037.083-.037.12 0 0-.083-.065-.139-.139-.093a.241.241 0 0 0-.056-.2c-.065.046-.065.148-.065.2a.1.1 0 0 0-.139.093c.037-.037.1-.037.12 0 .009.009.028.028.009.046-.037.019-.009.12.074.12zm-.222.519c.074 0 .1-.093.074-.12-.019-.009 0-.037.009-.046.019-.028.083-.028.12 0 0-.083-.074-.139-.139-.083 0-.056 0-.167-.065-.213-.056.046-.056.157-.056.213-.074-.028-.139 0-.139.083.037-.028.1-.028.12 0 .009.009.028.037.009.046-.037.018-.009.12.065.12z" transform="translate(1.611)" style="fill:#fff;stroke-width:.013px;stroke-linecap:round;stroke-linejoin:round;stroke-miterlimit:2.613;stroke:#000;fill-rule:evenodd"/>
    <path data-name="Path 343" d="M7.222 13.908a1.984 1.984 0 0 0 1.241.842" transform="translate(1.611)" style="stroke-width:.013px;stroke-linecap:round;stroke-linejoin:round;stroke-miterlimit:2.613;stroke:#000;fill:none"/>
    <path data-name="Path 344" d="M6.157 11.278h.009a.21.21 0 0 1 .213.213v.259h-.444v-.259a.218.218 0 0 1 .222-.213z" transform="translate(1.611)" style="stroke-width:.013px;stroke-linecap:round;stroke-linejoin:round;stroke-miterlimit:2.613;stroke:#000;fill-rule:evenodd;fill:#fff22d"/>
    <path data-name="Path 345" d="M6.157 11.333h.009a.158.158 0 0 1 .157.167v.259h-.332V11.5a.166.166 0 0 1 .167-.167z" transform="translate(1.611)" style="stroke-width:.03px;fill:#505e86;stroke-linecap:round;stroke-linejoin:round;stroke-miterlimit:2.613;stroke:#000;fill-rule:evenodd"/>
    <path data-name="Path 346" d="m6.278 11.4.065-.074a.145.145 0 0 1 .065.12.415.415 0 0 0-.1.009l-.03-.055zm-.2-.13a.231.231 0 0 1 .037.083h.111l.037-.083a.217.217 0 0 0-.185 0zm-.028.139-.065-.092a.245.245 0 0 0-.065.13h.111a.048.048 0 0 1 .019-.037z" transform="translate(1.611)" style="stroke-width:.013px;stroke-linecap:round;stroke-linejoin:round;stroke-miterlimit:2.613;stroke:#000;fill-rule:evenodd;fill:#fff22d"/>
    <path data-name="Path 347" d="M8.241 9.991c-.009.046.037.074.074.12-.148.046-.185-.028-.259-.12a.122.122 0 0 0 .028.111.256.256 0 0 0 .269.12v.009a.444.444 0 0 1 0 .111c-.12.056-.241-.056-.315-.13-.037-.046-.037-.056-.093-.2-.028-.065-.25-.056-.278.019.037-.009.093-.028.12.009-.046 0-.176.009-.176.12.028-.037.139-.019.176-.019-.083.028-.148.019-.13.12.157-.093.148.111.213.157.1.065.194.037.259.167-.037.028-.1.083-.1.148-.222-.167-.315-.009-.315.037.037 0 .093-.028.13.009-.1.046-.167.111-.093.269.019-.046.074-.158.139-.158-.13.12.065.259.139.259-.1-.046-.065-.268.083-.268.009.009.009.037.046.055.083 0 .028-.12.12-.139.009.093.093.157.222.148a.18.18 0 0 1 .13.083c-.065.074-.222-.1-.269.009-.037.074 0 .139.083.269a.07.07 0 0 1-.111-.009c-.056-.13-.343-.028-.333.093a.155.155 0 0 1 .139-.037c-.1 0-.093.185-.037.241.009-.065.037-.13.1-.139.009.056-.028.065-.056.12-.046.074-.037.194.065.194-.028-.028-.019-.148.074-.148.111-.028.157.1.194.037a.944.944 0 0 0 .158-.435.32.32 0 0 0 .176.259c.056.009.139.046.1.111-.065.056-.315-.019-.333.185a.306.306 0 0 1 .185-.056.117.117 0 0 0-.019.185c.037-.1.093-.083.1-.111.093 0 .139.009.139.139.111-.065.056-.2.046-.269.1-.148.194-.287.1-.306A.207.207 0 0 1 9 11.287a.612.612 0 0 1-.028-.231c.12.074.148.037.222-.028.093-.074-.009-.556-.056-.713.037-.176.12-.139.176-.278l-.083.028.057-.165-.158.111v-.085c-.13.1-.046.287-.056.361 0 0 .13.657.028.695-.028.074-.2-.019-.231-.093a.319.319 0 0 1-.037-.185c.019.009-.037-.25-.028-.269s.083.037.13.13c.028-.12-.093-.222-.093-.25s.1.037.139.12a.189.189 0 0 0-.12-.2c-.009-.037.083-.009.148.083a.293.293 0 0 0-.157-.2.459.459 0 0 0-.306-.222 1.187 1.187 0 0 1-.306.1z" transform="translate(1.611)" style="fill:#ca0088;stroke-width:.047px;stroke-linecap:round;stroke-linejoin:round;stroke-miterlimit:2.613;stroke:#000;fill-rule:evenodd"/>
    <path data-name="Path 348" d="M8.361 10.343a.839.839 0 0 1-.231.25m.019-.009a.106.106 0 0 0 0 .157.243.243 0 0 1 .167-.148c-.056.12.065.13.12.185-.074-.083.028-.157.028-.213.009.019.046.213.194.194-.046-.056-.028-.194-.028-.241a.4.4 0 0 1 .2.2" transform="translate(1.611)" style="stroke-width:.047px;stroke-linecap:round;stroke-linejoin:round;stroke-miterlimit:2.613;stroke:#000;fill:none"/>
    <path data-name="Path 349" d="M8.343 10.231c.176-.065.074-.148-.028-.111.055-.009.157.028.028.111z" transform="translate(1.611)" style="stroke-width:.013px;stroke-linecap:round;stroke-linejoin:round;stroke-miterlimit:2.613;stroke:#000;fill-rule:evenodd"/>
    <path data-name="Path 350" d="M8.537 10.056c-.009-.009-.13-.019-.139-.037.056-.028.102-.047.139.037z" transform="translate(1.611)" style="stroke:#fff;fill:#fff;stroke-width:.013px;stroke-linecap:round;stroke-linejoin:round;stroke-miterlimit:2.613;fill-rule:evenodd"/>
</svg>
