<svg id="right" xmlns="http://www.w3.org/2000/svg" xmlns:xlink="http://www.w3.org/1999/xlink" width="140" height="140" viewBox="0 0 140 140">
  <defs>
    <linearGradient id="linear-gradient" x1="0.949" y1="0.357" x2="0.024" y2="0.652" gradientUnits="objectBoundingBox">
      <stop offset="0" stop-color="#2051d5"/>
      <stop offset="0.287" stop-color="#1c47ba"/>
      <stop offset="0.756" stop-color="#163892"/>
      <stop offset="1" stop-color="#143283"/>
    </linearGradient>
    <clipPath id="clip-path">
      <circle id="Ellipse_68" data-name="Ellipse 68" cx="67.679" cy="67.679" r="67.679" transform="translate(37.476 37.58)"/>
    </clipPath>
  </defs>
  <rect id="Rectangle_1206" data-name="Rectangle 1206" width="140" height="140" transform="translate(0 0)" fill="none"/>
  <g id="Layer_2_00000045580683170970428150000000605712698896211351_" transform="translate(-35.156 -35.277)">
    <g id="Layer_1-2">
      <g id="Group_2158" data-name="Group 2158">
        <circle id="Ellipse_67" data-name="Ellipse 67" cx="67.679" cy="67.679" r="67.679" transform="translate(37.476 37.58)" fill="url(#linear-gradient)"/>
      </g>
      <path id="Path_12669" data-name="Path 12669" d="M105.156,175.277a70,70,0,1,1,70-70A70.074,70.074,0,0,1,105.156,175.277Zm0-135.359a65.359,65.359,0,1,0,65.359,65.359,65.433,65.433,0,0,0-65.359-65.359Z" fill="#16367c"/>
      <g id="Group_2160" data-name="Group 2160" opacity="0.56">
        <g id="Group_2159" data-name="Group 2159">
          <path id="Path_12670" data-name="Path 12670" d="M142.615,73.671c-4.035-4.122-12.521-4.884-16.452,0l-20.28,25.181-9.664,12c-1.143,1.42-2.511,3.55-3.983,5.524l-.866-.9-6.564-6.737c-10.46-10.755-26.9,5.715-16.452,16.452,5.4,5.542,10.91,13.3,18.219,16.227,8.018,3.2,15.136-.658,20.3-6.91,12.088-14.651,23.847-29.6,35.762-44.386C146.6,85.188,147.343,78.5,142.615,73.671Z" fill="#2e5599"/>
        </g>
      </g>
      <path id="Path_12671" data-name="Path 12671" d="M142.026,71.351c-4.035-4.122-12.521-4.884-16.452,0l-20.3,25.2-9.664,12c-1.143,1.42-2.511,3.55-3.983,5.524-.294-.294-.571-.606-.866-.9-2.182-2.251-4.381-4.5-6.564-6.737-10.46-10.755-26.9,5.715-16.452,16.452,5.4,5.542,10.91,13.3,18.219,16.227,8.018,3.2,15.136-.658,20.3-6.91,12.071-14.668,23.847-29.6,35.762-44.386C145.992,82.867,146.754,76.183,142.026,71.351Z" fill="#fff"/>
      <path id="Path_12672" data-name="Path 12672" d="M125.106,43.624C109.8,37.078,67.7,35.485,46.291,77.239,66.415,53.08,88.236,40.871,125.106,43.624Z" fill="#6197e5"/>
      <path id="Path_12673" data-name="Path 12673" d="M91.094,168.783c35.554-2.563,60.163-23.38,77.17-48.474-2.736,15.638-13.3,30.012-26.116,38.845s-32.7,14.218-51.227,9.629" fill="#14254c"/>
    </g>
  </g>
</svg>
