<svg width="25" height="24" viewBox="0 0 25 24" fill="none" xmlns="http://www.w3.org/2000/svg">
    <path fill-rule="evenodd" clip-rule="evenodd" d="M12.2341 1.49493C12.6212 1.49493 12.9538 1.76234 13.0266 2.13215L13.059 2.2966C13.1863 2.94297 13.8736 3.32897 14.5127 3.11301L14.6754 3.05805C15.0411 2.9345 15.4455 3.08094 15.639 3.40702L15.9313 3.89953C16.1249 4.22562 16.0531 4.63947 15.7602 4.88571L15.63 4.99523C15.1181 5.42564 15.1181 6.19764 15.63 6.62804L15.7602 6.73755C16.0531 6.98381 16.1249 7.39765 15.9313 7.72374L15.639 8.21625C15.4455 8.54234 15.0411 8.68877 14.6754 8.56521L14.5128 8.51024C13.8736 8.29425 13.1863 8.68025 13.059 9.32667L13.0266 9.49112C12.9538 9.86093 12.6212 10.1283 12.2341 10.1283H11.6494C11.2623 10.1283 10.9297 9.86093 10.8569 9.49116L10.8245 9.3266C10.6972 8.68025 10.0098 8.29425 9.37067 8.51024L9.20809 8.56518C8.84241 8.68877 8.43804 8.5423 8.24447 8.21621L7.95214 7.72374C7.75858 7.39765 7.83038 6.98381 8.12322 6.73755L8.25348 6.62804C8.76533 6.19761 8.76533 5.42564 8.25348 4.99524L8.12322 4.88572C7.83038 4.63947 7.75858 4.22563 7.95214 3.89955L8.24449 3.40703C8.43804 3.08094 8.84241 2.9345 9.20808 3.05806L9.37071 3.11301C10.0098 3.32897 10.6972 2.94299 10.8245 2.29664L10.8569 2.13212C10.9297 1.76232 11.2623 1.49493 11.6494 1.49493H12.2341ZM11.9417 7.04499C12.6207 7.04499 13.1711 6.49279 13.1711 5.81164C13.1711 5.13046 12.6207 4.57829 11.9417 4.57829C11.2628 4.57829 10.7124 5.13046 10.7124 5.81164C10.7124 6.49279 11.2628 7.04499 11.9417 7.04499Z" fill="#0079FF"/>
    <path d="M4.72233 21.0284H4.40921C3.2735 21.0284 2.70565 21.0284 2.35282 20.6756C2 20.3228 2 19.7549 2 18.6192V17.2797C2 16.6551 2 16.3429 2.16043 16.064C2.32086 15.785 2.56288 15.6443 3.04692 15.3628C6.23368 13.5093 10.7593 12.4659 13.78 14.2676C13.9828 14.3886 14.1654 14.5347 14.3213 14.7099C14.9936 15.4651 14.9447 16.6047 14.1699 17.281C14.0062 17.4237 13.8319 17.5322 13.6563 17.5697C13.8006 17.553 13.9389 17.5338 14.0709 17.5128C15.1688 17.3376 16.0903 16.751 16.934 16.1136L19.111 14.4692C19.8784 13.8894 21.0175 13.8893 21.7851 14.4688C22.4762 14.9907 22.6874 15.8498 22.2505 16.55C21.7411 17.3668 21.0233 18.4115 20.334 19.0498C19.6438 19.6891 18.6162 20.2599 17.7773 20.6647C16.848 21.1133 15.8214 21.3717 14.7771 21.5409C12.6593 21.8836 10.4522 21.8313 8.35591 21.3994C7.17081 21.1553 5.94002 21.0284 4.72233 21.0284Z" fill="#0079FF"/>
</svg>
