<svg width="25" height="24" viewBox="0 0 25 24" fill="none" xmlns="http://www.w3.org/2000/svg">
  <path fill-rule="evenodd" clip-rule="evenodd" d="M22.3266 12V14C22.3266 17.7712 22.3266 19.6569 21.1554 20.8284C19.9841 22 18.099 22 14.3289 22H10.33C6.5598 22 4.67472 22 3.50347 20.8284C2.33223 19.6569 2.33223 17.7712 2.33223 14V12C2.33223 11.6997 2.33061 11.4435 2.32911 11.2076C2.32643 10.7845 2.32417 10.4272 2.33245 10H22.301C22.3028 10.0935 22.3046 10.1837 22.3064 10.2719C22.3172 10.8114 22.3266 11.2789 22.3266 12ZM15.0402 13.1521C15.243 13.3548 15.243 13.6836 15.0402 13.8864L11.5787 17.3479C11.3759 17.5507 11.0472 17.5507 10.8444 17.3479L9.45977 15.9633C9.257 15.7605 9.257 15.4318 9.45977 15.229C9.66254 15.0262 9.9913 15.0262 10.1941 15.229L11.2115 16.2464L12.7587 14.6993L14.3059 13.1521C14.5087 12.9493 14.8374 12.9493 15.0402 13.1521Z" fill="#0079FF"/>
  <path d="M7.28672 2C7.70424 2 8.04271 2.30996 8.04271 2.69231V4.08883C8.71329 4.07692 9.46495 4.07692 10.3107 4.07692H14.3427C15.1884 4.07692 15.9401 4.07692 16.6107 4.08883V2.69231C16.6107 2.30996 16.9491 2 17.3666 2C17.7842 2 18.1226 2.30996 18.1226 2.69231V4.15008C19.5735 4.25647 20.5259 4.51758 21.2257 5.15838C21.9254 5.79917 22.2105 6.67139 22.3267 8V9H2.32666V8C2.44284 6.67139 2.72796 5.79917 3.4277 5.15838C4.12745 4.51758 5.07989 4.25647 6.53072 4.15008V2.69231C6.53072 2.30996 6.86919 2 7.28672 2Z" fill="#0079FF"/>
</svg>
