<?xml version="1.0" encoding="UTF-8"?>
<svg version="1.1" xmlns="http://www.w3.org/2000/svg" width="833" height="256">
<path d="M0 0 C274.89 0 549.78 0 833 0 C833 84.48 833 168.96 833 256 C558.11 256 283.22 256 0 256 C0 171.52 0 87.04 0 0 Z " fill="#FDFDFD" transform="translate(0,0)"/>
<path d="M0 0 C1.10572357 -0.0071553 2.21144714 -0.01431061 3.35067749 -0.02168274 C5.15619331 -0.02571609 5.15619331 -0.02571609 6.9981842 -0.02983093 C8.27365112 -0.03640213 9.54911804 -0.04297333 10.86323547 -0.04974365 C15.08667253 -0.0707225 19.31010966 -0.08114494 23.53358459 -0.09111023 C24.9934548 -0.09516105 26.45332482 -0.09927806 27.91319466 -0.10346031 C34.77855166 -0.12250381 41.64389801 -0.13673277 48.50927633 -0.14507228 C56.402454 -0.15482126 64.29534948 -0.18108271 72.18842787 -0.22157317 C78.30844433 -0.25187671 84.42838061 -0.26655482 90.54847056 -0.26985329 C94.19420424 -0.27218892 97.83963626 -0.28095179 101.48528862 -0.30631447 C105.56528392 -0.33423998 109.64466147 -0.32972096 113.7247467 -0.32279968 C114.91020584 -0.33560974 116.09566498 -0.3484198 117.31704712 -0.36161804 C131.94960668 -0.27178899 146.8155593 4.25620168 157.76014709 14.33467102 C169.84016709 27.33961134 174.75296133 41.02513792 174.71839905 58.43525696 C174.72275179 59.77803326 174.72793681 61.12080709 174.73388672 62.46357727 C174.74723073 66.09604509 174.7478603 69.72840857 174.74532342 73.36089611 C174.74425011 76.4022607 174.74914651 79.44360449 174.75392884 82.48496461 C174.76500916 89.66697907 174.76547042 96.84894122 174.75941467 104.03096008 C174.75338201 111.41714986 174.7656712 118.8031488 174.78698474 126.18930602 C174.80465711 132.54966365 174.81059306 138.90996086 174.807347 145.27034211 C174.8055422 149.06063418 174.80808894 152.85079024 174.82206154 156.64105988 C174.83472662 160.2100199 174.83261481 163.77868498 174.81965065 167.34764099 C174.81619388 169.26465133 174.82739994 171.18167104 174.83921814 173.09864807 C174.73726114 190.04941942 168.54475681 205.10314571 156.44374084 217.14717102 C143.42443056 227.25451436 130.31178927 230.45465972 114.09632874 230.42182922 C112.78459183 230.42694016 111.47285492 230.43205109 110.12136841 230.43731689 C106.54693499 230.45062528 102.97260783 230.45129481 99.3981545 230.4487536 C96.40381642 230.44767846 93.40949938 230.45258097 90.41516584 230.45735902 C83.34630547 230.46842565 76.27749825 230.46890746 69.20863342 230.46284485 C61.93826057 230.45680493 54.66808123 230.46912299 47.39774138 230.49041492 C41.13417335 230.50807774 34.87066667 230.51402498 28.60707468 230.51077718 C24.87552934 230.50897186 21.14412213 230.511525 17.41259956 230.52549171 C13.24845596 230.5404969 9.08470208 230.53105918 4.92054749 230.51948547 C3.69893921 230.52712921 2.47733093 230.53477295 1.21870422 230.54264832 C-14.9002129 230.44390885 -27.96796481 224.30824714 -39.55625916 213.14717102 C-50.53584919 200.34798791 -53.8590296 186.31229194 -53.8467865 169.84736633 C-53.85350372 168.5404483 -53.86022095 167.23353027 -53.86714172 165.88700867 C-53.88469867 162.32477984 -53.88949274 158.76264729 -53.8907733 155.20037937 C-53.89220144 152.96781749 -53.89648353 150.73527958 -53.90176773 148.50272369 C-53.92023464 140.69408635 -53.92844263 132.88551698 -53.92686462 125.07685852 C-53.92566446 117.83035381 -53.94675072 110.58414752 -53.97835195 103.33771825 C-54.00461678 97.08938822 -54.01522765 90.84115505 -54.0139538 84.59277034 C-54.01344712 80.87281314 -54.01896598 77.15312146 -54.04030991 73.43321991 C-54.06351055 69.27679478 -54.05410944 65.12102653 -54.042099 60.96455383 C-54.05333801 59.75373138 -54.06457703 58.54290894 -54.07615662 57.2953949 C-53.95965935 41.3366686 -48.35356598 27.27829461 -37.35704041 15.76045227 C-27.02195697 6.11725726 -14.2689625 0.06365182 0 0 Z " fill="#02BED4" transform="translate(62.55625915527344,15.852828979492188)"/>
<path d="M0 0 C6.69214542 4.88278758 11.58690032 10.51402136 14.109375 18.5390625 C15.23900619 26.69420693 14.38271671 33.49273729 10.109375 40.5390625 C9.70847656 41.23773438 9.30757813 41.93640625 8.89453125 42.65625 C5.90949094 47.2419641 3.36006115 48.97312515 -1.703125 51.0390625 C-4.66379231 52.28695467 -4.66379231 52.28695467 -6.890625 54.5390625 C-8.55897197 59.65954094 -8.16177316 65.22960321 -7.890625 70.5390625 C-7.0027832 70.51287842 -6.11494141 70.48669434 -5.20019531 70.4597168 C-1.89762095 70.374365 1.40377775 70.31175598 4.70703125 70.2644043 C6.13495401 70.23929903 7.56274875 70.20520663 8.99023438 70.16186523 C11.04589418 70.10102572 13.09985253 70.07281699 15.15625 70.05078125 C17.01008301 70.01150513 17.01008301 70.01150513 18.90136719 69.97143555 C22.109375 70.5390625 22.109375 70.5390625 24.50488281 72.85083008 C26.6461519 76.43840067 26.84315191 78.42991178 26.109375 82.5390625 C20.109375 87.5390625 20.109375 87.5390625 -7.890625 87.5390625 C-7.890625 111.6290625 -7.890625 135.7190625 -7.890625 160.5390625 C12.44341278 154.89071867 26.15234817 149.37543782 37.109375 131.5390625 C38.55214001 128.90463317 39.84641754 126.26705062 41.109375 123.5390625 C40.490625 123.4359375 39.871875 123.3328125 39.234375 123.2265625 C37.109375 122.5390625 37.109375 122.5390625 35.109375 119.5390625 C34.22143155 112.98946128 36.56904901 109.1330661 39.921875 103.7890625 C40.59959961 102.65791016 40.59959961 102.65791016 41.29101562 101.50390625 C45.2836698 94.9407988 45.2836698 94.9407988 48.109375 92.5390625 C50.984375 92.0390625 50.984375 92.0390625 54.109375 92.5390625 C58.39021811 96.14613221 60.65319918 99.92598056 62.921875 104.9140625 C63.38883789 105.86539063 63.38883789 105.86539063 63.86523438 106.8359375 C65.88692 111.19033732 66.59055015 114.65513475 66.109375 119.5390625 C63.89074471 122.44623323 62.58992571 123.37887893 59.109375 124.5390625 C57.88072597 126.95253585 57.88072597 126.95253585 56.859375 129.9140625 C49.20944587 149.09563553 34.92692288 162.97364951 16.234375 171.4140625 C-5.10919175 180.46389763 -26.93446626 179.43294459 -48.265625 171.2265625 C-68.20652841 162.36094463 -81.9682092 145.45973502 -89.890625 125.5390625 C-89.890625 124.8790625 -89.890625 124.2190625 -89.890625 123.5390625 C-90.839375 123.4359375 -91.788125 123.3328125 -92.765625 123.2265625 C-95.890625 122.5390625 -95.890625 122.5390625 -97.890625 119.5390625 C-98.6069186 113.34658881 -96.76546274 109.18256346 -94.078125 103.7890625 C-93.54348633 102.65791016 -93.54348633 102.65791016 -92.99804688 101.50390625 C-89.84734915 94.99439132 -89.84734915 94.99439132 -86.890625 92.5390625 C-83.578125 91.7890625 -83.578125 91.7890625 -79.890625 92.5390625 C-77.31968545 95.19461525 -75.68735278 98.32933021 -73.890625 101.5390625 C-73.25382812 102.54839844 -72.61703125 103.55773437 -71.9609375 104.59765625 C-66.30110021 113.70112949 -66.30110021 113.70112949 -66.890625 119.5390625 C-68.265625 121.9140625 -68.265625 121.9140625 -69.890625 123.5390625 C-70.550625 123.5390625 -71.210625 123.5390625 -71.890625 123.5390625 C-65.13528496 138.9571327 -55.1164042 149.03434304 -39.828125 155.91796875 C-34.57006471 157.89704422 -29.37443361 159.16811035 -23.890625 160.5390625 C-23.890625 136.4490625 -23.890625 112.3590625 -23.890625 87.5390625 C-33.460625 87.5390625 -43.030625 87.5390625 -52.890625 87.5390625 C-57.890625 84.5390625 -57.890625 84.5390625 -58.890625 82.5390625 C-59.47313615 75.31592424 -59.47313615 75.31592424 -57.31225586 72.43408203 C-54.00585666 69.84669716 -51.88269133 70.08017617 -47.71875 70.1484375 C-46.6951236 70.15692719 -46.6951236 70.15692719 -45.65081787 70.16558838 C-43.48002738 70.18790614 -41.31091294 70.23808742 -39.140625 70.2890625 C-37.6653885 70.30913374 -36.19012601 70.32738343 -34.71484375 70.34375 C-31.10622999 70.3877537 -27.49859119 70.45674667 -23.890625 70.5390625 C-23.67094136 65.04051011 -23.69555084 59.93053861 -24.890625 54.5390625 C-27.21901051 52.38700133 -29.20010895 51.6892844 -32.1796875 50.65625 C-37.9910649 48.2613596 -42.29181656 42.4843287 -44.890625 36.8515625 C-47.44617803 28.48337906 -46.99350053 18.69744823 -43.2734375 10.7890625 C-39.30799558 4.33681802 -34.06056931 -0.35384247 -26.859375 -2.83203125 C-17.75187849 -4.76138249 -8.16675975 -4.9055369 0 0 Z " fill="#FBFDFE" transform="translate(138.890625,44.4609375)"/>
<path d="M0 0 C13.11023408 -0.42770976 25.92140709 4.07591966 35.5625 13.09375 C45.5589461 24.08776245 49.08016143 36.28400459 48.6796875 50.7890625 C48.44140625 54.16015625 48.44140625 54.16015625 47.44140625 57.16015625 C24.01140625 57.16015625 0.58140625 57.16015625 -23.55859375 57.16015625 C-20.07510495 68.94839199 -20.07510495 68.94839199 -11.37109375 76.54296875 C-2.42329035 80.75196837 7.54093017 80.36144409 16.81640625 77.41015625 C21.53598768 75.63873158 26.00496597 73.54900871 30.44140625 71.16015625 C32.145038 73.06439139 33.82852203 74.98133372 35.50390625 76.91015625 C36.2319043 77.71839844 36.2319043 77.71839844 36.97460938 78.54296875 C40.42535425 82.55660109 40.42535425 82.55660109 40.5 85.36328125 C36.60445042 91.97565324 26.34221836 95.54490732 19.35546875 97.84765625 C4.42111751 101.62054498 -10.61765492 100.05667468 -24.06640625 92.80859375 C-35.00412724 86.17180712 -42.34483014 75.47958342 -45.55859375 63.16015625 C-48.17470372 48.24832942 -46.86302892 33.12418721 -38.55859375 20.16015625 C-30.31955595 9.16389591 -20.15996181 2.86362478 -6.68359375 0.47265625 C-4.45760877 0.26548537 -2.23127561 0.13966763 0 0 Z " fill="#1B1A1C" transform="translate(415.55859375,71.83984375)"/>
<path d="M0 0 C0.97171143 0.00902344 1.94342285 0.01804687 2.94458008 0.02734375 C15.72998651 0.33411681 25.81092823 3.61672621 35.3125 12.4375 C41.27470103 19.06216781 44.77362147 25.94588369 47.3125 34.4375 C47.6425 35.4275 47.9725 36.4175 48.3125 37.4375 C48.40902378 40.30198509 48.45175903 43.13631075 48.4375 46 C48.44136719 46.78052734 48.44523438 47.56105469 48.44921875 48.36523438 C48.43917749 54.18414502 48.43917749 54.18414502 47.3125 56.4375 C23.8825 56.4375 0.4525 56.4375 -23.6875 56.4375 C-19.49402014 68.66821474 -19.49402014 68.66821474 -10.3125 76.3125 C-1.53338672 80.37447779 9.03147522 79.55016215 18.02734375 76.44140625 C21.3140117 74.99751965 24.3691956 73.24379751 27.40234375 71.328125 C29.3125 70.4375 29.3125 70.4375 32.3125 71.4375 C34.00350834 73.36432923 35.53991269 75.26157009 37.0625 77.3125 C37.69865234 78.12654297 37.69865234 78.12654297 38.34765625 78.95703125 C39.546875 80.5546875 39.546875 80.5546875 41.3125 83.4375 C39.53841905 88.75974286 34.07058151 90.87769879 29.3125 93.4375 C16.41269697 98.73337502 -0.29413895 101.50539509 -13.8125 96.75 C-15.45908583 96.02642269 -17.08631251 95.25665056 -18.6875 94.4375 C-19.91726563 93.82455078 -19.91726563 93.82455078 -21.171875 93.19921875 C-32.31748718 87.31681232 -39.52904421 78.62283839 -43.99609375 66.82421875 C-45.70270332 60.93304108 -45.87019087 55.2085543 -45.875 49.125 C-45.88724609 48.32126953 -45.89949219 47.51753906 -45.91210938 46.68945312 C-45.94294863 33.91172252 -41.7751509 22.42368919 -32.875 13 C-23.32766048 4.24673321 -12.86126438 -0.14244543 0 0 Z " fill="#1B1A1C" transform="translate(663.6875,72.5625)"/>
<path d="M0 0 C32.67 0 65.34 0 99 0 C99 7.92 99 15.84 99 24 C86.46 24 73.92 24 61 24 C61 60.63 61 97.26 61 135 C53.41 135 45.82 135 38 135 C38 98.37 38 61.74 38 24 C25.46 24 12.92 24 0 24 C0 16.08 0 8.16 0 0 Z " fill="#19181A" transform="translate(276,34)"/>
<path d="M0 0 C22.66610747 -2.84939785 22.66610747 -2.84939785 29.44189453 1.60546875 C33.48175845 5.74891893 36.21630496 10.62981212 38.82763672 15.75976562 C40.40535371 18.77457843 42.29233156 21.38927287 44.3125 24.125 C45.20984712 25.41561547 46.10643282 26.70676459 47 28 C49.73692042 25.38402188 51.98699726 22.77166078 54.09375 19.62890625 C54.64933594 18.80712891 55.20492187 17.98535156 55.77734375 17.13867188 C56.34582031 16.28853516 56.91429687 15.43839844 57.5 14.5625 C58.63354092 12.87504055 59.7689091 11.18880687 60.90625 9.50390625 C61.40447266 8.75955322 61.90269531 8.0152002 62.41601562 7.24829102 C62.93873047 6.50635498 63.46144531 5.76441895 64 5 C64.59844727 4.09217773 65.19689453 3.18435547 65.81347656 2.24902344 C68 0 68 0 70.84082031 -0.56762695 C72.44328613 -0.52835083 72.44328613 -0.52835083 74.078125 -0.48828125 C75.81835938 -0.46411133 75.81835938 -0.46411133 77.59375 -0.43945312 C78.8003125 -0.39755859 80.006875 -0.35566406 81.25 -0.3125 C83.08304688 -0.27866211 83.08304688 -0.27866211 84.953125 -0.24414062 C87.96998502 -0.18521758 90.98437515 -0.10299265 94 0 C92.73424249 2.64398662 91.36324713 5.04867577 89.671875 7.44140625 C89.20845703 8.09850586 88.74503906 8.75560547 88.26757812 9.43261719 C87.76677734 10.13547852 87.26597656 10.83833984 86.75 11.5625 C85.96786133 12.66513184 85.96786133 12.66513184 85.16992188 13.79003906 C79.86871311 21.23488892 74.4638224 28.6037741 69.03125 35.953125 C68.51046875 36.66146484 67.9896875 37.36980469 67.453125 38.09960938 C66.2238245 39.70728328 64.88747507 41.23222698 63.53125 42.734375 C61.80551973 44.86329621 61.80551973 44.86329621 61.89453125 47.3046875 C63.55792848 51.36032033 66.06700642 54.6317668 68.6875 58.125 C69.26113281 58.90472168 69.83476563 59.68444336 70.42578125 60.48779297 C72.27528267 62.99833102 74.13672133 65.49967434 76 68 C77.89382893 70.55164441 79.7857476 73.10466923 81.67504883 75.65966797 C82.859983 77.26039911 84.04842557 78.85854131 85.2409668 80.45361328 C88.74139213 85.16566509 91.97346053 89.97000071 95 95 C72.34651989 97.84781044 72.34651989 97.84781044 65.57421875 93.41064453 C61.54621413 89.27836464 58.83858103 84.39405863 56.21972656 79.28759766 C54.49654422 76.05576849 52.4079794 73.28604086 50.1875 70.375 C49.56230469 69.51648438 48.93710937 68.65796875 48.29296875 67.7734375 C47.65294922 66.89558594 47.65294922 66.89558594 47 66 C44.27547957 68.60743969 42.0172937 71.2137503 39.90625 74.3359375 C39.35066406 75.15320313 38.79507813 75.97046875 38.22265625 76.8125 C37.65417969 77.658125 37.08570313 78.50375 36.5 79.375 C35.93152344 80.21289062 35.36304688 81.05078125 34.77734375 81.9140625 C34.22175781 82.73390625 33.66617188 83.55375 33.09375 84.3984375 C32.54557617 85.18750488 31.99740234 85.97657227 31.43261719 86.78955078 C29.82267508 89.14526995 29.82267508 89.14526995 28.421875 92.578125 C25.38161022 95.61838978 24.14126526 95.42351074 19.921875 95.5859375 C17.53054832 95.54608206 15.13958539 95.47456606 12.75 95.375 C11.52796875 95.34792969 10.3059375 95.32085937 9.046875 95.29296875 C6.02947259 95.22224838 3.0156243 95.12359116 0 95 C1.21216672 91.69606319 2.51041502 89.04714642 4.6875 86.28515625 C5.21641846 85.60598145 5.74533691 84.92680664 6.2902832 84.22705078 C6.85448975 83.51274902 7.41869629 82.79844727 8 82.0625 C12.20764151 76.65242541 16.35384214 71.22039551 20.3125 65.625 C20.90973877 64.78086548 20.90973877 64.78086548 21.51904297 63.91967773 C22.10322998 63.09318726 22.10322998 63.09318726 22.69921875 62.25 C26.08608804 57.4658315 29.54202047 52.73298875 33 48 C28.29151979 40.12303122 22.96758257 32.79322164 17.49902344 25.43481445 C13.30980582 19.79277616 9.18318273 14.11207091 5.125 8.375 C4.34829956 7.28227783 4.34829956 7.28227783 3.5559082 6.16748047 C0 1.12247089 0 1.12247089 0 0 Z " fill="#1A191B" transform="translate(719,74)"/>
<path d="M0 0 C-0.93614567 1.72990025 -1.87397958 3.45888696 -2.8125 5.1875 C-3.33457031 6.15042969 -3.85664062 7.11335938 -4.39453125 8.10546875 C-5.87463866 10.77398357 -7.41337509 13.39374227 -9 16 C-12.84270227 15.16349338 -16.14353649 13.612101 -19.68359375 11.9375 C-24.84993843 9.84656792 -30.00103649 9.7587301 -35.5 9.6875 C-36.61955078 9.64399414 -36.61955078 9.64399414 -37.76171875 9.59960938 C-41.6001383 9.55545057 -43.60600984 9.77464376 -47.01171875 11.72265625 C-49.16198736 13.80908898 -49.16198736 13.80908898 -49.48828125 16.359375 C-49.43027344 17.14828125 -49.37226563 17.9371875 -49.3125 18.75 C-49.20833333 20.16666667 -49.10416667 21.58333333 -49 23 C-42.85352715 26.41870563 -37.24816729 27.99211581 -30.375 29.3125 C-19.13454516 31.6855266 -7.38032828 34.67109306 -0.015625 44.2265625 C4.19346715 51.57628495 3.99320441 60.27553096 2.5703125 68.4765625 C0.19565971 75.83505449 -5.19470042 81.33762361 -11.9375 84.875 C-26.16474411 91.66797465 -44.96941753 90.92932878 -59.74609375 86.2734375 C-71.56428147 81.64831241 -71.56428147 81.64831241 -75.56640625 77.296875 C-76.31726129 73.31937263 -73.74932955 70.49789113 -71.625 67.25 C-71.18671875 66.55261719 -70.7484375 65.85523438 -70.296875 65.13671875 C-69.21220395 63.41539295 -68.10792139 61.70645363 -67 60 C-62.86218875 61.57076842 -59.18698481 63.54681392 -55.37890625 65.78125 C-50.13632133 68.46710631 -45.02424496 69.44779028 -39.1875 69.8125 C-38.4847998 69.85673096 -37.78209961 69.90096191 -37.05810547 69.9465332 C-31.28330958 70.19897238 -27.20667039 69.42379484 -22 67 C-19.45268958 64.45268958 -19.64676856 62.55484721 -19.44140625 59.0703125 C-20.36323428 55.65374708 -21.98551087 54.84687946 -25 53 C-28.85680178 51.58677501 -32.7862603 50.50780593 -36.75 49.4375 C-38.84940629 48.85447522 -40.94837241 48.26986291 -43.046875 47.68359375 C-44.05588867 47.40209473 -45.06490234 47.1205957 -46.10449219 46.83056641 C-55.80468587 44.04809938 -64.18503488 41.4131522 -70.08984375 32.74609375 C-73.70199139 25.81635129 -73.34612255 14.49109945 -71.12890625 7.09375 C-66.84150758 -1.11556418 -59.67371928 -6.13811293 -51 -9 C-33.95698059 -12.68030419 -14.21415042 -10.58500563 0 0 Z " fill="#1B1A1C" transform="translate(554,82)"/>
<path d="M0 0 C7.59 0 15.18 0 23 0 C23 44.55 23 89.1 23 135 C15.41 135 7.82 135 0 135 C0 90.45 0 45.9 0 0 Z " fill="#1C1B1D" transform="translate(576,34)"/>
<path d="M0 0 C6.69214542 4.88278758 11.58690032 10.51402136 14.109375 18.5390625 C15.24050238 26.70500843 14.3717358 33.4799476 10.109375 40.5390625 C9.73167969 41.22613281 9.35398438 41.91320312 8.96484375 42.62109375 C4.75037132 49.28021483 -1.60281171 52.88096631 -8.890625 55.5390625 C-17.50207297 57.1091055 -24.60948495 55.74356453 -32.19140625 51.44140625 C-38.04767048 47.3140536 -43.35151404 41.89139643 -45.48828125 34.89453125 C-47.05111932 25.74510061 -46.83777227 16.58865807 -41.890625 8.5390625 C-32.31401544 -4.17090779 -13.93380306 -8.36963338 0 0 Z " fill="#F46D4D" transform="translate(138.890625,44.4609375)"/>
<path d="M0 0 C7.95779054 -0.48266537 13.83932935 1.90068745 19.9375 6.984375 C25.27718662 12.43461414 25.09897414 14.59643321 26.82421875 23.22265625 C10.32421875 23.22265625 -6.17578125 23.22265625 -23.17578125 23.22265625 C-21.06840852 13.73947897 -19.17202773 8.60179618 -11.11328125 3.28515625 C-7.31625399 1.15424453 -4.30712008 0.44076453 0 0 Z " fill="#FAFAFA" transform="translate(663.17578125,90.77734375)"/>
<path d="M0 0 C4.95976062 3.97333983 8.00098 8.41688235 9.7265625 14.55859375 C9.7265625 15.87859375 9.7265625 17.19859375 9.7265625 18.55859375 C-6.7734375 18.55859375 -23.2734375 18.55859375 -40.2734375 18.55859375 C-39.14327709 10.6474709 -37.20928371 5.82030713 -31.015625 0.6875 C-21.33231899 -5.97576503 -10.14509485 -6.43219931 0 0 Z " fill="#FAFAFA" transform="translate(432.2734375,95.44140625)"/>
<path d="M0 0 C3.031875 -0.061875 6.06375 -0.12375 9.1875 -0.1875 C10.60712036 -0.22846802 10.60712036 -0.22846802 12.05541992 -0.27026367 C16.84936401 -0.3175874 20.15522761 -0.20273273 24 3 C26.33769735 6.50654602 26.24715017 7.88083042 26 12 C25.690625 13.36125 25.690625 13.36125 25.375 14.75 C25.25125 15.4925 25.1275 16.235 25 17 C25.66 17.66 26.32 18.32 27 19 C27.45993557 23.67601163 27.67058528 25.91318937 25.1875 29.9375 C22.01959868 32.92437838 19.51046529 33.12427048 15.33203125 33.09765625 C14.52741455 33.09515869 13.72279785 33.09266113 12.89379883 33.09008789 C11.36855591 33.07643188 11.36855591 33.07643188 9.8125 33.0625 C4.9553125 33.0315625 4.9553125 33.0315625 0 33 C0 22.11 0 11.22 0 0 Z " fill="#2B2A2C" transform="translate(314,200)"/>
<path d="M0 0 C3.77236047 1.58276484 6.95849059 3.37306701 9.1953125 6.8671875 C10.69481968 10.84160943 10.53386132 14.82797264 10 19 C7.83701163 23.40608743 5.60319521 26.1987497 1 28 C-3.58324763 28.54454427 -7.57835205 28.58720242 -11.875 26.8125 C-16.37420143 22.97494584 -18.75123127 19.63694854 -19.3125 13.6875 C-18.8527302 8.26221633 -16.4114569 5.57751065 -12.875 1.625 C-8.58202703 -0.80146298 -4.81450407 -0.85477538 0 0 Z " fill="#05BDD2" transform="translate(127,56)"/>
<path d="M0 0 C6 0 6 0 8.125 1.87109375 C8.74375 2.71800781 9.3625 3.56492188 10 4.4375 C11.00546875 5.79681641 11.00546875 5.79681641 12.03125 7.18359375 C12.6809375 8.11300781 13.330625 9.04242188 14 10 C14.6084375 10.85722656 15.216875 11.71445313 15.84375 12.59765625 C20 18.62617925 20 18.62617925 20 21 C20.66 21 21.32 21 22 21 C22 14.07 22 7.14 22 0 C23.98 0 25.96 0 28 0 C28 11.22 28 22.44 28 34 C22 34 22 34 20.14135742 32.36352539 C19.63451416 31.61578857 19.1276709 30.86805176 18.60546875 30.09765625 C18.04279297 29.29005859 17.48011719 28.48246094 16.90039062 27.65039062 C16.33513672 26.79638672 15.76988281 25.94238281 15.1875 25.0625 C14.03516027 23.38671598 12.88281673 21.71093459 11.73046875 20.03515625 C10.97866333 18.91185913 10.97866333 18.91185913 10.21166992 17.76586914 C9.11903432 16.05803965 9.11903432 16.05803965 8 15 C7.67 21.27 7.34 27.54 7 34 C4.69 34 2.38 34 0 34 C0 22.78 0 11.56 0 0 Z " fill="#1F1E20" transform="translate(613,200)"/>
<path d="M0 0 C2.64 0 5.28 0 8 0 C12.3344861 10.90491749 16.4222548 21.82160718 20 33 C17.69 33 15.38 33 13 33 C12.505 30.525 12.505 30.525 12 28 C6.72 28 1.44 28 -4 28 C-4.33 29.65 -4.66 31.3 -5 33 C-6.98 33 -8.96 33 -11 33 C-10.44922191 28.2169271 -9.47450313 24.1060143 -7.71484375 19.62890625 C-7.26689453 18.47841797 -6.81894531 17.32792969 -6.35742188 16.14257812 C-5.88884766 14.96115234 -5.42027344 13.77972656 -4.9375 12.5625 C-4.46505859 11.35400391 -3.99261719 10.14550781 -3.50585938 8.90039062 C-2.34388823 5.9309088 -1.17510011 2.96430531 0 0 Z " fill="#201E20" transform="translate(582,200)"/>
<path d="M0 0 C2.4375 1.6875 2.4375 1.6875 3.4375 4.6875 C2.4475 6.1725 2.4475 6.1725 1.4375 7.6875 C-0.94814077 7.11165568 -3.22932784 6.46522405 -5.5625 5.6875 C-7.89549825 5.64795766 -10.22958189 5.64348268 -12.5625 5.6875 C-12.8925 7.0075 -13.2225 8.3275 -13.5625 9.6875 C-10.55328133 11.69364578 -8.10330582 12.30598868 -4.62890625 13.125 C-0.08032647 14.36317673 2.81818241 15.75852361 5.4375 19.6875 C5.87242196 22.98048055 6.13043789 25.49084957 4.421875 28.44140625 C2.26018515 31.14351856 0.74751789 32.5841607 -2.5625 33.6875 C-4.51725009 33.8322963 -6.4776138 33.90817502 -8.4375 33.9375 C-9.98050781 33.97617188 -9.98050781 33.97617188 -11.5546875 34.015625 C-15.95863819 33.53519402 -18.57273928 31.8820388 -21.375 28.5 C-21.766875 27.901875 -22.15875 27.30375 -22.5625 26.6875 C-20.9125 25.3675 -19.2625 24.0475 -17.5625 22.6875 C-16.923125 23.3475 -16.28375 24.0075 -15.625 24.6875 C-11.51785747 27.36971553 -8.32870171 27.06131974 -3.5625 26.6875 C-3.2325 25.0375 -2.9025 23.3875 -2.5625 21.6875 C-3.61050781 21.36136719 -4.65851563 21.03523438 -5.73828125 20.69921875 C-7.11734175 20.25829465 -8.49623962 19.81686168 -9.875 19.375 C-10.56529297 19.16166016 -11.25558594 18.94832031 -11.96679688 18.72851562 C-18.55926528 16.5947215 -18.55926528 16.5947215 -20.5625 13.6875 C-22.29428156 7.08508281 -22.29428156 7.08508281 -20.609375 3.8671875 C-15.36187121 -2.67638651 -7.46814103 -2.75142038 0 0 Z " fill="#212022" transform="translate(500.5625,200.3125)"/>
<path d="M0 0 C7.26 0 14.52 0 22 0 C22 1.98 22 3.96 22 6 C16.72 6 11.44 6 6 6 C6 8.31 6 10.62 6 13 C10.62 13 15.24 13 20 13 C20 15.31 20 17.62 20 20 C15.38 20 10.76 20 6 20 C6 22.31 6 24.62 6 27 C11.61 27 17.22 27 23 27 C23 29.31 23 31.62 23 34 C15.41 34 7.82 34 0 34 C0 22.78 0 11.56 0 0 Z " fill="#272627" transform="translate(444,200)"/>
<path d="M0 0 C1.98 0 3.96 0 6 0 C6 4.29 6 8.58 6 13 C11.28 13 16.56 13 22 13 C22 8.71 22 4.42 22 0 C23.98 0 25.96 0 28 0 C28 11.22 28 22.44 28 34 C26.02 34 24.04 34 22 34 C22 29.05 22 24.1 22 19 C16.72 19 11.44 19 6 19 C6 23.62 6 28.24 6 33 C4.02 33 2.04 33 0 33 C0 22.11 0 11.22 0 0 Z " fill="#242324" transform="translate(786,200)"/>
<path d="M0 0 C7.26 0 14.52 0 22 0 C22 1.98 22 3.96 22 6 C16.72 6 11.44 6 6 6 C6 8.31 6 10.62 6 13 C10.62 13 15.24 13 20 13 C20 15.31 20 17.62 20 20 C15.38 20 10.76 20 6 20 C6 22.31 6 24.62 6 27 C11.28 27 16.56 27 22 27 C22 28.98 22 30.96 22 33 C14.74 33 7.48 33 0 33 C0 22.11 0 11.22 0 0 Z " fill="#323133" transform="translate(711,200)"/>
<path d="M0 0 C2.87737159 1.11226129 4.65002488 2.05506504 6.359375 4.65625 C6.545 5.254375 6.730625 5.8525 6.921875 6.46875 C5.931875 7.45875 4.941875 8.44875 3.921875 9.46875 C3.220625 9.159375 2.519375 8.85 1.796875 8.53125 C-2.2613862 7.03145782 -5.50217835 6.06560086 -9.765625 7.15625 C-12.55183328 8.73761146 -13.6649849 9.568094 -15.078125 12.46875 C-15.64535995 17.28138404 -15.63177601 21.2432843 -13.078125 25.46875 C-9.64427893 28.01233968 -6.22300556 27.7648129 -2.078125 27.46875 C-0.73721741 26.81745203 0.59779831 26.15361725 1.921875 25.46875 C4.046875 25.65625 4.046875 25.65625 5.921875 26.46875 C6.581875 27.45875 7.241875 28.44875 7.921875 29.46875 C2.06114687 34.24987032 -1.15616268 34.94654055 -8.734375 34.87109375 C-13.81151753 34.2601759 -16.83536265 32.37669437 -20.078125 28.46875 C-23.15734843 23.37860514 -23.6424261 18.29986134 -23.078125 12.46875 C-19.57631295 2.16930278 -10.34194078 -2.64380441 0 0 Z " fill="#222022" transform="translate(767.078125,199.53125)"/>
<path d="M0 0 C4.93046523 -1.14457229 4.93046523 -1.14457229 8 0 C10.5092781 3.19998531 12.41749669 6.4871227 14.3359375 10.05859375 C15.67972154 13.07247483 15.67972154 13.07247483 18 14 C18.27457031 13.27425781 18.54914063 12.54851562 18.83203125 11.80078125 C20.64369868 7.45641486 22.74563034 3.43802483 26 0 C29.875 -0.5625 29.875 -0.5625 33 0 C31.9289826 3.17633162 30.53038832 5.8158671 28.65234375 8.56640625 C23.15231045 16.62426697 19.34621079 22.84703819 20 33 C18.02 33 16.04 33 14 33 C14.04382813 32.30777344 14.08765625 31.61554688 14.1328125 30.90234375 C14.10680323 21.03182571 9.77228118 15.3348896 4.16894531 7.70800781 C2.50008929 5.26955402 1.23654063 2.67780652 0 0 Z " fill="#1D1C1D" transform="translate(349,200)"/>
<path d="M0 0 C5.28 0 10.56 0 16 0 C16 0.33 16 0.66 16 1 C11.05 1 6.1 1 1 1 C1.33 8.26 1.66 15.52 2 23 C2.99 22.34 3.98 21.68 5 21 C5 23.31 5 25.62 5 28 C7.12534659 27.85930804 9.25027529 27.71229079 11.375 27.5625 C13.15003906 27.44068359 13.15003906 27.44068359 14.9609375 27.31640625 C17.91518901 27.18915064 17.91518901 27.18915064 20 26 C20 24.35 20 22.7 20 21 C17.16730334 19.58365167 14.52533562 19.6536995 11.375 19.4375 C10.18648438 19.35371094 8.99796875 19.26992187 7.7734375 19.18359375 C6.40058594 19.09271484 6.40058594 19.09271484 5 19 C5.66 18.67 6.32 18.34 7 18 C6.67 16.68 6.34 15.36 6 14 C6.67546875 13.95101562 7.3509375 13.90203125 8.046875 13.8515625 C8.93890625 13.77679688 9.8309375 13.70203125 10.75 13.625 C11.63171875 13.55539063 12.5134375 13.48578125 13.421875 13.4140625 C16.00347415 12.99944203 17.6907146 12.16199711 20 11 C22.6875 11.5625 22.6875 11.5625 25 13 C25.75 15.5625 25.75 15.5625 26 18 C26.33 18.33 26.66 18.66 27 19 C27.58734177 26.04810127 27.58734177 26.04810127 25.1875 29.9375 C22.01959868 32.92437838 19.51046529 33.12427048 15.33203125 33.09765625 C14.52741455 33.09515869 13.72279785 33.09266113 12.89379883 33.09008789 C11.36855591 33.07643188 11.36855591 33.07643188 9.8125 33.0625 C4.9553125 33.0315625 4.9553125 33.0315625 0 33 C0 22.11 0 11.22 0 0 Z " fill="#1C1B1D" transform="translate(314,200)"/>
<path d="M0 0 C8.91 0 17.82 0 27 0 C27 1.98 27 3.96 27 6 C23.7 6 20.4 6 17 6 C17 14.91 17 23.82 17 33 C15.02 33 13.04 33 11 33 C11 24.09 11 15.18 11 6 C7.37 6 3.74 6 0 6 C0 4.02 0 2.04 0 0 Z " fill="#1B1A1B" transform="translate(672,200)"/>
<path d="M0 0 C8.91 0 17.82 0 27 0 C27 1.98 27 3.96 27 6 C23.37 6 19.74 6 16 6 C16 14.91 16 23.82 16 33 C14.02 33 12.04 33 10 33 C10 24.09 10 15.18 10 6 C6.7 6 3.4 6 0 6 C0 4.02 0 2.04 0 0 Z " fill="#222123" transform="translate(406,200)"/>
<path d="M0 0 C1.98 0 3.96 0 6 0 C6 9.24 6 18.48 6 28 C11.28 28 16.56 28 22 28 C22 29.65 22 31.3 22 33 C14.74 33 7.48 33 0 33 C0 22.11 0 11.22 0 0 Z " fill="#171617" transform="translate(518,200)"/>
<path d="M0 0 C1.98 0 3.96 0 6 0 C6 4.95 6 9.9 6 15 C9.3 15 12.6 15 16 15 C15.67 15.99 15.34 16.98 15 18 C12.03 18 9.06 18 6 18 C6 22.95 6 27.9 6 33 C4.02 33 2.04 33 0 33 C0 22.11 0 11.22 0 0 Z " fill="#191819" transform="translate(786,200)"/>
<path d="M0 0 C7.26 0 14.52 0 22 0 C22 1.98 22 3.96 22 6 C16.39 6 10.78 6 5 6 C5 8.31 5 10.62 5 13 C4.34 12.34 3.68 11.68 3 11 C1.85345518 13.29308963 1.80270883 14.79909656 1.68359375 17.3515625 C1.64548584 18.11807129 1.60737793 18.88458008 1.56811523 19.67431641 C1.52501221 20.64804199 1.48190918 21.62176758 1.4375 22.625 C1.293125 25.71875 1.14875 28.8125 1 32 C7.6 32 14.2 32 21 32 C21 31.01 21 30.02 21 29 C15.72 29 10.44 29 5 29 C5 28.67 5 28.34 5 28 C10.61 28 16.22 28 22 28 C22 29.65 22 31.3 22 33 C14.74 33 7.48 33 0 33 C0 22.11 0 11.22 0 0 Z " fill="#141314" transform="translate(711,200)"/>
<path d="M0 0 C1.98 0 3.96 0 6 0 C6 10.89 6 21.78 6 33 C4.02 33 2.04 33 0 33 C0 22.11 0 11.22 0 0 Z " fill="#161516" transform="translate(552,200)"/>
<path d="M0 0 C9.57 0 19.14 0 29 0 C29 24.09 29 48.18 29 73 C27.35 72.67 25.7 72.34 24 72 C25.485 71.505 25.485 71.505 27 71 C27 47.9 27 24.8 27 1 C18.09 1 9.18 1 0 1 C0 0.67 0 0.34 0 0 Z " fill="#2CC2D5" transform="translate(86,132)"/>
<path d="M0 0 C0.99 0 1.98 0 3 0 C2.125 5.75 2.125 5.75 1 8 C4.63 8 8.26 8 12 8 C11.01 9.485 11.01 9.485 10 11 C10.99 11.66 11.98 12.32 13 13 C8.38 13.33 3.76 13.66 -1 14 C-1.66 15.65 -2.32 17.3 -3 19 C-4.98 19 -6.96 19 -9 19 C-8.43250833 13.55207995 -7.24926583 9.01759301 -5 4 C-4.01 3.67 -3.02 3.34 -2 3 C-1.34 2.01 -0.68 1.02 0 0 Z " fill="#1A191A" transform="translate(580,214)"/>
<path d="M0 0 C5.28 0 10.56 0 16 0 C16 0.33 16 0.66 16 1 C11.05 1 6.1 1 1 1 C1.33 8.26 1.66 15.52 2 23 C2.99 22.34 3.98 21.68 5 21 C5 23.31 5 25.62 5 28 C9.29 28 13.58 28 18 28 C17.34 28.33 16.68 28.66 16 29 C16 29.66 16 30.32 16 31 C16.66 31.66 17.32 32.32 18 33 C12.06 33 6.12 33 0 33 C0 22.11 0 11.22 0 0 Z " fill="#131213" transform="translate(314,200)"/>
<path d="M0 0 C0.99 1.485 0.99 1.485 2 3 C2.99 2.01 3.98 1.02 5 0 C5 8.91 5 17.82 5 27 C3.35 27 1.7 27 0 27 C0 18.09 0 9.18 0 0 Z " fill="#131313" transform="translate(417,206)"/>
<path d="M0 0 C0.33 0 0.66 0 1 0 C1 2.31 1 4.62 1 7 C5.62 7 10.24 7 15 7 C15 8.98 15 10.96 15 13 C12.20882755 13.24803781 9.41884926 13.47414334 6.625 13.6875 C5.43390625 13.79674805 5.43390625 13.79674805 4.21875 13.90820312 C1.9140625 14.07421875 1.9140625 14.07421875 -2 14 C-4 11 -4 11 -3.8125 8.125 C-2.98234135 4.93208211 -1.89607495 2.68610617 0 0 Z " fill="#302F30" transform="translate(716,206)"/>
<path d="M0 0 C2.31243792 -0.02685412 4.6249627 -0.04632841 6.9375 -0.0625 C8.22527344 -0.07410156 9.51304687 -0.08570313 10.83984375 -0.09765625 C14 0 14 0 15 1 C15.125 3.5 15.125 3.5 15 6 C14 7 14 7 10.83984375 7.09765625 C8.90818359 7.08025391 8.90818359 7.08025391 6.9375 7.0625 C5.64714844 7.05347656 4.35679687 7.04445312 3.02734375 7.03515625 C2.02832031 7.02355469 1.02929688 7.01195312 0 7 C0 4.69 0 2.38 0 0 Z " fill="#F7F7F7" transform="translate(320,220)"/>
<path d="M0 0 C8.91 0 17.82 0 27 0 C27 1.65 27 3.3 27 5 C24.03 5 21.06 5 18 5 C18 4.67 18 4.34 18 4 C20.64 4 23.28 4 26 4 C26 3.01 26 2.02 26 1 C18.08 1 10.16 1 2 1 C2 1.99 2 2.98 2 4 C2.95712891 3.98259766 2.95712891 3.98259766 3.93359375 3.96484375 C5.17302734 3.95130859 5.17302734 3.95130859 6.4375 3.9375 C7.26121094 3.92589844 8.08492187 3.91429687 8.93359375 3.90234375 C11 4 11 4 12 5 C12.08758003 6.99964982 12.10696576 9.0023611 12.09765625 11.00390625 C12.09443359 12.21884766 12.09121094 13.43378906 12.08789062 14.68554688 C12.07951172 15.96494141 12.07113281 17.24433594 12.0625 18.5625 C12.05798828 19.84576172 12.05347656 21.12902344 12.04882812 22.45117188 C12.03699545 25.63416022 12.02051068 28.81705762 12 32 C13.65 32 15.3 32 17 32 C17 32.33 17 32.66 17 33 C15.02 33 13.04 33 11 33 C11 24.09 11 15.18 11 6 C7.37 6 3.74 6 0 6 C0 4.02 0 2.04 0 0 Z " fill="#131213" transform="translate(672,200)"/>
<path d="M0 0 C1.875 0.8125 1.875 0.8125 3.875 3.8125 C-2.42391304 8.95108696 -2.42391304 8.95108696 -7.75 8.875 C-8.97589844 8.86146484 -8.97589844 8.86146484 -10.2265625 8.84765625 C-11.16628906 8.83025391 -11.16628906 8.83025391 -12.125 8.8125 C-12.125 8.1525 -12.125 7.4925 -12.125 6.8125 C-12.785 6.8125 -13.445 6.8125 -14.125 6.8125 C-13.795 5.8225 -13.465 4.8325 -13.125 3.8125 C-10.81425595 3.07131795 -8.47688447 2.41043673 -6.125 1.8125 C-5.403125 1.420625 -4.68125 1.02875 -3.9375 0.625 C-2.125 -0.1875 -2.125 -0.1875 0 0 Z " fill="#1F1E1F" transform="translate(771.125,225.1875)"/>
<path d="M0 0 C1.95803507 -0.05389087 3.91648909 -0.09274217 5.875 -0.125 C7.51082031 -0.15980469 7.51082031 -0.15980469 9.1796875 -0.1953125 C12 0 12 0 14 2 C13.46428571 5.53571429 13.46428571 5.53571429 12 7 C9.98035801 7.07244053 7.95832876 7.08377188 5.9375 7.0625 C4.83277344 7.05347656 3.72804688 7.04445312 2.58984375 7.03515625 C1.30787109 7.01775391 1.30787109 7.01775391 0 7 C0 4.69 0 2.38 0 0 Z " fill="#F7F7F7" transform="translate(320,206)"/>
<path d="M0 0 C0.75 2.75 0.75 2.75 1 6 C-1.18432142 8.88642473 -2.55303594 9.85101198 -6 11 C-7.56118428 11.06740865 -9.1250252 11.08514456 -10.6875 11.0625 C-11.89986328 11.04896484 -11.89986328 11.04896484 -13.13671875 11.03515625 C-14.05904297 11.01775391 -14.05904297 11.01775391 -15 11 C-14.34 10.01 -13.68 9.02 -13 8 C-13.33 7.34 -13.66 6.68 -14 6 C-12.96875 5.7525 -11.9375 5.505 -10.875 5.25 C-7.2843498 4.24286641 -3.26716001 0 0 0 Z " fill="#1A191B" transform="translate(504,223)"/>
<path d="M0 0 C0.66 0 1.32 0 2 0 C2.67057887 1.7902061 3.3363469 3.58221489 4 5.375 C4.556875 6.87160156 4.556875 6.87160156 5.125 8.3984375 C6 11 6 11 6 13 C2.7 13 -0.6 13 -4 13 C-3.52140759 11.39566191 -3.04210442 9.79153584 -2.5625 8.1875 C-2.29566406 7.29417969 -2.02882813 6.40085938 -1.75390625 5.48046875 C-1.19612127 3.64526945 -0.60655425 1.81966274 0 0 Z " fill="#DEDDDE" transform="translate(585,209)"/>
<path d="M0 0 C4.62 0 9.24 0 14 0 C14 1.65 14 3.3 14 5 C9.38 5 4.76 5 0 5 C0.33 4.34 0.66 3.68 1 3 C1.66 3 2.32 3 3 3 C3 2.34 3 1.68 3 1 C2.01 0.67 1.02 0.34 0 0 Z " fill="#151415" transform="translate(450,214)"/>
<path d="M0 0 C3.63 0 7.26 0 11 0 C11.33 1.65 11.66 3.3 12 5 C7.71 5 3.42 5 -1 5 C-0.34 4.67 0.32 4.34 1 4 C0.67 2.68 0.34 1.36 0 0 Z " fill="#151516" transform="translate(320,214)"/>
<path d="M0 0 C4.95 0 9.9 0 15 0 C15 1.65 15 3.3 15 5 C10.05 5 5.1 5 0 5 C0 4.67 0 4.34 0 4 C2.97 4 5.94 4 9 4 C9 3.34 9 2.68 9 2 C6.03 1.67 3.06 1.34 0 1 C0 0.67 0 0.34 0 0 Z " fill="#141214" transform="translate(716,214)"/>
<path d="M0 0 C0.66 0.33 1.32 0.66 2 1 C-2.29 5.29 -6.58 9.58 -11 14 C-11.66 13.67 -12.32 13.34 -13 13 C-11.58791833 11.39179588 -10.17013964 9.78859292 -8.75 8.1875 C-7.96109375 7.29417969 -7.1721875 6.40085937 -6.359375 5.48046875 C-4.34120555 3.35871775 -2.40083295 1.65745577 0 0 Z " fill="#18BCD0" transform="translate(32,26)"/>
<path d="M0 0 C1.485 0.99 1.485 0.99 3 2 C3.1875 4.625 3.1875 4.625 3 7 C4.98 7.99 6.96 8.98 9 10 C9 10.66 9 11.32 9 12 C6.45889061 11.65660684 4.45538602 11.27648437 2.25 9.9375 C0.24094346 6.82346236 0.30034193 3.66417153 0 0 Z " fill="#333232" transform="translate(479,206)"/>
<path d="M0 0 C-1.49097658 3.7952131 -3.75700849 5.61042731 -7 8 C-6.44414399 4.1090079 -4.34122117 0 0 0 Z " fill="#2E2D2F" transform="translate(388,82)"/>
<path d="M0 0 C1.8125 0.1875 1.8125 0.1875 4 1 C5.75 3.5625 5.75 3.5625 7 6 C6.01 6 5.02 6 4 6 C0 1.54285714 0 1.54285714 0 0 Z " fill="#12B7CD" transform="translate(109,75)"/>
<path d="M0 0 C-1.15173355 2.46800047 -2.04783565 4.04783565 -4 6 C-4.99 5.67 -5.98 5.34 -7 5 C-2.25 0 -2.25 0 0 0 Z " fill="#313032" transform="translate(493,79)"/>
</svg>
