<?xml version="1.0" encoding="UTF-8"?>
<svg version="1.1" xmlns="http://www.w3.org/2000/svg" width="234" height="234">
<path d="M0 0 C77.22 0 154.44 0 234 0 C234 77.22 234 154.44 234 234 C156.78 234 79.56 234 0 234 C0 156.78 0 79.56 0 0 Z " fill="#01BED4" transform="translate(0,0)"/>
<path d="M0 0 C6.69214542 4.88278758 11.58690032 10.51402136 14.109375 18.5390625 C15.23900619 26.69420693 14.38271671 33.49273729 10.109375 40.5390625 C9.70847656 41.23773438 9.30757813 41.93640625 8.89453125 42.65625 C5.90949094 47.2419641 3.36006115 48.97312515 -1.703125 51.0390625 C-4.66379231 52.28695467 -4.66379231 52.28695467 -6.890625 54.5390625 C-8.55897197 59.65954094 -8.16177316 65.22960321 -7.890625 70.5390625 C-7.0027832 70.51287842 -6.11494141 70.48669434 -5.20019531 70.4597168 C-1.89762095 70.374365 1.40377775 70.31175598 4.70703125 70.2644043 C6.13495401 70.23929903 7.56274875 70.20520663 8.99023438 70.16186523 C11.04589418 70.10102572 13.09985253 70.07281699 15.15625 70.05078125 C17.01008301 70.01150513 17.01008301 70.01150513 18.90136719 69.97143555 C22.109375 70.5390625 22.109375 70.5390625 24.50488281 72.85083008 C26.6461519 76.43840067 26.84315191 78.42991178 26.109375 82.5390625 C20.109375 87.5390625 20.109375 87.5390625 -7.890625 87.5390625 C-7.890625 111.6290625 -7.890625 135.7190625 -7.890625 160.5390625 C12.44341278 154.89071867 26.15234817 149.37543782 37.109375 131.5390625 C38.55214001 128.90463317 39.84641754 126.26705062 41.109375 123.5390625 C40.490625 123.4359375 39.871875 123.3328125 39.234375 123.2265625 C37.109375 122.5390625 37.109375 122.5390625 35.109375 119.5390625 C34.22143155 112.98946128 36.56904901 109.1330661 39.921875 103.7890625 C40.59959961 102.65791016 40.59959961 102.65791016 41.29101562 101.50390625 C45.2836698 94.9407988 45.2836698 94.9407988 48.109375 92.5390625 C50.984375 92.0390625 50.984375 92.0390625 54.109375 92.5390625 C58.39021811 96.14613221 60.65319918 99.92598056 62.921875 104.9140625 C63.38883789 105.86539063 63.38883789 105.86539063 63.86523438 106.8359375 C65.88692 111.19033732 66.59055015 114.65513475 66.109375 119.5390625 C63.89074471 122.44623323 62.58992571 123.37887893 59.109375 124.5390625 C57.88072597 126.95253585 57.88072597 126.95253585 56.859375 129.9140625 C49.20944587 149.09563553 34.92692288 162.97364951 16.234375 171.4140625 C-5.10919175 180.46389763 -26.93446626 179.43294459 -48.265625 171.2265625 C-68.20652841 162.36094463 -81.9682092 145.45973502 -89.890625 125.5390625 C-89.890625 124.8790625 -89.890625 124.2190625 -89.890625 123.5390625 C-90.839375 123.4359375 -91.788125 123.3328125 -92.765625 123.2265625 C-95.890625 122.5390625 -95.890625 122.5390625 -97.890625 119.5390625 C-98.6069186 113.34658881 -96.76546274 109.18256346 -94.078125 103.7890625 C-93.54348633 102.65791016 -93.54348633 102.65791016 -92.99804688 101.50390625 C-89.84734915 94.99439132 -89.84734915 94.99439132 -86.890625 92.5390625 C-83.578125 91.7890625 -83.578125 91.7890625 -79.890625 92.5390625 C-77.31968545 95.19461525 -75.68735278 98.32933021 -73.890625 101.5390625 C-73.25382812 102.54839844 -72.61703125 103.55773437 -71.9609375 104.59765625 C-66.30110021 113.70112949 -66.30110021 113.70112949 -66.890625 119.5390625 C-68.265625 121.9140625 -68.265625 121.9140625 -69.890625 123.5390625 C-70.550625 123.5390625 -71.210625 123.5390625 -71.890625 123.5390625 C-65.13528496 138.9571327 -55.1164042 149.03434304 -39.828125 155.91796875 C-34.57006471 157.89704422 -29.37443361 159.16811035 -23.890625 160.5390625 C-23.890625 136.4490625 -23.890625 112.3590625 -23.890625 87.5390625 C-33.460625 87.5390625 -43.030625 87.5390625 -52.890625 87.5390625 C-57.890625 84.5390625 -57.890625 84.5390625 -58.890625 82.5390625 C-59.47313615 75.31592424 -59.47313615 75.31592424 -57.31225586 72.43408203 C-54.00585666 69.84669716 -51.88269133 70.08017617 -47.71875 70.1484375 C-46.6951236 70.15692719 -46.6951236 70.15692719 -45.65081787 70.16558838 C-43.48002738 70.18790614 -41.31091294 70.23808742 -39.140625 70.2890625 C-37.6653885 70.30913374 -36.19012601 70.32738343 -34.71484375 70.34375 C-31.10622999 70.3877537 -27.49859119 70.45674667 -23.890625 70.5390625 C-23.67094136 65.04051011 -23.69555084 59.93053861 -24.890625 54.5390625 C-27.21901051 52.38700133 -29.20010895 51.6892844 -32.1796875 50.65625 C-37.9910649 48.2613596 -42.29181656 42.4843287 -44.890625 36.8515625 C-47.44617803 28.48337906 -46.99350053 18.69744823 -43.2734375 10.7890625 C-39.30799558 4.33681802 -34.06056931 -0.35384247 -26.859375 -2.83203125 C-17.75187849 -4.76138249 -8.16675975 -4.9055369 0 0 Z " fill="#FBFDFE" transform="translate(134.890625,31.4609375)"/>
<path d="M0 0 C77.22 0 154.44 0 234 0 C234 77.22 234 154.44 234 234 C156.78 234 79.56 234 0 234 C0 156.78 0 79.56 0 0 Z M16.75 23.6875 C7.03269041 36.49310434 4.69300276 49.6003101 4.7253418 65.26147461 C4.72023087 66.55224411 4.71511993 67.84301361 4.70985413 69.17289734 C4.69656413 72.68535775 4.6958741 76.19770991 4.69841743 79.71019053 C4.6994938 82.65477808 4.69458695 85.59934431 4.689812 88.54392725 C4.67875179 95.49634236 4.67825995 102.44870342 4.68432617 109.40112305 C4.69036584 116.54709803 4.67804717 123.69287612 4.6567561 130.83881754 C4.63908255 136.99966232 4.6331477 143.16044475 4.63639385 149.32131392 C4.63819742 152.98971998 4.63566375 156.65798549 4.62167931 160.32636833 C4.60665196 164.42075058 4.61612113 168.51473731 4.62768555 172.60913086 C4.62004181 173.80687134 4.61239807 175.00461182 4.60452271 176.23864746 C4.6966764 191.06044094 9.62031134 206.35726721 20.0625 217.265625 C34.0086128 229.74964533 47.9496797 233.3129284 66.28320312 233.2746582 C68.20494606 233.2823246 68.20494606 233.2823246 70.16551208 233.29014587 C73.64692285 233.30341758 77.12822429 233.3041281 80.60965538 233.30158257 C83.52943988 233.30050517 86.44920294 233.30541554 89.36898279 233.310188 C96.26244399 233.32124139 103.15585066 233.32174362 110.04931641 233.31567383 C117.13339682 233.30963171 124.21727875 233.32196062 131.30132532 233.3432439 C137.41123538 233.3609176 143.52108256 233.36685236 149.63101721 233.36360615 C153.26810971 233.36180296 156.90506045 233.36433256 160.54212952 233.37832069 C164.60048117 233.39334877 168.65843382 233.38387874 172.71679688 233.37231445 C173.90361557 233.37995819 175.09043427 233.38760193 176.31321716 233.39547729 C186.48806232 233.33165802 195.26179888 231.23908292 204.3125 226.625 C205.44300781 226.06039062 206.57351562 225.49578125 207.73828125 224.9140625 C220.14608975 217.63283356 228.31895896 204.86201702 232.04263306 191.16474915 C233.38512476 184.97088193 233.29514489 178.81383834 233.29052734 172.50073242 C233.29652322 171.15928274 233.30333118 169.81783648 233.31088257 168.47639465 C233.32844133 164.85638388 233.33323362 161.23646785 233.33451414 157.6164186 C233.33594198 155.34835261 233.34022346 153.08031023 233.34550858 150.81225014 C233.36397484 142.8815726 233.3721834 134.950962 233.37060547 127.02026367 C233.36940476 119.65672548 233.39050194 112.2934807 233.4220928 104.9300167 C233.44834053 98.58318952 233.45896923 92.23645769 233.45769465 85.88957673 C233.45718754 82.10984945 233.46273054 78.33038333 233.48405075 74.55071068 C233.5035776 70.9923283 233.50346063 67.43445239 233.48901749 63.87605095 C233.48596789 61.96758408 233.50250383 60.05911636 233.51989746 58.15072632 C233.41484296 43.56599666 227.99498239 29.57231158 217.96484375 18.83984375 C205.2282911 6.9135688 190.09913073 2.69007504 173.07324219 2.7253418 C171.7941246 2.72023087 170.51500702 2.71511993 169.1971283 2.70985413 C165.70720877 2.69653051 162.21739798 2.69587824 158.727458 2.69841743 C155.80294761 2.69949213 152.87845877 2.69459082 149.95395303 2.689812 C143.04659661 2.67873875 136.13929458 2.67826644 129.23193359 2.68432617 C122.13373469 2.6903582 115.03573441 2.67806965 107.93756938 2.6567561 C101.82006094 2.63907044 95.70261531 2.63314985 89.58508229 2.63639385 C85.94176532 2.63819653 82.29858988 2.63567342 78.65529633 2.62167931 C74.5848477 2.60662817 70.51479607 2.61613156 66.44433594 2.62768555 C64.66243111 2.61621994 64.66243111 2.61621994 62.8445282 2.60452271 C44.31142802 2.7201766 28.86127268 9.50395633 16.75 23.6875 Z " fill="#FCFEFE" transform="translate(0,0)"/>
<path d="M0 0 C6.69214542 4.88278758 11.58690032 10.51402136 14.109375 18.5390625 C15.24050238 26.70500843 14.3717358 33.4799476 10.109375 40.5390625 C9.73167969 41.22613281 9.35398438 41.91320312 8.96484375 42.62109375 C4.75037132 49.28021483 -1.60281171 52.88096631 -8.890625 55.5390625 C-17.50207297 57.1091055 -24.60948495 55.74356453 -32.19140625 51.44140625 C-38.04767048 47.3140536 -43.35151404 41.89139643 -45.48828125 34.89453125 C-47.05111932 25.74510061 -46.83777227 16.58865807 -41.890625 8.5390625 C-32.31401544 -4.17090779 -13.93380306 -8.36963338 0 0 Z " fill="#F46D4D" transform="translate(134.890625,31.4609375)"/>
<path d="M0 0 C0.33 0 0.66 0 1 0 C1 59.4 1 118.8 1 180 C-61.04 180 -123.08 180 -187 180 C-187.33 179.01 -187.66 178.02 -188 177 C-186.94694168 177.16167664 -185.89388336 177.32335327 -184.80891418 177.4899292 C-178.90299996 178.2222841 -173.00053347 178.15558539 -167.05737305 178.16113281 C-165.77664917 178.16609772 -164.49592529 178.17106262 -163.1763916 178.17617798 C-159.682437 178.18921518 -156.18850152 178.19572949 -152.69452643 178.20018864 C-150.50604803 178.20313263 -148.31757471 178.20723978 -146.12909889 178.21169281 C-139.26535688 178.22534303 -132.40162665 178.23502254 -125.53787202 178.2388947 C-117.64474618 178.24337365 -109.75179365 178.26092433 -101.85872048 178.2898953 C-95.73614139 178.31157954 -89.61361084 178.32160252 -83.4909938 178.32293582 C-79.8437832 178.32397876 -76.19673606 178.32977699 -72.54956627 178.34775543 C-68.47654221 178.36744565 -64.40387713 178.36292042 -60.33081055 178.35644531 C-59.13927872 178.3656601 -57.94774689 178.37487488 -56.72010803 178.3843689 C-46.48390447 178.33358961 -37.71385134 176.23171539 -28.625 171.5625 C-27.48289063 170.98628906 -26.34078125 170.41007813 -25.1640625 169.81640625 C-14.41345271 163.64475989 -6.95176222 152.63309924 -3 141 C-0.98716563 133.53978912 -0.69500091 126.56650271 -0.68115234 118.86108398 C-0.67110672 117.57229843 -0.6610611 116.28351288 -0.65071106 114.95567322 C-0.62358762 111.44806596 -0.60831456 107.94049847 -0.59528303 104.43281436 C-0.57957454 100.75725201 -0.55280924 97.08176994 -0.5272522 93.40626526 C-0.48060029 86.45798259 -0.44379076 79.50968458 -0.41057932 72.56132609 C-0.37226148 64.64586146 -0.32287687 56.73047774 -0.27259517 48.81508148 C-0.1694776 32.54344589 -0.08015209 16.27176527 0 0 Z " fill="#EFFAFB" transform="translate(233,54)"/>
<path d="M0 0 C3.77236047 1.58276484 6.95849059 3.37306701 9.1953125 6.8671875 C10.69481968 10.84160943 10.53386132 14.82797264 10 19 C7.83701163 23.40608743 5.60319521 26.1987497 1 28 C-3.58324763 28.54454427 -7.57835205 28.58720242 -11.875 26.8125 C-16.37420143 22.97494584 -18.75123127 19.63694854 -19.3125 13.6875 C-18.8527302 8.26221633 -16.4114569 5.57751065 -12.875 1.625 C-8.58202703 -0.80146298 -4.81450407 -0.85477538 0 0 Z " fill="#05BDD2" transform="translate(123,43)"/>
<path d="M0 0 C9.57 0 19.14 0 29 0 C29 24.09 29 48.18 29 73 C27.35 72.67 25.7 72.34 24 72 C25.485 71.505 25.485 71.505 27 71 C27 47.9 27 24.8 27 1 C18.09 1 9.18 1 0 1 C0 0.67 0 0.34 0 0 Z " fill="#2CC2D5" transform="translate(82,119)"/>
<path d="M0 0 C-3.86572666 2.69916172 -6.45242279 3.37286563 -11.14399719 3.36076355 C-12.37933701 3.36488754 -13.61467682 3.36901154 -14.88745117 3.3732605 C-16.24829322 3.36264453 -17.60913304 3.35174013 -18.9699707 3.34057617 C-20.40911339 3.33972956 -21.84825736 3.3402057 -23.28739929 3.34190369 C-27.18791914 3.34276375 -31.08816172 3.32513635 -34.98861718 3.30418181 C-39.06720079 3.2854168 -43.14579089 3.28366471 -47.22441101 3.28010559 C-54.94498661 3.27078461 -62.66543464 3.24617012 -70.38595408 3.21605712 C-79.17669493 3.18251477 -87.96744189 3.16602752 -96.75823081 3.15097082 C-114.83889284 3.11962059 -132.91943616 3.06685906 -151 3 C-151.33 2.01 -151.66 1.02 -152 0 C-150.42139442 0.24300591 -150.42139442 0.24300591 -148.81089783 0.49092102 C-142.89355156 1.22464937 -136.980093 1.147511 -131.02563477 1.14526367 C-129.7416983 1.14862228 -128.45776184 1.1519809 -127.13491821 1.15544128 C-123.6328284 1.16422703 -120.13076307 1.16661705 -116.6286633 1.16725707 C-114.43618027 1.16797045 -112.24370335 1.17011016 -110.05122185 1.17275429 C-102.38985681 1.18198846 -94.7285091 1.18609143 -87.06713867 1.18530273 C-79.94506839 1.18470187 -72.82307382 1.19526033 -65.70102268 1.2110464 C-59.5682838 1.22415144 -53.43556958 1.22948542 -47.30281681 1.22884732 C-43.6478861 1.22859329 -39.99302281 1.23139236 -36.33810616 1.24202538 C-32.25993853 1.25356761 -28.1819393 1.24894144 -24.10375977 1.24291992 C-22.90503738 1.24853943 -21.706315 1.25415894 -20.4712677 1.25994873 C-15.20370102 1.2402194 -4.20557327 -2.10278664 0 0 Z " fill="#E3F9FA" transform="translate(197,231)"/>
<path d="M0 0 C0.66 0.33 1.32 0.66 2 1 C-2.29 5.29 -6.58 9.58 -11 14 C-11.66 13.67 -12.32 13.34 -13 13 C-11.58791833 11.39179588 -10.17013964 9.78859292 -8.75 8.1875 C-7.96109375 7.29417969 -7.1721875 6.40085937 -6.359375 5.48046875 C-4.34120555 3.35871775 -2.40083295 1.65745577 0 0 Z " fill="#18BCD0" transform="translate(28,13)"/>
<path d="M0 0 C1.8125 0.1875 1.8125 0.1875 4 1 C5.75 3.5625 5.75 3.5625 7 6 C6.01 6 5.02 6 4 6 C0 1.54285714 0 1.54285714 0 0 Z " fill="#12B7CD" transform="translate(105,62)"/>
<path d="M0 0 C-3.08559304 2.26881841 -4.42209376 3.05451946 -8.3125 2.6875 C-9.199375 2.460625 -10.08625 2.23375 -11 2 C-7.50078951 0.05599417 -3.80583038 -1.90291519 0 0 Z " fill="#D1F3F4" transform="translate(197,231)"/>
</svg>
