<?xml version="1.0" encoding="UTF-8"?>
<svg version="1.1" xmlns="http://www.w3.org/2000/svg" width="142" height="141">
<path d="M0 0 C4.23273493 3.05148014 8.31080481 6.3039348 12 10 C12 10.66 12 11.32 12 12 C13.32 12.66 14.64 13.32 16 14 C16 14.66 16 15.32 16 16 C17.485 16.495 17.485 16.495 19 17 C21.33203125 19.29296875 21.33203125 19.29296875 23.8125 22.1875 C25.05966797 23.60095703 25.05966797 23.60095703 26.33203125 25.04296875 C28 28 28 28 27.59765625 30.953125 C25.67460453 34.6205586 23.37572968 37.48964539 20.625 40.5625 C19.65830022 41.66748437 18.69214576 42.77294608 17.7265625 43.87890625 C17.2620166 44.40540771 16.7974707 44.93190918 16.31884766 45.47436523 C15.11214052 46.87027654 13.95917536 48.3121825 12.8125 49.7578125 C10.77624122 52.27680504 8.6369968 54.12634438 6 56 C5.34 56 4.68 56 4 56 C3.505 57.485 3.505 57.485 3 59 C0.83709472 60.62892866 -1.25265845 62.04674259 -3.5625 63.4375 C-4.22419189 63.83638428 -4.88588379 64.23526855 -5.56762695 64.64624023 C-13.5940062 69.23529879 -22.7174366 72 -32 72 C-32 82.89 -32 93.78 -32 105 C-15.28228978 101.65645796 -2.14223135 96.27672112 8.125 81.9375 C8.74375 80.968125 9.3625 79.99875 10 79 C4.555 78.01 4.555 78.01 -1 77 C-1 76.01 -1 75.02 -1 74 C0.29760742 72.71313477 0.29760742 72.71313477 2.10546875 71.44140625 C2.75966797 70.97283203 3.41386719 70.50425781 4.08789062 70.02148438 C4.78076172 69.54001953 5.47363281 69.05855469 6.1875 68.5625 C7.53582681 67.60641371 8.88349614 66.64939945 10.23046875 65.69140625 C10.87806152 65.23652832 11.5256543 64.78165039 12.19287109 64.31298828 C13.77987767 63.15993217 15.29740411 61.91249669 16.80078125 60.65234375 C19 59 19 59 22 59 C22 58.34 22 57.68 22 57 C24.3125 55.3125 24.3125 55.3125 27 54 C27.99 54.33 28.98 54.66 30 55 C30 67.87 30 80.74 30 94 C28.68 94 27.36 94 26 94 C26 93.34 26 92.68 26 92 C25.01 91.67 24.02 91.34 23 91 C22.34 90.34 21.68 89.68 21 89 C20.50371094 89.64066406 20.00742188 90.28132813 19.49609375 90.94140625 C17.36384982 93.65627471 15.19492131 96.3355768 13 99 C12.47277344 99.64066406 11.94554688 100.28132813 11.40234375 100.94140625 C3.63513054 109.50321927 -7.74779243 114.02909839 -18.23022461 118.34008789 C-22.6387205 120.2163756 -26.20840364 122.45351891 -30 125.4375 C-35.43409329 129.59012055 -35.43409329 129.59012055 -39.125 129.9375 C-43.71202893 128.82773494 -45.9748809 126.96292545 -49.51171875 123.9453125 C-54.96624163 119.68102303 -61.52242959 116.7737943 -68.0625 114.5625 C-75.34078798 112.00444063 -82.23644028 107.05739385 -88 102 C-88 101.34 -88 100.68 -88 100 C-89.485 99.505 -89.485 99.505 -91 99 C-92.82421875 96.71484375 -92.82421875 96.71484375 -94.6875 93.9375 C-95.31011719 93.01839844 -95.93273437 92.09929687 -96.57421875 91.15234375 C-97.04472656 90.44207031 -97.51523438 89.73179688 -98 89 C-98.7425 89.825 -99.485 90.65 -100.25 91.5 C-103 94 -103 94 -107 94 C-107 81.13 -107 68.26 -107 55 C-101.37506594 55 -101.37506594 55 -98.328125 57.37890625 C-97.66756104 57.88494385 -97.00699707 58.39098145 -96.32641602 58.91235352 C-95.64119873 59.45690186 -94.95598145 60.0014502 -94.25 60.5625 C-93.54351318 61.110271 -92.83702637 61.65804199 -92.10913086 62.22241211 C-90.70627876 63.31151704 -89.30700606 64.40525054 -87.91162109 65.50390625 C-86.28767816 66.77485418 -84.64031962 68.01579235 -82.98828125 69.25 C-82.18777344 69.848125 -81.38726562 70.44625 -80.5625 71.0625 C-79.88316406 71.56910156 -79.20382813 72.07570313 -78.50390625 72.59765625 C-77 74 -77 74 -76 77 C-81.94 77.99 -81.94 77.99 -88 79 C-75.87589955 95.16546726 -65.83100843 100.04224789 -46 105 C-45.67 94.11 -45.34 83.22 -45 72 C-48.3 71.67 -51.6 71.34 -55 71 C-72.48256678 67.04889742 -84.74684506 54.78398535 -96.5625 42.125 C-97.06322021 41.58987793 -97.56394043 41.05475586 -98.07983398 40.50341797 C-100.79693415 37.53058525 -103.29900857 34.66833028 -105 31 C-104.47375314 24.5773963 -98.38145498 19.17281427 -94 15 C-92.83232498 13.81349151 -91.66572024 12.62592908 -90.5 11.4375 C-83.04626092 4 -83.04626092 4 -80 4 C-80 3.34 -80 2.68 -80 2 C-77.18991655 -0.27668798 -74.08032426 -2.11190235 -71 -4 C-70.40058594 -4.37640625 -69.80117187 -4.7528125 -69.18359375 -5.140625 C-47.37589543 -17.43489788 -20.13064613 -13.38734834 0 0 Z M-76.9375 19.0625 C-77.48148438 19.55685547 -78.02546875 20.05121094 -78.5859375 20.56054688 C-81.99037455 23.76547202 -84.54529969 27.01924505 -87 31 C-82.97247349 36.87347616 -78.55987128 41.55435394 -73 46 C-72.30132812 46.56074219 -71.60265625 47.12148438 -70.8828125 47.69921875 C-69.10716046 49.18947029 -69.10716046 49.18947029 -67 49 C-67 49.66 -67 50.32 -67 51 C-60.23796622 54.69998075 -52.83708974 58 -45 58 C-44.64978867 54.60165298 -44.47419359 51.38554946 -45 48 C-47.72388597 45.71165977 -47.72388597 45.71165977 -51 44 C-54.85412141 39.03021186 -55.69942617 34.99509745 -55.44921875 28.72265625 C-54.51570341 23.06474152 -51.85415539 19.37983657 -47.3125 16 C-41.5312624 14.25472072 -36.25126057 14.08281977 -30.625 16.375 C-29.75875 16.91125 -28.8925 17.4475 -28 18 C-27.2575 18.2475 -26.515 18.495 -25.75 18.75 C-23.42848924 20.40822197 -22.94178144 22.22214859 -22.3203125 24.9453125 C-21.31346005 31.40390258 -21.5438737 36.48712036 -24.7109375 42.30859375 C-26 44 -26 44 -29.25 45.875 C-32.23942249 47.68146176 -32.23942249 47.68146176 -32.3828125 50.4609375 C-32.37570036 52.99997013 -32.26019693 55.47512612 -32 58 C-25.95835557 56.96672077 -20.52561877 55.76280939 -15 53 C-14.27554688 52.64679688 -13.55109375 52.29359375 -12.8046875 51.9296875 C-7.0095685 48.81783903 -2.4993769 44.86174544 2.125 40.25 C2.70588379 39.67072754 3.28676758 39.09145508 3.88525391 38.49462891 C6.96906862 35.74194383 6.96906862 35.74194383 8 32 C8.66 32 9.32 32 10 32 C4.65702617 19.96453834 -8.96192229 9.73864689 -21 5 C-21.72058594 4.70351563 -22.44117187 4.40703125 -23.18359375 4.1015625 C-43.52106711 -3.17851828 -61.97471023 5.46149222 -76.9375 19.0625 Z M-43 30 C-42.98617135 32.05714832 -42.98617135 32.05714832 -42 34 C-40.0162233 35.28436734 -40.0162233 35.28436734 -38 36 C-37.01 35.34 -36.02 34.68 -35 34 C-34.66656449 31.45792029 -34.66656449 31.45792029 -35 29 C-36.05310277 27.72996677 -36.05310277 27.72996677 -38.4375 27.8125 C-41.16734675 27.73160017 -41.16734675 27.73160017 -43 30 Z " fill="#F3A30A" transform="translate(108,12)"/>
</svg>
